%TF.GenerationSoftware,KiCad,Pcbnew,7.0.1*%
%TF.CreationDate,2023-05-28T11:45:34+02:00*%
%TF.ProjectId,SunSparkESP32,53756e53-7061-4726-9b45-535033322e6b,2.0*%
%TF.SameCoordinates,Original*%
%TF.FileFunction,Paste,Top*%
%TF.FilePolarity,Positive*%
%FSLAX46Y46*%
G04 Gerber Fmt 4.6, Leading zero omitted, Abs format (unit mm)*
G04 Created by KiCad (PCBNEW 7.0.1) date 2023-05-28 11:45:34*
%MOMM*%
%LPD*%
G01*
G04 APERTURE LIST*
G04 Aperture macros list*
%AMRoundRect*
0 Rectangle with rounded corners*
0 $1 Rounding radius*
0 $2 $3 $4 $5 $6 $7 $8 $9 X,Y pos of 4 corners*
0 Add a 4 corners polygon primitive as box body*
4,1,4,$2,$3,$4,$5,$6,$7,$8,$9,$2,$3,0*
0 Add four circle primitives for the rounded corners*
1,1,$1+$1,$2,$3*
1,1,$1+$1,$4,$5*
1,1,$1+$1,$6,$7*
1,1,$1+$1,$8,$9*
0 Add four rect primitives between the rounded corners*
20,1,$1+$1,$2,$3,$4,$5,0*
20,1,$1+$1,$4,$5,$6,$7,0*
20,1,$1+$1,$6,$7,$8,$9,0*
20,1,$1+$1,$8,$9,$2,$3,0*%
%AMFreePoly0*
4,1,11,1.015000,1.170000,0.435000,0.575000,0.435000,-0.575000,1.015000,-1.170000,1.015000,-1.945000,0.125000,-1.945000,-0.435000,-1.395000,-0.435000,1.395000,0.125000,1.945000,1.015000,1.945000,1.015000,1.170000,1.015000,1.170000,$1*%
%AMFreePoly1*
4,1,11,0.435000,1.395000,0.435000,-1.395000,-0.125000,-1.945000,-1.015000,-1.945000,-1.015000,-1.170000,-0.435000,-0.575000,-0.435000,0.575000,-1.015000,1.170000,-1.015000,1.945000,-0.125000,1.945000,0.435000,1.395000,0.435000,1.395000,$1*%
%AMFreePoly2*
4,1,6,0.600000,-0.600000,-0.600000,-0.600000,-0.600000,0.000000,0.000000,0.600000,0.600000,0.600000,0.600000,-0.600000,0.600000,-0.600000,$1*%
G04 Aperture macros list end*
%ADD10RoundRect,0.250000X-0.337500X-0.475000X0.337500X-0.475000X0.337500X0.475000X-0.337500X0.475000X0*%
%ADD11FreePoly0,0.000000*%
%ADD12FreePoly1,0.000000*%
%ADD13RoundRect,0.172500X-0.172500X-0.172500X0.172500X-0.172500X0.172500X0.172500X-0.172500X0.172500X0*%
%ADD14RoundRect,0.062500X-0.312500X-0.062500X0.312500X-0.062500X0.312500X0.062500X-0.312500X0.062500X0*%
%ADD15RoundRect,0.062500X-0.062500X-0.312500X0.062500X-0.312500X0.062500X0.312500X-0.062500X0.312500X0*%
%ADD16RoundRect,0.250000X0.350000X0.450000X-0.350000X0.450000X-0.350000X-0.450000X0.350000X-0.450000X0*%
%ADD17RoundRect,0.250000X0.337500X0.475000X-0.337500X0.475000X-0.337500X-0.475000X0.337500X-0.475000X0*%
%ADD18RoundRect,0.250000X0.450000X-0.350000X0.450000X0.350000X-0.450000X0.350000X-0.450000X-0.350000X0*%
%ADD19RoundRect,0.250000X1.450000X-0.250000X1.450000X0.250000X-1.450000X0.250000X-1.450000X-0.250000X0*%
%ADD20RoundRect,0.250000X-0.350000X-0.450000X0.350000X-0.450000X0.350000X0.450000X-0.350000X0.450000X0*%
%ADD21RoundRect,0.250000X1.250000X0.550000X-1.250000X0.550000X-1.250000X-0.550000X1.250000X-0.550000X0*%
%ADD22RoundRect,0.250000X-0.475000X0.337500X-0.475000X-0.337500X0.475000X-0.337500X0.475000X0.337500X0*%
%ADD23R,0.800000X0.400000*%
%ADD24R,0.400000X0.800000*%
%ADD25FreePoly2,0.000000*%
%ADD26R,1.200000X1.200000*%
%ADD27R,0.800000X0.800000*%
%ADD28R,1.000000X1.250000*%
%ADD29R,0.600000X1.150000*%
%ADD30R,0.300000X1.150000*%
%ADD31RoundRect,0.150000X0.150000X-0.587500X0.150000X0.587500X-0.150000X0.587500X-0.150000X-0.587500X0*%
%ADD32RoundRect,0.250000X0.650000X-0.325000X0.650000X0.325000X-0.650000X0.325000X-0.650000X-0.325000X0*%
%ADD33RoundRect,0.150000X-0.150000X0.587500X-0.150000X-0.587500X0.150000X-0.587500X0.150000X0.587500X0*%
%ADD34RoundRect,0.112500X-0.187500X-0.112500X0.187500X-0.112500X0.187500X0.112500X-0.187500X0.112500X0*%
%ADD35R,2.000000X1.500000*%
%ADD36R,2.000000X3.800000*%
%ADD37RoundRect,0.250000X0.475000X-0.337500X0.475000X0.337500X-0.475000X0.337500X-0.475000X-0.337500X0*%
G04 APERTURE END LIST*
D10*
%TO.C,C5*%
X66759000Y-84836000D03*
X68834000Y-84836000D03*
%TD*%
D11*
%TO.C,L1*%
X65558000Y-79502000D03*
D12*
X69088000Y-79502000D03*
%TD*%
D13*
%TO.C,U1*%
X67056000Y-73852000D03*
X67056000Y-74702000D03*
X67906000Y-73852000D03*
X67906000Y-74702000D03*
D14*
X65981000Y-73527000D03*
X65981000Y-74027000D03*
X65981000Y-74527000D03*
X65981000Y-75027000D03*
D15*
X66731000Y-75777000D03*
X67231000Y-75777000D03*
X67731000Y-75777000D03*
X68231000Y-75777000D03*
D14*
X68981000Y-75027000D03*
X68981000Y-74527000D03*
X68981000Y-74027000D03*
X68981000Y-73527000D03*
D15*
X68231000Y-72777000D03*
X67731000Y-72777000D03*
X67231000Y-72777000D03*
X66731000Y-72777000D03*
%TD*%
D16*
%TO.C,R18*%
X60420000Y-60198000D03*
X58420000Y-60198000D03*
%TD*%
D17*
%TO.C,C4*%
X88138000Y-87376000D03*
X86063000Y-87376000D03*
%TD*%
D18*
%TO.C,R6*%
X59182000Y-90138000D03*
X59182000Y-88138000D03*
%TD*%
D19*
%TO.C,R14*%
X78486000Y-81256000D03*
X78486000Y-79756000D03*
%TD*%
D20*
%TO.C,R12*%
X60484000Y-72898000D03*
X62484000Y-72898000D03*
%TD*%
%TO.C,R17*%
X58452000Y-57912000D03*
X60452000Y-57912000D03*
%TD*%
D21*
%TO.C,C6*%
X83226000Y-85090000D03*
X78826000Y-85090000D03*
%TD*%
D20*
%TO.C,R9*%
X64802000Y-70104000D03*
X66802000Y-70104000D03*
%TD*%
D22*
%TO.C,C8*%
X58928000Y-51054000D03*
X58928000Y-53129000D03*
%TD*%
D20*
%TO.C,R8*%
X60548000Y-70104000D03*
X62548000Y-70104000D03*
%TD*%
D23*
%TO.C,U3*%
X66660000Y-47136000D03*
X66660000Y-47986000D03*
X66660000Y-48836000D03*
X66660000Y-49686000D03*
X66660000Y-50536000D03*
X66660000Y-51386000D03*
X66660000Y-52236000D03*
X66660000Y-53086000D03*
X66660000Y-53936000D03*
X66660000Y-54786000D03*
X66660000Y-55636000D03*
X66660000Y-56486000D03*
X66660000Y-57336000D03*
X66660000Y-58186000D03*
X66660000Y-59036000D03*
D24*
X67710000Y-60086000D03*
X68560000Y-60086000D03*
X69410000Y-60086000D03*
X70260000Y-60086000D03*
X71110000Y-60086000D03*
X71960000Y-60086000D03*
X72810000Y-60086000D03*
X73660000Y-60086000D03*
X74510000Y-60086000D03*
X75360000Y-60086000D03*
X76210000Y-60086000D03*
X77060000Y-60086000D03*
X77910000Y-60086000D03*
X78760000Y-60086000D03*
X79610000Y-60086000D03*
D23*
X80660000Y-59036000D03*
X80660000Y-58186000D03*
X80660000Y-57336000D03*
X80660000Y-56486000D03*
X80660000Y-55636000D03*
X80660000Y-54786000D03*
X80660000Y-53936000D03*
X80660000Y-53086000D03*
X80660000Y-52236000D03*
X80660000Y-51386000D03*
X80660000Y-50536000D03*
X80660000Y-49686000D03*
X80660000Y-48836000D03*
X80660000Y-47986000D03*
X80660000Y-47136000D03*
D24*
X79610000Y-46086000D03*
X78760000Y-46086000D03*
X77910000Y-46086000D03*
X77060000Y-46086000D03*
X76210000Y-46086000D03*
X75360000Y-46086000D03*
X74510000Y-46086000D03*
X73660000Y-46086000D03*
X72810000Y-46086000D03*
X71960000Y-46086000D03*
X71110000Y-46086000D03*
X70260000Y-46086000D03*
X69410000Y-46086000D03*
X68560000Y-46086000D03*
X67710000Y-46086000D03*
D25*
X72010000Y-51436000D03*
D26*
X72010000Y-53086000D03*
X72010000Y-54736000D03*
X73660000Y-51436000D03*
X73660000Y-53086000D03*
X73660000Y-54736000D03*
X75310000Y-51436000D03*
X75310000Y-53086000D03*
X75310000Y-54736000D03*
D27*
X66660000Y-46086000D03*
X66660000Y-60086000D03*
X80660000Y-60086000D03*
X80660000Y-46086000D03*
%TD*%
D28*
%TO.C,SW2*%
X55372000Y-96331000D03*
X55372000Y-88581000D03*
%TD*%
D18*
%TO.C,R15*%
X84582000Y-43402000D03*
X84582000Y-41402000D03*
%TD*%
D29*
%TO.C,J2*%
X62840000Y-90300000D03*
X63640000Y-90300000D03*
D30*
X64790000Y-90300000D03*
X65790000Y-90300000D03*
X66290000Y-90300000D03*
X67290000Y-90300000D03*
D29*
X68440000Y-90300000D03*
X69240000Y-90300000D03*
X69240000Y-90300000D03*
X68440000Y-90300000D03*
D30*
X67790000Y-90300000D03*
X66790000Y-90300000D03*
X65290000Y-90300000D03*
X64290000Y-90300000D03*
D29*
X63640000Y-90300000D03*
X62840000Y-90300000D03*
%TD*%
D20*
%TO.C,R19*%
X58420000Y-62484000D03*
X60420000Y-62484000D03*
%TD*%
D28*
%TO.C,SW1*%
X76200000Y-96331000D03*
X76200000Y-88581000D03*
%TD*%
D18*
%TO.C,R5*%
X59182000Y-95472000D03*
X59182000Y-93472000D03*
%TD*%
%TO.C,R4*%
X72898000Y-95472000D03*
X72898000Y-93472000D03*
%TD*%
D31*
%TO.C,Q1*%
X76774000Y-66391000D03*
X78674000Y-66391000D03*
X77724000Y-64516000D03*
%TD*%
D32*
%TO.C,C9*%
X62992000Y-49022000D03*
X62992000Y-46072000D03*
%TD*%
D16*
%TO.C,R1*%
X62452000Y-84328000D03*
X60452000Y-84328000D03*
%TD*%
D10*
%TO.C,C2*%
X72347000Y-69596000D03*
X74422000Y-69596000D03*
%TD*%
D17*
%TO.C,C1*%
X62484000Y-79756000D03*
X60409000Y-79756000D03*
%TD*%
D20*
%TO.C,R11*%
X65310000Y-66548000D03*
X67310000Y-66548000D03*
%TD*%
%TO.C,R10*%
X61246000Y-66548000D03*
X63246000Y-66548000D03*
%TD*%
D32*
%TO.C,C10*%
X58928000Y-49022000D03*
X58928000Y-46072000D03*
%TD*%
D33*
%TO.C,Q2*%
X59436000Y-65943000D03*
X57536000Y-65943000D03*
X58486000Y-67818000D03*
%TD*%
D34*
%TO.C,D1*%
X82770000Y-81026000D03*
X84870000Y-81026000D03*
%TD*%
D18*
%TO.C,R7*%
X72898000Y-90138000D03*
X72898000Y-88138000D03*
%TD*%
D35*
%TO.C,U2*%
X80416000Y-89902000D03*
X80416000Y-92202000D03*
D36*
X86716000Y-92202000D03*
D35*
X80416000Y-94502000D03*
%TD*%
D37*
%TO.C,C11*%
X87122000Y-43477000D03*
X87122000Y-41402000D03*
%TD*%
D16*
%TO.C,R13*%
X62484000Y-75184000D03*
X60484000Y-75184000D03*
%TD*%
%TO.C,R3*%
X62484000Y-77470000D03*
X60484000Y-77470000D03*
%TD*%
D20*
%TO.C,R16*%
X57436000Y-55626000D03*
X59436000Y-55626000D03*
%TD*%
D16*
%TO.C,R2*%
X62452000Y-82042000D03*
X60452000Y-82042000D03*
%TD*%
D22*
%TO.C,C7*%
X62992000Y-51054000D03*
X62992000Y-53129000D03*
%TD*%
M02*
