%TF.GenerationSoftware,KiCad,Pcbnew,7.0.1*%
%TF.CreationDate,2023-07-15T13:48:21+02:00*%
%TF.ProjectId,SunSparkESP32,53756e53-7061-4726-9b45-535033322e6b,2.0*%
%TF.SameCoordinates,Original*%
%TF.FileFunction,Copper,L1,Top*%
%TF.FilePolarity,Positive*%
%FSLAX46Y46*%
G04 Gerber Fmt 4.6, Leading zero omitted, Abs format (unit mm)*
G04 Created by KiCad (PCBNEW 7.0.1) date 2023-07-15 13:48:21*
%MOMM*%
%LPD*%
G01*
G04 APERTURE LIST*
G04 Aperture macros list*
%AMRoundRect*
0 Rectangle with rounded corners*
0 $1 Rounding radius*
0 $2 $3 $4 $5 $6 $7 $8 $9 X,Y pos of 4 corners*
0 Add a 4 corners polygon primitive as box body*
4,1,4,$2,$3,$4,$5,$6,$7,$8,$9,$2,$3,0*
0 Add four circle primitives for the rounded corners*
1,1,$1+$1,$2,$3*
1,1,$1+$1,$4,$5*
1,1,$1+$1,$6,$7*
1,1,$1+$1,$8,$9*
0 Add four rect primitives between the rounded corners*
20,1,$1+$1,$2,$3,$4,$5,0*
20,1,$1+$1,$4,$5,$6,$7,0*
20,1,$1+$1,$6,$7,$8,$9,0*
20,1,$1+$1,$8,$9,$2,$3,0*%
%AMFreePoly0*
4,1,11,1.015000,1.170000,0.435000,0.575000,0.435000,-0.575000,1.015000,-1.170000,1.015000,-1.945000,0.125000,-1.945000,-0.435000,-1.395000,-0.435000,1.395000,0.125000,1.945000,1.015000,1.945000,1.015000,1.170000,1.015000,1.170000,$1*%
%AMFreePoly1*
4,1,11,0.435000,1.395000,0.435000,-1.395000,-0.125000,-1.945000,-1.015000,-1.945000,-1.015000,-1.170000,-0.435000,-0.575000,-0.435000,0.575000,-1.015000,1.170000,-1.015000,1.945000,-0.125000,1.945000,0.435000,1.395000,0.435000,1.395000,$1*%
%AMFreePoly2*
4,1,6,0.600000,-0.600000,-0.600000,-0.600000,-0.600000,0.000000,0.000000,0.600000,0.600000,0.600000,0.600000,-0.600000,0.600000,-0.600000,$1*%
%AMFreePoly3*
4,1,19,0.500000,-0.750000,0.000000,-0.750000,0.000000,-0.744911,-0.071157,-0.744911,-0.207708,-0.704816,-0.327430,-0.627875,-0.420627,-0.520320,-0.479746,-0.390866,-0.500000,-0.250000,-0.500000,0.250000,-0.479746,0.390866,-0.420627,0.520320,-0.327430,0.627875,-0.207708,0.704816,-0.071157,0.744911,0.000000,0.744911,0.000000,0.750000,0.500000,0.750000,0.500000,-0.750000,0.500000,-0.750000,
$1*%
%AMFreePoly4*
4,1,19,0.000000,0.744911,0.071157,0.744911,0.207708,0.704816,0.327430,0.627875,0.420627,0.520320,0.479746,0.390866,0.500000,0.250000,0.500000,-0.250000,0.479746,-0.390866,0.420627,-0.520320,0.327430,-0.627875,0.207708,-0.704816,0.071157,-0.744911,0.000000,-0.744911,0.000000,-0.750000,-0.500000,-0.750000,-0.500000,0.750000,0.000000,0.750000,0.000000,0.744911,0.000000,0.744911,
$1*%
G04 Aperture macros list end*
%TA.AperFunction,SMDPad,CuDef*%
%ADD10RoundRect,0.250000X-0.337500X-0.475000X0.337500X-0.475000X0.337500X0.475000X-0.337500X0.475000X0*%
%TD*%
%TA.AperFunction,SMDPad,CuDef*%
%ADD11FreePoly0,90.000000*%
%TD*%
%TA.AperFunction,SMDPad,CuDef*%
%ADD12FreePoly1,90.000000*%
%TD*%
%TA.AperFunction,SMDPad,CuDef*%
%ADD13RoundRect,0.062500X-0.312500X-0.062500X0.312500X-0.062500X0.312500X0.062500X-0.312500X0.062500X0*%
%TD*%
%TA.AperFunction,SMDPad,CuDef*%
%ADD14RoundRect,0.062500X-0.062500X-0.312500X0.062500X-0.312500X0.062500X0.312500X-0.062500X0.312500X0*%
%TD*%
%TA.AperFunction,SMDPad,CuDef*%
%ADD15R,1.700000X1.700000*%
%TD*%
%TA.AperFunction,SMDPad,CuDef*%
%ADD16RoundRect,0.250000X0.350000X0.450000X-0.350000X0.450000X-0.350000X-0.450000X0.350000X-0.450000X0*%
%TD*%
%TA.AperFunction,SMDPad,CuDef*%
%ADD17RoundRect,0.250000X0.337500X0.475000X-0.337500X0.475000X-0.337500X-0.475000X0.337500X-0.475000X0*%
%TD*%
%TA.AperFunction,SMDPad,CuDef*%
%ADD18RoundRect,0.250000X0.450000X-0.350000X0.450000X0.350000X-0.450000X0.350000X-0.450000X-0.350000X0*%
%TD*%
%TA.AperFunction,SMDPad,CuDef*%
%ADD19RoundRect,0.250000X-0.350000X-0.450000X0.350000X-0.450000X0.350000X0.450000X-0.350000X0.450000X0*%
%TD*%
%TA.AperFunction,SMDPad,CuDef*%
%ADD20RoundRect,0.250000X1.250000X0.550000X-1.250000X0.550000X-1.250000X-0.550000X1.250000X-0.550000X0*%
%TD*%
%TA.AperFunction,SMDPad,CuDef*%
%ADD21C,1.000000*%
%TD*%
%TA.AperFunction,SMDPad,CuDef*%
%ADD22RoundRect,0.250000X-0.475000X0.337500X-0.475000X-0.337500X0.475000X-0.337500X0.475000X0.337500X0*%
%TD*%
%TA.AperFunction,SMDPad,CuDef*%
%ADD23R,0.800000X0.400000*%
%TD*%
%TA.AperFunction,SMDPad,CuDef*%
%ADD24R,0.400000X0.800000*%
%TD*%
%TA.AperFunction,SMDPad,CuDef*%
%ADD25FreePoly2,0.000000*%
%TD*%
%TA.AperFunction,SMDPad,CuDef*%
%ADD26R,1.200000X1.200000*%
%TD*%
%TA.AperFunction,SMDPad,CuDef*%
%ADD27R,0.800000X0.800000*%
%TD*%
%TA.AperFunction,SMDPad,CuDef*%
%ADD28R,1.000000X1.250000*%
%TD*%
%TA.AperFunction,SMDPad,CuDef*%
%ADD29R,0.600000X1.150000*%
%TD*%
%TA.AperFunction,SMDPad,CuDef*%
%ADD30R,0.300000X1.150000*%
%TD*%
%TA.AperFunction,ComponentPad*%
%ADD31O,1.000000X2.100000*%
%TD*%
%TA.AperFunction,ComponentPad*%
%ADD32O,1.000000X1.800000*%
%TD*%
%TA.AperFunction,ComponentPad*%
%ADD33R,1.700000X1.700000*%
%TD*%
%TA.AperFunction,ComponentPad*%
%ADD34O,1.700000X1.700000*%
%TD*%
%TA.AperFunction,SMDPad,CuDef*%
%ADD35RoundRect,0.150000X0.150000X-0.587500X0.150000X0.587500X-0.150000X0.587500X-0.150000X-0.587500X0*%
%TD*%
%TA.AperFunction,SMDPad,CuDef*%
%ADD36RoundRect,0.250000X0.650000X-0.325000X0.650000X0.325000X-0.650000X0.325000X-0.650000X-0.325000X0*%
%TD*%
%TA.AperFunction,SMDPad,CuDef*%
%ADD37FreePoly3,90.000000*%
%TD*%
%TA.AperFunction,SMDPad,CuDef*%
%ADD38FreePoly4,90.000000*%
%TD*%
%TA.AperFunction,SMDPad,CuDef*%
%ADD39RoundRect,0.150000X-0.150000X0.587500X-0.150000X-0.587500X0.150000X-0.587500X0.150000X0.587500X0*%
%TD*%
%TA.AperFunction,SMDPad,CuDef*%
%ADD40R,2.000000X1.500000*%
%TD*%
%TA.AperFunction,SMDPad,CuDef*%
%ADD41R,2.000000X3.800000*%
%TD*%
%TA.AperFunction,SMDPad,CuDef*%
%ADD42RoundRect,0.250000X0.475000X-0.337500X0.475000X0.337500X-0.475000X0.337500X-0.475000X-0.337500X0*%
%TD*%
%TA.AperFunction,ComponentPad*%
%ADD43R,2.000000X2.000000*%
%TD*%
%TA.AperFunction,ComponentPad*%
%ADD44C,2.000000*%
%TD*%
%TA.AperFunction,ComponentPad*%
%ADD45C,1.500000*%
%TD*%
%TA.AperFunction,ViaPad*%
%ADD46C,0.800000*%
%TD*%
%TA.AperFunction,ViaPad*%
%ADD47C,0.600000*%
%TD*%
%TA.AperFunction,Conductor*%
%ADD48C,1.000000*%
%TD*%
%TA.AperFunction,Conductor*%
%ADD49C,0.250000*%
%TD*%
%TA.AperFunction,Conductor*%
%ADD50C,0.500000*%
%TD*%
%TA.AperFunction,Conductor*%
%ADD51C,0.200000*%
%TD*%
G04 APERTURE END LIST*
D10*
%TO.P,C5,1*%
%TO.N,Net-(J1-Pin_1)*%
X69299000Y-85598000D03*
%TO.P,C5,2*%
%TO.N,GND*%
X71374000Y-85598000D03*
%TD*%
D11*
%TO.P,L1,1,1*%
%TO.N,Net-(J1-Pin_1)*%
X67818000Y-82524000D03*
D12*
%TO.P,L1,2,2*%
%TO.N,Net-(U1-SW)*%
X67818000Y-78994000D03*
%TD*%
D13*
%TO.P,U1,1,SETSD*%
%TO.N,Net-(U1-SETSD)*%
X65981000Y-73527000D03*
%TO.P,U1,2,TERM*%
%TO.N,Net-(U1-TERM)*%
X65981000Y-74027000D03*
%TO.P,U1,3,AGND*%
%TO.N,GND*%
X65981000Y-74527000D03*
%TO.P,U1,4,MINOP*%
%TO.N,Net-(U1-MINOP)*%
X65981000Y-75027000D03*
D14*
%TO.P,U1,5,MPPT*%
%TO.N,Net-(U1-MPPT)*%
X66731000Y-75777000D03*
%TO.P,U1,6,CBP*%
%TO.N,Net-(U1-CBP)*%
X67231000Y-75777000D03*
%TO.P,U1,7,VIN*%
%TO.N,Net-(J1-Pin_1)*%
X67731000Y-75777000D03*
%TO.P,U1,8,PGND*%
%TO.N,GND*%
X68231000Y-75777000D03*
D13*
%TO.P,U1,9,SW*%
%TO.N,Net-(U1-SW)*%
X68981000Y-75027000D03*
%TO.P,U1,10,BAT*%
%TO.N,Net-(U1-BAT)*%
X68981000Y-74527000D03*
%TO.P,U1,11,SYS*%
%TO.N,Net-(JP1-A)*%
X68981000Y-74027000D03*
%TO.P,U1,12,BACKUP*%
%TO.N,BCKP*%
X68981000Y-73527000D03*
D14*
%TO.P,U1,13,PGOOD*%
%TO.N,PGOOD*%
X68231000Y-72777000D03*
%TO.P,U1,14,DIS_SW*%
%TO.N,GND*%
X67731000Y-72777000D03*
%TO.P,U1,15,REF*%
%TO.N,Net-(U1-REF)*%
X67231000Y-72777000D03*
%TO.P,U1,16,SETPG*%
%TO.N,Net-(U1-SETPG)*%
X66731000Y-72777000D03*
D15*
%TO.P,U1,17,AGND*%
%TO.N,GND*%
X67481000Y-74277000D03*
%TD*%
D16*
%TO.P,R18,1*%
%TO.N,AUX_SW_CTRL*%
X60420000Y-60198000D03*
%TO.P,R18,2*%
%TO.N,Net-(Q2-G)*%
X58420000Y-60198000D03*
%TD*%
D17*
%TO.P,C4,1*%
%TO.N,VBUS*%
X88138000Y-87376000D03*
%TO.P,C4,2*%
%TO.N,GND*%
X86063000Y-87376000D03*
%TD*%
D18*
%TO.P,R6,1*%
%TO.N,Net-(J2-D--PadA7)*%
X59182000Y-90138000D03*
%TO.P,R6,2*%
%TO.N,USB_DN*%
X59182000Y-88138000D03*
%TD*%
D19*
%TO.P,R12,1*%
%TO.N,Net-(U1-REF)*%
X60484000Y-72898000D03*
%TO.P,R12,2*%
%TO.N,Net-(U1-SETSD)*%
X62484000Y-72898000D03*
%TD*%
D20*
%TO.P,C6,1*%
%TO.N,BCKP*%
X83226000Y-85598000D03*
%TO.P,C6,2*%
%TO.N,GND*%
X78826000Y-85598000D03*
%TD*%
D21*
%TO.P,TP5,1,1*%
%TO.N,BCKP*%
X82042000Y-81026000D03*
%TD*%
%TO.P,TP3,1,1*%
%TO.N,Net-(JP1-A)*%
X73660000Y-65278000D03*
%TD*%
D19*
%TO.P,R9,1*%
%TO.N,Net-(U1-TERM)*%
X64802000Y-70104000D03*
%TO.P,R9,2*%
%TO.N,GND*%
X66802000Y-70104000D03*
%TD*%
D22*
%TO.P,C8,1*%
%TO.N,+BATT*%
X58928000Y-51054000D03*
%TO.P,C8,2*%
%TO.N,GND1*%
X58928000Y-53129000D03*
%TD*%
D19*
%TO.P,R8,1*%
%TO.N,Net-(U1-REF)*%
X60548000Y-70104000D03*
%TO.P,R8,2*%
%TO.N,Net-(U1-TERM)*%
X62548000Y-70104000D03*
%TD*%
D23*
%TO.P,U3,1,GND*%
%TO.N,GND1*%
X66660000Y-47136000D03*
%TO.P,U3,2,GND*%
X66660000Y-47986000D03*
%TO.P,U3,3,3V3*%
%TO.N,+BATT*%
X66660000Y-48836000D03*
%TO.P,U3,4,GPIO0/BOOT*%
%TO.N,boot_btn*%
X66660000Y-49686000D03*
%TO.P,U3,5,GPIO1/ADC1_CH0*%
%TO.N,ADC_BAT*%
X66660000Y-50536000D03*
%TO.P,U3,6,GPIO2/ADC1_CH1*%
%TO.N,/DIO0*%
X66660000Y-51386000D03*
%TO.P,U3,7,GPIO3/ADC1_CH2*%
%TO.N,/DIO4*%
X66660000Y-52236000D03*
%TO.P,U3,8,GPIO4/ADC1_CH3*%
%TO.N,/DIO5*%
X66660000Y-53086000D03*
%TO.P,U3,9,GPIO5/ADC1_CH4*%
%TO.N,/DIO3*%
X66660000Y-53936000D03*
%TO.P,U3,10,GPIO6/ADC1_CH5*%
%TO.N,/DIO1*%
X66660000Y-54786000D03*
%TO.P,U3,11,GPIO7/ADC1_CH6*%
%TO.N,/DIO2*%
X66660000Y-55636000D03*
%TO.P,U3,12,GPIO8/ADC1_CH7*%
%TO.N,Net-(J6-Pin_8)*%
X66660000Y-56486000D03*
%TO.P,U3,13,GPIO9/ADC1_CH8*%
%TO.N,AUX_SW_CTRL*%
X66660000Y-57336000D03*
%TO.P,U3,14,GPIO10/ADC1_CH9*%
%TO.N,CS0*%
X66660000Y-58186000D03*
%TO.P,U3,15,GPIO11/ADC2_CH0*%
%TO.N,MOSI*%
X66660000Y-59036000D03*
D24*
%TO.P,U3,16,GPIO12/ADC2_CH1*%
%TO.N,SCLK*%
X67710000Y-60086000D03*
%TO.P,U3,17,GPIO13/ADC2_CH2*%
%TO.N,MISO*%
X68560000Y-60086000D03*
%TO.P,U3,18,GPIO14/ADC2_CH3*%
%TO.N,Net-(J6-Pin_2)*%
X69410000Y-60086000D03*
%TO.P,U3,19,GPIO15/ADC2_CH4/XTAL_32K_P*%
%TO.N,Net-(J4-Pin_2)*%
X70260000Y-60086000D03*
%TO.P,U3,20,GPIO16/ADC2_CH5/XTAL_32K_N*%
%TO.N,Net-(J4-Pin_3)*%
X71110000Y-60086000D03*
%TO.P,U3,21,ADC2_CH7/DAC_2/GPIO17*%
%TO.N,R_DIV_SUPPLY*%
X71960000Y-60086000D03*
%TO.P,U3,22,ADC2_CH6/DAC_1/GPIO18*%
%TO.N,unconnected-(U3-ADC2_CH6{slash}DAC_1{slash}GPIO18-Pad22)*%
X72810000Y-60086000D03*
%TO.P,U3,23,USB_D-/ADC2_CH8/GPIO19*%
%TO.N,USB_DN*%
X73660000Y-60086000D03*
%TO.P,U3,24,USB_D+/ADC2_CH9/GPIO20*%
%TO.N,USB_DP*%
X74510000Y-60086000D03*
%TO.P,U3,25,GPIO21*%
%TO.N,/GPIO21*%
X75360000Y-60086000D03*
%TO.P,U3,26,SPI_CS1/GPIO26*%
%TO.N,unconnected-(U3-SPI_CS1{slash}GPIO26-Pad26)*%
X76210000Y-60086000D03*
%TO.P,U3,27,NC*%
%TO.N,unconnected-(U3-NC-Pad27)*%
X77060000Y-60086000D03*
%TO.P,U3,28,GPIO33*%
%TO.N,/GPIO33*%
X77910000Y-60086000D03*
%TO.P,U3,29,GPIO34*%
%TO.N,/GPIO34*%
X78760000Y-60086000D03*
%TO.P,U3,30,GND*%
%TO.N,GND1*%
X79610000Y-60086000D03*
D23*
%TO.P,U3,31,GPIO35*%
%TO.N,/GPIO35*%
X80660000Y-59036000D03*
%TO.P,U3,32,GPIO36*%
%TO.N,/GPIO36*%
X80660000Y-58186000D03*
%TO.P,U3,33,GPIO37*%
%TO.N,unconnected-(U3-GPIO37-Pad33)*%
X80660000Y-57336000D03*
%TO.P,U3,34,GPIO38*%
%TO.N,unconnected-(U3-GPIO38-Pad34)*%
X80660000Y-56486000D03*
%TO.P,U3,35,MTCK/JTAG/GPIO39*%
%TO.N,Net-(J4-Pin_4)*%
X80660000Y-55636000D03*
%TO.P,U3,36,MTDO/JTAG/GPIO40*%
%TO.N,Net-(J4-Pin_5)*%
X80660000Y-54786000D03*
%TO.P,U3,37,MTDI/JTAG/GPIO41*%
%TO.N,Net-(J4-Pin_6)*%
X80660000Y-53936000D03*
%TO.P,U3,38,MTMS/JTAG/GPIO42*%
%TO.N,Net-(J4-Pin_7)*%
X80660000Y-53086000D03*
%TO.P,U3,39,GPIO43/U0TXD/PROG*%
%TO.N,Net-(J5-Pin_3)*%
X80660000Y-52236000D03*
%TO.P,U3,40,GPIO44/U0RXD/PROG*%
%TO.N,Net-(J5-Pin_2)*%
X80660000Y-51386000D03*
%TO.P,U3,41,GPIO45*%
%TO.N,/GPIO45*%
X80660000Y-50536000D03*
%TO.P,U3,42,GND*%
%TO.N,GND1*%
X80660000Y-49686000D03*
%TO.P,U3,43,GND*%
X80660000Y-48836000D03*
%TO.P,U3,44,GPIO46*%
%TO.N,unconnected-(U3-GPIO46-Pad44)*%
X80660000Y-47986000D03*
%TO.P,U3,45,CHIP/PU/RESET*%
%TO.N,rst_btn*%
X80660000Y-47136000D03*
D24*
%TO.P,U3,46,GND*%
%TO.N,GND1*%
X79610000Y-46086000D03*
%TO.P,U3,47,GND*%
X78760000Y-46086000D03*
%TO.P,U3,48,GND*%
X77910000Y-46086000D03*
%TO.P,U3,49,GND*%
X77060000Y-46086000D03*
%TO.P,U3,50,GND*%
X76210000Y-46086000D03*
%TO.P,U3,51,GND*%
X75360000Y-46086000D03*
%TO.P,U3,52,GND*%
X74510000Y-46086000D03*
%TO.P,U3,53,GND*%
X73660000Y-46086000D03*
%TO.P,U3,54,GND*%
X72810000Y-46086000D03*
%TO.P,U3,55,GND*%
X71960000Y-46086000D03*
%TO.P,U3,56,GND*%
X71110000Y-46086000D03*
%TO.P,U3,57,GND*%
X70260000Y-46086000D03*
%TO.P,U3,58,GND*%
X69410000Y-46086000D03*
%TO.P,U3,59,GND*%
X68560000Y-46086000D03*
%TO.P,U3,60,GND*%
X67710000Y-46086000D03*
D25*
%TO.P,U3,61,GND*%
X72010000Y-51436000D03*
D26*
X72010000Y-53086000D03*
X72010000Y-54736000D03*
X73660000Y-51436000D03*
X73660000Y-53086000D03*
X73660000Y-54736000D03*
X75310000Y-51436000D03*
X75310000Y-53086000D03*
X75310000Y-54736000D03*
D27*
%TO.P,U3,62,GND*%
X66660000Y-46086000D03*
%TO.P,U3,63,GND*%
X66660000Y-60086000D03*
%TO.P,U3,64,GND*%
X80660000Y-60086000D03*
%TO.P,U3,65,GND*%
X80660000Y-46086000D03*
%TD*%
D28*
%TO.P,SW2,1,1*%
%TO.N,GND1*%
X55372000Y-96331000D03*
%TO.P,SW2,2,2*%
%TO.N,boot_btn*%
X55372000Y-88581000D03*
%TD*%
D18*
%TO.P,R15,1*%
%TO.N,+BATT*%
X84582000Y-43402000D03*
%TO.P,R15,2*%
%TO.N,rst_btn*%
X84582000Y-41402000D03*
%TD*%
D29*
%TO.P,J2,A1,GND*%
%TO.N,GND*%
X62840000Y-90300000D03*
%TO.P,J2,A4,VBUS*%
%TO.N,VBUS*%
X63640000Y-90300000D03*
D30*
%TO.P,J2,A5,CC1*%
%TO.N,Net-(J2-CC1)*%
X64790000Y-90300000D03*
%TO.P,J2,A6,D+*%
%TO.N,Net-(J2-D+-PadA6)*%
X65790000Y-90300000D03*
%TO.P,J2,A7,D-*%
%TO.N,Net-(J2-D--PadA7)*%
X66290000Y-90300000D03*
%TO.P,J2,A8,SBU1*%
%TO.N,unconnected-(J2-SBU1-PadA8)*%
X67290000Y-90300000D03*
D29*
%TO.P,J2,A9,VBUS*%
%TO.N,VBUS*%
X68440000Y-90300000D03*
%TO.P,J2,A12,GND*%
%TO.N,GND*%
X69240000Y-90300000D03*
%TO.P,J2,B1,GND*%
X69240000Y-90300000D03*
%TO.P,J2,B4,VBUS*%
%TO.N,VBUS*%
X68440000Y-90300000D03*
D30*
%TO.P,J2,B5,CC2*%
%TO.N,Net-(J2-CC2)*%
X67790000Y-90300000D03*
%TO.P,J2,B6,D+*%
%TO.N,Net-(J2-D+-PadA6)*%
X66790000Y-90300000D03*
%TO.P,J2,B7,D-*%
%TO.N,Net-(J2-D--PadA7)*%
X65290000Y-90300000D03*
%TO.P,J2,B8,SBU2*%
%TO.N,unconnected-(J2-SBU2-PadB8)*%
X64290000Y-90300000D03*
D29*
%TO.P,J2,B9,VBUS*%
%TO.N,VBUS*%
X63640000Y-90300000D03*
%TO.P,J2,B12,GND*%
%TO.N,GND*%
X62840000Y-90300000D03*
D31*
%TO.P,J2,S1,SHIELD*%
X61720000Y-90875000D03*
D32*
X61720000Y-95055000D03*
D31*
X70360000Y-90875000D03*
D32*
X70360000Y-95055000D03*
%TD*%
D33*
%TO.P,J5,1,Pin_1*%
%TO.N,GND1*%
X56911000Y-41885000D03*
D34*
%TO.P,J5,2,Pin_2*%
%TO.N,Net-(J5-Pin_2)*%
X59451000Y-41885000D03*
%TO.P,J5,3,Pin_3*%
%TO.N,Net-(J5-Pin_3)*%
X61991000Y-41885000D03*
%TD*%
D19*
%TO.P,R19,1*%
%TO.N,Net-(Q2-G)*%
X58420000Y-62484000D03*
%TO.P,R19,2*%
%TO.N,GND*%
X60420000Y-62484000D03*
%TD*%
D28*
%TO.P,SW1,1,1*%
%TO.N,GND1*%
X76200000Y-96331000D03*
%TO.P,SW1,2,2*%
%TO.N,rst_btn*%
X76200000Y-88581000D03*
%TD*%
D18*
%TO.P,R5,1*%
%TO.N,GND*%
X59182000Y-95472000D03*
%TO.P,R5,2*%
%TO.N,Net-(J2-CC1)*%
X59182000Y-93472000D03*
%TD*%
%TO.P,R4,1*%
%TO.N,GND*%
X72898000Y-95472000D03*
%TO.P,R4,2*%
%TO.N,Net-(J2-CC2)*%
X72898000Y-93472000D03*
%TD*%
D35*
%TO.P,Q1,1,G*%
%TO.N,PGOOD*%
X76774000Y-66391000D03*
%TO.P,Q1,2,S*%
%TO.N,GND*%
X78674000Y-66391000D03*
%TO.P,Q1,3,D*%
%TO.N,GND1*%
X77724000Y-64516000D03*
%TD*%
D36*
%TO.P,C9,1*%
%TO.N,+BATT*%
X62992000Y-49022000D03*
%TO.P,C9,2*%
%TO.N,GND1*%
X62992000Y-46072000D03*
%TD*%
D37*
%TO.P,JP1,1,A*%
%TO.N,Net-(JP1-A)*%
X71120000Y-67056000D03*
D38*
%TO.P,JP1,2,B*%
%TO.N,+BATT*%
X71120000Y-65756000D03*
%TD*%
D16*
%TO.P,R1,1*%
%TO.N,Net-(U1-MPPT)*%
X62452000Y-84328000D03*
%TO.P,R1,2*%
%TO.N,GND*%
X60452000Y-84328000D03*
%TD*%
D10*
%TO.P,C2,1*%
%TO.N,Net-(JP1-A)*%
X72347000Y-69596000D03*
%TO.P,C2,2*%
%TO.N,GND*%
X74422000Y-69596000D03*
%TD*%
D33*
%TO.P,J1,1,Pin_1*%
%TO.N,Net-(J1-Pin_1)*%
X72644000Y-80772000D03*
D34*
%TO.P,J1,2,Pin_2*%
%TO.N,GND*%
X75184000Y-80772000D03*
%TD*%
D17*
%TO.P,C1,1*%
%TO.N,Net-(U1-CBP)*%
X62484000Y-79756000D03*
%TO.P,C1,2*%
%TO.N,GND*%
X60409000Y-79756000D03*
%TD*%
D19*
%TO.P,R11,1*%
%TO.N,Net-(U1-SETPG)*%
X65310000Y-66548000D03*
%TO.P,R11,2*%
%TO.N,GND*%
X67310000Y-66548000D03*
%TD*%
%TO.P,R10,1*%
%TO.N,Net-(U1-REF)*%
X61246000Y-66548000D03*
%TO.P,R10,2*%
%TO.N,Net-(U1-SETPG)*%
X63246000Y-66548000D03*
%TD*%
D36*
%TO.P,C10,1*%
%TO.N,+BATT*%
X58928000Y-49022000D03*
%TO.P,C10,2*%
%TO.N,GND1*%
X58928000Y-46072000D03*
%TD*%
D39*
%TO.P,Q2,1,G*%
%TO.N,Net-(Q2-G)*%
X59436000Y-65943000D03*
%TO.P,Q2,2,S*%
%TO.N,AUX_SW*%
X57536000Y-65943000D03*
%TO.P,Q2,3,D*%
%TO.N,GND*%
X58486000Y-67818000D03*
%TD*%
D33*
%TO.P,J4,1,Pin_1*%
%TO.N,+BATT*%
X87630000Y-83820000D03*
D34*
%TO.P,J4,2,Pin_2*%
%TO.N,Net-(J4-Pin_2)*%
X87630000Y-81280000D03*
%TO.P,J4,3,Pin_3*%
%TO.N,Net-(J4-Pin_3)*%
X87630000Y-78740000D03*
%TO.P,J4,4,Pin_4*%
%TO.N,Net-(J4-Pin_4)*%
X87630000Y-76200000D03*
%TO.P,J4,5,Pin_5*%
%TO.N,Net-(J4-Pin_5)*%
X87630000Y-73660000D03*
%TO.P,J4,6,Pin_6*%
%TO.N,Net-(J4-Pin_6)*%
X87630000Y-71120000D03*
%TO.P,J4,7,Pin_7*%
%TO.N,Net-(J4-Pin_7)*%
X87630000Y-68580000D03*
%TO.P,J4,8,Pin_8*%
%TO.N,/GPIO21*%
X87630000Y-66040000D03*
%TO.P,J4,9,Pin_9*%
%TO.N,/GPIO33*%
X87630000Y-63500000D03*
%TO.P,J4,10,Pin_10*%
%TO.N,/GPIO34*%
X87630000Y-60960000D03*
%TO.P,J4,11,Pin_11*%
%TO.N,/GPIO35*%
X87630000Y-58420000D03*
%TO.P,J4,12,Pin_12*%
%TO.N,/GPIO36*%
X87630000Y-55880000D03*
%TO.P,J4,13,Pin_13*%
%TO.N,/GPIO45*%
X87630000Y-53340000D03*
%TO.P,J4,14,Pin_14*%
%TO.N,rst_btn*%
X87630000Y-50800000D03*
%TO.P,J4,15,Pin_15*%
%TO.N,GND1*%
X87630000Y-48260000D03*
%TD*%
D18*
%TO.P,R7,1*%
%TO.N,Net-(J2-D+-PadA6)*%
X72898000Y-90138000D03*
%TO.P,R7,2*%
%TO.N,USB_DP*%
X72898000Y-88138000D03*
%TD*%
D40*
%TO.P,U2,1,GND*%
%TO.N,GND*%
X80416000Y-89902000D03*
%TO.P,U2,2,VO*%
%TO.N,BCKP*%
X80416000Y-92202000D03*
D41*
X86716000Y-92202000D03*
D40*
%TO.P,U2,3,VI*%
%TO.N,VBUS*%
X80416000Y-94502000D03*
%TD*%
D42*
%TO.P,C11,1*%
%TO.N,rst_btn*%
X87122000Y-43477000D03*
%TO.P,C11,2*%
%TO.N,GND1*%
X87122000Y-41402000D03*
%TD*%
D16*
%TO.P,R13,1*%
%TO.N,Net-(U1-SETSD)*%
X62484000Y-75184000D03*
%TO.P,R13,2*%
%TO.N,GND*%
X60484000Y-75184000D03*
%TD*%
%TO.P,R3,1*%
%TO.N,Net-(U1-MINOP)*%
X62484000Y-77470000D03*
%TO.P,R3,2*%
%TO.N,GND*%
X60484000Y-77470000D03*
%TD*%
D21*
%TO.P,TP4,1,1*%
%TO.N,PGOOD*%
X81280000Y-66548000D03*
%TD*%
D16*
%TO.P,R14,1*%
%TO.N,ADC_BAT*%
X60452000Y-55372000D03*
%TO.P,R14,2*%
%TO.N,GND1*%
X58452000Y-55372000D03*
%TD*%
D43*
%TO.P,C3,1*%
%TO.N,Net-(U1-BAT)*%
X80010000Y-75866000D03*
D44*
%TO.P,C3,2*%
%TO.N,GND*%
X80010000Y-70866000D03*
%TD*%
D21*
%TO.P,TP2,1,1*%
%TO.N,Net-(U1-BAT)*%
X84836000Y-77724000D03*
%TD*%
D16*
%TO.P,R2,1*%
%TO.N,Net-(J1-Pin_1)*%
X62452000Y-82042000D03*
%TO.P,R2,2*%
%TO.N,Net-(U1-MPPT)*%
X60452000Y-82042000D03*
%TD*%
D33*
%TO.P,J6,1,Pin_1*%
%TO.N,GND1*%
X54610000Y-83820000D03*
D34*
%TO.P,J6,2,Pin_2*%
%TO.N,Net-(J6-Pin_2)*%
X54610000Y-81280000D03*
%TO.P,J6,3,Pin_3*%
%TO.N,MISO*%
X54610000Y-78740000D03*
%TO.P,J6,4,Pin_4*%
%TO.N,SCLK*%
X54610000Y-76200000D03*
%TO.P,J6,5,Pin_5*%
%TO.N,MOSI*%
X54610000Y-73660000D03*
%TO.P,J6,6,Pin_6*%
%TO.N,CS0*%
X54610000Y-71120000D03*
%TO.P,J6,7,Pin_7*%
%TO.N,AUX_SW*%
X54610000Y-68580000D03*
%TO.P,J6,8,Pin_8*%
%TO.N,Net-(J6-Pin_8)*%
X54610000Y-66040000D03*
%TO.P,J6,9,Pin_9*%
%TO.N,/DIO2*%
X54610000Y-63500000D03*
%TO.P,J6,10,Pin_10*%
%TO.N,/DIO1*%
X54610000Y-60960000D03*
%TO.P,J6,11,Pin_11*%
%TO.N,/DIO3*%
X54610000Y-58420000D03*
%TO.P,J6,12,Pin_12*%
%TO.N,/DIO5*%
X54610000Y-55880000D03*
%TO.P,J6,13,Pin_13*%
%TO.N,/DIO4*%
X54610000Y-53340000D03*
%TO.P,J6,14,Pin_14*%
%TO.N,/DIO0*%
X54610000Y-50800000D03*
%TO.P,J6,15,Pin_15*%
%TO.N,+BATT*%
X54610000Y-48260000D03*
%TD*%
D16*
%TO.P,R16,1*%
%TO.N,R_DIV_SUPPLY*%
X60452000Y-57658000D03*
%TO.P,R16,2*%
%TO.N,ADC_BAT*%
X58452000Y-57658000D03*
%TD*%
D22*
%TO.P,C7,1*%
%TO.N,+BATT*%
X62992000Y-51054000D03*
%TO.P,C7,2*%
%TO.N,GND1*%
X62992000Y-53129000D03*
%TD*%
D21*
%TO.P,TP1,1,1*%
%TO.N,Net-(J1-Pin_1)*%
X66548000Y-86360000D03*
%TD*%
D45*
%TO.P,J7,1,Pin_1*%
%TO.N,Net-(J7-Pin_1)*%
X62230000Y-64008000D03*
%TD*%
D46*
%TO.N,GND*%
X57658000Y-69088000D03*
X84836000Y-87376000D03*
D47*
X68580000Y-76708000D03*
D46*
X59182000Y-77470000D03*
D47*
X64770000Y-74930000D03*
X67647500Y-70949500D03*
%TO.N,Net-(U1-CBP)*%
X63754000Y-79756000D03*
X66802000Y-76708000D03*
%TO.N,rst_btn*%
X76200000Y-87122000D03*
X82296000Y-47136000D03*
X85852000Y-43942000D03*
X77978000Y-57404000D03*
D46*
%TO.N,+BATT*%
X77216000Y-58674000D03*
X60960000Y-44704000D03*
X76708000Y-61468000D03*
X82296000Y-51308000D03*
X79248000Y-53848000D03*
D47*
%TO.N,Net-(J4-Pin_3)*%
X69596000Y-59186498D03*
%TO.N,Net-(J6-Pin_2)*%
X69410000Y-61468000D03*
%TO.N,Net-(J6-Pin_8)*%
X65278000Y-56642000D03*
%TO.N,/DIO4*%
X68072000Y-52361503D03*
%TO.N,/DIO0*%
X68072000Y-51562000D03*
%TO.N,/DIO5*%
X69000000Y-56000000D03*
X68072000Y-53161006D03*
%TO.N,Net-(J4-Pin_4)*%
X82042000Y-55626000D03*
%TO.N,Net-(J4-Pin_5)*%
X82042000Y-54786000D03*
%TO.N,Net-(J4-Pin_6)*%
X82042000Y-53885503D03*
%TO.N,Net-(J4-Pin_2)*%
X70209503Y-61468000D03*
%TO.N,/GPIO21*%
X75438000Y-61468000D03*
%TO.N,/GPIO33*%
X77724000Y-61468000D03*
%TO.N,/GPIO34*%
X78760000Y-61448000D03*
%TO.N,/GPIO35*%
X79502000Y-58965503D03*
%TO.N,/GPIO36*%
X79502000Y-58166000D03*
%TO.N,Net-(J5-Pin_3)*%
X79489416Y-52180354D03*
%TO.N,PGOOD*%
X67934500Y-68580000D03*
X74168000Y-66548000D03*
%TO.N,Net-(J5-Pin_2)*%
X79502080Y-51380952D03*
%TO.N,Net-(U1-MPPT)*%
X61468000Y-83312000D03*
X65278000Y-76708000D03*
%TO.N,Net-(U1-REF)*%
X66802000Y-71374000D03*
X60578647Y-71500647D03*
%TO.N,Net-(U1-TERM)*%
X65024000Y-72273500D03*
X64999576Y-73935723D03*
D46*
%TO.N,USB_DN*%
X59182000Y-86868000D03*
D47*
X74676000Y-58674000D03*
%TO.N,USB_DP*%
X75692000Y-58674000D03*
D46*
X71628000Y-87630000D03*
D47*
%TO.N,ADC_BAT*%
X61722000Y-55626000D03*
X68084802Y-50743360D03*
%TO.N,boot_btn*%
X68072000Y-49784000D03*
X55372000Y-87376000D03*
%TO.N,Net-(U1-SETPG)*%
X65278000Y-67818000D03*
X66040000Y-71998500D03*
%TO.N,Net-(J2-CC1)*%
X64794381Y-89045049D03*
X60452000Y-93472000D03*
%TO.N,Net-(J2-CC2)*%
X67818000Y-88900000D03*
X71628000Y-93472000D03*
%TO.N,/DIO1*%
X55118000Y-49530000D03*
X68072000Y-54901503D03*
D46*
%TO.N,GND1*%
X79248000Y-47244000D03*
X65532000Y-61214000D03*
X60960000Y-52324000D03*
X76962000Y-64262000D03*
X78486000Y-64262000D03*
D47*
X82042000Y-49276000D03*
D46*
X79248000Y-64262000D03*
X76200000Y-64262000D03*
X76708000Y-53086000D03*
X62992000Y-44704000D03*
X80660000Y-61468000D03*
X68072000Y-47244000D03*
D47*
%TO.N,AUX_SW_CTRL*%
X68072000Y-57441503D03*
X61722000Y-60198000D03*
%TO.N,Net-(J4-Pin_7)*%
X82042000Y-53086000D03*
%TO.N,MISO*%
X68560000Y-61468000D03*
X70612000Y-49783500D03*
%TO.N,SCLK*%
X70374000Y-53356000D03*
X67710000Y-61443178D03*
%TO.N,MOSI*%
X70612000Y-51356000D03*
X68072000Y-59040509D03*
%TO.N,CS0*%
X74422000Y-56134000D03*
X68072000Y-58241006D03*
D46*
%TO.N,BCKP*%
X81788000Y-83820000D03*
X69342000Y-71628000D03*
D47*
%TO.N,/GPIO45*%
X82042000Y-50292000D03*
%TO.N,/DIO3*%
X68072000Y-53960509D03*
%TO.N,/DIO2*%
X56642000Y-45720000D03*
X65278000Y-55626000D03*
%TO.N,R_DIV_SUPPLY*%
X70221000Y-58561998D03*
X62362822Y-57658000D03*
%TD*%
D48*
%TO.N,GND*%
X59182000Y-95472000D02*
X61303000Y-95472000D01*
X74422000Y-69596000D02*
X78608000Y-69596000D01*
D49*
X69785000Y-90300000D02*
X70360000Y-90875000D01*
X67310000Y-69596000D02*
X66802000Y-70104000D01*
X65981000Y-74527000D02*
X65969000Y-74539000D01*
X62295000Y-90300000D02*
X61720000Y-90875000D01*
X60061000Y-62843000D02*
X60061000Y-66939000D01*
D50*
X59402000Y-83278000D02*
X60452000Y-84328000D01*
D49*
X67731000Y-71033000D02*
X67731000Y-72777000D01*
X60061000Y-66939000D02*
X59182000Y-67818000D01*
D48*
X58486000Y-68260000D02*
X57658000Y-69088000D01*
X61303000Y-95472000D02*
X61720000Y-95055000D01*
X75184000Y-81956000D02*
X78826000Y-85598000D01*
D49*
X67647500Y-70949500D02*
X67731000Y-71033000D01*
X68231000Y-75027000D02*
X67481000Y-74277000D01*
X67731000Y-74027000D02*
X67481000Y-74277000D01*
D48*
X72898000Y-95472000D02*
X70777000Y-95472000D01*
D49*
X67647500Y-70949500D02*
X66802000Y-70104000D01*
X68231000Y-75777000D02*
X68231000Y-76359000D01*
D48*
X75184000Y-81788000D02*
X75184000Y-80772000D01*
X78674000Y-66391000D02*
X78674000Y-69530000D01*
D49*
X68231000Y-76359000D02*
X68580000Y-76708000D01*
D50*
X60409000Y-79756000D02*
X59402000Y-80763000D01*
X60484000Y-79681000D02*
X60409000Y-79756000D01*
D48*
X78826000Y-88312000D02*
X80416000Y-89902000D01*
D49*
X65969000Y-74539000D02*
X65161000Y-74539000D01*
X67231000Y-74527000D02*
X67481000Y-74277000D01*
D48*
X70777000Y-95472000D02*
X70360000Y-95055000D01*
X75184000Y-80772000D02*
X75184000Y-81956000D01*
X71374000Y-85598000D02*
X75184000Y-81788000D01*
D49*
X69240000Y-90300000D02*
X69785000Y-90300000D01*
D50*
X60484000Y-77470000D02*
X59182000Y-77470000D01*
D49*
X59182000Y-67818000D02*
X58486000Y-67818000D01*
D50*
X59402000Y-80763000D02*
X59402000Y-83278000D01*
D48*
X78674000Y-69530000D02*
X80010000Y-70866000D01*
X86063000Y-87376000D02*
X84836000Y-87376000D01*
D49*
X67310000Y-66548000D02*
X67310000Y-69596000D01*
X65161000Y-74539000D02*
X64770000Y-74930000D01*
D50*
X60484000Y-75184000D02*
X60484000Y-79681000D01*
D49*
X60420000Y-62484000D02*
X60061000Y-62843000D01*
D48*
X78826000Y-85598000D02*
X78826000Y-88312000D01*
D49*
X65981000Y-74527000D02*
X67231000Y-74527000D01*
X68231000Y-75777000D02*
X68231000Y-75027000D01*
X62840000Y-90300000D02*
X62295000Y-90300000D01*
D48*
X58486000Y-67818000D02*
X58486000Y-68260000D01*
X78608000Y-69596000D02*
X78674000Y-69530000D01*
D49*
X67731000Y-72777000D02*
X67731000Y-74027000D01*
%TO.N,Net-(U1-CBP)*%
X67231000Y-76279000D02*
X66802000Y-76708000D01*
X67231000Y-75777000D02*
X67231000Y-76279000D01*
X63754000Y-79756000D02*
X62484000Y-79756000D01*
%TO.N,rst_btn*%
X85895000Y-43477000D02*
X85852000Y-43434000D01*
X85852000Y-42672000D02*
X85852000Y-43434000D01*
X85852000Y-43434000D02*
X85852000Y-43942000D01*
X87122000Y-43477000D02*
X85895000Y-43477000D01*
X82296000Y-47136000D02*
X80660000Y-47136000D01*
X84582000Y-41402000D02*
X85852000Y-42672000D01*
X76200000Y-88581000D02*
X76200000Y-87122000D01*
%TO.N,VBUS*%
X64966949Y-92202000D02*
X67113051Y-92202000D01*
D48*
X76071503Y-94502000D02*
X73009503Y-91440000D01*
D49*
X63640000Y-90300000D02*
X63640000Y-90875051D01*
D48*
X88138000Y-87376000D02*
X88138000Y-87884000D01*
X73009503Y-91440000D02*
X72042056Y-91440000D01*
X70857056Y-92625000D02*
X67536051Y-92625000D01*
D49*
X68440000Y-90875051D02*
X68440000Y-90300000D01*
D48*
X80716000Y-94802000D02*
X80416000Y-94502000D01*
X88416000Y-88162000D02*
X88416000Y-94802000D01*
X88138000Y-87884000D02*
X88416000Y-88162000D01*
D49*
X63640000Y-90875051D02*
X64966949Y-92202000D01*
D48*
X80416000Y-94502000D02*
X76071503Y-94502000D01*
D49*
X67425051Y-91890000D02*
X68440000Y-90875051D01*
D48*
X67536051Y-92625000D02*
X67113051Y-92202000D01*
D49*
X67113051Y-92202000D02*
X67425051Y-91890000D01*
D48*
X72042056Y-91440000D02*
X70857056Y-92625000D01*
X88416000Y-94802000D02*
X80716000Y-94802000D01*
D49*
%TO.N,Net-(J4-Pin_3)*%
X69596000Y-59186498D02*
X70870498Y-59186498D01*
X70870498Y-59186498D02*
X71110000Y-59426000D01*
X71110000Y-59426000D02*
X71110000Y-60086000D01*
%TO.N,Net-(J6-Pin_2)*%
X69410000Y-61468000D02*
X69410000Y-60086000D01*
%TO.N,Net-(J6-Pin_8)*%
X65278000Y-56642000D02*
X66504000Y-56642000D01*
X66504000Y-56642000D02*
X66660000Y-56486000D01*
%TO.N,/DIO4*%
X67946497Y-52236000D02*
X66660000Y-52236000D01*
X68072000Y-52361503D02*
X67946497Y-52236000D01*
%TO.N,/DIO0*%
X68072000Y-51562000D02*
X67896000Y-51386000D01*
X67896000Y-51386000D02*
X66660000Y-51386000D01*
%TO.N,/DIO5*%
X67996994Y-53086000D02*
X66660000Y-53086000D01*
X68072000Y-53161006D02*
X67996994Y-53086000D01*
%TO.N,Net-(J4-Pin_4)*%
X82042000Y-55626000D02*
X82032000Y-55636000D01*
X82032000Y-55636000D02*
X80660000Y-55636000D01*
%TO.N,Net-(J4-Pin_5)*%
X82042000Y-54786000D02*
X80660000Y-54786000D01*
%TO.N,Net-(J4-Pin_6)*%
X81991503Y-53936000D02*
X82042000Y-53885503D01*
X80660000Y-53936000D02*
X81991503Y-53936000D01*
D48*
%TO.N,AUX_SW*%
X57536000Y-65943000D02*
X57247000Y-65943000D01*
X57247000Y-65943000D02*
X54610000Y-68580000D01*
D49*
%TO.N,Net-(J4-Pin_2)*%
X70260000Y-61417503D02*
X70260000Y-60086000D01*
X70209503Y-61468000D02*
X70260000Y-61417503D01*
%TO.N,/GPIO21*%
X75360000Y-61390000D02*
X75438000Y-61468000D01*
X75360000Y-60086000D02*
X75360000Y-61390000D01*
%TO.N,/GPIO33*%
X77910000Y-60086000D02*
X77910000Y-61282000D01*
X77910000Y-61282000D02*
X77724000Y-61468000D01*
%TO.N,/GPIO34*%
X78760000Y-61448000D02*
X78760000Y-60086000D01*
%TO.N,/GPIO35*%
X79572497Y-59036000D02*
X80660000Y-59036000D01*
X79502000Y-58965503D02*
X79572497Y-59036000D01*
%TO.N,/GPIO36*%
X79522000Y-58186000D02*
X79502000Y-58166000D01*
X80660000Y-58186000D02*
X79522000Y-58186000D01*
%TO.N,Net-(J5-Pin_3)*%
X80660000Y-52236000D02*
X79545062Y-52236000D01*
X79545062Y-52236000D02*
X79489416Y-52180354D01*
%TO.N,PGOOD*%
X68356000Y-69753173D02*
X68356000Y-71291884D01*
X67934500Y-69331673D02*
X68356000Y-69753173D01*
X81280000Y-66548000D02*
X80060500Y-65328500D01*
X77264749Y-66391000D02*
X76774000Y-66391000D01*
X80060500Y-65328500D02*
X78327249Y-65328500D01*
X74325000Y-66391000D02*
X76774000Y-66391000D01*
X68181000Y-72727000D02*
X68231000Y-72777000D01*
X74168000Y-66548000D02*
X74325000Y-66391000D01*
X78327249Y-65328500D02*
X77264749Y-66391000D01*
X68356000Y-71291884D02*
X68181000Y-71466884D01*
X68181000Y-71466884D02*
X68181000Y-72727000D01*
X67934500Y-68580000D02*
X67934500Y-69331673D01*
%TO.N,Net-(J5-Pin_2)*%
X79507128Y-51386000D02*
X79502080Y-51380952D01*
X80660000Y-51386000D02*
X79507128Y-51386000D01*
D48*
%TO.N,Net-(U1-SW)*%
X67818000Y-78994000D02*
X69580000Y-77232000D01*
D49*
X69596000Y-75692000D02*
X69596000Y-75642000D01*
D48*
X69580000Y-77232000D02*
X69580000Y-75962000D01*
D49*
X69596000Y-75642000D02*
X68981000Y-75027000D01*
%TO.N,Net-(U1-MPPT)*%
X60452000Y-82328000D02*
X62452000Y-84328000D01*
X65278000Y-76708000D02*
X66209000Y-75777000D01*
X66209000Y-75777000D02*
X66731000Y-75777000D01*
X60452000Y-82042000D02*
X60452000Y-82328000D01*
%TO.N,Net-(U1-MINOP)*%
X63246000Y-77470000D02*
X62484000Y-77470000D01*
X65689000Y-75027000D02*
X63246000Y-77470000D01*
X65981000Y-75027000D02*
X65689000Y-75027000D01*
%TO.N,Net-(U1-REF)*%
X60484000Y-72898000D02*
X60484000Y-70168000D01*
X61246000Y-66548000D02*
X61246000Y-69406000D01*
X61246000Y-69406000D02*
X60548000Y-70104000D01*
X66802000Y-71374000D02*
X67231000Y-71803000D01*
X60484000Y-70168000D02*
X60548000Y-70104000D01*
X67231000Y-71803000D02*
X67231000Y-72777000D01*
%TO.N,Net-(U1-TERM)*%
X64999576Y-73935723D02*
X65090853Y-74027000D01*
X65024000Y-72273500D02*
X65024000Y-70326000D01*
X64802000Y-70104000D02*
X62548000Y-70104000D01*
X65090853Y-74027000D02*
X65981000Y-74027000D01*
X65024000Y-70326000D02*
X64802000Y-70104000D01*
D51*
%TO.N,USB_DN*%
X59182000Y-88138000D02*
X59182000Y-86868000D01*
X73660000Y-59690000D02*
X73660000Y-60086000D01*
X74676000Y-58674000D02*
X73660000Y-59690000D01*
%TO.N,USB_DP*%
X72898000Y-88138000D02*
X72390000Y-87630000D01*
X72390000Y-87630000D02*
X71628000Y-87630000D01*
X75692000Y-58674000D02*
X74510000Y-59856000D01*
X74510000Y-59856000D02*
X74510000Y-60086000D01*
D49*
%TO.N,ADC_BAT*%
X60706000Y-55626000D02*
X60452000Y-55372000D01*
X61722000Y-55626000D02*
X60706000Y-55626000D01*
X68084802Y-50743360D02*
X67877442Y-50536000D01*
X60452000Y-55372000D02*
X58452000Y-57372000D01*
X58452000Y-57372000D02*
X58452000Y-57658000D01*
X67877442Y-50536000D02*
X66660000Y-50536000D01*
%TO.N,boot_btn*%
X68072000Y-49784000D02*
X67974000Y-49686000D01*
X67974000Y-49686000D02*
X66660000Y-49686000D01*
X55372000Y-88581000D02*
X55372000Y-87376000D01*
%TO.N,Net-(U1-SETPG)*%
X65278000Y-67818000D02*
X65310000Y-67786000D01*
X65310000Y-66548000D02*
X63246000Y-66548000D01*
X65310000Y-67786000D02*
X65310000Y-66548000D01*
X66410500Y-71998500D02*
X66731000Y-72319000D01*
X66040000Y-71998500D02*
X66410500Y-71998500D01*
X66731000Y-72319000D02*
X66731000Y-72777000D01*
%TO.N,Net-(U1-SETSD)*%
X65653000Y-73527000D02*
X65024000Y-72898000D01*
X65024000Y-72898000D02*
X62484000Y-72898000D01*
X62484000Y-75184000D02*
X62484000Y-72898000D01*
X65981000Y-73527000D02*
X65653000Y-73527000D01*
%TO.N,Net-(JP1-A)*%
X69483000Y-74027000D02*
X70358000Y-73152000D01*
X68981000Y-74027000D02*
X69483000Y-74027000D01*
X71120000Y-67056000D02*
X71882000Y-67056000D01*
X71882000Y-67056000D02*
X73660000Y-65278000D01*
D48*
X71120000Y-67056000D02*
X71120000Y-68369000D01*
X72347000Y-69596000D02*
X72347000Y-71163000D01*
X71120000Y-68369000D02*
X72347000Y-69596000D01*
X72347000Y-71163000D02*
X70358000Y-73152000D01*
D49*
%TO.N,Net-(J2-CC1)*%
X64790000Y-89049430D02*
X64790000Y-90300000D01*
X60452000Y-93472000D02*
X59182000Y-93472000D01*
X64794381Y-89045049D02*
X64790000Y-89049430D01*
%TO.N,Net-(J2-D+-PadA6)*%
X67559116Y-88275000D02*
X66790000Y-89044116D01*
X66055000Y-91440000D02*
X66525000Y-91440000D01*
X66525000Y-91440000D02*
X66790000Y-91175000D01*
X71035000Y-88275000D02*
X67559116Y-88275000D01*
X65790000Y-91175000D02*
X66055000Y-91440000D01*
X66790000Y-89044116D02*
X66790000Y-90300000D01*
X65790000Y-90300000D02*
X65790000Y-91175000D01*
X72898000Y-90138000D02*
X71035000Y-88275000D01*
X66790000Y-91175000D02*
X66790000Y-90300000D01*
%TO.N,Net-(J2-D--PadA7)*%
X65561000Y-89154000D02*
X65786000Y-89154000D01*
X65786000Y-88921000D02*
X65786000Y-89154000D01*
X65290000Y-89425000D02*
X65561000Y-89154000D01*
X61045000Y-88275000D02*
X65140000Y-88275000D01*
X66290000Y-89425000D02*
X66290000Y-90300000D01*
X65786000Y-89154000D02*
X66019000Y-89154000D01*
X65290000Y-90300000D02*
X65290000Y-89425000D01*
X66019000Y-89154000D02*
X66290000Y-89425000D01*
X65140000Y-88275000D02*
X65786000Y-88921000D01*
X59182000Y-90138000D02*
X61045000Y-88275000D01*
%TO.N,Net-(J2-CC2)*%
X71628000Y-93472000D02*
X72898000Y-93472000D01*
X67818000Y-88900000D02*
X67790000Y-88928000D01*
X67790000Y-88928000D02*
X67790000Y-90300000D01*
%TO.N,/DIO1*%
X68072000Y-54901503D02*
X67956497Y-54786000D01*
X67956497Y-54786000D02*
X66660000Y-54786000D01*
%TO.N,GND1*%
X58452000Y-55372000D02*
X58452000Y-53605000D01*
D50*
X73660000Y-51436000D02*
X73660000Y-54736000D01*
D49*
X58452000Y-53605000D02*
X58928000Y-53129000D01*
X67710000Y-46086000D02*
X67710000Y-46882000D01*
D50*
X78486000Y-64262000D02*
X79248000Y-64262000D01*
X72010000Y-51436000D02*
X75310000Y-51436000D01*
X77724000Y-64516000D02*
X77978000Y-64262000D01*
X75310000Y-54736000D02*
X72010000Y-54736000D01*
X66660000Y-46086000D02*
X60960000Y-46086000D01*
X76009000Y-96522000D02*
X55563000Y-96522000D01*
X72010000Y-53086000D02*
X75310000Y-53086000D01*
X55372000Y-96331000D02*
X54422000Y-95381000D01*
D49*
X88172000Y-47718000D02*
X87630000Y-48260000D01*
D50*
X62992000Y-44704000D02*
X62992000Y-46072000D01*
D49*
X80660000Y-48836000D02*
X80660000Y-49686000D01*
X79610000Y-46086000D02*
X79610000Y-46882000D01*
X82042000Y-49276000D02*
X81632000Y-49686000D01*
X80660000Y-61468000D02*
X80660000Y-60086000D01*
X66660000Y-60086000D02*
X65532000Y-61214000D01*
D50*
X54422000Y-84008000D02*
X54610000Y-83820000D01*
X58928000Y-53129000D02*
X60960000Y-53129000D01*
D49*
X88172000Y-42901327D02*
X88172000Y-47718000D01*
D50*
X77470000Y-64262000D02*
X76962000Y-64262000D01*
X76962000Y-64262000D02*
X76200000Y-64262000D01*
X60960000Y-46086000D02*
X58942000Y-46086000D01*
X66660000Y-46086000D02*
X80660000Y-46086000D01*
X55563000Y-96522000D02*
X55372000Y-96331000D01*
X72010000Y-54736000D02*
X72010000Y-51436000D01*
X60960000Y-53129000D02*
X62992000Y-53129000D01*
X77724000Y-64516000D02*
X77470000Y-64262000D01*
D49*
X79610000Y-46882000D02*
X79248000Y-47244000D01*
D50*
X77978000Y-64262000D02*
X78486000Y-64262000D01*
X76200000Y-96331000D02*
X76009000Y-96522000D01*
X75310000Y-51436000D02*
X75310000Y-54736000D01*
X66660000Y-47986000D02*
X66660000Y-46086000D01*
D49*
X67710000Y-46882000D02*
X68072000Y-47244000D01*
X80660000Y-60086000D02*
X79610000Y-60086000D01*
D50*
X58942000Y-46086000D02*
X58928000Y-46072000D01*
D49*
X87122000Y-41851327D02*
X88172000Y-42901327D01*
X81632000Y-49686000D02*
X80660000Y-49686000D01*
D50*
X75310000Y-53086000D02*
X76708000Y-53086000D01*
X60960000Y-53129000D02*
X60960000Y-52324000D01*
D49*
X87122000Y-41402000D02*
X87122000Y-41851327D01*
D50*
X54422000Y-95381000D02*
X54422000Y-84008000D01*
D49*
%TO.N,Net-(Q2-G)*%
X59436000Y-63500000D02*
X59436000Y-65943000D01*
X58420000Y-62484000D02*
X59436000Y-63500000D01*
X58420000Y-60198000D02*
X58420000Y-62484000D01*
%TO.N,AUX_SW_CTRL*%
X60420000Y-60198000D02*
X61722000Y-60198000D01*
X68072000Y-57441503D02*
X67966497Y-57336000D01*
X67966497Y-57336000D02*
X66660000Y-57336000D01*
%TO.N,Net-(J4-Pin_7)*%
X80660000Y-53086000D02*
X82042000Y-53086000D01*
%TO.N,MISO*%
X68560000Y-61468000D02*
X68560000Y-60086000D01*
%TO.N,SCLK*%
X67710000Y-61443178D02*
X67710000Y-60086000D01*
%TO.N,MOSI*%
X68072000Y-59040509D02*
X68067491Y-59036000D01*
X68067491Y-59036000D02*
X66660000Y-59036000D01*
%TO.N,CS0*%
X68072000Y-58241006D02*
X68016994Y-58186000D01*
X68016994Y-58186000D02*
X66660000Y-58186000D01*
%TO.N,Net-(J1-Pin_1)*%
X65548000Y-80254000D02*
X67818000Y-82524000D01*
D48*
X67818000Y-82524000D02*
X70892000Y-82524000D01*
D49*
X67818000Y-82524000D02*
X62934000Y-82524000D01*
X67731000Y-76791380D02*
X65548000Y-78974380D01*
X65548000Y-78974380D02*
X65548000Y-80254000D01*
X66548000Y-85387000D02*
X67818000Y-84117000D01*
D48*
X67818000Y-82524000D02*
X67818000Y-84117000D01*
X70892000Y-82524000D02*
X72644000Y-80772000D01*
D49*
X66548000Y-86360000D02*
X66548000Y-85387000D01*
X62934000Y-82524000D02*
X62452000Y-82042000D01*
X67731000Y-75777000D02*
X67731000Y-76791380D01*
D48*
X67818000Y-84117000D02*
X69299000Y-85598000D01*
D49*
%TO.N,BCKP*%
X69342000Y-72136000D02*
X69342000Y-73166000D01*
D48*
X83226000Y-85598000D02*
X83226000Y-85258000D01*
X83058000Y-92202000D02*
X86716000Y-92202000D01*
X80416000Y-92202000D02*
X83058000Y-92202000D01*
D49*
X69342000Y-73166000D02*
X68981000Y-73527000D01*
X82042000Y-83566000D02*
X81788000Y-83820000D01*
D48*
X83226000Y-92034000D02*
X83058000Y-92202000D01*
D49*
X82042000Y-81026000D02*
X82042000Y-83566000D01*
D48*
X69342000Y-72136000D02*
X69342000Y-71628000D01*
X83226000Y-85258000D02*
X81788000Y-83820000D01*
X83226000Y-85598000D02*
X83226000Y-92034000D01*
D49*
%TO.N,/GPIO45*%
X81798000Y-50536000D02*
X82042000Y-50292000D01*
X80660000Y-50536000D02*
X81798000Y-50536000D01*
%TO.N,/DIO3*%
X68072000Y-53960509D02*
X68047491Y-53936000D01*
X68047491Y-53936000D02*
X66660000Y-53936000D01*
%TO.N,/DIO2*%
X65278000Y-55626000D02*
X65288000Y-55636000D01*
X65288000Y-55636000D02*
X66660000Y-55636000D01*
%TO.N,R_DIV_SUPPLY*%
X71960000Y-59436000D02*
X71960000Y-60086000D01*
X70333002Y-58674000D02*
X71198000Y-58674000D01*
X62362822Y-57658000D02*
X60452000Y-57658000D01*
X70221000Y-58561998D02*
X70333002Y-58674000D01*
X71198000Y-58674000D02*
X71960000Y-59436000D01*
%TO.N,Net-(U1-BAT)*%
X82978000Y-75866000D02*
X84836000Y-77724000D01*
X80010000Y-75866000D02*
X82978000Y-75866000D01*
D48*
X71951000Y-75866000D02*
X70612000Y-74527000D01*
X80010000Y-75866000D02*
X71951000Y-75866000D01*
D49*
X70612000Y-74527000D02*
X68981000Y-74527000D01*
%TD*%
%TA.AperFunction,Conductor*%
%TO.N,+BATT*%
G36*
X64138216Y-39390289D02*
G01*
X64200123Y-39406973D01*
X64245423Y-39452350D01*
X64262000Y-39514289D01*
X64262000Y-45025463D01*
X64244934Y-45088242D01*
X64198432Y-45133740D01*
X64135296Y-45149434D01*
X64072904Y-45131002D01*
X63961336Y-45062187D01*
X63961335Y-45062186D01*
X63961334Y-45062186D01*
X63952979Y-45059417D01*
X63899513Y-45024325D01*
X63870644Y-44967255D01*
X63874054Y-44903394D01*
X63877674Y-44892256D01*
X63897460Y-44704000D01*
X63877674Y-44515744D01*
X63847332Y-44422363D01*
X63819179Y-44335715D01*
X63724533Y-44171783D01*
X63597870Y-44031110D01*
X63444730Y-43919848D01*
X63271802Y-43842855D01*
X63086648Y-43803500D01*
X63086646Y-43803500D01*
X62897354Y-43803500D01*
X62897352Y-43803500D01*
X62712197Y-43842855D01*
X62539269Y-43919848D01*
X62386129Y-44031110D01*
X62259466Y-44171783D01*
X62164820Y-44335715D01*
X62106326Y-44515742D01*
X62105406Y-44524500D01*
X62086540Y-44704000D01*
X62106326Y-44892256D01*
X62109946Y-44903397D01*
X62113354Y-44967258D01*
X62084486Y-45024325D01*
X62031020Y-45059417D01*
X62022666Y-45062185D01*
X61873342Y-45154288D01*
X61739039Y-45288592D01*
X61738449Y-45288002D01*
X61705260Y-45319777D01*
X61644827Y-45335500D01*
X61047721Y-45335500D01*
X60275173Y-45335500D01*
X60214740Y-45319777D01*
X60181550Y-45288002D01*
X60180961Y-45288592D01*
X60046657Y-45154288D01*
X59897334Y-45062186D01*
X59730797Y-45007000D01*
X59628009Y-44996500D01*
X58227991Y-44996500D01*
X58125203Y-45007000D01*
X57958665Y-45062186D01*
X57809342Y-45154288D01*
X57685289Y-45278341D01*
X57598766Y-45418619D01*
X57547724Y-45464905D01*
X57479854Y-45476799D01*
X57416114Y-45450628D01*
X57376186Y-45394475D01*
X57367789Y-45370478D01*
X57271816Y-45217738D01*
X57271815Y-45217737D01*
X57271814Y-45217735D01*
X57144264Y-45090185D01*
X57011877Y-45007001D01*
X56991522Y-44994211D01*
X56821255Y-44934632D01*
X56821253Y-44934631D01*
X56821251Y-44934631D01*
X56642000Y-44914434D01*
X56462748Y-44934631D01*
X56462745Y-44934631D01*
X56462745Y-44934632D01*
X56292478Y-44994211D01*
X56292476Y-44994211D01*
X56292476Y-44994212D01*
X56139735Y-45090185D01*
X56012185Y-45217735D01*
X55946304Y-45322585D01*
X55916211Y-45370478D01*
X55899366Y-45418619D01*
X55856631Y-45540748D01*
X55836434Y-45719999D01*
X55856631Y-45899251D01*
X55856631Y-45899253D01*
X55856632Y-45899255D01*
X55916211Y-46069522D01*
X55972979Y-46159867D01*
X56012185Y-46222264D01*
X56139735Y-46349814D01*
X56139737Y-46349815D01*
X56139738Y-46349816D01*
X56292478Y-46445789D01*
X56462745Y-46505368D01*
X56642000Y-46525565D01*
X56821255Y-46505368D01*
X56991522Y-46445789D01*
X57144262Y-46349816D01*
X57271816Y-46222262D01*
X57298507Y-46179782D01*
X57344739Y-46136563D01*
X57406281Y-46121787D01*
X57467099Y-46139308D01*
X57511348Y-46184560D01*
X57527500Y-46245755D01*
X57527500Y-46447008D01*
X57538000Y-46549796D01*
X57593186Y-46716334D01*
X57685288Y-46865657D01*
X57809342Y-46989711D01*
X57850972Y-47015388D01*
X57958666Y-47081814D01*
X58062237Y-47116134D01*
X58125202Y-47136999D01*
X58135702Y-47138071D01*
X58227991Y-47147500D01*
X59628008Y-47147499D01*
X59730797Y-47136999D01*
X59897334Y-47081814D01*
X60046656Y-46989712D01*
X60163551Y-46872816D01*
X60203777Y-46845939D01*
X60251230Y-46836500D01*
X60872279Y-46836500D01*
X61003709Y-46836500D01*
X61668770Y-46836500D01*
X61716223Y-46845939D01*
X61756448Y-46872816D01*
X61819892Y-46936260D01*
X61873345Y-46989713D01*
X61948005Y-47035763D01*
X62022666Y-47081814D01*
X62126237Y-47116134D01*
X62189202Y-47136999D01*
X62199702Y-47138071D01*
X62291991Y-47147500D01*
X63692008Y-47147499D01*
X63794797Y-47136999D01*
X63961334Y-47081814D01*
X64110656Y-46989712D01*
X64227551Y-46872816D01*
X64267777Y-46845939D01*
X64315230Y-46836500D01*
X65635500Y-46836500D01*
X65697500Y-46853113D01*
X65742887Y-46898500D01*
X65759500Y-46960500D01*
X65759500Y-47383869D01*
X65765909Y-47443485D01*
X65793577Y-47517667D01*
X65801395Y-47560999D01*
X65793577Y-47604331D01*
X65765909Y-47678513D01*
X65759500Y-47738130D01*
X65759500Y-48233869D01*
X65765909Y-48293485D01*
X65793843Y-48368381D01*
X65801661Y-48411713D01*
X65793844Y-48455044D01*
X65766402Y-48528622D01*
X65760000Y-48588176D01*
X65760000Y-48636000D01*
X66011931Y-48636000D01*
X66055262Y-48643817D01*
X66152517Y-48680091D01*
X66212127Y-48686500D01*
X66364893Y-48686499D01*
X66400459Y-48691709D01*
X66528790Y-48730130D01*
X66658941Y-48737710D01*
X66690271Y-48747923D01*
X66709301Y-48739384D01*
X66876711Y-48709865D01*
X66907370Y-48696639D01*
X66956483Y-48686499D01*
X67107870Y-48686499D01*
X67107872Y-48686499D01*
X67167483Y-48680091D01*
X67264736Y-48643817D01*
X67308069Y-48636000D01*
X67560000Y-48636000D01*
X67560000Y-48588176D01*
X67553597Y-48528620D01*
X67526156Y-48455048D01*
X67518337Y-48411714D01*
X67526156Y-48368381D01*
X67554091Y-48293483D01*
X67560500Y-48233873D01*
X67560499Y-48192927D01*
X67575525Y-48133762D01*
X67616963Y-48088933D01*
X67674771Y-48069310D01*
X67734934Y-48079648D01*
X67755785Y-48088932D01*
X67792199Y-48105145D01*
X67977352Y-48144500D01*
X67977354Y-48144500D01*
X68166646Y-48144500D01*
X68166648Y-48144500D01*
X68290083Y-48118262D01*
X68351803Y-48105144D01*
X68524730Y-48028151D01*
X68677871Y-47916888D01*
X68804533Y-47776216D01*
X68899179Y-47612284D01*
X68957674Y-47432256D01*
X68977460Y-47244000D01*
X68964020Y-47116130D01*
X68970478Y-47061713D01*
X68999764Y-47015388D01*
X69046158Y-46986213D01*
X69100597Y-46979885D01*
X69130234Y-46983071D01*
X69162127Y-46986500D01*
X69657872Y-46986499D01*
X69717483Y-46980091D01*
X69791668Y-46952421D01*
X69834999Y-46944604D01*
X69878331Y-46952421D01*
X69952517Y-46980091D01*
X70012127Y-46986500D01*
X70507872Y-46986499D01*
X70567483Y-46980091D01*
X70641668Y-46952421D01*
X70684999Y-46944604D01*
X70728331Y-46952421D01*
X70802517Y-46980091D01*
X70862127Y-46986500D01*
X71357872Y-46986499D01*
X71417483Y-46980091D01*
X71491668Y-46952421D01*
X71534999Y-46944604D01*
X71578331Y-46952421D01*
X71652517Y-46980091D01*
X71712127Y-46986500D01*
X72207872Y-46986499D01*
X72267483Y-46980091D01*
X72341668Y-46952421D01*
X72384999Y-46944604D01*
X72428331Y-46952421D01*
X72502517Y-46980091D01*
X72562127Y-46986500D01*
X73057872Y-46986499D01*
X73117483Y-46980091D01*
X73191668Y-46952421D01*
X73234999Y-46944604D01*
X73278331Y-46952421D01*
X73352517Y-46980091D01*
X73412127Y-46986500D01*
X73907872Y-46986499D01*
X73967483Y-46980091D01*
X74041668Y-46952421D01*
X74084999Y-46944604D01*
X74128331Y-46952421D01*
X74202517Y-46980091D01*
X74262127Y-46986500D01*
X74757872Y-46986499D01*
X74817483Y-46980091D01*
X74891668Y-46952421D01*
X74934999Y-46944604D01*
X74978331Y-46952421D01*
X75052517Y-46980091D01*
X75112127Y-46986500D01*
X75607872Y-46986499D01*
X75667483Y-46980091D01*
X75741668Y-46952421D01*
X75784999Y-46944604D01*
X75828331Y-46952421D01*
X75902517Y-46980091D01*
X75962127Y-46986500D01*
X76457872Y-46986499D01*
X76517483Y-46980091D01*
X76591668Y-46952421D01*
X76634999Y-46944604D01*
X76678331Y-46952421D01*
X76752517Y-46980091D01*
X76812127Y-46986500D01*
X77307872Y-46986499D01*
X77367483Y-46980091D01*
X77441668Y-46952421D01*
X77484999Y-46944604D01*
X77528331Y-46952421D01*
X77602517Y-46980091D01*
X77662127Y-46986500D01*
X78157872Y-46986499D01*
X78217483Y-46980091D01*
X78217485Y-46980090D01*
X78219403Y-46979884D01*
X78273841Y-46986213D01*
X78320234Y-47015388D01*
X78349520Y-47061712D01*
X78355978Y-47116134D01*
X78342540Y-47243998D01*
X78362326Y-47432257D01*
X78420820Y-47612284D01*
X78515466Y-47776216D01*
X78642129Y-47916889D01*
X78795269Y-48028151D01*
X78968197Y-48105144D01*
X79153352Y-48144500D01*
X79153354Y-48144500D01*
X79342646Y-48144500D01*
X79342648Y-48144500D01*
X79527800Y-48105145D01*
X79527801Y-48105144D01*
X79527803Y-48105144D01*
X79585066Y-48079648D01*
X79645227Y-48069310D01*
X79703033Y-48088932D01*
X79744472Y-48133758D01*
X79759500Y-48192925D01*
X79759500Y-48233868D01*
X79765909Y-48293485D01*
X79793577Y-48367667D01*
X79801395Y-48410999D01*
X79793577Y-48454331D01*
X79765909Y-48528513D01*
X79759500Y-48588130D01*
X79759500Y-49083869D01*
X79765909Y-49143485D01*
X79793577Y-49217667D01*
X79801395Y-49260999D01*
X79793577Y-49304331D01*
X79765909Y-49378513D01*
X79765909Y-49378517D01*
X79759893Y-49434478D01*
X79759500Y-49438130D01*
X79759500Y-49933869D01*
X79765909Y-49993485D01*
X79793577Y-50067667D01*
X79801395Y-50110999D01*
X79793577Y-50154331D01*
X79765909Y-50228513D01*
X79763224Y-50253491D01*
X79759755Y-50285762D01*
X79759500Y-50288131D01*
X79759500Y-50465635D01*
X79740494Y-50531607D01*
X79689301Y-50577355D01*
X79621616Y-50588855D01*
X79502079Y-50575386D01*
X79322828Y-50595583D01*
X79322825Y-50595583D01*
X79322825Y-50595584D01*
X79152558Y-50655163D01*
X79152556Y-50655163D01*
X79152556Y-50655164D01*
X78999815Y-50751137D01*
X78872265Y-50878687D01*
X78791969Y-51006478D01*
X78776291Y-51031430D01*
X78731210Y-51160264D01*
X78716711Y-51201700D01*
X78696514Y-51380952D01*
X78716711Y-51560204D01*
X78774594Y-51725625D01*
X78780773Y-51780455D01*
X78767815Y-51817497D01*
X78768241Y-51817646D01*
X78704047Y-52001098D01*
X78683850Y-52180354D01*
X78704047Y-52359605D01*
X78704047Y-52359607D01*
X78704048Y-52359609D01*
X78763627Y-52529876D01*
X78789235Y-52570631D01*
X78859601Y-52682618D01*
X78987151Y-52810168D01*
X78987153Y-52810169D01*
X78987154Y-52810170D01*
X79139894Y-52906143D01*
X79310161Y-52965722D01*
X79444602Y-52980869D01*
X79489415Y-52985919D01*
X79489415Y-52985918D01*
X79489416Y-52985919D01*
X79533641Y-52980935D01*
X79621616Y-52971024D01*
X79689301Y-52982524D01*
X79740494Y-53028272D01*
X79759500Y-53094243D01*
X79759500Y-53333869D01*
X79765909Y-53393485D01*
X79793577Y-53467667D01*
X79801395Y-53510999D01*
X79793577Y-53554331D01*
X79765909Y-53628513D01*
X79759500Y-53688130D01*
X79759500Y-54183869D01*
X79765909Y-54243485D01*
X79793577Y-54317667D01*
X79801395Y-54360999D01*
X79793577Y-54404331D01*
X79765909Y-54478513D01*
X79759500Y-54538130D01*
X79759500Y-55033869D01*
X79765909Y-55093485D01*
X79793577Y-55167667D01*
X79801395Y-55210999D01*
X79793577Y-55254331D01*
X79765909Y-55328513D01*
X79765909Y-55328517D01*
X79759958Y-55383873D01*
X79759500Y-55388130D01*
X79759500Y-55883869D01*
X79765909Y-55943485D01*
X79793577Y-56017667D01*
X79801395Y-56060999D01*
X79793577Y-56104331D01*
X79765909Y-56178513D01*
X79759500Y-56238130D01*
X79759500Y-56733869D01*
X79765909Y-56793485D01*
X79793577Y-56867667D01*
X79801395Y-56910999D01*
X79793577Y-56954331D01*
X79765909Y-57028513D01*
X79759500Y-57088131D01*
X79759500Y-57250692D01*
X79740494Y-57316664D01*
X79689301Y-57362412D01*
X79621616Y-57373912D01*
X79501999Y-57360434D01*
X79322748Y-57380631D01*
X79322745Y-57380631D01*
X79322745Y-57380632D01*
X79152478Y-57440211D01*
X79152476Y-57440211D01*
X79152476Y-57440212D01*
X78999734Y-57536185D01*
X78989907Y-57546013D01*
X78937888Y-57577092D01*
X78877353Y-57579809D01*
X78822758Y-57553517D01*
X78787141Y-57504493D01*
X78779008Y-57444445D01*
X78783565Y-57403999D01*
X78770141Y-57284861D01*
X78763368Y-57224745D01*
X78703789Y-57054478D01*
X78607816Y-56901738D01*
X78607815Y-56901737D01*
X78607814Y-56901735D01*
X78480264Y-56774185D01*
X78403239Y-56725787D01*
X78327522Y-56678211D01*
X78157255Y-56618632D01*
X78157253Y-56618631D01*
X78157251Y-56618631D01*
X77978000Y-56598434D01*
X77798748Y-56618631D01*
X77798745Y-56618631D01*
X77798745Y-56618632D01*
X77628478Y-56678211D01*
X77628476Y-56678211D01*
X77628476Y-56678212D01*
X77475735Y-56774185D01*
X77348185Y-56901735D01*
X77256014Y-57048425D01*
X77252211Y-57054478D01*
X77216780Y-57155735D01*
X77192631Y-57224748D01*
X77172434Y-57404000D01*
X77192631Y-57583251D01*
X77192631Y-57583253D01*
X77192632Y-57583255D01*
X77252211Y-57753522D01*
X77284138Y-57804333D01*
X77348185Y-57906264D01*
X77475735Y-58033814D01*
X77475737Y-58033815D01*
X77475738Y-58033816D01*
X77628478Y-58129789D01*
X77798745Y-58189368D01*
X77978000Y-58209565D01*
X78157255Y-58189368D01*
X78327522Y-58129789D01*
X78480262Y-58033816D01*
X78490088Y-58023990D01*
X78542106Y-57992909D01*
X78602642Y-57990189D01*
X78657238Y-58016480D01*
X78692857Y-58065503D01*
X78700991Y-58125551D01*
X78696434Y-58165998D01*
X78716631Y-58345252D01*
X78779456Y-58524797D01*
X78786414Y-58565751D01*
X78779456Y-58606705D01*
X78716631Y-58786250D01*
X78696434Y-58965503D01*
X78705686Y-59047617D01*
X78694186Y-59115301D01*
X78648439Y-59166493D01*
X78582468Y-59185500D01*
X78512131Y-59185500D01*
X78452514Y-59191909D01*
X78378332Y-59219577D01*
X78335000Y-59227395D01*
X78291668Y-59219577D01*
X78217486Y-59191909D01*
X78191935Y-59189162D01*
X78157873Y-59185500D01*
X78157869Y-59185500D01*
X77662130Y-59185500D01*
X77602514Y-59191909D01*
X77528332Y-59219577D01*
X77485000Y-59227395D01*
X77441668Y-59219577D01*
X77367486Y-59191909D01*
X77341935Y-59189162D01*
X77307873Y-59185500D01*
X77307869Y-59185500D01*
X76812130Y-59185500D01*
X76752514Y-59191909D01*
X76678332Y-59219577D01*
X76635000Y-59227395D01*
X76591668Y-59219577D01*
X76502891Y-59186466D01*
X76502955Y-59186292D01*
X76467715Y-59174138D01*
X76428460Y-59135132D01*
X76410082Y-59082934D01*
X76416243Y-59027938D01*
X76417787Y-59023524D01*
X76417789Y-59023522D01*
X76477368Y-58853255D01*
X76497565Y-58674000D01*
X76477368Y-58494745D01*
X76417789Y-58324478D01*
X76321816Y-58171738D01*
X76321815Y-58171737D01*
X76321814Y-58171735D01*
X76194264Y-58044185D01*
X76112658Y-57992909D01*
X76041522Y-57948211D01*
X75871255Y-57888632D01*
X75871253Y-57888631D01*
X75871251Y-57888631D01*
X75691999Y-57868434D01*
X75512748Y-57888631D01*
X75512745Y-57888631D01*
X75512745Y-57888632D01*
X75342478Y-57948211D01*
X75342476Y-57948211D01*
X75342476Y-57948212D01*
X75249972Y-58006336D01*
X75184000Y-58025342D01*
X75118028Y-58006336D01*
X75038454Y-57956337D01*
X75025522Y-57948211D01*
X74855255Y-57888632D01*
X74855253Y-57888631D01*
X74855251Y-57888631D01*
X74675999Y-57868434D01*
X74496748Y-57888631D01*
X74496745Y-57888631D01*
X74496745Y-57888632D01*
X74326478Y-57948211D01*
X74326476Y-57948211D01*
X74326476Y-57948212D01*
X74173735Y-58044185D01*
X74046185Y-58171735D01*
X73973247Y-58287816D01*
X73950211Y-58324478D01*
X73902542Y-58460709D01*
X73890631Y-58494748D01*
X73880837Y-58581669D01*
X73869337Y-58621586D01*
X73845298Y-58655465D01*
X73313217Y-59187546D01*
X73251895Y-59221031D01*
X73182204Y-59216047D01*
X73117486Y-59191909D01*
X73091935Y-59189162D01*
X73057873Y-59185500D01*
X73057869Y-59185500D01*
X72614342Y-59185500D01*
X72558047Y-59171985D01*
X72514024Y-59134385D01*
X72486815Y-59096935D01*
X72480401Y-59087171D01*
X72466217Y-59063187D01*
X72458170Y-59049580D01*
X72444006Y-59035415D01*
X72431367Y-59020617D01*
X72419595Y-59004413D01*
X72385941Y-58976573D01*
X72377299Y-58968709D01*
X71698802Y-58290211D01*
X71685906Y-58274113D01*
X71634775Y-58226098D01*
X71631978Y-58223387D01*
X71612470Y-58203879D01*
X71609290Y-58201412D01*
X71600424Y-58193839D01*
X71568582Y-58163938D01*
X71551024Y-58154285D01*
X71534764Y-58143604D01*
X71518936Y-58131327D01*
X71478851Y-58113980D01*
X71468361Y-58108841D01*
X71430091Y-58087802D01*
X71410691Y-58082821D01*
X71392284Y-58076519D01*
X71373897Y-58068562D01*
X71330758Y-58061729D01*
X71319324Y-58059361D01*
X71277019Y-58048500D01*
X71256984Y-58048500D01*
X71237586Y-58046973D01*
X71230162Y-58045797D01*
X71217805Y-58043840D01*
X71217804Y-58043840D01*
X71184751Y-58046964D01*
X71174325Y-58047950D01*
X71162656Y-58048500D01*
X70890942Y-58048500D01*
X70843489Y-58039061D01*
X70803263Y-58012183D01*
X70723262Y-57932182D01*
X70723261Y-57932181D01*
X70646892Y-57884195D01*
X70570522Y-57836209D01*
X70400255Y-57776630D01*
X70400253Y-57776629D01*
X70400251Y-57776629D01*
X70221000Y-57756432D01*
X70041748Y-57776629D01*
X70041745Y-57776629D01*
X70041745Y-57776630D01*
X69871478Y-57836209D01*
X69871476Y-57836209D01*
X69871476Y-57836210D01*
X69718735Y-57932183D01*
X69591185Y-58059733D01*
X69506927Y-58193830D01*
X69495211Y-58212476D01*
X69450657Y-58339802D01*
X69421298Y-58386526D01*
X69374572Y-58415886D01*
X69246480Y-58460707D01*
X69093738Y-58556681D01*
X69040866Y-58609553D01*
X68983482Y-58642113D01*
X68917522Y-58640632D01*
X68861658Y-58605530D01*
X68831705Y-58546744D01*
X68836144Y-58480916D01*
X68857368Y-58420261D01*
X68877565Y-58241006D01*
X68869114Y-58165998D01*
X68857368Y-58061751D01*
X68797789Y-57891484D01*
X68797787Y-57891481D01*
X68794543Y-57882209D01*
X68787585Y-57841254D01*
X68794544Y-57800299D01*
X68857368Y-57620758D01*
X68877565Y-57441503D01*
X68870805Y-57381505D01*
X68857368Y-57262248D01*
X68797789Y-57091981D01*
X68725694Y-56977243D01*
X68706689Y-56911273D01*
X68725695Y-56845301D01*
X68776887Y-56799553D01*
X68844573Y-56788053D01*
X69000000Y-56805565D01*
X69179255Y-56785368D01*
X69349522Y-56725789D01*
X69502262Y-56629816D01*
X69629816Y-56502262D01*
X69725789Y-56349522D01*
X69785368Y-56179255D01*
X69805565Y-56000000D01*
X69785368Y-55820745D01*
X69725789Y-55650478D01*
X69629816Y-55497738D01*
X69629815Y-55497737D01*
X69629814Y-55497735D01*
X69502264Y-55370185D01*
X69435943Y-55328513D01*
X69349522Y-55274211D01*
X69179255Y-55214632D01*
X69179253Y-55214631D01*
X69179251Y-55214631D01*
X68999996Y-55194433D01*
X68997066Y-55194764D01*
X68942230Y-55188583D01*
X68895506Y-55159221D01*
X68866148Y-55112495D01*
X68859970Y-55057661D01*
X68877565Y-54901503D01*
X68877419Y-54900211D01*
X68868431Y-54820434D01*
X68857368Y-54722248D01*
X68797789Y-54551981D01*
X68763227Y-54496976D01*
X68744221Y-54431006D01*
X68763227Y-54365035D01*
X68797789Y-54310031D01*
X68857368Y-54139764D01*
X68877565Y-53960509D01*
X68857368Y-53781254D01*
X68797789Y-53610987D01*
X68797787Y-53610984D01*
X68794543Y-53601712D01*
X68787585Y-53560757D01*
X68794544Y-53519802D01*
X68851861Y-53356000D01*
X69568434Y-53356000D01*
X69588631Y-53535251D01*
X69588631Y-53535253D01*
X69588632Y-53535255D01*
X69648211Y-53705522D01*
X69648669Y-53706251D01*
X69744185Y-53858264D01*
X69871735Y-53985814D01*
X69871737Y-53985815D01*
X69871738Y-53985816D01*
X70024478Y-54081789D01*
X70194745Y-54141368D01*
X70374000Y-54161565D01*
X70553255Y-54141368D01*
X70723522Y-54081789D01*
X70723524Y-54081787D01*
X70736709Y-54077174D01*
X70737314Y-54078903D01*
X70782020Y-54065341D01*
X70845480Y-54080763D01*
X70892302Y-54126290D01*
X70909500Y-54189292D01*
X70909500Y-55383869D01*
X70915909Y-55443484D01*
X70936144Y-55497735D01*
X70966204Y-55578331D01*
X71052454Y-55693546D01*
X71167669Y-55779796D01*
X71302517Y-55830091D01*
X71362127Y-55836500D01*
X72657872Y-55836499D01*
X72717483Y-55830091D01*
X72791669Y-55802421D01*
X72834999Y-55794604D01*
X72878332Y-55802422D01*
X72885928Y-55805255D01*
X72952517Y-55830091D01*
X73012127Y-55836500D01*
X73511199Y-55836499D01*
X73577171Y-55855505D01*
X73622919Y-55906697D01*
X73634419Y-55974383D01*
X73616434Y-56133999D01*
X73636631Y-56313251D01*
X73636631Y-56313253D01*
X73636632Y-56313255D01*
X73696211Y-56483522D01*
X73715990Y-56515000D01*
X73792185Y-56636264D01*
X73919735Y-56763814D01*
X73919737Y-56763815D01*
X73919738Y-56763816D01*
X74072478Y-56859789D01*
X74242745Y-56919368D01*
X74422000Y-56939565D01*
X74601255Y-56919368D01*
X74771522Y-56859789D01*
X74924262Y-56763816D01*
X75051816Y-56636262D01*
X75147789Y-56483522D01*
X75207368Y-56313255D01*
X75227565Y-56134000D01*
X75226919Y-56128264D01*
X75209581Y-55974383D01*
X75221081Y-55906697D01*
X75266829Y-55855505D01*
X75332801Y-55836499D01*
X75957870Y-55836499D01*
X75957872Y-55836499D01*
X76017483Y-55830091D01*
X76152331Y-55779796D01*
X76267546Y-55693546D01*
X76353796Y-55578331D01*
X76404091Y-55443483D01*
X76410500Y-55383873D01*
X76410499Y-54096508D01*
X76422578Y-54043126D01*
X76456463Y-54000143D01*
X76505552Y-53975935D01*
X76560280Y-53975219D01*
X76613353Y-53986500D01*
X76613354Y-53986500D01*
X76802646Y-53986500D01*
X76802648Y-53986500D01*
X76928176Y-53959818D01*
X76987803Y-53947144D01*
X77160730Y-53870151D01*
X77313871Y-53758888D01*
X77440533Y-53618216D01*
X77535179Y-53454284D01*
X77593674Y-53274256D01*
X77613460Y-53086000D01*
X77593674Y-52897744D01*
X77554933Y-52778513D01*
X77535179Y-52717715D01*
X77440533Y-52553783D01*
X77313870Y-52413110D01*
X77160730Y-52301848D01*
X76987802Y-52224855D01*
X76802648Y-52185500D01*
X76802646Y-52185500D01*
X76613354Y-52185500D01*
X76560278Y-52196781D01*
X76505551Y-52196064D01*
X76456463Y-52171856D01*
X76422578Y-52128873D01*
X76410499Y-52075494D01*
X76410499Y-50788128D01*
X76404091Y-50728517D01*
X76353796Y-50593669D01*
X76267546Y-50478454D01*
X76152331Y-50392204D01*
X76017483Y-50341909D01*
X75957873Y-50335500D01*
X75957869Y-50335500D01*
X74662130Y-50335500D01*
X74602514Y-50341909D01*
X74528332Y-50369577D01*
X74485000Y-50377395D01*
X74441668Y-50369577D01*
X74367486Y-50341909D01*
X74341935Y-50339162D01*
X74307873Y-50335500D01*
X74307869Y-50335500D01*
X73012130Y-50335500D01*
X72952516Y-50341909D01*
X72879651Y-50369085D01*
X72834106Y-50376882D01*
X72788868Y-50367464D01*
X72740869Y-50347582D01*
X72610001Y-50330353D01*
X72610000Y-50330353D01*
X72010000Y-50330353D01*
X72009999Y-50330353D01*
X71879127Y-50347583D01*
X71757177Y-50398096D01*
X71652458Y-50478450D01*
X71347173Y-50783734D01*
X71291585Y-50815827D01*
X71227398Y-50815827D01*
X71171812Y-50783734D01*
X71114262Y-50726184D01*
X71114261Y-50726183D01*
X71114259Y-50726181D01*
X71032396Y-50674744D01*
X70989839Y-50629731D01*
X70974367Y-50569750D01*
X70989839Y-50509769D01*
X71032396Y-50464756D01*
X71114262Y-50413316D01*
X71241814Y-50285764D01*
X71241814Y-50285763D01*
X71241816Y-50285762D01*
X71337789Y-50133022D01*
X71397368Y-49962755D01*
X71417565Y-49783500D01*
X71397368Y-49604245D01*
X71337789Y-49433978D01*
X71241816Y-49281238D01*
X71241815Y-49281237D01*
X71241814Y-49281235D01*
X71114264Y-49153685D01*
X71003152Y-49083869D01*
X70961522Y-49057711D01*
X70791255Y-48998132D01*
X70791253Y-48998131D01*
X70791251Y-48998131D01*
X70612000Y-48977934D01*
X70432748Y-48998131D01*
X70432745Y-48998131D01*
X70432745Y-48998132D01*
X70262478Y-49057711D01*
X70262476Y-49057711D01*
X70262476Y-49057712D01*
X70109735Y-49153685D01*
X69982185Y-49281235D01*
X69921059Y-49378517D01*
X69886211Y-49433978D01*
X69832576Y-49587257D01*
X69826631Y-49604248D01*
X69806434Y-49783500D01*
X69826631Y-49962751D01*
X69826631Y-49962753D01*
X69826632Y-49962755D01*
X69886211Y-50133022D01*
X69920439Y-50187495D01*
X69982185Y-50285764D01*
X70109736Y-50413315D01*
X70191604Y-50464756D01*
X70234160Y-50509769D01*
X70249632Y-50569750D01*
X70234160Y-50629731D01*
X70191604Y-50674744D01*
X70109736Y-50726184D01*
X69982185Y-50853735D01*
X69887560Y-51004331D01*
X69886211Y-51006478D01*
X69831945Y-51161561D01*
X69826631Y-51176748D01*
X69806434Y-51355999D01*
X69826631Y-51535251D01*
X69826631Y-51535253D01*
X69826632Y-51535255D01*
X69886211Y-51705522D01*
X69908664Y-51741255D01*
X69982185Y-51858264D01*
X70109735Y-51985814D01*
X70109737Y-51985815D01*
X70109738Y-51985816D01*
X70262478Y-52081789D01*
X70432745Y-52141368D01*
X70612000Y-52161565D01*
X70805139Y-52139804D01*
X70805362Y-52141786D01*
X70846921Y-52138277D01*
X70903471Y-52163578D01*
X70940722Y-52213079D01*
X70941465Y-52214873D01*
X70950882Y-52260109D01*
X70943085Y-52305651D01*
X70915909Y-52378515D01*
X70909500Y-52438131D01*
X70909500Y-52522708D01*
X70892302Y-52585710D01*
X70845480Y-52631237D01*
X70782020Y-52646659D01*
X70737314Y-52633096D01*
X70736709Y-52634826D01*
X70723524Y-52630212D01*
X70723522Y-52630211D01*
X70553255Y-52570632D01*
X70553253Y-52570631D01*
X70553251Y-52570631D01*
X70374000Y-52550434D01*
X70194748Y-52570631D01*
X70194745Y-52570631D01*
X70194745Y-52570632D01*
X70024478Y-52630211D01*
X70024476Y-52630211D01*
X70024476Y-52630212D01*
X69871735Y-52726185D01*
X69744185Y-52853735D01*
X69670488Y-52971024D01*
X69648211Y-53006478D01*
X69594139Y-53161006D01*
X69588631Y-53176748D01*
X69568434Y-53356000D01*
X68851861Y-53356000D01*
X68857368Y-53340261D01*
X68877565Y-53161006D01*
X68869114Y-53086000D01*
X68857368Y-52981751D01*
X68797789Y-52811484D01*
X68797787Y-52811481D01*
X68794543Y-52802209D01*
X68787585Y-52761254D01*
X68794544Y-52720299D01*
X68857368Y-52540758D01*
X68877565Y-52361503D01*
X68870844Y-52301849D01*
X68857368Y-52182248D01*
X68797789Y-52011981D01*
X68797787Y-52011978D01*
X68794543Y-52002706D01*
X68787585Y-51961751D01*
X68794544Y-51920796D01*
X68857368Y-51741255D01*
X68865239Y-51671401D01*
X68877565Y-51562000D01*
X68868081Y-51477830D01*
X68857368Y-51382744D01*
X68795211Y-51205111D01*
X68789032Y-51150269D01*
X68807261Y-51098181D01*
X68810591Y-51092882D01*
X68870170Y-50922615D01*
X68890367Y-50743360D01*
X68870170Y-50564105D01*
X68810591Y-50393838D01*
X68763857Y-50319461D01*
X68744852Y-50253491D01*
X68763857Y-50187522D01*
X68797789Y-50133522D01*
X68857368Y-49963255D01*
X68877565Y-49784000D01*
X68876918Y-49778262D01*
X68860391Y-49631575D01*
X68857368Y-49604745D01*
X68797789Y-49434478D01*
X68701816Y-49281738D01*
X68701815Y-49281737D01*
X68701814Y-49281735D01*
X68574264Y-49154185D01*
X68462356Y-49083869D01*
X68421522Y-49058211D01*
X68251255Y-48998632D01*
X68251253Y-48998631D01*
X68251251Y-48998631D01*
X68072000Y-48978434D01*
X67892744Y-48998631D01*
X67735824Y-49053541D01*
X67694869Y-49060500D01*
X67635862Y-49060500D01*
X67588409Y-49051061D01*
X67565869Y-49036000D01*
X67308069Y-49036000D01*
X67264737Y-49028182D01*
X67167483Y-48991909D01*
X67107873Y-48985500D01*
X67107869Y-48985500D01*
X66730836Y-48985500D01*
X66690489Y-48975315D01*
X66651730Y-48985500D01*
X66212130Y-48985500D01*
X66152515Y-48991909D01*
X66055264Y-49028182D01*
X66011931Y-49036000D01*
X65760000Y-49036000D01*
X65760000Y-49083824D01*
X65766402Y-49143377D01*
X65793844Y-49216952D01*
X65801662Y-49260285D01*
X65793844Y-49303618D01*
X65765909Y-49378515D01*
X65765908Y-49378517D01*
X65765909Y-49378517D01*
X65759893Y-49434478D01*
X65759500Y-49438130D01*
X65759500Y-49933869D01*
X65765909Y-49993485D01*
X65793577Y-50067667D01*
X65801395Y-50110999D01*
X65793577Y-50154331D01*
X65765909Y-50228513D01*
X65763224Y-50253491D01*
X65759755Y-50285762D01*
X65759500Y-50288130D01*
X65759500Y-50783869D01*
X65765909Y-50843485D01*
X65793577Y-50917667D01*
X65801395Y-50960999D01*
X65793577Y-51004331D01*
X65765909Y-51078513D01*
X65759500Y-51138130D01*
X65759500Y-51633869D01*
X65765909Y-51693485D01*
X65793577Y-51767667D01*
X65801395Y-51810999D01*
X65793577Y-51854331D01*
X65765909Y-51928513D01*
X65765909Y-51928517D01*
X65759749Y-51985816D01*
X65759500Y-51988130D01*
X65759500Y-52483869D01*
X65765909Y-52543485D01*
X65793577Y-52617667D01*
X65801395Y-52660999D01*
X65793577Y-52704331D01*
X65765909Y-52778513D01*
X65759500Y-52838130D01*
X65759500Y-53333869D01*
X65765909Y-53393485D01*
X65793577Y-53467667D01*
X65801395Y-53510999D01*
X65793577Y-53554331D01*
X65765909Y-53628513D01*
X65759500Y-53688130D01*
X65759500Y-54183869D01*
X65765909Y-54243485D01*
X65793577Y-54317667D01*
X65801395Y-54360999D01*
X65793577Y-54404331D01*
X65765909Y-54478513D01*
X65759500Y-54538131D01*
X65759500Y-54771631D01*
X65745667Y-54828545D01*
X65707255Y-54872761D01*
X65652834Y-54894413D01*
X65594545Y-54888672D01*
X65457255Y-54840631D01*
X65278000Y-54820434D01*
X65098748Y-54840631D01*
X65098745Y-54840631D01*
X65098745Y-54840632D01*
X64928478Y-54900211D01*
X64928476Y-54900211D01*
X64928476Y-54900212D01*
X64775735Y-54996185D01*
X64648185Y-55123735D01*
X64552212Y-55276476D01*
X64492631Y-55446748D01*
X64472434Y-55626000D01*
X64492631Y-55805251D01*
X64492631Y-55805253D01*
X64492632Y-55805255D01*
X64552211Y-55975522D01*
X64552212Y-55975523D01*
X64610336Y-56068028D01*
X64629342Y-56134000D01*
X64610336Y-56199972D01*
X64553356Y-56290656D01*
X64552211Y-56292478D01*
X64506380Y-56423456D01*
X64492631Y-56462748D01*
X64472434Y-56641999D01*
X64492631Y-56821251D01*
X64492631Y-56821253D01*
X64492632Y-56821255D01*
X64552211Y-56991522D01*
X64608979Y-57081867D01*
X64648185Y-57144264D01*
X64775735Y-57271814D01*
X64775737Y-57271815D01*
X64775738Y-57271816D01*
X64928478Y-57367789D01*
X65098745Y-57427368D01*
X65212731Y-57440211D01*
X65277999Y-57447565D01*
X65277999Y-57447564D01*
X65278000Y-57447565D01*
X65457255Y-57427368D01*
X65594545Y-57379327D01*
X65652833Y-57373586D01*
X65707255Y-57395239D01*
X65745667Y-57439454D01*
X65759500Y-57496368D01*
X65759500Y-57583869D01*
X65765909Y-57643485D01*
X65793577Y-57717667D01*
X65801395Y-57760999D01*
X65793577Y-57804331D01*
X65765909Y-57878513D01*
X65764821Y-57888632D01*
X65760140Y-57932181D01*
X65759500Y-57938130D01*
X65759500Y-58433869D01*
X65765909Y-58493485D01*
X65793577Y-58567667D01*
X65801395Y-58610999D01*
X65793577Y-58654331D01*
X65765909Y-58728513D01*
X65759500Y-58788130D01*
X65759500Y-59283869D01*
X65765909Y-59343485D01*
X65793577Y-59417667D01*
X65801395Y-59460999D01*
X65793577Y-59504331D01*
X65765909Y-59578513D01*
X65759500Y-59638131D01*
X65759500Y-60050547D01*
X65750061Y-60098000D01*
X65723181Y-60138228D01*
X65584228Y-60277181D01*
X65544000Y-60304061D01*
X65496547Y-60313500D01*
X65437352Y-60313500D01*
X65252197Y-60352855D01*
X65079269Y-60429848D01*
X64926129Y-60541110D01*
X64799466Y-60681783D01*
X64704820Y-60845715D01*
X64646326Y-61025742D01*
X64628650Y-61193927D01*
X64626540Y-61214000D01*
X64630425Y-61250961D01*
X64646326Y-61402257D01*
X64704820Y-61582284D01*
X64799466Y-61746216D01*
X64926129Y-61886889D01*
X65079269Y-61998151D01*
X65252197Y-62075144D01*
X65437352Y-62114500D01*
X65437354Y-62114500D01*
X65626646Y-62114500D01*
X65626648Y-62114500D01*
X65750083Y-62088262D01*
X65811803Y-62075144D01*
X65984730Y-61998151D01*
X66137871Y-61886888D01*
X66264533Y-61746216D01*
X66359179Y-61582284D01*
X66417674Y-61402256D01*
X66435322Y-61234341D01*
X66446720Y-61193927D01*
X66470955Y-61159634D01*
X66607775Y-61022814D01*
X66648000Y-60995938D01*
X66695453Y-60986499D01*
X66846945Y-60986499D01*
X66903859Y-61000332D01*
X66948074Y-61038744D01*
X66969727Y-61093165D01*
X66963987Y-61151453D01*
X66924631Y-61263925D01*
X66904434Y-61443177D01*
X66924631Y-61622429D01*
X66924631Y-61622431D01*
X66924632Y-61622433D01*
X66984211Y-61792700D01*
X67011597Y-61836284D01*
X67080185Y-61945442D01*
X67207735Y-62072992D01*
X67207737Y-62072993D01*
X67207738Y-62072994D01*
X67360478Y-62168967D01*
X67530745Y-62228546D01*
X67710000Y-62248743D01*
X67889255Y-62228546D01*
X68059522Y-62168967D01*
X68059522Y-62168966D01*
X68072711Y-62164352D01*
X68074081Y-62168267D01*
X68115211Y-62156398D01*
X68181220Y-62175404D01*
X68210478Y-62193789D01*
X68380745Y-62253368D01*
X68560000Y-62273565D01*
X68739255Y-62253368D01*
X68909522Y-62193789D01*
X68919025Y-62187817D01*
X68985000Y-62168809D01*
X69050974Y-62187817D01*
X69060478Y-62193789D01*
X69230745Y-62253368D01*
X69410000Y-62273565D01*
X69589255Y-62253368D01*
X69768796Y-62190544D01*
X69809751Y-62183585D01*
X69850706Y-62190543D01*
X69859978Y-62193787D01*
X69859981Y-62193789D01*
X70030248Y-62253368D01*
X70209503Y-62273565D01*
X70388758Y-62253368D01*
X70559025Y-62193789D01*
X70711765Y-62097816D01*
X70839319Y-61970262D01*
X70935292Y-61817522D01*
X70994871Y-61647255D01*
X71015068Y-61468000D01*
X70994871Y-61288745D01*
X70946829Y-61151450D01*
X70941090Y-61093165D01*
X70962742Y-61038744D01*
X71006958Y-61000332D01*
X71063869Y-60986499D01*
X71357872Y-60986499D01*
X71417483Y-60980091D01*
X71491669Y-60952421D01*
X71534999Y-60944604D01*
X71578332Y-60952422D01*
X71652514Y-60980090D01*
X71652517Y-60980091D01*
X71712127Y-60986500D01*
X72207872Y-60986499D01*
X72267483Y-60980091D01*
X72341669Y-60952421D01*
X72384999Y-60944604D01*
X72428332Y-60952422D01*
X72502514Y-60980090D01*
X72502517Y-60980091D01*
X72562127Y-60986500D01*
X73057872Y-60986499D01*
X73117483Y-60980091D01*
X73191669Y-60952421D01*
X73234999Y-60944604D01*
X73278332Y-60952422D01*
X73352514Y-60980090D01*
X73352517Y-60980091D01*
X73412127Y-60986500D01*
X73907872Y-60986499D01*
X73967483Y-60980091D01*
X74041669Y-60952421D01*
X74084999Y-60944604D01*
X74128332Y-60952422D01*
X74202514Y-60980090D01*
X74202517Y-60980091D01*
X74262127Y-60986500D01*
X74583631Y-60986499D01*
X74640543Y-61000332D01*
X74684759Y-61038743D01*
X74706412Y-61093164D01*
X74700672Y-61151453D01*
X74652631Y-61288747D01*
X74632434Y-61468000D01*
X74652631Y-61647251D01*
X74652631Y-61647253D01*
X74652632Y-61647255D01*
X74712211Y-61817522D01*
X74755797Y-61886888D01*
X74808185Y-61970264D01*
X74935735Y-62097814D01*
X74935737Y-62097815D01*
X74935738Y-62097816D01*
X75088478Y-62193789D01*
X75258745Y-62253368D01*
X75438000Y-62273565D01*
X75617255Y-62253368D01*
X75787522Y-62193789D01*
X75940262Y-62097816D01*
X76067816Y-61970262D01*
X76163789Y-61817522D01*
X76223368Y-61647255D01*
X76243565Y-61468000D01*
X76223368Y-61288745D01*
X76175326Y-61151450D01*
X76169587Y-61093165D01*
X76191239Y-61038744D01*
X76235455Y-61000332D01*
X76292369Y-60986499D01*
X76457870Y-60986499D01*
X76457872Y-60986499D01*
X76517483Y-60980091D01*
X76591669Y-60952421D01*
X76634999Y-60944604D01*
X76678332Y-60952422D01*
X76752514Y-60980090D01*
X76752517Y-60980091D01*
X76812127Y-60986500D01*
X76869631Y-60986499D01*
X76926542Y-61000331D01*
X76970759Y-61038743D01*
X76992412Y-61093164D01*
X76986672Y-61151453D01*
X76938631Y-61288747D01*
X76918434Y-61468000D01*
X76938631Y-61647251D01*
X76938631Y-61647253D01*
X76938632Y-61647255D01*
X76998211Y-61817522D01*
X77041797Y-61886888D01*
X77094185Y-61970264D01*
X77221735Y-62097814D01*
X77221737Y-62097815D01*
X77221738Y-62097816D01*
X77374478Y-62193789D01*
X77544745Y-62253368D01*
X77724000Y-62273565D01*
X77903255Y-62253368D01*
X78073522Y-62193789D01*
X78191944Y-62119379D01*
X78257914Y-62100374D01*
X78323885Y-62119380D01*
X78366828Y-62146362D01*
X78410478Y-62173789D01*
X78580745Y-62233368D01*
X78760000Y-62253565D01*
X78939255Y-62233368D01*
X79109522Y-62173789D01*
X79262262Y-62077816D01*
X79389816Y-61950262D01*
X79485789Y-61797522D01*
X79537808Y-61648858D01*
X79571601Y-61597914D01*
X79625631Y-61569306D01*
X79686763Y-61569992D01*
X79740138Y-61599805D01*
X79772780Y-61651497D01*
X79774325Y-61656254D01*
X79774326Y-61656256D01*
X79774965Y-61658223D01*
X79832820Y-61836284D01*
X79927466Y-62000216D01*
X80054129Y-62140889D01*
X80207269Y-62252151D01*
X80380197Y-62329144D01*
X80565352Y-62368500D01*
X80565354Y-62368500D01*
X80754646Y-62368500D01*
X80754648Y-62368500D01*
X80878084Y-62342262D01*
X80939803Y-62329144D01*
X81112730Y-62252151D01*
X81193059Y-62193789D01*
X81265870Y-62140889D01*
X81392533Y-62000216D01*
X81487179Y-61836284D01*
X81493275Y-61817522D01*
X81545674Y-61656256D01*
X81565460Y-61468000D01*
X81545674Y-61279744D01*
X81503990Y-61151454D01*
X81487179Y-61099715D01*
X81414254Y-60973406D01*
X81398767Y-60928079D01*
X81401616Y-60880263D01*
X81422375Y-60837095D01*
X81449548Y-60800797D01*
X81503796Y-60728331D01*
X81554091Y-60593483D01*
X81560500Y-60533873D01*
X81560499Y-59638128D01*
X81554091Y-59578517D01*
X81526421Y-59504331D01*
X81518604Y-59460998D01*
X81526423Y-59417665D01*
X81554090Y-59343487D01*
X81554090Y-59343485D01*
X81554091Y-59343483D01*
X81560500Y-59283873D01*
X81560499Y-58788128D01*
X81554091Y-58728517D01*
X81526421Y-58654331D01*
X81518604Y-58610998D01*
X81526423Y-58567665D01*
X81554090Y-58493487D01*
X81554090Y-58493485D01*
X81554091Y-58493483D01*
X81560500Y-58433873D01*
X81560499Y-57938128D01*
X81554091Y-57878517D01*
X81526421Y-57804332D01*
X81518604Y-57761000D01*
X81526422Y-57717667D01*
X81554091Y-57643483D01*
X81560500Y-57583873D01*
X81560499Y-57088128D01*
X81554091Y-57028517D01*
X81526421Y-56954332D01*
X81518604Y-56911000D01*
X81526422Y-56867667D01*
X81554091Y-56793483D01*
X81560500Y-56733873D01*
X81560499Y-56480367D01*
X81574332Y-56423456D01*
X81612744Y-56379240D01*
X81667165Y-56357587D01*
X81725450Y-56363326D01*
X81862745Y-56411368D01*
X81997186Y-56426515D01*
X82041999Y-56431565D01*
X82041999Y-56431564D01*
X82042000Y-56431565D01*
X82221255Y-56411368D01*
X82391522Y-56351789D01*
X82544262Y-56255816D01*
X82671816Y-56128262D01*
X82767789Y-55975522D01*
X82827368Y-55805255D01*
X82847565Y-55626000D01*
X82827368Y-55446745D01*
X82767789Y-55276478D01*
X82764957Y-55271971D01*
X82745951Y-55206000D01*
X82764957Y-55140028D01*
X82767789Y-55135522D01*
X82827368Y-54965255D01*
X82847565Y-54786000D01*
X82827368Y-54606745D01*
X82767789Y-54436478D01*
X82745949Y-54401720D01*
X82726944Y-54335748D01*
X82745950Y-54269780D01*
X82767789Y-54235025D01*
X82827368Y-54064758D01*
X82847565Y-53885503D01*
X82846987Y-53880377D01*
X82827368Y-53706251D01*
X82827368Y-53706248D01*
X82767789Y-53535981D01*
X82767787Y-53535978D01*
X82764543Y-53526706D01*
X82757585Y-53485751D01*
X82764544Y-53444796D01*
X82827368Y-53265255D01*
X82847565Y-53086000D01*
X82838605Y-53006476D01*
X82827368Y-52906745D01*
X82767789Y-52736478D01*
X82671816Y-52583738D01*
X82671815Y-52583737D01*
X82671814Y-52583735D01*
X82544264Y-52456185D01*
X82475710Y-52413110D01*
X82391522Y-52360211D01*
X82221255Y-52300632D01*
X82221253Y-52300631D01*
X82221251Y-52300631D01*
X82042000Y-52280434D01*
X81862748Y-52300631D01*
X81862745Y-52300631D01*
X81862745Y-52300632D01*
X81725450Y-52348673D01*
X81667165Y-52354413D01*
X81612744Y-52332761D01*
X81574332Y-52288545D01*
X81560499Y-52231631D01*
X81560499Y-51988130D01*
X81560250Y-51985814D01*
X81554091Y-51928517D01*
X81526421Y-51854332D01*
X81518604Y-51811000D01*
X81526422Y-51767667D01*
X81554091Y-51693483D01*
X81560500Y-51633873D01*
X81560499Y-51285499D01*
X81577112Y-51223500D01*
X81622499Y-51178113D01*
X81684499Y-51161500D01*
X81715256Y-51161500D01*
X81735762Y-51163764D01*
X81738665Y-51163672D01*
X81738667Y-51163673D01*
X81805872Y-51161561D01*
X81809768Y-51161500D01*
X81837349Y-51161500D01*
X81837350Y-51161500D01*
X81841319Y-51160998D01*
X81852965Y-51160080D01*
X81896627Y-51158709D01*
X81915859Y-51153120D01*
X81934918Y-51149174D01*
X81941196Y-51148381D01*
X81954792Y-51146664D01*
X81995407Y-51130582D01*
X82006444Y-51126803D01*
X82048390Y-51114618D01*
X82062662Y-51106177D01*
X82111900Y-51089689D01*
X82221255Y-51077368D01*
X82391522Y-51017789D01*
X82544262Y-50921816D01*
X82671816Y-50794262D01*
X82767789Y-50641522D01*
X82827368Y-50471255D01*
X82847565Y-50292000D01*
X82827368Y-50112745D01*
X82767789Y-49942478D01*
X82709662Y-49849970D01*
X82690657Y-49784000D01*
X82709662Y-49718029D01*
X82767789Y-49625522D01*
X82827368Y-49455255D01*
X82847565Y-49276000D01*
X82827368Y-49096745D01*
X82767789Y-48926478D01*
X82671816Y-48773738D01*
X82671815Y-48773737D01*
X82671814Y-48773735D01*
X82544264Y-48646185D01*
X82451943Y-48588176D01*
X82391522Y-48550211D01*
X82221255Y-48490632D01*
X82221253Y-48490631D01*
X82221251Y-48490631D01*
X82042000Y-48470434D01*
X81862747Y-48490631D01*
X81691902Y-48550412D01*
X81628724Y-48555362D01*
X81571351Y-48528451D01*
X81534767Y-48476705D01*
X81526423Y-48454335D01*
X81518604Y-48411001D01*
X81526422Y-48367667D01*
X81554091Y-48293483D01*
X81560500Y-48233873D01*
X81560499Y-47885499D01*
X81577112Y-47823500D01*
X81622499Y-47778113D01*
X81684499Y-47761500D01*
X81751145Y-47761500D01*
X81817116Y-47780505D01*
X81946478Y-47861789D01*
X82116745Y-47921368D01*
X82296000Y-47941565D01*
X82475255Y-47921368D01*
X82645522Y-47861789D01*
X82798262Y-47765816D01*
X82925816Y-47638262D01*
X83021789Y-47485522D01*
X83081368Y-47315255D01*
X83101565Y-47136000D01*
X83081368Y-46956745D01*
X83021789Y-46786478D01*
X82925816Y-46633738D01*
X82925815Y-46633737D01*
X82925814Y-46633735D01*
X82798264Y-46506185D01*
X82735867Y-46466979D01*
X82645522Y-46410211D01*
X82475255Y-46350632D01*
X82475253Y-46350631D01*
X82475251Y-46350631D01*
X82296000Y-46330434D01*
X82116748Y-46350631D01*
X82116745Y-46350631D01*
X82116745Y-46350632D01*
X81946478Y-46410211D01*
X81946476Y-46410211D01*
X81946476Y-46410212D01*
X81817117Y-46491494D01*
X81751145Y-46510500D01*
X81684500Y-46510500D01*
X81622500Y-46493887D01*
X81577113Y-46448500D01*
X81560500Y-46386500D01*
X81560499Y-45779000D01*
X81577112Y-45717000D01*
X81622499Y-45671613D01*
X81684499Y-45655000D01*
X83058000Y-45655000D01*
X83058000Y-43652000D01*
X83382001Y-43652000D01*
X83382001Y-43801979D01*
X83392493Y-43904695D01*
X83447642Y-44071122D01*
X83539683Y-44220345D01*
X83663654Y-44344316D01*
X83812877Y-44436357D01*
X83979303Y-44491506D01*
X84082021Y-44502000D01*
X84332000Y-44502000D01*
X84332000Y-43652000D01*
X83382001Y-43652000D01*
X83058000Y-43652000D01*
X83058000Y-39546997D01*
X83074648Y-39484936D01*
X83120123Y-39439539D01*
X83182210Y-39422997D01*
X85814915Y-39427519D01*
X85830884Y-39428580D01*
X85865171Y-39433093D01*
X85938511Y-39442750D01*
X85947697Y-39444315D01*
X86159828Y-39488793D01*
X86160822Y-39489008D01*
X86360566Y-39533290D01*
X86369092Y-39535502D01*
X86506957Y-39576546D01*
X86576503Y-39597251D01*
X86578407Y-39597835D01*
X86629925Y-39614078D01*
X86773404Y-39659316D01*
X86781119Y-39662034D01*
X86982754Y-39740712D01*
X86985027Y-39741626D01*
X87173987Y-39819896D01*
X87180965Y-39823043D01*
X87375405Y-39918098D01*
X87378080Y-39919449D01*
X87468300Y-39966415D01*
X87559482Y-40013882D01*
X87565699Y-40017348D01*
X87676678Y-40083477D01*
X87721268Y-40129187D01*
X87737200Y-40191025D01*
X87720248Y-40252591D01*
X87674908Y-40297558D01*
X87613204Y-40314000D01*
X86596991Y-40314000D01*
X86494203Y-40324500D01*
X86327665Y-40379686D01*
X86178342Y-40471788D01*
X86054288Y-40595842D01*
X85962184Y-40745168D01*
X85959276Y-40753946D01*
X85926138Y-40805630D01*
X85872268Y-40835081D01*
X85810873Y-40835081D01*
X85757004Y-40805629D01*
X85723866Y-40753947D01*
X85716814Y-40732666D01*
X85624712Y-40583344D01*
X85624711Y-40583342D01*
X85500657Y-40459288D01*
X85351334Y-40367186D01*
X85184797Y-40312000D01*
X85082009Y-40301500D01*
X84081991Y-40301500D01*
X83979203Y-40312000D01*
X83812665Y-40367186D01*
X83663342Y-40459288D01*
X83539288Y-40583342D01*
X83447186Y-40732665D01*
X83392000Y-40899202D01*
X83381500Y-41001990D01*
X83381500Y-41802008D01*
X83392000Y-41904796D01*
X83447186Y-42071334D01*
X83539288Y-42220657D01*
X83633303Y-42314672D01*
X83665397Y-42370259D01*
X83665397Y-42434446D01*
X83633304Y-42490034D01*
X83539681Y-42583656D01*
X83447642Y-42732877D01*
X83392493Y-42899303D01*
X83382000Y-43002021D01*
X83382000Y-43152000D01*
X84708000Y-43152000D01*
X84770000Y-43168613D01*
X84815387Y-43214000D01*
X84832000Y-43276000D01*
X84832000Y-44501999D01*
X85081979Y-44501999D01*
X85198208Y-44490126D01*
X85198550Y-44493480D01*
X85243331Y-44491522D01*
X85302421Y-44524500D01*
X85349735Y-44571814D01*
X85349737Y-44571815D01*
X85349738Y-44571816D01*
X85502478Y-44667789D01*
X85672745Y-44727368D01*
X85852000Y-44747565D01*
X86031255Y-44727368D01*
X86201522Y-44667789D01*
X86354262Y-44571816D01*
X86354262Y-44571815D01*
X86366093Y-44564382D01*
X86367764Y-44567042D01*
X86407093Y-44545087D01*
X86474701Y-44548037D01*
X86494202Y-44554499D01*
X86504702Y-44555571D01*
X86596991Y-44565000D01*
X87422500Y-44564999D01*
X87484500Y-44581612D01*
X87529887Y-44626999D01*
X87546500Y-44688999D01*
X87546500Y-46798021D01*
X87531645Y-46856871D01*
X87490640Y-46901621D01*
X87433308Y-46921549D01*
X87394592Y-46924936D01*
X87166336Y-46986097D01*
X86952170Y-47085965D01*
X86758598Y-47221505D01*
X86591505Y-47388598D01*
X86455965Y-47582170D01*
X86356097Y-47796336D01*
X86294936Y-48024592D01*
X86274340Y-48259999D01*
X86294936Y-48495407D01*
X86330946Y-48629796D01*
X86356097Y-48723663D01*
X86455965Y-48937830D01*
X86591505Y-49131401D01*
X86758599Y-49298495D01*
X86944160Y-49428426D01*
X86983024Y-49472743D01*
X86997035Y-49530000D01*
X86983024Y-49587257D01*
X86944159Y-49631575D01*
X86758595Y-49761508D01*
X86591505Y-49928598D01*
X86455965Y-50122170D01*
X86356097Y-50336336D01*
X86294936Y-50564592D01*
X86274340Y-50800000D01*
X86294936Y-51035407D01*
X86328723Y-51161500D01*
X86356097Y-51263663D01*
X86455965Y-51477830D01*
X86591505Y-51671401D01*
X86758599Y-51838495D01*
X86944160Y-51968426D01*
X86983024Y-52012743D01*
X86997035Y-52070000D01*
X86983024Y-52127257D01*
X86944158Y-52171575D01*
X86817958Y-52259942D01*
X86758595Y-52301508D01*
X86591505Y-52468598D01*
X86455965Y-52662170D01*
X86356097Y-52876336D01*
X86294936Y-53104592D01*
X86274340Y-53339999D01*
X86294936Y-53575407D01*
X86329801Y-53705523D01*
X86356097Y-53803663D01*
X86455965Y-54017830D01*
X86591505Y-54211401D01*
X86758599Y-54378495D01*
X86944160Y-54508426D01*
X86983024Y-54552743D01*
X86997035Y-54610000D01*
X86983024Y-54667257D01*
X86944160Y-54711574D01*
X86760889Y-54839902D01*
X86758595Y-54841508D01*
X86591505Y-55008598D01*
X86455965Y-55202170D01*
X86356097Y-55416336D01*
X86294936Y-55644592D01*
X86274340Y-55880000D01*
X86294936Y-56115407D01*
X86327819Y-56238127D01*
X86356097Y-56343663D01*
X86455965Y-56557830D01*
X86591505Y-56751401D01*
X86758599Y-56918495D01*
X86944160Y-57048426D01*
X86983024Y-57092743D01*
X86997035Y-57150000D01*
X86983024Y-57207257D01*
X86944158Y-57251575D01*
X86778191Y-57367787D01*
X86758595Y-57381508D01*
X86591505Y-57548598D01*
X86455965Y-57742170D01*
X86356097Y-57956336D01*
X86294936Y-58184592D01*
X86274340Y-58419999D01*
X86294936Y-58655407D01*
X86330499Y-58788128D01*
X86356097Y-58883663D01*
X86455965Y-59097830D01*
X86591505Y-59291401D01*
X86758599Y-59458495D01*
X86944160Y-59588426D01*
X86983024Y-59632743D01*
X86997035Y-59690000D01*
X86983024Y-59747257D01*
X86944159Y-59791575D01*
X86758595Y-59921508D01*
X86591505Y-60088598D01*
X86455965Y-60282170D01*
X86356097Y-60496336D01*
X86294936Y-60724592D01*
X86274340Y-60960000D01*
X86294936Y-61195407D01*
X86333948Y-61341000D01*
X86356097Y-61423663D01*
X86455965Y-61637830D01*
X86591505Y-61831401D01*
X86758599Y-61998495D01*
X86944160Y-62128426D01*
X86983024Y-62172743D01*
X86997035Y-62230000D01*
X86983024Y-62287257D01*
X86944160Y-62331574D01*
X86891425Y-62368500D01*
X86758595Y-62461508D01*
X86591505Y-62628598D01*
X86455965Y-62822170D01*
X86356097Y-63036336D01*
X86294936Y-63264592D01*
X86274340Y-63500000D01*
X86294936Y-63735407D01*
X86309571Y-63790025D01*
X86356097Y-63963663D01*
X86455965Y-64177830D01*
X86591505Y-64371401D01*
X86758599Y-64538495D01*
X86944160Y-64668426D01*
X86983024Y-64712743D01*
X86997035Y-64770000D01*
X86983024Y-64827257D01*
X86944158Y-64871575D01*
X86760302Y-65000313D01*
X86758595Y-65001508D01*
X86591505Y-65168598D01*
X86455965Y-65362170D01*
X86356097Y-65576336D01*
X86294936Y-65804592D01*
X86274340Y-66039999D01*
X86294936Y-66275407D01*
X86315424Y-66351868D01*
X86356097Y-66503663D01*
X86455965Y-66717830D01*
X86591505Y-66911401D01*
X86758599Y-67078495D01*
X86944160Y-67208426D01*
X86983024Y-67252743D01*
X86997035Y-67310000D01*
X86983024Y-67367257D01*
X86944158Y-67411575D01*
X86760732Y-67540012D01*
X86758595Y-67541508D01*
X86591505Y-67708598D01*
X86455965Y-67902170D01*
X86356097Y-68116336D01*
X86294936Y-68344592D01*
X86274340Y-68579999D01*
X86294936Y-68815407D01*
X86337799Y-68975374D01*
X86356097Y-69043663D01*
X86455965Y-69257830D01*
X86591505Y-69451401D01*
X86758599Y-69618495D01*
X86944160Y-69748426D01*
X86983024Y-69792743D01*
X86997035Y-69850000D01*
X86983024Y-69907257D01*
X86944158Y-69951575D01*
X86796657Y-70054857D01*
X86758595Y-70081508D01*
X86591505Y-70248598D01*
X86455965Y-70442170D01*
X86356097Y-70656336D01*
X86294936Y-70884592D01*
X86274340Y-71119999D01*
X86294936Y-71355407D01*
X86324049Y-71464058D01*
X86356097Y-71583663D01*
X86455965Y-71797830D01*
X86591505Y-71991401D01*
X86758599Y-72158495D01*
X86944160Y-72288426D01*
X86983024Y-72332743D01*
X86997035Y-72390000D01*
X86983024Y-72447257D01*
X86944159Y-72491575D01*
X86758595Y-72621508D01*
X86591505Y-72788598D01*
X86455965Y-72982170D01*
X86356097Y-73196336D01*
X86294936Y-73424592D01*
X86274340Y-73660000D01*
X86294936Y-73895407D01*
X86310359Y-73952965D01*
X86356097Y-74123663D01*
X86455965Y-74337830D01*
X86591505Y-74531401D01*
X86758599Y-74698495D01*
X86944160Y-74828426D01*
X86983024Y-74872743D01*
X86997035Y-74930000D01*
X86983024Y-74987257D01*
X86944159Y-75031575D01*
X86758595Y-75161508D01*
X86591505Y-75328598D01*
X86455965Y-75522170D01*
X86356097Y-75736336D01*
X86294936Y-75964592D01*
X86274340Y-76199999D01*
X86294936Y-76435407D01*
X86328747Y-76561592D01*
X86356097Y-76663663D01*
X86455965Y-76877830D01*
X86591505Y-77071401D01*
X86758599Y-77238495D01*
X86944160Y-77368426D01*
X86983024Y-77412743D01*
X86997035Y-77470000D01*
X86983024Y-77527257D01*
X86944158Y-77571575D01*
X86815720Y-77661509D01*
X86758595Y-77701508D01*
X86591505Y-77868598D01*
X86455965Y-78062170D01*
X86356097Y-78276336D01*
X86294936Y-78504592D01*
X86274340Y-78740000D01*
X86294936Y-78975407D01*
X86335878Y-79128203D01*
X86356097Y-79203663D01*
X86455965Y-79417830D01*
X86591505Y-79611401D01*
X86758599Y-79778495D01*
X86944160Y-79908426D01*
X86983024Y-79952743D01*
X86997035Y-80010000D01*
X86983024Y-80067257D01*
X86944158Y-80111575D01*
X86826931Y-80193659D01*
X86758595Y-80241508D01*
X86591505Y-80408598D01*
X86455965Y-80602170D01*
X86356097Y-80816336D01*
X86294936Y-81044592D01*
X86274340Y-81279999D01*
X86294936Y-81515407D01*
X86313460Y-81584538D01*
X86356097Y-81743663D01*
X86455965Y-81957830D01*
X86591505Y-82151401D01*
X86591508Y-82151404D01*
X86713818Y-82273714D01*
X86745114Y-82326460D01*
X86747303Y-82387753D01*
X86719850Y-82442597D01*
X86669472Y-82477576D01*
X86537913Y-82526646D01*
X86422811Y-82612811D01*
X86336647Y-82727910D01*
X86286402Y-82862624D01*
X86280000Y-82922176D01*
X86280000Y-83570000D01*
X88980000Y-83570000D01*
X88980000Y-82922176D01*
X88973597Y-82862624D01*
X88923352Y-82727910D01*
X88837188Y-82612811D01*
X88722088Y-82526647D01*
X88590528Y-82477577D01*
X88540149Y-82442597D01*
X88512696Y-82387752D01*
X88514885Y-82326460D01*
X88546178Y-82273717D01*
X88668495Y-82151401D01*
X88804035Y-81957830D01*
X88903903Y-81743663D01*
X88965063Y-81515408D01*
X88985659Y-81280000D01*
X88965063Y-81044592D01*
X88903903Y-80816337D01*
X88804035Y-80602171D01*
X88668495Y-80408599D01*
X88501401Y-80241505D01*
X88315839Y-80111573D01*
X88276976Y-80067257D01*
X88262965Y-80010000D01*
X88276976Y-79952743D01*
X88315839Y-79908426D01*
X88501401Y-79778495D01*
X88668495Y-79611401D01*
X88804035Y-79417830D01*
X88903903Y-79203663D01*
X88965063Y-78975408D01*
X88985659Y-78740000D01*
X88965063Y-78504592D01*
X88903903Y-78276337D01*
X88804035Y-78062171D01*
X88668495Y-77868599D01*
X88501401Y-77701505D01*
X88315839Y-77571573D01*
X88276975Y-77527257D01*
X88262964Y-77470000D01*
X88276975Y-77412743D01*
X88315839Y-77368426D01*
X88501401Y-77238495D01*
X88668495Y-77071401D01*
X88804035Y-76877830D01*
X88903903Y-76663663D01*
X88965063Y-76435408D01*
X88985659Y-76200000D01*
X88976993Y-76100955D01*
X88965063Y-75964592D01*
X88950522Y-75910325D01*
X88903903Y-75736337D01*
X88804035Y-75522171D01*
X88668495Y-75328599D01*
X88501401Y-75161505D01*
X88315839Y-75031573D01*
X88276975Y-74987257D01*
X88262964Y-74930000D01*
X88276975Y-74872743D01*
X88315839Y-74828426D01*
X88501401Y-74698495D01*
X88668495Y-74531401D01*
X88804035Y-74337830D01*
X88903903Y-74123663D01*
X88965063Y-73895408D01*
X88985659Y-73660000D01*
X88965063Y-73424592D01*
X88903903Y-73196337D01*
X88804035Y-72982171D01*
X88668495Y-72788599D01*
X88501401Y-72621505D01*
X88315839Y-72491573D01*
X88276976Y-72447257D01*
X88262965Y-72390000D01*
X88276976Y-72332743D01*
X88315839Y-72288426D01*
X88501401Y-72158495D01*
X88668495Y-71991401D01*
X88804035Y-71797830D01*
X88903903Y-71583663D01*
X88965063Y-71355408D01*
X88985659Y-71120000D01*
X88985472Y-71117868D01*
X88965063Y-70884592D01*
X88956277Y-70851801D01*
X88903903Y-70656337D01*
X88804035Y-70442171D01*
X88668495Y-70248599D01*
X88501401Y-70081505D01*
X88315839Y-69951573D01*
X88276975Y-69907257D01*
X88262964Y-69850000D01*
X88276975Y-69792743D01*
X88315839Y-69748426D01*
X88501401Y-69618495D01*
X88668495Y-69451401D01*
X88804035Y-69257830D01*
X88903903Y-69043663D01*
X88965063Y-68815408D01*
X88985659Y-68580000D01*
X88984001Y-68561055D01*
X88965063Y-68344592D01*
X88947111Y-68277594D01*
X88903903Y-68116337D01*
X88804035Y-67902171D01*
X88668495Y-67708599D01*
X88501401Y-67541505D01*
X88315839Y-67411573D01*
X88276975Y-67367257D01*
X88262964Y-67310000D01*
X88276975Y-67252743D01*
X88315839Y-67208426D01*
X88501401Y-67078495D01*
X88668495Y-66911401D01*
X88804035Y-66717830D01*
X88903903Y-66503663D01*
X88965063Y-66275408D01*
X88985659Y-66040000D01*
X88981670Y-65994412D01*
X88965063Y-65804592D01*
X88958116Y-65778665D01*
X88903903Y-65576337D01*
X88804035Y-65362171D01*
X88668495Y-65168599D01*
X88501401Y-65001505D01*
X88315839Y-64871573D01*
X88276976Y-64827257D01*
X88262965Y-64770000D01*
X88276976Y-64712743D01*
X88315839Y-64668426D01*
X88501401Y-64538495D01*
X88668495Y-64371401D01*
X88804035Y-64177830D01*
X88903903Y-63963663D01*
X88965063Y-63735408D01*
X88985659Y-63500000D01*
X88965063Y-63264592D01*
X88903903Y-63036337D01*
X88804035Y-62822171D01*
X88668495Y-62628599D01*
X88501401Y-62461505D01*
X88315839Y-62331573D01*
X88276974Y-62287255D01*
X88262964Y-62229999D01*
X88276975Y-62172742D01*
X88315837Y-62128428D01*
X88501401Y-61998495D01*
X88668495Y-61831401D01*
X88804035Y-61637830D01*
X88903903Y-61423663D01*
X88965063Y-61195408D01*
X88985659Y-60960000D01*
X88965063Y-60724592D01*
X88903903Y-60496337D01*
X88804035Y-60282171D01*
X88668495Y-60088599D01*
X88501401Y-59921505D01*
X88315839Y-59791573D01*
X88276975Y-59747257D01*
X88262964Y-59690000D01*
X88276975Y-59632743D01*
X88315839Y-59588426D01*
X88501401Y-59458495D01*
X88668495Y-59291401D01*
X88804035Y-59097830D01*
X88903903Y-58883663D01*
X88965063Y-58655408D01*
X88985659Y-58420000D01*
X88965063Y-58184592D01*
X88903903Y-57956337D01*
X88804035Y-57742171D01*
X88668495Y-57548599D01*
X88501401Y-57381505D01*
X88315839Y-57251573D01*
X88276975Y-57207257D01*
X88262964Y-57150000D01*
X88276975Y-57092743D01*
X88315839Y-57048426D01*
X88501401Y-56918495D01*
X88668495Y-56751401D01*
X88804035Y-56557830D01*
X88903903Y-56343663D01*
X88965063Y-56115408D01*
X88985659Y-55880000D01*
X88965063Y-55644592D01*
X88903903Y-55416337D01*
X88804035Y-55202171D01*
X88668495Y-55008599D01*
X88501401Y-54841505D01*
X88315839Y-54711573D01*
X88276974Y-54667255D01*
X88262964Y-54609999D01*
X88276975Y-54552742D01*
X88315837Y-54508428D01*
X88501401Y-54378495D01*
X88668495Y-54211401D01*
X88804035Y-54017830D01*
X88903903Y-53803663D01*
X88965063Y-53575408D01*
X88985659Y-53340000D01*
X88965063Y-53104592D01*
X88903903Y-52876337D01*
X88804035Y-52662171D01*
X88668495Y-52468599D01*
X88501401Y-52301505D01*
X88315839Y-52171573D01*
X88276975Y-52127257D01*
X88262964Y-52070000D01*
X88276975Y-52012743D01*
X88315839Y-51968426D01*
X88501401Y-51838495D01*
X88668495Y-51671401D01*
X88804035Y-51477830D01*
X88903903Y-51263663D01*
X88965063Y-51035408D01*
X88985659Y-50800000D01*
X88965063Y-50564592D01*
X88903903Y-50336337D01*
X88804035Y-50122171D01*
X88668495Y-49928599D01*
X88501401Y-49761505D01*
X88315839Y-49631573D01*
X88276975Y-49587257D01*
X88262964Y-49530000D01*
X88276975Y-49472743D01*
X88315839Y-49428426D01*
X88501401Y-49298495D01*
X88668495Y-49131401D01*
X88804035Y-48937830D01*
X88903903Y-48723663D01*
X88965063Y-48495408D01*
X88985659Y-48260000D01*
X88965063Y-48024592D01*
X88903903Y-47796337D01*
X88809117Y-47593070D01*
X88797500Y-47540667D01*
X88797500Y-42984067D01*
X88799763Y-42963563D01*
X88797561Y-42893471D01*
X88797500Y-42889577D01*
X88797500Y-42861984D01*
X88797500Y-42861977D01*
X88796995Y-42857980D01*
X88796080Y-42846350D01*
X88794709Y-42802700D01*
X88789120Y-42783467D01*
X88785174Y-42764409D01*
X88782664Y-42744535D01*
X88766588Y-42703933D01*
X88762804Y-42692879D01*
X88750619Y-42650940D01*
X88750618Y-42650939D01*
X88750618Y-42650937D01*
X88740417Y-42633688D01*
X88731860Y-42616222D01*
X88724486Y-42597595D01*
X88698813Y-42562259D01*
X88692402Y-42552499D01*
X88680264Y-42531975D01*
X88670170Y-42514906D01*
X88656006Y-42500742D01*
X88643369Y-42485947D01*
X88631595Y-42469741D01*
X88631594Y-42469740D01*
X88597935Y-42441895D01*
X88589305Y-42434041D01*
X88319042Y-42163778D01*
X88286065Y-42104693D01*
X88289016Y-42037097D01*
X88336999Y-41892297D01*
X88347500Y-41789509D01*
X88347499Y-41014492D01*
X88336999Y-40911703D01*
X88310831Y-40832735D01*
X88307173Y-40768308D01*
X88336387Y-40710764D01*
X88390562Y-40675693D01*
X88455024Y-40672597D01*
X88512311Y-40702313D01*
X88598327Y-40781132D01*
X88602235Y-40784873D01*
X88755125Y-40937763D01*
X88758866Y-40941671D01*
X88897026Y-41092446D01*
X88900227Y-41096078D01*
X89040013Y-41261124D01*
X89043766Y-41265779D01*
X89168239Y-41427996D01*
X89170780Y-41431428D01*
X89296460Y-41607453D01*
X89300123Y-41612882D01*
X89409974Y-41785313D01*
X89411917Y-41788465D01*
X89522650Y-41974300D01*
X89526116Y-41980516D01*
X89620534Y-42161889D01*
X89621946Y-42164686D01*
X89716942Y-42359004D01*
X89720102Y-42366011D01*
X89798351Y-42554920D01*
X89799307Y-42557298D01*
X89835847Y-42650940D01*
X89877951Y-42758845D01*
X89880693Y-42766627D01*
X89942163Y-42961591D01*
X89942747Y-42963495D01*
X90004494Y-43170898D01*
X90006710Y-43179441D01*
X90050949Y-43378987D01*
X90051249Y-43380380D01*
X90095675Y-43592260D01*
X90097253Y-43601521D01*
X90123887Y-43803829D01*
X90123996Y-43804676D01*
X90150818Y-44019849D01*
X90151652Y-44029778D01*
X90160512Y-44232701D01*
X90160524Y-44232986D01*
X90169394Y-44447438D01*
X90169500Y-44452562D01*
X90169500Y-92453438D01*
X90169394Y-92458562D01*
X90160524Y-92673013D01*
X90160512Y-92673298D01*
X90151652Y-92876220D01*
X90150818Y-92886149D01*
X90123996Y-93101322D01*
X90123887Y-93102169D01*
X90097253Y-93304477D01*
X90095675Y-93313738D01*
X90051249Y-93525618D01*
X90050949Y-93527011D01*
X90006710Y-93726557D01*
X90004494Y-93735100D01*
X89942747Y-93942503D01*
X89942163Y-93944407D01*
X89880693Y-94139371D01*
X89877949Y-94147160D01*
X89799307Y-94348700D01*
X89798351Y-94351078D01*
X89720102Y-94539987D01*
X89716942Y-94546994D01*
X89670644Y-94641699D01*
X89664953Y-94653342D01*
X89651901Y-94680040D01*
X89608322Y-94729388D01*
X89545625Y-94749474D01*
X89481483Y-94734635D01*
X89433977Y-94689054D01*
X89416500Y-94625580D01*
X89416500Y-88176238D01*
X89416540Y-88173096D01*
X89418756Y-88085639D01*
X89418755Y-88085638D01*
X89418756Y-88085636D01*
X89408345Y-88027554D01*
X89407042Y-88018263D01*
X89401074Y-87959562D01*
X89391964Y-87930528D01*
X89388223Y-87915286D01*
X89386940Y-87908128D01*
X89382858Y-87885347D01*
X89382857Y-87885345D01*
X89382857Y-87885343D01*
X89360976Y-87830565D01*
X89357816Y-87821689D01*
X89352149Y-87803628D01*
X89340159Y-87765412D01*
X89330595Y-87748181D01*
X89325395Y-87738812D01*
X89318660Y-87724631D01*
X89307377Y-87696383D01*
X89274917Y-87647131D01*
X89270036Y-87639074D01*
X89241579Y-87587805D01*
X89225999Y-87527629D01*
X89225999Y-86850991D01*
X89215499Y-86748203D01*
X89208653Y-86727542D01*
X89160314Y-86581666D01*
X89081666Y-86454157D01*
X89068211Y-86432342D01*
X88944157Y-86308288D01*
X88794834Y-86216186D01*
X88628297Y-86161000D01*
X88525509Y-86150500D01*
X87750491Y-86150500D01*
X87647703Y-86161000D01*
X87481165Y-86216186D01*
X87331842Y-86308288D01*
X87207786Y-86432344D01*
X87206037Y-86435181D01*
X87160931Y-86478360D01*
X87100500Y-86494082D01*
X87040069Y-86478360D01*
X86994963Y-86435181D01*
X86993213Y-86432344D01*
X86869157Y-86308288D01*
X86719834Y-86216186D01*
X86553297Y-86161000D01*
X86450509Y-86150500D01*
X85675491Y-86150500D01*
X85572703Y-86161000D01*
X85461023Y-86198008D01*
X85406166Y-86216186D01*
X85406165Y-86216186D01*
X85392409Y-86220745D01*
X85391345Y-86217536D01*
X85353170Y-86228801D01*
X85290048Y-86213097D01*
X85243560Y-86167600D01*
X85226499Y-86104833D01*
X85226499Y-84997992D01*
X85223898Y-84972534D01*
X85215999Y-84895203D01*
X85213015Y-84886199D01*
X85160814Y-84728666D01*
X85068712Y-84579344D01*
X85068711Y-84579342D01*
X84944657Y-84455288D01*
X84795334Y-84363186D01*
X84628797Y-84308000D01*
X84526009Y-84297500D01*
X83731783Y-84297500D01*
X83684330Y-84288061D01*
X83644102Y-84261181D01*
X83452921Y-84070000D01*
X86280000Y-84070000D01*
X86280000Y-84717824D01*
X86286402Y-84777375D01*
X86336647Y-84912089D01*
X86422811Y-85027188D01*
X86537910Y-85113352D01*
X86672624Y-85163597D01*
X86732176Y-85170000D01*
X87380000Y-85170000D01*
X87380000Y-84070000D01*
X87880000Y-84070000D01*
X87880000Y-85170000D01*
X88527824Y-85170000D01*
X88587375Y-85163597D01*
X88722089Y-85113352D01*
X88837188Y-85027188D01*
X88923352Y-84912089D01*
X88973597Y-84777375D01*
X88980000Y-84717824D01*
X88980000Y-84070000D01*
X87880000Y-84070000D01*
X87380000Y-84070000D01*
X86280000Y-84070000D01*
X83452921Y-84070000D01*
X82703819Y-83320899D01*
X82676939Y-83280671D01*
X82667500Y-83233218D01*
X82667500Y-81865603D01*
X82679405Y-81812586D01*
X82712835Y-81769750D01*
X82727296Y-81757881D01*
X82752883Y-81736883D01*
X82877910Y-81584538D01*
X82970814Y-81410727D01*
X83028024Y-81222132D01*
X83047341Y-81026000D01*
X83028024Y-80829868D01*
X82970814Y-80641273D01*
X82877910Y-80467462D01*
X82752883Y-80315117D01*
X82600538Y-80190090D01*
X82483136Y-80127337D01*
X82426726Y-80097185D01*
X82238133Y-80039976D01*
X82042000Y-80020659D01*
X81845866Y-80039976D01*
X81657273Y-80097185D01*
X81483463Y-80190089D01*
X81331117Y-80315117D01*
X81206089Y-80467463D01*
X81113185Y-80641273D01*
X81055976Y-80829866D01*
X81036659Y-81025999D01*
X81036659Y-81026000D01*
X81041101Y-81071097D01*
X81055976Y-81222133D01*
X81113185Y-81410726D01*
X81206089Y-81584537D01*
X81331117Y-81736883D01*
X81371165Y-81769750D01*
X81404595Y-81812586D01*
X81416500Y-81865603D01*
X81416500Y-82806814D01*
X81400148Y-82868360D01*
X81355405Y-82913673D01*
X81341040Y-82922130D01*
X81192773Y-83009410D01*
X81041784Y-83145823D01*
X80921349Y-83309833D01*
X80836394Y-83494730D01*
X80790396Y-83692946D01*
X80785242Y-83896361D01*
X80821142Y-84096654D01*
X80896623Y-84285619D01*
X81008596Y-84455518D01*
X81234752Y-84681674D01*
X81267728Y-84740758D01*
X81264777Y-84808358D01*
X81236000Y-84895200D01*
X81225500Y-84997990D01*
X81225500Y-86198008D01*
X81236000Y-86300796D01*
X81291186Y-86467334D01*
X81383288Y-86616657D01*
X81507342Y-86740711D01*
X81516217Y-86746185D01*
X81656666Y-86832814D01*
X81735968Y-86859092D01*
X81823202Y-86887999D01*
X81925991Y-86898500D01*
X82101500Y-86898500D01*
X82163500Y-86915113D01*
X82208887Y-86960500D01*
X82225500Y-87022500D01*
X82225500Y-91077500D01*
X82208887Y-91139500D01*
X82163500Y-91184887D01*
X82101500Y-91201500D01*
X81915750Y-91201500D01*
X81860247Y-91188385D01*
X81816485Y-91151813D01*
X81797393Y-91126309D01*
X81775494Y-91078360D01*
X81775494Y-91025642D01*
X81797394Y-90977689D01*
X81797395Y-90977688D01*
X81859796Y-90894331D01*
X81910091Y-90759483D01*
X81916500Y-90699873D01*
X81916499Y-89104128D01*
X81910091Y-89044517D01*
X81859796Y-88909669D01*
X81773546Y-88794454D01*
X81658331Y-88708204D01*
X81523483Y-88657909D01*
X81463873Y-88651500D01*
X81463869Y-88651500D01*
X80631782Y-88651500D01*
X80584329Y-88642061D01*
X80544101Y-88615181D01*
X79862819Y-87933899D01*
X79835939Y-87893671D01*
X79826500Y-87846218D01*
X79826500Y-87022499D01*
X79843113Y-86960499D01*
X79888500Y-86915112D01*
X79950500Y-86898499D01*
X80126009Y-86898499D01*
X80189473Y-86892016D01*
X80228797Y-86887999D01*
X80395334Y-86832814D01*
X80544656Y-86740712D01*
X80668712Y-86616656D01*
X80760814Y-86467334D01*
X80815999Y-86300797D01*
X80826500Y-86198009D01*
X80826499Y-84997992D01*
X80823898Y-84972534D01*
X80815999Y-84895203D01*
X80813015Y-84886199D01*
X80760814Y-84728666D01*
X80668712Y-84579344D01*
X80668711Y-84579342D01*
X80544657Y-84455288D01*
X80395334Y-84363186D01*
X80228797Y-84308000D01*
X80126009Y-84297500D01*
X78991782Y-84297500D01*
X78944329Y-84288061D01*
X78904101Y-84261181D01*
X76322353Y-81679433D01*
X76292328Y-81630755D01*
X76287343Y-81573779D01*
X76308457Y-81520632D01*
X76358035Y-81449830D01*
X76457903Y-81235663D01*
X76519063Y-81007408D01*
X76539659Y-80772000D01*
X76519063Y-80536592D01*
X76457903Y-80308337D01*
X76358035Y-80094171D01*
X76222495Y-79900599D01*
X76055401Y-79733505D01*
X75861830Y-79597965D01*
X75647663Y-79498097D01*
X75586501Y-79481709D01*
X75419407Y-79436936D01*
X75184000Y-79416340D01*
X74948592Y-79436936D01*
X74720336Y-79498097D01*
X74506170Y-79597965D01*
X74312601Y-79733503D01*
X74190673Y-79855431D01*
X74137926Y-79886726D01*
X74076634Y-79888915D01*
X74021789Y-79861462D01*
X73986810Y-79811082D01*
X73974654Y-79778491D01*
X73937796Y-79679669D01*
X73851546Y-79564454D01*
X73736331Y-79478204D01*
X73601483Y-79427909D01*
X73541873Y-79421500D01*
X73541869Y-79421500D01*
X71746130Y-79421500D01*
X71686515Y-79427909D01*
X71551669Y-79478204D01*
X71436454Y-79564454D01*
X71350204Y-79679668D01*
X71299909Y-79814516D01*
X71293500Y-79874131D01*
X71293500Y-80656216D01*
X71284061Y-80703669D01*
X71257181Y-80743897D01*
X70513899Y-81487181D01*
X70473671Y-81514061D01*
X70426218Y-81523500D01*
X70379301Y-81523500D01*
X70322045Y-81509490D01*
X70277727Y-81470624D01*
X70256362Y-81415687D01*
X70255107Y-81406162D01*
X70251417Y-81378129D01*
X70200903Y-81256177D01*
X70120546Y-81151454D01*
X70094852Y-81131738D01*
X70015824Y-81071096D01*
X69893871Y-81020583D01*
X69763001Y-81003353D01*
X69763000Y-81003353D01*
X68988000Y-81003353D01*
X68987998Y-81003353D01*
X68859209Y-81020029D01*
X68738911Y-81068961D01*
X68635046Y-81146919D01*
X68284844Y-81488293D01*
X68245010Y-81514362D01*
X68198289Y-81523500D01*
X67846500Y-81523500D01*
X67840221Y-81523341D01*
X67838112Y-81523234D01*
X67767064Y-81519631D01*
X67767061Y-81519631D01*
X67754472Y-81518993D01*
X67754520Y-81518039D01*
X67712033Y-81514532D01*
X67662970Y-81484380D01*
X66837677Y-80659086D01*
X66806640Y-80607210D01*
X66803819Y-80546825D01*
X66829883Y-80492281D01*
X66878640Y-80456543D01*
X66897086Y-80449040D01*
X66897086Y-80449039D01*
X66897088Y-80449039D01*
X67000953Y-80371081D01*
X67399521Y-79982560D01*
X67452724Y-79951924D01*
X67514105Y-79950565D01*
X67690946Y-79991603D01*
X67894361Y-79996757D01*
X67894361Y-79996756D01*
X67894363Y-79996757D01*
X68094653Y-79960858D01*
X68104621Y-79956876D01*
X68151135Y-79948030D01*
X68197577Y-79957265D01*
X68237170Y-79983235D01*
X68635047Y-80371081D01*
X68738912Y-80449039D01*
X68859208Y-80497970D01*
X68902138Y-80503528D01*
X68987998Y-80514647D01*
X68988000Y-80514647D01*
X69763000Y-80514647D01*
X69763001Y-80514647D01*
X69778226Y-80512642D01*
X69893871Y-80497417D01*
X70015824Y-80446903D01*
X70120546Y-80366546D01*
X70200903Y-80261824D01*
X70251417Y-80139871D01*
X70268515Y-80010000D01*
X70268647Y-80009001D01*
X70268647Y-79118998D01*
X70251808Y-78989598D01*
X70251808Y-78989596D01*
X70202414Y-78868811D01*
X70123753Y-78764689D01*
X70067715Y-78707632D01*
X69882080Y-78518621D01*
X69850583Y-78463106D01*
X69850870Y-78399280D01*
X69882865Y-78344054D01*
X70277409Y-77949510D01*
X70279579Y-77947394D01*
X70343053Y-77887059D01*
X70376757Y-77838633D01*
X70382426Y-77831116D01*
X70419698Y-77785407D01*
X70433783Y-77758439D01*
X70441918Y-77745015D01*
X70448373Y-77735740D01*
X70459295Y-77720049D01*
X70482568Y-77665815D01*
X70486588Y-77657350D01*
X70513909Y-77605049D01*
X70522275Y-77575808D01*
X70527539Y-77561019D01*
X70539540Y-77533058D01*
X70551417Y-77475256D01*
X70553652Y-77466148D01*
X70569886Y-77409418D01*
X70572196Y-77379078D01*
X70574376Y-77363540D01*
X70580500Y-77333742D01*
X70580500Y-77274756D01*
X70580858Y-77265341D01*
X70582902Y-77238494D01*
X70585337Y-77206524D01*
X70581494Y-77176348D01*
X70580500Y-77160683D01*
X70580500Y-76209782D01*
X70594015Y-76153487D01*
X70631615Y-76109464D01*
X70685102Y-76087309D01*
X70742818Y-76091851D01*
X70792181Y-76122101D01*
X71233431Y-76563351D01*
X71235624Y-76565600D01*
X71295942Y-76629054D01*
X71344362Y-76662755D01*
X71351871Y-76668416D01*
X71397593Y-76705698D01*
X71424562Y-76719785D01*
X71437982Y-76727916D01*
X71462949Y-76745294D01*
X71517163Y-76768559D01*
X71525663Y-76772595D01*
X71577950Y-76799908D01*
X71577951Y-76799909D01*
X71607196Y-76808277D01*
X71621986Y-76813543D01*
X71629464Y-76816752D01*
X71649942Y-76825540D01*
X71707737Y-76837416D01*
X71716854Y-76839654D01*
X71773582Y-76855887D01*
X71803916Y-76858196D01*
X71819453Y-76860374D01*
X71849259Y-76866500D01*
X71908242Y-76866500D01*
X71917656Y-76866858D01*
X71976476Y-76871337D01*
X72006651Y-76867493D01*
X72022317Y-76866500D01*
X78393024Y-76866500D01*
X78451153Y-76880969D01*
X78495716Y-76920999D01*
X78509696Y-76959177D01*
X78510466Y-76958890D01*
X78515909Y-76973483D01*
X78566204Y-77108331D01*
X78652454Y-77223546D01*
X78767669Y-77309796D01*
X78902517Y-77360091D01*
X78962127Y-77366500D01*
X81057872Y-77366499D01*
X81117483Y-77360091D01*
X81252331Y-77309796D01*
X81367546Y-77223546D01*
X81453796Y-77108331D01*
X81504091Y-76973483D01*
X81510500Y-76913873D01*
X81510500Y-76615500D01*
X81527113Y-76553500D01*
X81572500Y-76508113D01*
X81634500Y-76491500D01*
X82667548Y-76491500D01*
X82715001Y-76500939D01*
X82755229Y-76527819D01*
X83800014Y-77572604D01*
X83829084Y-77618509D01*
X83835736Y-77672436D01*
X83830658Y-77723997D01*
X83849976Y-77920133D01*
X83907185Y-78108726D01*
X83907186Y-78108727D01*
X84000090Y-78282538D01*
X84125117Y-78434883D01*
X84277462Y-78559910D01*
X84451273Y-78652814D01*
X84639868Y-78710024D01*
X84836000Y-78729341D01*
X85032132Y-78710024D01*
X85220727Y-78652814D01*
X85394538Y-78559910D01*
X85546883Y-78434883D01*
X85671910Y-78282538D01*
X85764814Y-78108727D01*
X85822024Y-77920132D01*
X85841341Y-77724000D01*
X85822024Y-77527868D01*
X85764814Y-77339273D01*
X85671910Y-77165462D01*
X85546883Y-77013117D01*
X85394538Y-76888090D01*
X85363195Y-76871337D01*
X85220726Y-76795185D01*
X85032133Y-76737976D01*
X84835997Y-76718658D01*
X84784436Y-76723736D01*
X84730509Y-76717084D01*
X84684604Y-76688014D01*
X84097545Y-76100955D01*
X83478802Y-75482211D01*
X83465906Y-75466113D01*
X83414775Y-75418098D01*
X83411978Y-75415387D01*
X83392470Y-75395879D01*
X83389290Y-75393412D01*
X83380424Y-75385839D01*
X83348582Y-75355938D01*
X83331024Y-75346285D01*
X83314764Y-75335604D01*
X83298936Y-75323327D01*
X83258851Y-75305980D01*
X83248361Y-75300841D01*
X83210091Y-75279802D01*
X83190691Y-75274821D01*
X83172284Y-75268519D01*
X83153897Y-75260562D01*
X83110758Y-75253729D01*
X83099324Y-75251361D01*
X83057019Y-75240500D01*
X83036984Y-75240500D01*
X83017586Y-75238973D01*
X83010162Y-75237797D01*
X82997805Y-75235840D01*
X82997804Y-75235840D01*
X82964751Y-75238964D01*
X82954325Y-75239950D01*
X82942656Y-75240500D01*
X81634499Y-75240500D01*
X81572499Y-75223887D01*
X81527112Y-75178500D01*
X81510499Y-75116500D01*
X81510499Y-74818130D01*
X81510499Y-74818127D01*
X81504091Y-74758517D01*
X81453796Y-74623669D01*
X81367546Y-74508454D01*
X81252331Y-74422204D01*
X81117483Y-74371909D01*
X81057873Y-74365500D01*
X81057869Y-74365500D01*
X78962130Y-74365500D01*
X78902515Y-74371909D01*
X78767669Y-74422204D01*
X78652454Y-74508454D01*
X78566204Y-74623668D01*
X78510466Y-74773110D01*
X78509695Y-74772822D01*
X78495716Y-74811000D01*
X78451153Y-74851031D01*
X78393024Y-74865500D01*
X72416783Y-74865500D01*
X72369330Y-74856061D01*
X72329102Y-74829181D01*
X71300101Y-73800180D01*
X71268007Y-73744593D01*
X71268007Y-73680405D01*
X71300099Y-73624820D01*
X73044409Y-71880510D01*
X73046579Y-71878394D01*
X73110053Y-71818059D01*
X73143765Y-71769622D01*
X73149408Y-71762138D01*
X73186698Y-71716407D01*
X73200786Y-71689435D01*
X73208911Y-71676024D01*
X73226295Y-71651049D01*
X73249568Y-71596815D01*
X73253598Y-71588331D01*
X73256037Y-71583663D01*
X73280909Y-71536049D01*
X73289278Y-71506797D01*
X73294534Y-71492032D01*
X73306540Y-71464058D01*
X73318418Y-71406256D01*
X73320651Y-71397156D01*
X73336887Y-71340418D01*
X73339197Y-71310077D01*
X73341376Y-71294535D01*
X73347500Y-71264741D01*
X73347500Y-71205757D01*
X73347858Y-71196343D01*
X73349702Y-71172125D01*
X73352337Y-71137523D01*
X73348493Y-71107347D01*
X73347500Y-71091682D01*
X73347500Y-70694731D01*
X73361015Y-70638436D01*
X73398615Y-70594413D01*
X73452102Y-70572258D01*
X73509818Y-70576800D01*
X73559181Y-70607050D01*
X73615842Y-70663711D01*
X73615844Y-70663712D01*
X73765166Y-70755814D01*
X73876517Y-70792712D01*
X73931702Y-70810999D01*
X73942202Y-70812071D01*
X74034491Y-70821500D01*
X74809508Y-70821499D01*
X74912297Y-70810999D01*
X75078834Y-70755814D01*
X75228156Y-70663712D01*
X75259048Y-70632819D01*
X75299277Y-70605939D01*
X75346730Y-70596500D01*
X78274217Y-70596500D01*
X78321670Y-70605939D01*
X78361898Y-70632819D01*
X78470657Y-70741578D01*
X78499400Y-70786580D01*
X78506553Y-70839497D01*
X78504357Y-70866000D01*
X78524891Y-71113816D01*
X78524891Y-71113819D01*
X78524892Y-71113821D01*
X78585937Y-71354881D01*
X78616939Y-71425559D01*
X78685825Y-71582604D01*
X78685827Y-71582607D01*
X78821836Y-71790785D01*
X78990256Y-71973738D01*
X79055667Y-72024649D01*
X79186485Y-72126470D01*
X79186487Y-72126471D01*
X79186491Y-72126474D01*
X79405190Y-72244828D01*
X79640386Y-72325571D01*
X79885665Y-72366500D01*
X80134335Y-72366500D01*
X80379614Y-72325571D01*
X80614810Y-72244828D01*
X80833509Y-72126474D01*
X81029744Y-71973738D01*
X81198164Y-71790785D01*
X81334173Y-71582607D01*
X81434063Y-71354881D01*
X81495108Y-71113821D01*
X81515643Y-70866000D01*
X81495108Y-70618179D01*
X81434063Y-70377119D01*
X81334173Y-70149393D01*
X81198164Y-69941215D01*
X81029744Y-69758262D01*
X80967538Y-69709845D01*
X80833514Y-69605529D01*
X80833510Y-69605526D01*
X80833509Y-69605526D01*
X80614810Y-69487172D01*
X80614806Y-69487170D01*
X80614805Y-69487170D01*
X80379615Y-69406429D01*
X80134335Y-69365500D01*
X79975782Y-69365500D01*
X79928329Y-69356061D01*
X79888101Y-69329181D01*
X79710819Y-69151899D01*
X79683939Y-69111671D01*
X79674500Y-69064218D01*
X79674500Y-66340260D01*
X79667905Y-66275407D01*
X79659074Y-66188562D01*
X79637995Y-66121381D01*
X79635518Y-66056231D01*
X79666434Y-65998829D01*
X79722197Y-65965045D01*
X79787390Y-65964219D01*
X79843990Y-65996580D01*
X80244014Y-66396604D01*
X80273084Y-66442509D01*
X80279736Y-66496436D01*
X80274658Y-66547997D01*
X80293976Y-66744133D01*
X80351185Y-66932726D01*
X80418935Y-67059476D01*
X80444090Y-67106538D01*
X80569117Y-67258883D01*
X80721462Y-67383910D01*
X80895273Y-67476814D01*
X81083868Y-67534024D01*
X81280000Y-67553341D01*
X81476132Y-67534024D01*
X81664727Y-67476814D01*
X81838538Y-67383910D01*
X81990883Y-67258883D01*
X82115910Y-67106538D01*
X82208814Y-66932727D01*
X82266024Y-66744132D01*
X82285341Y-66548000D01*
X82266024Y-66351868D01*
X82208814Y-66163273D01*
X82115910Y-65989462D01*
X81990883Y-65837117D01*
X81838538Y-65712090D01*
X81764981Y-65672773D01*
X81664726Y-65619185D01*
X81476133Y-65561976D01*
X81279997Y-65542658D01*
X81228438Y-65547736D01*
X81174510Y-65541084D01*
X81128605Y-65512014D01*
X80561302Y-64944711D01*
X80548406Y-64928613D01*
X80497275Y-64880598D01*
X80494478Y-64877887D01*
X80474970Y-64858379D01*
X80471790Y-64855912D01*
X80462924Y-64848339D01*
X80431082Y-64818438D01*
X80413524Y-64808785D01*
X80397264Y-64798104D01*
X80381436Y-64785827D01*
X80341351Y-64768480D01*
X80330861Y-64763341D01*
X80292591Y-64742302D01*
X80273191Y-64737321D01*
X80254784Y-64731019D01*
X80236397Y-64723062D01*
X80197793Y-64716947D01*
X80148302Y-64697574D01*
X80111466Y-64659262D01*
X80094054Y-64609047D01*
X80099263Y-64556159D01*
X80133674Y-64450256D01*
X80153460Y-64262000D01*
X80133674Y-64073744D01*
X80075179Y-63893716D01*
X80075179Y-63893715D01*
X79980533Y-63729783D01*
X79853870Y-63589110D01*
X79700730Y-63477848D01*
X79527802Y-63400855D01*
X79342648Y-63361500D01*
X79342646Y-63361500D01*
X79153354Y-63361500D01*
X79153352Y-63361500D01*
X78968196Y-63400855D01*
X78917434Y-63423456D01*
X78867000Y-63434176D01*
X78816566Y-63423456D01*
X78765803Y-63400855D01*
X78580648Y-63361500D01*
X78580646Y-63361500D01*
X78391354Y-63361500D01*
X78391351Y-63361500D01*
X78292838Y-63382439D01*
X78247019Y-63383519D01*
X78203937Y-63367881D01*
X78134397Y-63326755D01*
X77976572Y-63280902D01*
X77954444Y-63279160D01*
X77939694Y-63278000D01*
X77508306Y-63278000D01*
X77496014Y-63278967D01*
X77471427Y-63280902D01*
X77313603Y-63326755D01*
X77244060Y-63367882D01*
X77200978Y-63383519D01*
X77155159Y-63382439D01*
X77056648Y-63361500D01*
X77056646Y-63361500D01*
X76867354Y-63361500D01*
X76867352Y-63361500D01*
X76682196Y-63400855D01*
X76631434Y-63423456D01*
X76581000Y-63434176D01*
X76530566Y-63423456D01*
X76479803Y-63400855D01*
X76294648Y-63361500D01*
X76294646Y-63361500D01*
X76105354Y-63361500D01*
X76105352Y-63361500D01*
X75920197Y-63400855D01*
X75747269Y-63477848D01*
X75594129Y-63589110D01*
X75467466Y-63729783D01*
X75372820Y-63893715D01*
X75314326Y-64073742D01*
X75294540Y-64261999D01*
X75314326Y-64450257D01*
X75372820Y-64630284D01*
X75467466Y-64794216D01*
X75594129Y-64934889D01*
X75747269Y-65046151D01*
X75920197Y-65123144D01*
X76079646Y-65157036D01*
X76138036Y-65187270D01*
X76172758Y-65243107D01*
X76174050Y-65308848D01*
X76141547Y-65366006D01*
X76105919Y-65401633D01*
X76022255Y-65543102D01*
X75983617Y-65676095D01*
X75958408Y-65722524D01*
X75916160Y-65754245D01*
X75864541Y-65765500D01*
X74724833Y-65765500D01*
X74669081Y-65752260D01*
X74625235Y-65715367D01*
X74602659Y-65662699D01*
X74606172Y-65605505D01*
X74646024Y-65474132D01*
X74665341Y-65278000D01*
X74646024Y-65081868D01*
X74588814Y-64893273D01*
X74495910Y-64719462D01*
X74370883Y-64567117D01*
X74218538Y-64442090D01*
X74196091Y-64430091D01*
X74044726Y-64349185D01*
X73856133Y-64291976D01*
X73660000Y-64272659D01*
X73463866Y-64291976D01*
X73275273Y-64349185D01*
X73101463Y-64442089D01*
X72949117Y-64567117D01*
X72824089Y-64719463D01*
X72731185Y-64893273D01*
X72673976Y-65081866D01*
X72654659Y-65278000D01*
X72659736Y-65329561D01*
X72653084Y-65383488D01*
X72624014Y-65429394D01*
X72030815Y-66022592D01*
X71982993Y-66052330D01*
X71926949Y-66057850D01*
X71870001Y-66050353D01*
X71870000Y-66050353D01*
X71446320Y-66050353D01*
X71437474Y-66050037D01*
X71433393Y-66049745D01*
X71370000Y-66045210D01*
X71306606Y-66049745D01*
X71302525Y-66050037D01*
X71293680Y-66050353D01*
X70946320Y-66050353D01*
X70937474Y-66050037D01*
X70933393Y-66049745D01*
X70870000Y-66045210D01*
X70806606Y-66049745D01*
X70802525Y-66050037D01*
X70793680Y-66050353D01*
X70369999Y-66050353D01*
X70239127Y-66067583D01*
X70117177Y-66118096D01*
X70012453Y-66198453D01*
X69932096Y-66303177D01*
X69881583Y-66425127D01*
X69864353Y-66555999D01*
X69864353Y-67127888D01*
X69884835Y-67270346D01*
X69925341Y-67408299D01*
X69955025Y-67473298D01*
X69985129Y-67539216D01*
X70062861Y-67660170D01*
X70062865Y-67660176D01*
X70094767Y-67702792D01*
X70113154Y-67737943D01*
X70119500Y-67777102D01*
X70119500Y-68354721D01*
X70119460Y-68357863D01*
X70117242Y-68445362D01*
X70127648Y-68503420D01*
X70128957Y-68512749D01*
X70134926Y-68571438D01*
X70144033Y-68600467D01*
X70147772Y-68615702D01*
X70153141Y-68645652D01*
X70175020Y-68700425D01*
X70178180Y-68709300D01*
X70193852Y-68759251D01*
X70195841Y-68765588D01*
X70210607Y-68792191D01*
X70217337Y-68806364D01*
X70228622Y-68834617D01*
X70261080Y-68883867D01*
X70265961Y-68891923D01*
X70294590Y-68943501D01*
X70314404Y-68966581D01*
X70323856Y-68979116D01*
X70340599Y-69004520D01*
X70382300Y-69046221D01*
X70388705Y-69053132D01*
X70427134Y-69097896D01*
X70451193Y-69116519D01*
X70462972Y-69126893D01*
X71222681Y-69886602D01*
X71249561Y-69926830D01*
X71259000Y-69974282D01*
X71259000Y-70121008D01*
X71269500Y-70223796D01*
X71324686Y-70390335D01*
X71328039Y-70395771D01*
X71346500Y-70460867D01*
X71346500Y-70697218D01*
X71337061Y-70744671D01*
X71310181Y-70784899D01*
X70543312Y-71551767D01*
X70482895Y-71585052D01*
X70414042Y-71580903D01*
X70358058Y-71540607D01*
X70332267Y-71476631D01*
X70327074Y-71425562D01*
X70266159Y-71231412D01*
X70167409Y-71053498D01*
X70034866Y-70899105D01*
X69873958Y-70774552D01*
X69873957Y-70774551D01*
X69691272Y-70684940D01*
X69580795Y-70656336D01*
X69494285Y-70633937D01*
X69472259Y-70632820D01*
X69291063Y-70623630D01*
X69139542Y-70646843D01*
X69124277Y-70649181D01*
X69071388Y-70645828D01*
X69024730Y-70620698D01*
X68992825Y-70578383D01*
X68981500Y-70526612D01*
X68981500Y-69835917D01*
X68983764Y-69815410D01*
X68981835Y-69754035D01*
X68981561Y-69745300D01*
X68981500Y-69741405D01*
X68981500Y-69713826D01*
X68980997Y-69709845D01*
X68980080Y-69698192D01*
X68979610Y-69683226D01*
X68978709Y-69654546D01*
X68973120Y-69635313D01*
X68969174Y-69616255D01*
X68966664Y-69596379D01*
X68950588Y-69555777D01*
X68946804Y-69544726D01*
X68936096Y-69507871D01*
X68934618Y-69502783D01*
X68924414Y-69485528D01*
X68915861Y-69468068D01*
X68908486Y-69449442D01*
X68908486Y-69449441D01*
X68882808Y-69414098D01*
X68876401Y-69404344D01*
X68854169Y-69366752D01*
X68840006Y-69352589D01*
X68827367Y-69337790D01*
X68815595Y-69321586D01*
X68781941Y-69293746D01*
X68773299Y-69285882D01*
X68636308Y-69148891D01*
X68606947Y-69102164D01*
X68600769Y-69047325D01*
X68618993Y-68995242D01*
X68660289Y-68929522D01*
X68719868Y-68759255D01*
X68740065Y-68580000D01*
X68719868Y-68400745D01*
X68660289Y-68230478D01*
X68564316Y-68077738D01*
X68564315Y-68077737D01*
X68564314Y-68077735D01*
X68436764Y-67950185D01*
X68284019Y-67854209D01*
X68157968Y-67810102D01*
X68101813Y-67770169D01*
X68075645Y-67706426D01*
X68087545Y-67638555D01*
X68120104Y-67602657D01*
X68118408Y-67600961D01*
X68252711Y-67466657D01*
X68267720Y-67442324D01*
X68344814Y-67317334D01*
X68399999Y-67150797D01*
X68410500Y-67048009D01*
X68410499Y-66047992D01*
X68399999Y-65945203D01*
X68344814Y-65778666D01*
X68273303Y-65662727D01*
X68252711Y-65629342D01*
X68128657Y-65505288D01*
X67979334Y-65413186D01*
X67812797Y-65358000D01*
X67710009Y-65347500D01*
X66909991Y-65347500D01*
X66807203Y-65358000D01*
X66640665Y-65413186D01*
X66491342Y-65505288D01*
X66397681Y-65598950D01*
X66342094Y-65631044D01*
X66277906Y-65631044D01*
X66222319Y-65598950D01*
X66128657Y-65505288D01*
X65979334Y-65413186D01*
X65812797Y-65358000D01*
X65710009Y-65347500D01*
X64909991Y-65347500D01*
X64807203Y-65358000D01*
X64640665Y-65413186D01*
X64491342Y-65505288D01*
X64365681Y-65630950D01*
X64310094Y-65663044D01*
X64245906Y-65663044D01*
X64190319Y-65630950D01*
X64064657Y-65505288D01*
X63915334Y-65413186D01*
X63748797Y-65358000D01*
X63646009Y-65347500D01*
X62875695Y-65347500D01*
X62811830Y-65329789D01*
X62766209Y-65281714D01*
X62751865Y-65217009D01*
X62772895Y-65154159D01*
X62823288Y-65111119D01*
X62857639Y-65095102D01*
X63036877Y-64969598D01*
X63191598Y-64814877D01*
X63317102Y-64635639D01*
X63409575Y-64437330D01*
X63466207Y-64225977D01*
X63485277Y-64008000D01*
X63466207Y-63790023D01*
X63409575Y-63578670D01*
X63317102Y-63380362D01*
X63191598Y-63201123D01*
X63036877Y-63046402D01*
X62857639Y-62920898D01*
X62746367Y-62869011D01*
X62659331Y-62828425D01*
X62447974Y-62771792D01*
X62230000Y-62752722D01*
X62012025Y-62771792D01*
X61800668Y-62828425D01*
X61696904Y-62876812D01*
X61636389Y-62888165D01*
X61577874Y-62869011D01*
X61535785Y-62824073D01*
X61520499Y-62764430D01*
X61520499Y-61983991D01*
X61509999Y-61881203D01*
X61488897Y-61817522D01*
X61454814Y-61714666D01*
X61362712Y-61565344D01*
X61362711Y-61565342D01*
X61228408Y-61431039D01*
X61230412Y-61429034D01*
X61203989Y-61401432D01*
X61188266Y-61341000D01*
X61203989Y-61280568D01*
X61230412Y-61252965D01*
X61228408Y-61250961D01*
X61362711Y-61116657D01*
X61373161Y-61099716D01*
X61409999Y-61039990D01*
X61461272Y-60993592D01*
X61529422Y-60981867D01*
X61722000Y-61003565D01*
X61901255Y-60983368D01*
X62071522Y-60923789D01*
X62224262Y-60827816D01*
X62351816Y-60700262D01*
X62447789Y-60547522D01*
X62507368Y-60377255D01*
X62527565Y-60198000D01*
X62507368Y-60018745D01*
X62447789Y-59848478D01*
X62351816Y-59695738D01*
X62351815Y-59695737D01*
X62351814Y-59695735D01*
X62224264Y-59568185D01*
X62122642Y-59504332D01*
X62071522Y-59472211D01*
X61901255Y-59412632D01*
X61901253Y-59412631D01*
X61901251Y-59412631D01*
X61721999Y-59392434D01*
X61529421Y-59414132D01*
X61461272Y-59402407D01*
X61409999Y-59356009D01*
X61402273Y-59343483D01*
X61362712Y-59279344D01*
X61362711Y-59279343D01*
X61362710Y-59279341D01*
X61238657Y-59155288D01*
X61121351Y-59082934D01*
X61089334Y-59063186D01*
X61089333Y-59063185D01*
X61089332Y-59063185D01*
X61052580Y-59051006D01*
X61000897Y-59017867D01*
X60971445Y-58963997D01*
X60971446Y-58902602D01*
X61000899Y-58848732D01*
X61052580Y-58815596D01*
X61121334Y-58792814D01*
X61270656Y-58700712D01*
X61394712Y-58576656D01*
X61486814Y-58427334D01*
X61506311Y-58368495D01*
X61532190Y-58324171D01*
X61573802Y-58294123D01*
X61624017Y-58283500D01*
X61817967Y-58283500D01*
X61883938Y-58302505D01*
X62013300Y-58383789D01*
X62183567Y-58443368D01*
X62318008Y-58458515D01*
X62362821Y-58463565D01*
X62362821Y-58463564D01*
X62362822Y-58463565D01*
X62542077Y-58443368D01*
X62712344Y-58383789D01*
X62865084Y-58287816D01*
X62992638Y-58160262D01*
X63088611Y-58007522D01*
X63148190Y-57837255D01*
X63168387Y-57658000D01*
X63148190Y-57478745D01*
X63088611Y-57308478D01*
X62992638Y-57155738D01*
X62992637Y-57155737D01*
X62992636Y-57155735D01*
X62865086Y-57028185D01*
X62747551Y-56954333D01*
X62712344Y-56932211D01*
X62542077Y-56872632D01*
X62542075Y-56872631D01*
X62542073Y-56872631D01*
X62362821Y-56852434D01*
X62183570Y-56872631D01*
X62183567Y-56872631D01*
X62183567Y-56872632D01*
X62013300Y-56932211D01*
X62013298Y-56932211D01*
X62013298Y-56932212D01*
X61883939Y-57013494D01*
X61817967Y-57032500D01*
X61624017Y-57032500D01*
X61573802Y-57021877D01*
X61532190Y-56991829D01*
X61506311Y-56947504D01*
X61501243Y-56932211D01*
X61486814Y-56888666D01*
X61394712Y-56739344D01*
X61394711Y-56739342D01*
X61260408Y-56605039D01*
X61262412Y-56603034D01*
X61235989Y-56575432D01*
X61220266Y-56515000D01*
X61235989Y-56454568D01*
X61262411Y-56426967D01*
X61260406Y-56424962D01*
X61274000Y-56411368D01*
X61288567Y-56396800D01*
X61348655Y-56363590D01*
X61417203Y-56367439D01*
X61542745Y-56411368D01*
X61650030Y-56423456D01*
X61721999Y-56431565D01*
X61721999Y-56431564D01*
X61722000Y-56431565D01*
X61901255Y-56411368D01*
X62071522Y-56351789D01*
X62224262Y-56255816D01*
X62351816Y-56128262D01*
X62447789Y-55975522D01*
X62507368Y-55805255D01*
X62527565Y-55626000D01*
X62507368Y-55446745D01*
X62447789Y-55276478D01*
X62351816Y-55123738D01*
X62351815Y-55123737D01*
X62351814Y-55123735D01*
X62224264Y-54996185D01*
X62073578Y-54901503D01*
X62071522Y-54900211D01*
X61901255Y-54840632D01*
X61901253Y-54840631D01*
X61901251Y-54840631D01*
X61721998Y-54820434D01*
X61664792Y-54826879D01*
X61609307Y-54820472D01*
X61562262Y-54790363D01*
X61533204Y-54742663D01*
X61486814Y-54602666D01*
X61394712Y-54453344D01*
X61394711Y-54453342D01*
X61270657Y-54329288D01*
X61121334Y-54237186D01*
X60954797Y-54182000D01*
X60852009Y-54171500D01*
X60058730Y-54171500D01*
X60002435Y-54157985D01*
X59958411Y-54120385D01*
X59936256Y-54066897D01*
X59940799Y-54009181D01*
X59971050Y-53959818D01*
X60005962Y-53924907D01*
X60006864Y-53925809D01*
X60038816Y-53895223D01*
X60099248Y-53879500D01*
X60872279Y-53879500D01*
X60934554Y-53879500D01*
X60941764Y-53879710D01*
X61003934Y-53883331D01*
X61003934Y-53883330D01*
X61003935Y-53883331D01*
X61014976Y-53881384D01*
X61036510Y-53879500D01*
X61820752Y-53879500D01*
X61881184Y-53895223D01*
X61913136Y-53925810D01*
X61914039Y-53924908D01*
X62048342Y-54059211D01*
X62060803Y-54066897D01*
X62197666Y-54151314D01*
X62309017Y-54188212D01*
X62364202Y-54206499D01*
X62374703Y-54207571D01*
X62466991Y-54217000D01*
X63517008Y-54216999D01*
X63619797Y-54206499D01*
X63786334Y-54151314D01*
X63935656Y-54059212D01*
X64059712Y-53935156D01*
X64151814Y-53785834D01*
X64206999Y-53619297D01*
X64217500Y-53516509D01*
X64217499Y-52741492D01*
X64206999Y-52638703D01*
X64151814Y-52472166D01*
X64059712Y-52322844D01*
X64059711Y-52322842D01*
X63935659Y-52198790D01*
X63932345Y-52196746D01*
X63889163Y-52151638D01*
X63873440Y-52091204D01*
X63889164Y-52030771D01*
X63932348Y-51985664D01*
X63935348Y-51983813D01*
X64059316Y-51859845D01*
X64151357Y-51710622D01*
X64206506Y-51544196D01*
X64217000Y-51441479D01*
X64217000Y-51304000D01*
X61767001Y-51304000D01*
X61767001Y-51441479D01*
X61778303Y-51552123D01*
X61769143Y-51613044D01*
X61731795Y-51662038D01*
X61675478Y-51687012D01*
X61614093Y-51681801D01*
X61577405Y-51657408D01*
X61576415Y-51658772D01*
X61412730Y-51539848D01*
X61239802Y-51462855D01*
X61054648Y-51423500D01*
X61054646Y-51423500D01*
X60865354Y-51423500D01*
X60865352Y-51423500D01*
X60680197Y-51462855D01*
X60507269Y-51539848D01*
X60343585Y-51658772D01*
X60342595Y-51657409D01*
X60305890Y-51681806D01*
X60244508Y-51687009D01*
X60188197Y-51662031D01*
X60150854Y-51613038D01*
X60141696Y-51552120D01*
X60153000Y-51441478D01*
X60153000Y-51304000D01*
X57703001Y-51304000D01*
X57703001Y-51441479D01*
X57713493Y-51544195D01*
X57768642Y-51710622D01*
X57860683Y-51859845D01*
X57984654Y-51983816D01*
X57987656Y-51985668D01*
X58030835Y-52030774D01*
X58046558Y-52091204D01*
X58030837Y-52151635D01*
X57987659Y-52196742D01*
X57984344Y-52198786D01*
X57860288Y-52322842D01*
X57768186Y-52472165D01*
X57713000Y-52638702D01*
X57702500Y-52741490D01*
X57702500Y-53516508D01*
X57713000Y-53619296D01*
X57768186Y-53785834D01*
X57808039Y-53850447D01*
X57826500Y-53915543D01*
X57826500Y-54140942D01*
X57810777Y-54201374D01*
X57767596Y-54246481D01*
X57633342Y-54329288D01*
X57509288Y-54453342D01*
X57417186Y-54602665D01*
X57362000Y-54769202D01*
X57351500Y-54871990D01*
X57351500Y-55872008D01*
X57362000Y-55974796D01*
X57417186Y-56141334D01*
X57509288Y-56290657D01*
X57643592Y-56424961D01*
X57641588Y-56426964D01*
X57668014Y-56454574D01*
X57683733Y-56515000D01*
X57668014Y-56575426D01*
X57641588Y-56603035D01*
X57643592Y-56605039D01*
X57509288Y-56739342D01*
X57417186Y-56888665D01*
X57362000Y-57055202D01*
X57351500Y-57157990D01*
X57351500Y-58158008D01*
X57362000Y-58260796D01*
X57417186Y-58427334D01*
X57509288Y-58576657D01*
X57633342Y-58700711D01*
X57668224Y-58722226D01*
X57782666Y-58792814D01*
X57819419Y-58804992D01*
X57871101Y-58838131D01*
X57900553Y-58892000D01*
X57900553Y-58953396D01*
X57871101Y-59007265D01*
X57819418Y-59040403D01*
X57750666Y-59063186D01*
X57750664Y-59063186D01*
X57750664Y-59063187D01*
X57601342Y-59155288D01*
X57477288Y-59279342D01*
X57385186Y-59428665D01*
X57330000Y-59595202D01*
X57319500Y-59697990D01*
X57319500Y-60698008D01*
X57330000Y-60800796D01*
X57385186Y-60967334D01*
X57477288Y-61116657D01*
X57611592Y-61250961D01*
X57609587Y-61252965D01*
X57636002Y-61280553D01*
X57651733Y-61340976D01*
X57636025Y-61401404D01*
X57609588Y-61429035D01*
X57611592Y-61431039D01*
X57477288Y-61565342D01*
X57385186Y-61714665D01*
X57330000Y-61881202D01*
X57319500Y-61983990D01*
X57319500Y-62984008D01*
X57330000Y-63086796D01*
X57385186Y-63253334D01*
X57477288Y-63402657D01*
X57601342Y-63526711D01*
X57601344Y-63526712D01*
X57750666Y-63618814D01*
X57862017Y-63655712D01*
X57917202Y-63673999D01*
X57926729Y-63674972D01*
X58019991Y-63684500D01*
X58684546Y-63684499D01*
X58731999Y-63693938D01*
X58772227Y-63720818D01*
X58774181Y-63722772D01*
X58801061Y-63763000D01*
X58810500Y-63810453D01*
X58810500Y-64859692D01*
X58801061Y-64907145D01*
X58774181Y-64947373D01*
X58767919Y-64953634D01*
X58684255Y-65095102D01*
X58638402Y-65252927D01*
X58635500Y-65289808D01*
X58635500Y-65382191D01*
X58619304Y-65443464D01*
X58574945Y-65488731D01*
X58514013Y-65506166D01*
X58452424Y-65491214D01*
X58406268Y-65447782D01*
X58384704Y-65413186D01*
X58355267Y-65365959D01*
X58336500Y-65300369D01*
X58336500Y-65289808D01*
X58335571Y-65278000D01*
X58333598Y-65252931D01*
X58332785Y-65250134D01*
X58287744Y-65095102D01*
X58259343Y-65047079D01*
X58204081Y-64953635D01*
X58087865Y-64837419D01*
X58055770Y-64818438D01*
X57946397Y-64753755D01*
X57788572Y-64707902D01*
X57766443Y-64706160D01*
X57751694Y-64705000D01*
X57320306Y-64705000D01*
X57308014Y-64705967D01*
X57283427Y-64707902D01*
X57125602Y-64753755D01*
X56984136Y-64837418D01*
X56867917Y-64953636D01*
X56840312Y-65000313D01*
X56814261Y-65031353D01*
X56788278Y-65047079D01*
X56732121Y-65084087D01*
X56724070Y-65088964D01*
X56672498Y-65117590D01*
X56649414Y-65137407D01*
X56636887Y-65146853D01*
X56611481Y-65163598D01*
X56569775Y-65205303D01*
X56562868Y-65211704D01*
X56518103Y-65250135D01*
X56499480Y-65274193D01*
X56489108Y-65285969D01*
X56102304Y-65672773D01*
X56046716Y-65704867D01*
X55982529Y-65704867D01*
X55926941Y-65672773D01*
X55894848Y-65617185D01*
X55889962Y-65598950D01*
X55883903Y-65576337D01*
X55784035Y-65362171D01*
X55648495Y-65168599D01*
X55481401Y-65001505D01*
X55295839Y-64871573D01*
X55256976Y-64827257D01*
X55242965Y-64770000D01*
X55256976Y-64712743D01*
X55295839Y-64668426D01*
X55481401Y-64538495D01*
X55648495Y-64371401D01*
X55784035Y-64177830D01*
X55883903Y-63963663D01*
X55945063Y-63735408D01*
X55965659Y-63500000D01*
X55945063Y-63264592D01*
X55883903Y-63036337D01*
X55784035Y-62822171D01*
X55648495Y-62628599D01*
X55481401Y-62461505D01*
X55295839Y-62331573D01*
X55256974Y-62287255D01*
X55242964Y-62229999D01*
X55256975Y-62172742D01*
X55295837Y-62128428D01*
X55481401Y-61998495D01*
X55648495Y-61831401D01*
X55784035Y-61637830D01*
X55883903Y-61423663D01*
X55945063Y-61195408D01*
X55965659Y-60960000D01*
X55945063Y-60724592D01*
X55883903Y-60496337D01*
X55784035Y-60282171D01*
X55648495Y-60088599D01*
X55481401Y-59921505D01*
X55295839Y-59791573D01*
X55256975Y-59747257D01*
X55242964Y-59690000D01*
X55256975Y-59632743D01*
X55295839Y-59588426D01*
X55481401Y-59458495D01*
X55648495Y-59291401D01*
X55784035Y-59097830D01*
X55883903Y-58883663D01*
X55945063Y-58655408D01*
X55965659Y-58420000D01*
X55945063Y-58184592D01*
X55883903Y-57956337D01*
X55784035Y-57742171D01*
X55648495Y-57548599D01*
X55481401Y-57381505D01*
X55295839Y-57251573D01*
X55256975Y-57207257D01*
X55242964Y-57150000D01*
X55256975Y-57092743D01*
X55295839Y-57048426D01*
X55481401Y-56918495D01*
X55648495Y-56751401D01*
X55784035Y-56557830D01*
X55883903Y-56343663D01*
X55945063Y-56115408D01*
X55965659Y-55880000D01*
X55945063Y-55644592D01*
X55883903Y-55416337D01*
X55784035Y-55202171D01*
X55648495Y-55008599D01*
X55481401Y-54841505D01*
X55295839Y-54711573D01*
X55256975Y-54667257D01*
X55242964Y-54610000D01*
X55256975Y-54552743D01*
X55295839Y-54508426D01*
X55481401Y-54378495D01*
X55648495Y-54211401D01*
X55784035Y-54017830D01*
X55883903Y-53803663D01*
X55945063Y-53575408D01*
X55965659Y-53340000D01*
X55945063Y-53104592D01*
X55883903Y-52876337D01*
X55784035Y-52662171D01*
X55648495Y-52468599D01*
X55481401Y-52301505D01*
X55295839Y-52171573D01*
X55256975Y-52127257D01*
X55242964Y-52070000D01*
X55256975Y-52012743D01*
X55295839Y-51968426D01*
X55481401Y-51838495D01*
X55648495Y-51671401D01*
X55784035Y-51477830D01*
X55883903Y-51263663D01*
X55945063Y-51035408D01*
X55965659Y-50800000D01*
X55945063Y-50564592D01*
X55883903Y-50336337D01*
X55784035Y-50122171D01*
X55782370Y-50119793D01*
X55762944Y-50075762D01*
X55761745Y-50027648D01*
X55778954Y-49982704D01*
X55843789Y-49879522D01*
X55903368Y-49709255D01*
X55923565Y-49530000D01*
X55903368Y-49350745D01*
X55875814Y-49272000D01*
X57528001Y-49272000D01*
X57528001Y-49396979D01*
X57538493Y-49499695D01*
X57593642Y-49666122D01*
X57685683Y-49815345D01*
X57809654Y-49939316D01*
X57898757Y-49994275D01*
X57938241Y-50033188D01*
X57956822Y-50085418D01*
X57950788Y-50140525D01*
X57921343Y-50187495D01*
X57860681Y-50248156D01*
X57768642Y-50397377D01*
X57713493Y-50563803D01*
X57703000Y-50666521D01*
X57703000Y-50804000D01*
X58678000Y-50804000D01*
X58678000Y-49272000D01*
X59178000Y-49272000D01*
X59178000Y-50804000D01*
X60152999Y-50804000D01*
X60152999Y-50666521D01*
X60142506Y-50563804D01*
X60087357Y-50397377D01*
X59995316Y-50248154D01*
X59934657Y-50187495D01*
X59905212Y-50140525D01*
X59899177Y-50085418D01*
X59917758Y-50033188D01*
X59957242Y-49994275D01*
X60046345Y-49939316D01*
X60170316Y-49815345D01*
X60262357Y-49666122D01*
X60317506Y-49499696D01*
X60328000Y-49396979D01*
X60328000Y-49272000D01*
X61592001Y-49272000D01*
X61592001Y-49396979D01*
X61602493Y-49499695D01*
X61657642Y-49666122D01*
X61749683Y-49815345D01*
X61873654Y-49939316D01*
X61962757Y-49994275D01*
X62002241Y-50033188D01*
X62020822Y-50085418D01*
X62014788Y-50140525D01*
X61985343Y-50187495D01*
X61924681Y-50248156D01*
X61832642Y-50397377D01*
X61777493Y-50563803D01*
X61767000Y-50666521D01*
X61767000Y-50804000D01*
X62742000Y-50804000D01*
X62742000Y-49272000D01*
X63242000Y-49272000D01*
X63242000Y-50804000D01*
X64216999Y-50804000D01*
X64216999Y-50666521D01*
X64206506Y-50563804D01*
X64151357Y-50397377D01*
X64059316Y-50248154D01*
X63998657Y-50187495D01*
X63969212Y-50140525D01*
X63963177Y-50085418D01*
X63981758Y-50033188D01*
X64021242Y-49994275D01*
X64110345Y-49939316D01*
X64234316Y-49815345D01*
X64326357Y-49666122D01*
X64381506Y-49499696D01*
X64392000Y-49396979D01*
X64392000Y-49272000D01*
X63242000Y-49272000D01*
X62742000Y-49272000D01*
X61592001Y-49272000D01*
X60328000Y-49272000D01*
X59178000Y-49272000D01*
X58678000Y-49272000D01*
X57528001Y-49272000D01*
X55875814Y-49272000D01*
X55843789Y-49180478D01*
X55778665Y-49076834D01*
X55761455Y-49031884D01*
X55762657Y-48983765D01*
X55782093Y-48939729D01*
X55783603Y-48937572D01*
X55860811Y-48772000D01*
X57528000Y-48772000D01*
X58678000Y-48772000D01*
X58678000Y-47947001D01*
X58228021Y-47947001D01*
X58125304Y-47957493D01*
X57958877Y-48012642D01*
X57809654Y-48104683D01*
X57685683Y-48228654D01*
X57593642Y-48377877D01*
X57538493Y-48544303D01*
X57528000Y-48647021D01*
X57528000Y-48772000D01*
X55860811Y-48772000D01*
X55883430Y-48723493D01*
X55940636Y-48510000D01*
X53279364Y-48510000D01*
X53336569Y-48723492D01*
X53436399Y-48937576D01*
X53571893Y-49131081D01*
X53738918Y-49298106D01*
X53924595Y-49428119D01*
X53963460Y-49472437D01*
X53977471Y-49529694D01*
X53963460Y-49586951D01*
X53924595Y-49631269D01*
X53738595Y-49761508D01*
X53571505Y-49928598D01*
X53435965Y-50122170D01*
X53336097Y-50336336D01*
X53274936Y-50564592D01*
X53254340Y-50800000D01*
X53274936Y-51035407D01*
X53308723Y-51161500D01*
X53336097Y-51263663D01*
X53435965Y-51477830D01*
X53571505Y-51671401D01*
X53738599Y-51838495D01*
X53924160Y-51968426D01*
X53963024Y-52012743D01*
X53977035Y-52070000D01*
X53963024Y-52127257D01*
X53924158Y-52171575D01*
X53797958Y-52259942D01*
X53738595Y-52301508D01*
X53571505Y-52468598D01*
X53435965Y-52662170D01*
X53336097Y-52876336D01*
X53274936Y-53104592D01*
X53254340Y-53340000D01*
X53274936Y-53575407D01*
X53309801Y-53705523D01*
X53336097Y-53803663D01*
X53435965Y-54017830D01*
X53571505Y-54211401D01*
X53738599Y-54378495D01*
X53924160Y-54508426D01*
X53963024Y-54552743D01*
X53977035Y-54610000D01*
X53963024Y-54667257D01*
X53924160Y-54711574D01*
X53740889Y-54839902D01*
X53738595Y-54841508D01*
X53571505Y-55008598D01*
X53435965Y-55202170D01*
X53336097Y-55416336D01*
X53274936Y-55644592D01*
X53254340Y-55880000D01*
X53274936Y-56115407D01*
X53307819Y-56238127D01*
X53336097Y-56343663D01*
X53435965Y-56557830D01*
X53571505Y-56751401D01*
X53738599Y-56918495D01*
X53924160Y-57048426D01*
X53963024Y-57092743D01*
X53977035Y-57150000D01*
X53963024Y-57207257D01*
X53924158Y-57251575D01*
X53758191Y-57367787D01*
X53738595Y-57381508D01*
X53571505Y-57548598D01*
X53435965Y-57742170D01*
X53336097Y-57956336D01*
X53274936Y-58184592D01*
X53254340Y-58420000D01*
X53274936Y-58655407D01*
X53310499Y-58788128D01*
X53336097Y-58883663D01*
X53435965Y-59097830D01*
X53571505Y-59291401D01*
X53738599Y-59458495D01*
X53924160Y-59588426D01*
X53963024Y-59632743D01*
X53977035Y-59690000D01*
X53963024Y-59747257D01*
X53924159Y-59791575D01*
X53738595Y-59921508D01*
X53571505Y-60088598D01*
X53435965Y-60282170D01*
X53336097Y-60496336D01*
X53274936Y-60724592D01*
X53254340Y-60960000D01*
X53274936Y-61195407D01*
X53313948Y-61341000D01*
X53336097Y-61423663D01*
X53435965Y-61637830D01*
X53571505Y-61831401D01*
X53738599Y-61998495D01*
X53924160Y-62128426D01*
X53963024Y-62172743D01*
X53977035Y-62230000D01*
X53963024Y-62287257D01*
X53924160Y-62331574D01*
X53871425Y-62368500D01*
X53738595Y-62461508D01*
X53571505Y-62628598D01*
X53435965Y-62822170D01*
X53336097Y-63036336D01*
X53274936Y-63264592D01*
X53254340Y-63500000D01*
X53274936Y-63735407D01*
X53289571Y-63790025D01*
X53336097Y-63963663D01*
X53435965Y-64177830D01*
X53571505Y-64371401D01*
X53738599Y-64538495D01*
X53924160Y-64668426D01*
X53963024Y-64712743D01*
X53977035Y-64770000D01*
X53963024Y-64827257D01*
X53924158Y-64871575D01*
X53740302Y-65000313D01*
X53738595Y-65001508D01*
X53571505Y-65168598D01*
X53435965Y-65362170D01*
X53336097Y-65576336D01*
X53274936Y-65804592D01*
X53254340Y-66039999D01*
X53274936Y-66275407D01*
X53295424Y-66351868D01*
X53336097Y-66503663D01*
X53435965Y-66717830D01*
X53571505Y-66911401D01*
X53738599Y-67078495D01*
X53924160Y-67208426D01*
X53963024Y-67252743D01*
X53977035Y-67310000D01*
X53963024Y-67367257D01*
X53924158Y-67411575D01*
X53740732Y-67540012D01*
X53738595Y-67541508D01*
X53571505Y-67708598D01*
X53435965Y-67902170D01*
X53336097Y-68116336D01*
X53274936Y-68344592D01*
X53254340Y-68579999D01*
X53274936Y-68815407D01*
X53317799Y-68975374D01*
X53336097Y-69043663D01*
X53435965Y-69257830D01*
X53571505Y-69451401D01*
X53738599Y-69618495D01*
X53924160Y-69748426D01*
X53963024Y-69792743D01*
X53977035Y-69850000D01*
X53963024Y-69907257D01*
X53924158Y-69951575D01*
X53776657Y-70054857D01*
X53738595Y-70081508D01*
X53571505Y-70248598D01*
X53435965Y-70442170D01*
X53336097Y-70656336D01*
X53274936Y-70884592D01*
X53254340Y-71119999D01*
X53274936Y-71355407D01*
X53304049Y-71464058D01*
X53336097Y-71583663D01*
X53435965Y-71797830D01*
X53571505Y-71991401D01*
X53738599Y-72158495D01*
X53924160Y-72288426D01*
X53963024Y-72332743D01*
X53977035Y-72390000D01*
X53963024Y-72447257D01*
X53924159Y-72491575D01*
X53738595Y-72621508D01*
X53571505Y-72788598D01*
X53435965Y-72982170D01*
X53336097Y-73196336D01*
X53274936Y-73424592D01*
X53254340Y-73660000D01*
X53274936Y-73895407D01*
X53290359Y-73952965D01*
X53336097Y-74123663D01*
X53435965Y-74337830D01*
X53571505Y-74531401D01*
X53738599Y-74698495D01*
X53924160Y-74828426D01*
X53963024Y-74872743D01*
X53977035Y-74930000D01*
X53963024Y-74987257D01*
X53924159Y-75031575D01*
X53738595Y-75161508D01*
X53571505Y-75328598D01*
X53435965Y-75522170D01*
X53336097Y-75736336D01*
X53274936Y-75964592D01*
X53254340Y-76200000D01*
X53274936Y-76435407D01*
X53308747Y-76561592D01*
X53336097Y-76663663D01*
X53435965Y-76877830D01*
X53571505Y-77071401D01*
X53738599Y-77238495D01*
X53924160Y-77368426D01*
X53963024Y-77412743D01*
X53977035Y-77470000D01*
X53963024Y-77527257D01*
X53924158Y-77571575D01*
X53795720Y-77661509D01*
X53738595Y-77701508D01*
X53571505Y-77868598D01*
X53435965Y-78062170D01*
X53336097Y-78276336D01*
X53274936Y-78504592D01*
X53254340Y-78740000D01*
X53274936Y-78975407D01*
X53315878Y-79128203D01*
X53336097Y-79203663D01*
X53435965Y-79417830D01*
X53571505Y-79611401D01*
X53738599Y-79778495D01*
X53924160Y-79908426D01*
X53963024Y-79952743D01*
X53977035Y-80010000D01*
X53963024Y-80067257D01*
X53924158Y-80111575D01*
X53806931Y-80193659D01*
X53738595Y-80241508D01*
X53571505Y-80408598D01*
X53435965Y-80602170D01*
X53336097Y-80816336D01*
X53274936Y-81044592D01*
X53254340Y-81280000D01*
X53274936Y-81515407D01*
X53293460Y-81584538D01*
X53336097Y-81743663D01*
X53435965Y-81957830D01*
X53571505Y-82151401D01*
X53571508Y-82151404D01*
X53693430Y-82273326D01*
X53724726Y-82326072D01*
X53726915Y-82387365D01*
X53699462Y-82442209D01*
X53649083Y-82477189D01*
X53517669Y-82526204D01*
X53402454Y-82612454D01*
X53316204Y-82727668D01*
X53265909Y-82862516D01*
X53259500Y-82922130D01*
X53259500Y-84717869D01*
X53265909Y-84777484D01*
X53284754Y-84828009D01*
X53316204Y-84912331D01*
X53402454Y-85027546D01*
X53517669Y-85113796D01*
X53590834Y-85141084D01*
X53633070Y-85167523D01*
X53661488Y-85208453D01*
X53671500Y-85257266D01*
X53671500Y-95317294D01*
X53670191Y-95335264D01*
X53666711Y-95359023D01*
X53671028Y-95408369D01*
X53671500Y-95419176D01*
X53671500Y-95424708D01*
X53675098Y-95455496D01*
X53675464Y-95459081D01*
X53679546Y-95505742D01*
X53682110Y-95535041D01*
X53686329Y-95554076D01*
X53712406Y-95625721D01*
X53713590Y-95629127D01*
X53737581Y-95701527D01*
X53746075Y-95719071D01*
X53787979Y-95782784D01*
X53789889Y-95785782D01*
X53807019Y-95813552D01*
X53829952Y-95850732D01*
X53842253Y-95865830D01*
X53843168Y-95866693D01*
X53843170Y-95866696D01*
X53897708Y-95918150D01*
X53900295Y-95920663D01*
X54335181Y-96355549D01*
X54362061Y-96395777D01*
X54371500Y-96443230D01*
X54371500Y-96467292D01*
X54353361Y-96531864D01*
X54304250Y-96577544D01*
X54238536Y-96590968D01*
X54175445Y-96568208D01*
X54131426Y-96536778D01*
X54127995Y-96534238D01*
X53965779Y-96409766D01*
X53961124Y-96406013D01*
X53796078Y-96266227D01*
X53792446Y-96263026D01*
X53641671Y-96124866D01*
X53637763Y-96121125D01*
X53484873Y-95968235D01*
X53481132Y-95964327D01*
X53342972Y-95813552D01*
X53339771Y-95809920D01*
X53199985Y-95644874D01*
X53196232Y-95640219D01*
X53071759Y-95478002D01*
X53069218Y-95474570D01*
X52968823Y-95333958D01*
X52943536Y-95298542D01*
X52939875Y-95293116D01*
X52920182Y-95262204D01*
X52830015Y-95120671D01*
X52828081Y-95117533D01*
X52717348Y-94931698D01*
X52713882Y-94925482D01*
X52619464Y-94744109D01*
X52618098Y-94741404D01*
X52523043Y-94546965D01*
X52519896Y-94539987D01*
X52455416Y-94384318D01*
X52441626Y-94351027D01*
X52440712Y-94348754D01*
X52362034Y-94147119D01*
X52359316Y-94139404D01*
X52297835Y-93944407D01*
X52297251Y-93942503D01*
X52271121Y-93854733D01*
X52235502Y-93735092D01*
X52233288Y-93726557D01*
X52189009Y-93526827D01*
X52188787Y-93525797D01*
X52144324Y-93313738D01*
X52142746Y-93304479D01*
X52142746Y-93304477D01*
X52116066Y-93101830D01*
X52091249Y-92902745D01*
X52090301Y-92886905D01*
X52286271Y-48010000D01*
X53279364Y-48010000D01*
X54360000Y-48010000D01*
X54360000Y-46929364D01*
X54860000Y-46929364D01*
X54860000Y-48010000D01*
X55940636Y-48010000D01*
X55940635Y-48009999D01*
X55923754Y-47947000D01*
X59178000Y-47947000D01*
X59178000Y-48772000D01*
X60327999Y-48772000D01*
X61592000Y-48772000D01*
X62742000Y-48772000D01*
X62742000Y-47947001D01*
X62292021Y-47947001D01*
X62189304Y-47957493D01*
X62022877Y-48012642D01*
X61873654Y-48104683D01*
X61749683Y-48228654D01*
X61657642Y-48377877D01*
X61602493Y-48544303D01*
X61592000Y-48647021D01*
X61592000Y-48772000D01*
X60327999Y-48772000D01*
X60327999Y-48647021D01*
X60317506Y-48544304D01*
X60262357Y-48377877D01*
X60170316Y-48228654D01*
X60046345Y-48104683D01*
X59897122Y-48012642D01*
X59730696Y-47957493D01*
X59627979Y-47947000D01*
X63242000Y-47947000D01*
X63242000Y-48772000D01*
X64391999Y-48772000D01*
X64391999Y-48647021D01*
X64381506Y-48544304D01*
X64326357Y-48377877D01*
X64234316Y-48228654D01*
X64110345Y-48104683D01*
X63961122Y-48012642D01*
X63794696Y-47957493D01*
X63691979Y-47947000D01*
X63242000Y-47947000D01*
X59627979Y-47947000D01*
X59178000Y-47947000D01*
X55923754Y-47947000D01*
X55883430Y-47796507D01*
X55783599Y-47582421D01*
X55648109Y-47388921D01*
X55481081Y-47221893D01*
X55287576Y-47086399D01*
X55073492Y-46986569D01*
X54860000Y-46929364D01*
X54360000Y-46929364D01*
X54359999Y-46929364D01*
X54146507Y-46986569D01*
X53932421Y-47086400D01*
X53738921Y-47221890D01*
X53571890Y-47388921D01*
X53436400Y-47582421D01*
X53336569Y-47796507D01*
X53279364Y-48009999D01*
X53279364Y-48010000D01*
X52286271Y-48010000D01*
X52301817Y-44450000D01*
X52308380Y-42946683D01*
X52314117Y-42909946D01*
X52354184Y-42782869D01*
X55560500Y-42782869D01*
X55566909Y-42842484D01*
X55572698Y-42858004D01*
X55617204Y-42977331D01*
X55703454Y-43092546D01*
X55818669Y-43178796D01*
X55953517Y-43229091D01*
X56013127Y-43235500D01*
X57808872Y-43235499D01*
X57868483Y-43229091D01*
X58003331Y-43178796D01*
X58118546Y-43092546D01*
X58204796Y-42977331D01*
X58253810Y-42845916D01*
X58288789Y-42795537D01*
X58343634Y-42768084D01*
X58404927Y-42770273D01*
X58457672Y-42801568D01*
X58579599Y-42923495D01*
X58773170Y-43059035D01*
X58987337Y-43158903D01*
X59215592Y-43220063D01*
X59451000Y-43240659D01*
X59686408Y-43220063D01*
X59914663Y-43158903D01*
X60128830Y-43059035D01*
X60322401Y-42923495D01*
X60489495Y-42756401D01*
X60619426Y-42570839D01*
X60663743Y-42531975D01*
X60721000Y-42517964D01*
X60778257Y-42531975D01*
X60822573Y-42570839D01*
X60952505Y-42756401D01*
X61119599Y-42923495D01*
X61313170Y-43059035D01*
X61527337Y-43158903D01*
X61755592Y-43220063D01*
X61991000Y-43240659D01*
X62226408Y-43220063D01*
X62454663Y-43158903D01*
X62668830Y-43059035D01*
X62862401Y-42923495D01*
X63029495Y-42756401D01*
X63165035Y-42562830D01*
X63264903Y-42348663D01*
X63326063Y-42120408D01*
X63346659Y-41885000D01*
X63326063Y-41649592D01*
X63264903Y-41421337D01*
X63165035Y-41207171D01*
X63029495Y-41013599D01*
X62862401Y-40846505D01*
X62668830Y-40710965D01*
X62454663Y-40611097D01*
X62393501Y-40594709D01*
X62226407Y-40549936D01*
X61991000Y-40529340D01*
X61755592Y-40549936D01*
X61527336Y-40611097D01*
X61313170Y-40710965D01*
X61119598Y-40846505D01*
X60952505Y-41013598D01*
X60822575Y-41199159D01*
X60778257Y-41238025D01*
X60721000Y-41252036D01*
X60663743Y-41238025D01*
X60619425Y-41199159D01*
X60490120Y-41014492D01*
X60489495Y-41013599D01*
X60322401Y-40846505D01*
X60128830Y-40710965D01*
X59914663Y-40611097D01*
X59853501Y-40594709D01*
X59686407Y-40549936D01*
X59451000Y-40529340D01*
X59215592Y-40549936D01*
X58987336Y-40611097D01*
X58773170Y-40710965D01*
X58579601Y-40846503D01*
X58457673Y-40968431D01*
X58404926Y-40999726D01*
X58343634Y-41001915D01*
X58288789Y-40974462D01*
X58253810Y-40924082D01*
X58227847Y-40854472D01*
X58204796Y-40792669D01*
X58118546Y-40677454D01*
X58003331Y-40591204D01*
X57868483Y-40540909D01*
X57808873Y-40534500D01*
X57808869Y-40534500D01*
X56013130Y-40534500D01*
X55953515Y-40540909D01*
X55818669Y-40591204D01*
X55703454Y-40677454D01*
X55617204Y-40792668D01*
X55566909Y-40927516D01*
X55560500Y-40987130D01*
X55560500Y-42782869D01*
X52354184Y-42782869D01*
X52359316Y-42766594D01*
X52362034Y-42758880D01*
X52440739Y-42557176D01*
X52441599Y-42555038D01*
X52519908Y-42365983D01*
X52523031Y-42359058D01*
X52618130Y-42164530D01*
X52619416Y-42161983D01*
X52713890Y-41980500D01*
X52717348Y-41974300D01*
X52758763Y-41904797D01*
X52828108Y-41788420D01*
X52829977Y-41785388D01*
X52939901Y-41612843D01*
X52943511Y-41607491D01*
X53069249Y-41431385D01*
X53071727Y-41428038D01*
X53196258Y-41265746D01*
X53199958Y-41261157D01*
X53339810Y-41096032D01*
X53342931Y-41092492D01*
X53481176Y-40941624D01*
X53484827Y-40937810D01*
X53637810Y-40784827D01*
X53641624Y-40781176D01*
X53792492Y-40642931D01*
X53796032Y-40639810D01*
X53961157Y-40499958D01*
X53965746Y-40496258D01*
X54128038Y-40371727D01*
X54131385Y-40369249D01*
X54307491Y-40243511D01*
X54312843Y-40239901D01*
X54485388Y-40129977D01*
X54488420Y-40128108D01*
X54674301Y-40017347D01*
X54680500Y-40013890D01*
X54861983Y-39919416D01*
X54864530Y-39918130D01*
X55059058Y-39823031D01*
X55065983Y-39819908D01*
X55255038Y-39741599D01*
X55257176Y-39740739D01*
X55458898Y-39662027D01*
X55466576Y-39659322D01*
X55661612Y-39597828D01*
X55663438Y-39597268D01*
X55870920Y-39535498D01*
X55879419Y-39533293D01*
X56079240Y-39488994D01*
X56080115Y-39488805D01*
X56292290Y-39444317D01*
X56301486Y-39442750D01*
X56504123Y-39416073D01*
X56504444Y-39416031D01*
X56719881Y-39389177D01*
X56729750Y-39388348D01*
X56931607Y-39379532D01*
X56966583Y-39378086D01*
X56971838Y-39377981D01*
X64138216Y-39390289D01*
G37*
%TD.AperFunction*%
%TD*%
M02*
