%TF.GenerationSoftware,KiCad,Pcbnew,7.0.1*%
%TF.CreationDate,2023-07-15T13:48:22+02:00*%
%TF.ProjectId,SunSparkESP32,53756e53-7061-4726-9b45-535033322e6b,2.0*%
%TF.SameCoordinates,Original*%
%TF.FileFunction,Legend,Top*%
%TF.FilePolarity,Positive*%
%FSLAX46Y46*%
G04 Gerber Fmt 4.6, Leading zero omitted, Abs format (unit mm)*
G04 Created by KiCad (PCBNEW 7.0.1) date 2023-07-15 13:48:22*
%MOMM*%
%LPD*%
G01*
G04 APERTURE LIST*
%ADD10C,0.212500*%
%ADD11C,0.150000*%
%ADD12C,0.125000*%
%ADD13C,0.250000*%
%ADD14C,0.120000*%
G04 APERTURE END LIST*
D10*
X63436476Y-63345904D02*
X63912666Y-63345904D01*
X63341238Y-63631619D02*
X63674571Y-62631619D01*
X63674571Y-62631619D02*
X64007904Y-63631619D01*
X64341238Y-63631619D02*
X64341238Y-62631619D01*
X64341238Y-62631619D02*
X64912666Y-63631619D01*
X64912666Y-63631619D02*
X64912666Y-62631619D01*
X65246000Y-62631619D02*
X65817428Y-62631619D01*
X65531714Y-63631619D02*
X65531714Y-62631619D01*
D11*
X52294904Y-73545619D02*
X52294904Y-73059904D01*
X52294904Y-73302761D02*
X53094904Y-73302761D01*
X53094904Y-73302761D02*
X52980619Y-73221809D01*
X52980619Y-73221809D02*
X52904428Y-73140857D01*
X52904428Y-73140857D02*
X52866333Y-73059904D01*
X52294904Y-74355143D02*
X52294904Y-73869428D01*
X52294904Y-74112285D02*
X53094904Y-74112285D01*
X53094904Y-74112285D02*
X52980619Y-74031333D01*
X52980619Y-74031333D02*
X52904428Y-73950381D01*
X52904428Y-73950381D02*
X52866333Y-73869428D01*
X53094904Y-61145666D02*
X53094904Y-60983761D01*
X53094904Y-60983761D02*
X53056809Y-60902809D01*
X53056809Y-60902809D02*
X53018714Y-60862333D01*
X53018714Y-60862333D02*
X52904428Y-60781380D01*
X52904428Y-60781380D02*
X52752047Y-60740904D01*
X52752047Y-60740904D02*
X52447285Y-60740904D01*
X52447285Y-60740904D02*
X52371095Y-60781380D01*
X52371095Y-60781380D02*
X52333000Y-60821857D01*
X52333000Y-60821857D02*
X52294904Y-60902809D01*
X52294904Y-60902809D02*
X52294904Y-61064714D01*
X52294904Y-61064714D02*
X52333000Y-61145666D01*
X52333000Y-61145666D02*
X52371095Y-61186142D01*
X52371095Y-61186142D02*
X52447285Y-61226619D01*
X52447285Y-61226619D02*
X52637761Y-61226619D01*
X52637761Y-61226619D02*
X52713952Y-61186142D01*
X52713952Y-61186142D02*
X52752047Y-61145666D01*
X52752047Y-61145666D02*
X52790142Y-61064714D01*
X52790142Y-61064714D02*
X52790142Y-60902809D01*
X52790142Y-60902809D02*
X52752047Y-60821857D01*
X52752047Y-60821857D02*
X52713952Y-60781380D01*
X52713952Y-60781380D02*
X52637761Y-60740904D01*
X53018714Y-50580904D02*
X53056809Y-50621380D01*
X53056809Y-50621380D02*
X53094904Y-50702333D01*
X53094904Y-50702333D02*
X53094904Y-50904714D01*
X53094904Y-50904714D02*
X53056809Y-50985666D01*
X53056809Y-50985666D02*
X53018714Y-51026142D01*
X53018714Y-51026142D02*
X52942523Y-51066619D01*
X52942523Y-51066619D02*
X52866333Y-51066619D01*
X52866333Y-51066619D02*
X52752047Y-51026142D01*
X52752047Y-51026142D02*
X52294904Y-50540428D01*
X52294904Y-50540428D02*
X52294904Y-51066619D01*
X89945095Y-81394380D02*
X89945095Y-81880095D01*
X89945095Y-81637238D02*
X89145095Y-81637238D01*
X89145095Y-81637238D02*
X89259380Y-81718190D01*
X89259380Y-81718190D02*
X89335571Y-81799142D01*
X89335571Y-81799142D02*
X89373666Y-81880095D01*
X89145095Y-80625333D02*
X89145095Y-81030095D01*
X89145095Y-81030095D02*
X89526047Y-81070571D01*
X89526047Y-81070571D02*
X89487952Y-81030095D01*
X89487952Y-81030095D02*
X89449857Y-80949142D01*
X89449857Y-80949142D02*
X89449857Y-80746761D01*
X89449857Y-80746761D02*
X89487952Y-80665809D01*
X89487952Y-80665809D02*
X89526047Y-80625333D01*
X89526047Y-80625333D02*
X89602238Y-80584856D01*
X89602238Y-80584856D02*
X89792714Y-80584856D01*
X89792714Y-80584856D02*
X89868904Y-80625333D01*
X89868904Y-80625333D02*
X89907000Y-80665809D01*
X89907000Y-80665809D02*
X89945095Y-80746761D01*
X89945095Y-80746761D02*
X89945095Y-80949142D01*
X89945095Y-80949142D02*
X89907000Y-81030095D01*
X89907000Y-81030095D02*
X89868904Y-81070571D01*
X71576380Y-83316666D02*
X72224000Y-83316666D01*
X71900190Y-83697619D02*
X71900190Y-82935714D01*
X72628761Y-83697619D02*
X72628761Y-82697619D01*
X72628761Y-82697619D02*
X72952571Y-82697619D01*
X72952571Y-82697619D02*
X73033523Y-82745238D01*
X73033523Y-82745238D02*
X73074000Y-82792857D01*
X73074000Y-82792857D02*
X73114476Y-82888095D01*
X73114476Y-82888095D02*
X73114476Y-83030952D01*
X73114476Y-83030952D02*
X73074000Y-83126190D01*
X73074000Y-83126190D02*
X73033523Y-83173809D01*
X73033523Y-83173809D02*
X72952571Y-83221428D01*
X72952571Y-83221428D02*
X72628761Y-83221428D01*
X73357333Y-82697619D02*
X73640666Y-83697619D01*
X73640666Y-83697619D02*
X73924000Y-82697619D01*
X74004952Y-83792857D02*
X74652571Y-83792857D01*
X74854951Y-83697619D02*
X74854951Y-82697619D01*
X75259713Y-83697619D02*
X75259713Y-82697619D01*
X75259713Y-82697619D02*
X75745428Y-83697619D01*
X75745428Y-83697619D02*
X75745428Y-82697619D01*
X76150189Y-83316666D02*
X76797809Y-83316666D01*
X89945095Y-79108380D02*
X89945095Y-79594095D01*
X89945095Y-79351238D02*
X89145095Y-79351238D01*
X89145095Y-79351238D02*
X89259380Y-79432190D01*
X89259380Y-79432190D02*
X89335571Y-79513142D01*
X89335571Y-79513142D02*
X89373666Y-79594095D01*
X89145095Y-78379809D02*
X89145095Y-78541714D01*
X89145095Y-78541714D02*
X89183190Y-78622666D01*
X89183190Y-78622666D02*
X89221285Y-78663142D01*
X89221285Y-78663142D02*
X89335571Y-78744095D01*
X89335571Y-78744095D02*
X89487952Y-78784571D01*
X89487952Y-78784571D02*
X89792714Y-78784571D01*
X89792714Y-78784571D02*
X89868904Y-78744095D01*
X89868904Y-78744095D02*
X89907000Y-78703618D01*
X89907000Y-78703618D02*
X89945095Y-78622666D01*
X89945095Y-78622666D02*
X89945095Y-78460761D01*
X89945095Y-78460761D02*
X89907000Y-78379809D01*
X89907000Y-78379809D02*
X89868904Y-78339333D01*
X89868904Y-78339333D02*
X89792714Y-78298856D01*
X89792714Y-78298856D02*
X89602238Y-78298856D01*
X89602238Y-78298856D02*
X89526047Y-78339333D01*
X89526047Y-78339333D02*
X89487952Y-78379809D01*
X89487952Y-78379809D02*
X89449857Y-78460761D01*
X89449857Y-78460761D02*
X89449857Y-78622666D01*
X89449857Y-78622666D02*
X89487952Y-78703618D01*
X89487952Y-78703618D02*
X89526047Y-78744095D01*
X89526047Y-78744095D02*
X89602238Y-78784571D01*
X89411761Y-69029333D02*
X89945095Y-69029333D01*
X89107000Y-69231714D02*
X89678428Y-69434095D01*
X89678428Y-69434095D02*
X89678428Y-68907904D01*
X89221285Y-68624571D02*
X89183190Y-68584095D01*
X89183190Y-68584095D02*
X89145095Y-68503142D01*
X89145095Y-68503142D02*
X89145095Y-68300761D01*
X89145095Y-68300761D02*
X89183190Y-68219809D01*
X89183190Y-68219809D02*
X89221285Y-68179333D01*
X89221285Y-68179333D02*
X89297476Y-68138856D01*
X89297476Y-68138856D02*
X89373666Y-68138856D01*
X89373666Y-68138856D02*
X89487952Y-68179333D01*
X89487952Y-68179333D02*
X89945095Y-68665047D01*
X89945095Y-68665047D02*
X89945095Y-68138856D01*
X52294904Y-71005619D02*
X52294904Y-70519904D01*
X52294904Y-70762761D02*
X53094904Y-70762761D01*
X53094904Y-70762761D02*
X52980619Y-70681809D01*
X52980619Y-70681809D02*
X52904428Y-70600857D01*
X52904428Y-70600857D02*
X52866333Y-70519904D01*
X53094904Y-71531809D02*
X53094904Y-71612762D01*
X53094904Y-71612762D02*
X53056809Y-71693714D01*
X53056809Y-71693714D02*
X53018714Y-71734190D01*
X53018714Y-71734190D02*
X52942523Y-71774666D01*
X52942523Y-71774666D02*
X52790142Y-71815143D01*
X52790142Y-71815143D02*
X52599666Y-71815143D01*
X52599666Y-71815143D02*
X52447285Y-71774666D01*
X52447285Y-71774666D02*
X52371095Y-71734190D01*
X52371095Y-71734190D02*
X52333000Y-71693714D01*
X52333000Y-71693714D02*
X52294904Y-71612762D01*
X52294904Y-71612762D02*
X52294904Y-71531809D01*
X52294904Y-71531809D02*
X52333000Y-71450857D01*
X52333000Y-71450857D02*
X52371095Y-71410381D01*
X52371095Y-71410381D02*
X52447285Y-71369904D01*
X52447285Y-71369904D02*
X52599666Y-71329428D01*
X52599666Y-71329428D02*
X52790142Y-71329428D01*
X52790142Y-71329428D02*
X52942523Y-71369904D01*
X52942523Y-71369904D02*
X53018714Y-71410381D01*
X53018714Y-71410381D02*
X53056809Y-71450857D01*
X53056809Y-71450857D02*
X53094904Y-71531809D01*
D12*
X89183190Y-48882380D02*
X89145095Y-48963333D01*
X89145095Y-48963333D02*
X89145095Y-49084761D01*
X89145095Y-49084761D02*
X89183190Y-49206190D01*
X89183190Y-49206190D02*
X89259380Y-49287142D01*
X89259380Y-49287142D02*
X89335571Y-49327619D01*
X89335571Y-49327619D02*
X89487952Y-49368095D01*
X89487952Y-49368095D02*
X89602238Y-49368095D01*
X89602238Y-49368095D02*
X89754619Y-49327619D01*
X89754619Y-49327619D02*
X89830809Y-49287142D01*
X89830809Y-49287142D02*
X89907000Y-49206190D01*
X89907000Y-49206190D02*
X89945095Y-49084761D01*
X89945095Y-49084761D02*
X89945095Y-49003809D01*
X89945095Y-49003809D02*
X89907000Y-48882380D01*
X89907000Y-48882380D02*
X89868904Y-48841904D01*
X89868904Y-48841904D02*
X89602238Y-48841904D01*
X89602238Y-48841904D02*
X89602238Y-49003809D01*
X89945095Y-48477619D02*
X89145095Y-48477619D01*
X89145095Y-48477619D02*
X89945095Y-47991904D01*
X89945095Y-47991904D02*
X89145095Y-47991904D01*
X89945095Y-47587143D02*
X89145095Y-47587143D01*
X89145095Y-47587143D02*
X89145095Y-47384762D01*
X89145095Y-47384762D02*
X89183190Y-47263333D01*
X89183190Y-47263333D02*
X89259380Y-47182381D01*
X89259380Y-47182381D02*
X89335571Y-47141904D01*
X89335571Y-47141904D02*
X89487952Y-47101428D01*
X89487952Y-47101428D02*
X89602238Y-47101428D01*
X89602238Y-47101428D02*
X89754619Y-47141904D01*
X89754619Y-47141904D02*
X89830809Y-47182381D01*
X89830809Y-47182381D02*
X89907000Y-47263333D01*
X89907000Y-47263333D02*
X89945095Y-47384762D01*
X89945095Y-47384762D02*
X89945095Y-47587143D01*
X89526047Y-84604285D02*
X89564142Y-84482857D01*
X89564142Y-84482857D02*
X89602238Y-84442380D01*
X89602238Y-84442380D02*
X89678428Y-84401904D01*
X89678428Y-84401904D02*
X89792714Y-84401904D01*
X89792714Y-84401904D02*
X89868904Y-84442380D01*
X89868904Y-84442380D02*
X89907000Y-84482857D01*
X89907000Y-84482857D02*
X89945095Y-84563809D01*
X89945095Y-84563809D02*
X89945095Y-84887619D01*
X89945095Y-84887619D02*
X89145095Y-84887619D01*
X89145095Y-84887619D02*
X89145095Y-84604285D01*
X89145095Y-84604285D02*
X89183190Y-84523333D01*
X89183190Y-84523333D02*
X89221285Y-84482857D01*
X89221285Y-84482857D02*
X89297476Y-84442380D01*
X89297476Y-84442380D02*
X89373666Y-84442380D01*
X89373666Y-84442380D02*
X89449857Y-84482857D01*
X89449857Y-84482857D02*
X89487952Y-84523333D01*
X89487952Y-84523333D02*
X89526047Y-84604285D01*
X89526047Y-84604285D02*
X89526047Y-84887619D01*
X89716523Y-84078095D02*
X89716523Y-83673333D01*
X89945095Y-84159047D02*
X89145095Y-83875714D01*
X89145095Y-83875714D02*
X89945095Y-83592380D01*
X89145095Y-83430476D02*
X89145095Y-82944762D01*
X89945095Y-83187619D02*
X89145095Y-83187619D01*
D11*
X89411761Y-73982333D02*
X89945095Y-73982333D01*
X89107000Y-74184714D02*
X89678428Y-74387095D01*
X89678428Y-74387095D02*
X89678428Y-73860904D01*
X89145095Y-73375190D02*
X89145095Y-73294237D01*
X89145095Y-73294237D02*
X89183190Y-73213285D01*
X89183190Y-73213285D02*
X89221285Y-73172809D01*
X89221285Y-73172809D02*
X89297476Y-73132333D01*
X89297476Y-73132333D02*
X89449857Y-73091856D01*
X89449857Y-73091856D02*
X89640333Y-73091856D01*
X89640333Y-73091856D02*
X89792714Y-73132333D01*
X89792714Y-73132333D02*
X89868904Y-73172809D01*
X89868904Y-73172809D02*
X89907000Y-73213285D01*
X89907000Y-73213285D02*
X89945095Y-73294237D01*
X89945095Y-73294237D02*
X89945095Y-73375190D01*
X89945095Y-73375190D02*
X89907000Y-73456142D01*
X89907000Y-73456142D02*
X89868904Y-73496618D01*
X89868904Y-73496618D02*
X89792714Y-73537095D01*
X89792714Y-73537095D02*
X89640333Y-73577571D01*
X89640333Y-73577571D02*
X89449857Y-73577571D01*
X89449857Y-73577571D02*
X89297476Y-73537095D01*
X89297476Y-73537095D02*
X89221285Y-73496618D01*
X89221285Y-73496618D02*
X89183190Y-73456142D01*
X89183190Y-73456142D02*
X89145095Y-73375190D01*
X89221285Y-66894095D02*
X89183190Y-66853619D01*
X89183190Y-66853619D02*
X89145095Y-66772666D01*
X89145095Y-66772666D02*
X89145095Y-66570285D01*
X89145095Y-66570285D02*
X89183190Y-66489333D01*
X89183190Y-66489333D02*
X89221285Y-66448857D01*
X89221285Y-66448857D02*
X89297476Y-66408380D01*
X89297476Y-66408380D02*
X89373666Y-66408380D01*
X89373666Y-66408380D02*
X89487952Y-66448857D01*
X89487952Y-66448857D02*
X89945095Y-66934571D01*
X89945095Y-66934571D02*
X89945095Y-66408380D01*
X89945095Y-65598856D02*
X89945095Y-66084571D01*
X89945095Y-65841714D02*
X89145095Y-65841714D01*
X89145095Y-65841714D02*
X89259380Y-65922666D01*
X89259380Y-65922666D02*
X89335571Y-66003618D01*
X89335571Y-66003618D02*
X89373666Y-66084571D01*
X52294904Y-78625619D02*
X52294904Y-78139904D01*
X52294904Y-78382761D02*
X53094904Y-78382761D01*
X53094904Y-78382761D02*
X52980619Y-78301809D01*
X52980619Y-78301809D02*
X52904428Y-78220857D01*
X52904428Y-78220857D02*
X52866333Y-78139904D01*
X53094904Y-78908952D02*
X53094904Y-79435143D01*
X53094904Y-79435143D02*
X52790142Y-79151809D01*
X52790142Y-79151809D02*
X52790142Y-79273238D01*
X52790142Y-79273238D02*
X52752047Y-79354190D01*
X52752047Y-79354190D02*
X52713952Y-79394666D01*
X52713952Y-79394666D02*
X52637761Y-79435143D01*
X52637761Y-79435143D02*
X52447285Y-79435143D01*
X52447285Y-79435143D02*
X52371095Y-79394666D01*
X52371095Y-79394666D02*
X52333000Y-79354190D01*
X52333000Y-79354190D02*
X52294904Y-79273238D01*
X52294904Y-79273238D02*
X52294904Y-79030381D01*
X52294904Y-79030381D02*
X52333000Y-78949428D01*
X52333000Y-78949428D02*
X52371095Y-78908952D01*
X52828238Y-55938666D02*
X52294904Y-55938666D01*
X53133000Y-55736285D02*
X52561571Y-55533904D01*
X52561571Y-55533904D02*
X52561571Y-56060095D01*
X89145095Y-64373142D02*
X89145095Y-63754095D01*
X89145095Y-63754095D02*
X89449857Y-64087428D01*
X89449857Y-64087428D02*
X89449857Y-63944571D01*
X89449857Y-63944571D02*
X89487952Y-63849333D01*
X89487952Y-63849333D02*
X89526047Y-63801714D01*
X89526047Y-63801714D02*
X89602238Y-63754095D01*
X89602238Y-63754095D02*
X89792714Y-63754095D01*
X89792714Y-63754095D02*
X89868904Y-63801714D01*
X89868904Y-63801714D02*
X89907000Y-63849333D01*
X89907000Y-63849333D02*
X89945095Y-63944571D01*
X89945095Y-63944571D02*
X89945095Y-64230285D01*
X89945095Y-64230285D02*
X89907000Y-64325523D01*
X89907000Y-64325523D02*
X89868904Y-64373142D01*
X89145095Y-63420761D02*
X89145095Y-62801714D01*
X89145095Y-62801714D02*
X89449857Y-63135047D01*
X89449857Y-63135047D02*
X89449857Y-62992190D01*
X89449857Y-62992190D02*
X89487952Y-62896952D01*
X89487952Y-62896952D02*
X89526047Y-62849333D01*
X89526047Y-62849333D02*
X89602238Y-62801714D01*
X89602238Y-62801714D02*
X89792714Y-62801714D01*
X89792714Y-62801714D02*
X89868904Y-62849333D01*
X89868904Y-62849333D02*
X89907000Y-62896952D01*
X89907000Y-62896952D02*
X89945095Y-62992190D01*
X89945095Y-62992190D02*
X89945095Y-63277904D01*
X89945095Y-63277904D02*
X89907000Y-63373142D01*
X89907000Y-63373142D02*
X89868904Y-63420761D01*
X89411761Y-71442333D02*
X89945095Y-71442333D01*
X89107000Y-71644714D02*
X89678428Y-71847095D01*
X89678428Y-71847095D02*
X89678428Y-71320904D01*
X89945095Y-70551856D02*
X89945095Y-71037571D01*
X89945095Y-70794714D02*
X89145095Y-70794714D01*
X89145095Y-70794714D02*
X89259380Y-70875666D01*
X89259380Y-70875666D02*
X89335571Y-70956618D01*
X89335571Y-70956618D02*
X89373666Y-71037571D01*
X75485523Y-87380619D02*
X75152190Y-86904428D01*
X74914095Y-87380619D02*
X74914095Y-86380619D01*
X74914095Y-86380619D02*
X75295047Y-86380619D01*
X75295047Y-86380619D02*
X75390285Y-86428238D01*
X75390285Y-86428238D02*
X75437904Y-86475857D01*
X75437904Y-86475857D02*
X75485523Y-86571095D01*
X75485523Y-86571095D02*
X75485523Y-86713952D01*
X75485523Y-86713952D02*
X75437904Y-86809190D01*
X75437904Y-86809190D02*
X75390285Y-86856809D01*
X75390285Y-86856809D02*
X75295047Y-86904428D01*
X75295047Y-86904428D02*
X74914095Y-86904428D01*
X75866476Y-87333000D02*
X76009333Y-87380619D01*
X76009333Y-87380619D02*
X76247428Y-87380619D01*
X76247428Y-87380619D02*
X76342666Y-87333000D01*
X76342666Y-87333000D02*
X76390285Y-87285380D01*
X76390285Y-87285380D02*
X76437904Y-87190142D01*
X76437904Y-87190142D02*
X76437904Y-87094904D01*
X76437904Y-87094904D02*
X76390285Y-86999666D01*
X76390285Y-86999666D02*
X76342666Y-86952047D01*
X76342666Y-86952047D02*
X76247428Y-86904428D01*
X76247428Y-86904428D02*
X76056952Y-86856809D01*
X76056952Y-86856809D02*
X75961714Y-86809190D01*
X75961714Y-86809190D02*
X75914095Y-86761571D01*
X75914095Y-86761571D02*
X75866476Y-86666333D01*
X75866476Y-86666333D02*
X75866476Y-86571095D01*
X75866476Y-86571095D02*
X75914095Y-86475857D01*
X75914095Y-86475857D02*
X75961714Y-86428238D01*
X75961714Y-86428238D02*
X76056952Y-86380619D01*
X76056952Y-86380619D02*
X76295047Y-86380619D01*
X76295047Y-86380619D02*
X76437904Y-86428238D01*
X76723619Y-86380619D02*
X77295047Y-86380619D01*
X77009333Y-87380619D02*
X77009333Y-86380619D01*
X52294904Y-76085619D02*
X52294904Y-75599904D01*
X52294904Y-75842761D02*
X53094904Y-75842761D01*
X53094904Y-75842761D02*
X52980619Y-75761809D01*
X52980619Y-75761809D02*
X52904428Y-75680857D01*
X52904428Y-75680857D02*
X52866333Y-75599904D01*
X53018714Y-76409428D02*
X53056809Y-76449904D01*
X53056809Y-76449904D02*
X53094904Y-76530857D01*
X53094904Y-76530857D02*
X53094904Y-76733238D01*
X53094904Y-76733238D02*
X53056809Y-76814190D01*
X53056809Y-76814190D02*
X53018714Y-76854666D01*
X53018714Y-76854666D02*
X52942523Y-76895143D01*
X52942523Y-76895143D02*
X52866333Y-76895143D01*
X52866333Y-76895143D02*
X52752047Y-76854666D01*
X52752047Y-76854666D02*
X52294904Y-76368952D01*
X52294904Y-76368952D02*
X52294904Y-76895143D01*
X89145095Y-76967571D02*
X89145095Y-76441380D01*
X89145095Y-76441380D02*
X89449857Y-76724714D01*
X89449857Y-76724714D02*
X89449857Y-76603285D01*
X89449857Y-76603285D02*
X89487952Y-76522333D01*
X89487952Y-76522333D02*
X89526047Y-76481857D01*
X89526047Y-76481857D02*
X89602238Y-76441380D01*
X89602238Y-76441380D02*
X89792714Y-76441380D01*
X89792714Y-76441380D02*
X89868904Y-76481857D01*
X89868904Y-76481857D02*
X89907000Y-76522333D01*
X89907000Y-76522333D02*
X89945095Y-76603285D01*
X89945095Y-76603285D02*
X89945095Y-76846142D01*
X89945095Y-76846142D02*
X89907000Y-76927095D01*
X89907000Y-76927095D02*
X89868904Y-76967571D01*
X89945095Y-76036618D02*
X89945095Y-75874714D01*
X89945095Y-75874714D02*
X89907000Y-75793761D01*
X89907000Y-75793761D02*
X89868904Y-75753285D01*
X89868904Y-75753285D02*
X89754619Y-75672333D01*
X89754619Y-75672333D02*
X89602238Y-75631856D01*
X89602238Y-75631856D02*
X89297476Y-75631856D01*
X89297476Y-75631856D02*
X89221285Y-75672333D01*
X89221285Y-75672333D02*
X89183190Y-75712809D01*
X89183190Y-75712809D02*
X89145095Y-75793761D01*
X89145095Y-75793761D02*
X89145095Y-75955666D01*
X89145095Y-75955666D02*
X89183190Y-76036618D01*
X89183190Y-76036618D02*
X89221285Y-76077095D01*
X89221285Y-76077095D02*
X89297476Y-76117571D01*
X89297476Y-76117571D02*
X89487952Y-76117571D01*
X89487952Y-76117571D02*
X89564142Y-76077095D01*
X89564142Y-76077095D02*
X89602238Y-76036618D01*
X89602238Y-76036618D02*
X89640333Y-75955666D01*
X89640333Y-75955666D02*
X89640333Y-75793761D01*
X89640333Y-75793761D02*
X89602238Y-75712809D01*
X89602238Y-75712809D02*
X89564142Y-75672333D01*
X89564142Y-75672333D02*
X89487952Y-75631856D01*
X56197428Y-43629238D02*
X56126000Y-43581619D01*
X56126000Y-43581619D02*
X56018857Y-43581619D01*
X56018857Y-43581619D02*
X55911714Y-43629238D01*
X55911714Y-43629238D02*
X55840285Y-43724476D01*
X55840285Y-43724476D02*
X55804571Y-43819714D01*
X55804571Y-43819714D02*
X55768857Y-44010190D01*
X55768857Y-44010190D02*
X55768857Y-44153047D01*
X55768857Y-44153047D02*
X55804571Y-44343523D01*
X55804571Y-44343523D02*
X55840285Y-44438761D01*
X55840285Y-44438761D02*
X55911714Y-44534000D01*
X55911714Y-44534000D02*
X56018857Y-44581619D01*
X56018857Y-44581619D02*
X56090285Y-44581619D01*
X56090285Y-44581619D02*
X56197428Y-44534000D01*
X56197428Y-44534000D02*
X56233142Y-44486380D01*
X56233142Y-44486380D02*
X56233142Y-44153047D01*
X56233142Y-44153047D02*
X56090285Y-44153047D01*
X56554571Y-44581619D02*
X56554571Y-43581619D01*
X56554571Y-43581619D02*
X56983142Y-44581619D01*
X56983142Y-44581619D02*
X56983142Y-43581619D01*
X57340285Y-44581619D02*
X57340285Y-43581619D01*
X57340285Y-43581619D02*
X57518856Y-43581619D01*
X57518856Y-43581619D02*
X57625999Y-43629238D01*
X57625999Y-43629238D02*
X57697428Y-43724476D01*
X57697428Y-43724476D02*
X57733142Y-43819714D01*
X57733142Y-43819714D02*
X57768856Y-44010190D01*
X57768856Y-44010190D02*
X57768856Y-44153047D01*
X57768856Y-44153047D02*
X57733142Y-44343523D01*
X57733142Y-44343523D02*
X57697428Y-44438761D01*
X57697428Y-44438761D02*
X57625999Y-44534000D01*
X57625999Y-44534000D02*
X57518856Y-44581619D01*
X57518856Y-44581619D02*
X57340285Y-44581619D01*
X59090285Y-44581619D02*
X58840285Y-44105428D01*
X58661714Y-44581619D02*
X58661714Y-43581619D01*
X58661714Y-43581619D02*
X58947428Y-43581619D01*
X58947428Y-43581619D02*
X59018857Y-43629238D01*
X59018857Y-43629238D02*
X59054571Y-43676857D01*
X59054571Y-43676857D02*
X59090285Y-43772095D01*
X59090285Y-43772095D02*
X59090285Y-43914952D01*
X59090285Y-43914952D02*
X59054571Y-44010190D01*
X59054571Y-44010190D02*
X59018857Y-44057809D01*
X59018857Y-44057809D02*
X58947428Y-44105428D01*
X58947428Y-44105428D02*
X58661714Y-44105428D01*
X59340285Y-43581619D02*
X59840285Y-44581619D01*
X59840285Y-43581619D02*
X59340285Y-44581619D01*
X60268857Y-43581619D02*
X60340286Y-43581619D01*
X60340286Y-43581619D02*
X60411714Y-43629238D01*
X60411714Y-43629238D02*
X60447429Y-43676857D01*
X60447429Y-43676857D02*
X60483143Y-43772095D01*
X60483143Y-43772095D02*
X60518857Y-43962571D01*
X60518857Y-43962571D02*
X60518857Y-44200666D01*
X60518857Y-44200666D02*
X60483143Y-44391142D01*
X60483143Y-44391142D02*
X60447429Y-44486380D01*
X60447429Y-44486380D02*
X60411714Y-44534000D01*
X60411714Y-44534000D02*
X60340286Y-44581619D01*
X60340286Y-44581619D02*
X60268857Y-44581619D01*
X60268857Y-44581619D02*
X60197429Y-44534000D01*
X60197429Y-44534000D02*
X60161714Y-44486380D01*
X60161714Y-44486380D02*
X60126000Y-44391142D01*
X60126000Y-44391142D02*
X60090286Y-44200666D01*
X60090286Y-44200666D02*
X60090286Y-43962571D01*
X60090286Y-43962571D02*
X60126000Y-43772095D01*
X60126000Y-43772095D02*
X60161714Y-43676857D01*
X60161714Y-43676857D02*
X60197429Y-43629238D01*
X60197429Y-43629238D02*
X60268857Y-43581619D01*
X61304572Y-43581619D02*
X61733144Y-43581619D01*
X61518858Y-44581619D02*
X61518858Y-43581619D01*
X61911715Y-43581619D02*
X62411715Y-44581619D01*
X62411715Y-43581619D02*
X61911715Y-44581619D01*
X62840287Y-43581619D02*
X62911716Y-43581619D01*
X62911716Y-43581619D02*
X62983144Y-43629238D01*
X62983144Y-43629238D02*
X63018859Y-43676857D01*
X63018859Y-43676857D02*
X63054573Y-43772095D01*
X63054573Y-43772095D02*
X63090287Y-43962571D01*
X63090287Y-43962571D02*
X63090287Y-44200666D01*
X63090287Y-44200666D02*
X63054573Y-44391142D01*
X63054573Y-44391142D02*
X63018859Y-44486380D01*
X63018859Y-44486380D02*
X62983144Y-44534000D01*
X62983144Y-44534000D02*
X62911716Y-44581619D01*
X62911716Y-44581619D02*
X62840287Y-44581619D01*
X62840287Y-44581619D02*
X62768859Y-44534000D01*
X62768859Y-44534000D02*
X62733144Y-44486380D01*
X62733144Y-44486380D02*
X62697430Y-44391142D01*
X62697430Y-44391142D02*
X62661716Y-44200666D01*
X62661716Y-44200666D02*
X62661716Y-43962571D01*
X62661716Y-43962571D02*
X62697430Y-43772095D01*
X62697430Y-43772095D02*
X62733144Y-43676857D01*
X62733144Y-43676857D02*
X62768859Y-43629238D01*
X62768859Y-43629238D02*
X62840287Y-43581619D01*
X52294904Y-81292619D02*
X52294904Y-80806904D01*
X52294904Y-81049761D02*
X53094904Y-81049761D01*
X53094904Y-81049761D02*
X52980619Y-80968809D01*
X52980619Y-80968809D02*
X52904428Y-80887857D01*
X52904428Y-80887857D02*
X52866333Y-80806904D01*
X52828238Y-82021190D02*
X52294904Y-82021190D01*
X53133000Y-81818809D02*
X52561571Y-81616428D01*
X52561571Y-81616428D02*
X52561571Y-82142619D01*
X89145095Y-56753142D02*
X89145095Y-56134095D01*
X89145095Y-56134095D02*
X89449857Y-56467428D01*
X89449857Y-56467428D02*
X89449857Y-56324571D01*
X89449857Y-56324571D02*
X89487952Y-56229333D01*
X89487952Y-56229333D02*
X89526047Y-56181714D01*
X89526047Y-56181714D02*
X89602238Y-56134095D01*
X89602238Y-56134095D02*
X89792714Y-56134095D01*
X89792714Y-56134095D02*
X89868904Y-56181714D01*
X89868904Y-56181714D02*
X89907000Y-56229333D01*
X89907000Y-56229333D02*
X89945095Y-56324571D01*
X89945095Y-56324571D02*
X89945095Y-56610285D01*
X89945095Y-56610285D02*
X89907000Y-56705523D01*
X89907000Y-56705523D02*
X89868904Y-56753142D01*
X89145095Y-55276952D02*
X89145095Y-55467428D01*
X89145095Y-55467428D02*
X89183190Y-55562666D01*
X89183190Y-55562666D02*
X89221285Y-55610285D01*
X89221285Y-55610285D02*
X89335571Y-55705523D01*
X89335571Y-55705523D02*
X89487952Y-55753142D01*
X89487952Y-55753142D02*
X89792714Y-55753142D01*
X89792714Y-55753142D02*
X89868904Y-55705523D01*
X89868904Y-55705523D02*
X89907000Y-55657904D01*
X89907000Y-55657904D02*
X89945095Y-55562666D01*
X89945095Y-55562666D02*
X89945095Y-55372190D01*
X89945095Y-55372190D02*
X89907000Y-55276952D01*
X89907000Y-55276952D02*
X89868904Y-55229333D01*
X89868904Y-55229333D02*
X89792714Y-55181714D01*
X89792714Y-55181714D02*
X89602238Y-55181714D01*
X89602238Y-55181714D02*
X89526047Y-55229333D01*
X89526047Y-55229333D02*
X89487952Y-55276952D01*
X89487952Y-55276952D02*
X89449857Y-55372190D01*
X89449857Y-55372190D02*
X89449857Y-55562666D01*
X89449857Y-55562666D02*
X89487952Y-55657904D01*
X89487952Y-55657904D02*
X89526047Y-55705523D01*
X89526047Y-55705523D02*
X89602238Y-55753142D01*
X53911428Y-86729809D02*
X54054285Y-86777428D01*
X54054285Y-86777428D02*
X54101904Y-86825047D01*
X54101904Y-86825047D02*
X54149523Y-86920285D01*
X54149523Y-86920285D02*
X54149523Y-87063142D01*
X54149523Y-87063142D02*
X54101904Y-87158380D01*
X54101904Y-87158380D02*
X54054285Y-87206000D01*
X54054285Y-87206000D02*
X53959047Y-87253619D01*
X53959047Y-87253619D02*
X53578095Y-87253619D01*
X53578095Y-87253619D02*
X53578095Y-86253619D01*
X53578095Y-86253619D02*
X53911428Y-86253619D01*
X53911428Y-86253619D02*
X54006666Y-86301238D01*
X54006666Y-86301238D02*
X54054285Y-86348857D01*
X54054285Y-86348857D02*
X54101904Y-86444095D01*
X54101904Y-86444095D02*
X54101904Y-86539333D01*
X54101904Y-86539333D02*
X54054285Y-86634571D01*
X54054285Y-86634571D02*
X54006666Y-86682190D01*
X54006666Y-86682190D02*
X53911428Y-86729809D01*
X53911428Y-86729809D02*
X53578095Y-86729809D01*
X54768571Y-86253619D02*
X54959047Y-86253619D01*
X54959047Y-86253619D02*
X55054285Y-86301238D01*
X55054285Y-86301238D02*
X55149523Y-86396476D01*
X55149523Y-86396476D02*
X55197142Y-86586952D01*
X55197142Y-86586952D02*
X55197142Y-86920285D01*
X55197142Y-86920285D02*
X55149523Y-87110761D01*
X55149523Y-87110761D02*
X55054285Y-87206000D01*
X55054285Y-87206000D02*
X54959047Y-87253619D01*
X54959047Y-87253619D02*
X54768571Y-87253619D01*
X54768571Y-87253619D02*
X54673333Y-87206000D01*
X54673333Y-87206000D02*
X54578095Y-87110761D01*
X54578095Y-87110761D02*
X54530476Y-86920285D01*
X54530476Y-86920285D02*
X54530476Y-86586952D01*
X54530476Y-86586952D02*
X54578095Y-86396476D01*
X54578095Y-86396476D02*
X54673333Y-86301238D01*
X54673333Y-86301238D02*
X54768571Y-86253619D01*
X55816190Y-86253619D02*
X56006666Y-86253619D01*
X56006666Y-86253619D02*
X56101904Y-86301238D01*
X56101904Y-86301238D02*
X56197142Y-86396476D01*
X56197142Y-86396476D02*
X56244761Y-86586952D01*
X56244761Y-86586952D02*
X56244761Y-86920285D01*
X56244761Y-86920285D02*
X56197142Y-87110761D01*
X56197142Y-87110761D02*
X56101904Y-87206000D01*
X56101904Y-87206000D02*
X56006666Y-87253619D01*
X56006666Y-87253619D02*
X55816190Y-87253619D01*
X55816190Y-87253619D02*
X55720952Y-87206000D01*
X55720952Y-87206000D02*
X55625714Y-87110761D01*
X55625714Y-87110761D02*
X55578095Y-86920285D01*
X55578095Y-86920285D02*
X55578095Y-86586952D01*
X55578095Y-86586952D02*
X55625714Y-86396476D01*
X55625714Y-86396476D02*
X55720952Y-86301238D01*
X55720952Y-86301238D02*
X55816190Y-86253619D01*
X56530476Y-86253619D02*
X57101904Y-86253619D01*
X56816190Y-87253619D02*
X56816190Y-86253619D01*
X52752047Y-65982809D02*
X52790142Y-65901857D01*
X52790142Y-65901857D02*
X52828238Y-65861380D01*
X52828238Y-65861380D02*
X52904428Y-65820904D01*
X52904428Y-65820904D02*
X52942523Y-65820904D01*
X52942523Y-65820904D02*
X53018714Y-65861380D01*
X53018714Y-65861380D02*
X53056809Y-65901857D01*
X53056809Y-65901857D02*
X53094904Y-65982809D01*
X53094904Y-65982809D02*
X53094904Y-66144714D01*
X53094904Y-66144714D02*
X53056809Y-66225666D01*
X53056809Y-66225666D02*
X53018714Y-66266142D01*
X53018714Y-66266142D02*
X52942523Y-66306619D01*
X52942523Y-66306619D02*
X52904428Y-66306619D01*
X52904428Y-66306619D02*
X52828238Y-66266142D01*
X52828238Y-66266142D02*
X52790142Y-66225666D01*
X52790142Y-66225666D02*
X52752047Y-66144714D01*
X52752047Y-66144714D02*
X52752047Y-65982809D01*
X52752047Y-65982809D02*
X52713952Y-65901857D01*
X52713952Y-65901857D02*
X52675857Y-65861380D01*
X52675857Y-65861380D02*
X52599666Y-65820904D01*
X52599666Y-65820904D02*
X52447285Y-65820904D01*
X52447285Y-65820904D02*
X52371095Y-65861380D01*
X52371095Y-65861380D02*
X52333000Y-65901857D01*
X52333000Y-65901857D02*
X52294904Y-65982809D01*
X52294904Y-65982809D02*
X52294904Y-66144714D01*
X52294904Y-66144714D02*
X52333000Y-66225666D01*
X52333000Y-66225666D02*
X52371095Y-66266142D01*
X52371095Y-66266142D02*
X52447285Y-66306619D01*
X52447285Y-66306619D02*
X52599666Y-66306619D01*
X52599666Y-66306619D02*
X52675857Y-66266142D01*
X52675857Y-66266142D02*
X52713952Y-66225666D01*
X52713952Y-66225666D02*
X52752047Y-66144714D01*
D12*
X52713952Y-47729714D02*
X52675857Y-47851142D01*
X52675857Y-47851142D02*
X52637761Y-47891619D01*
X52637761Y-47891619D02*
X52561571Y-47932095D01*
X52561571Y-47932095D02*
X52447285Y-47932095D01*
X52447285Y-47932095D02*
X52371095Y-47891619D01*
X52371095Y-47891619D02*
X52333000Y-47851142D01*
X52333000Y-47851142D02*
X52294904Y-47770190D01*
X52294904Y-47770190D02*
X52294904Y-47446380D01*
X52294904Y-47446380D02*
X53094904Y-47446380D01*
X53094904Y-47446380D02*
X53094904Y-47729714D01*
X53094904Y-47729714D02*
X53056809Y-47810666D01*
X53056809Y-47810666D02*
X53018714Y-47851142D01*
X53018714Y-47851142D02*
X52942523Y-47891619D01*
X52942523Y-47891619D02*
X52866333Y-47891619D01*
X52866333Y-47891619D02*
X52790142Y-47851142D01*
X52790142Y-47851142D02*
X52752047Y-47810666D01*
X52752047Y-47810666D02*
X52713952Y-47729714D01*
X52713952Y-47729714D02*
X52713952Y-47446380D01*
X52523476Y-48255904D02*
X52523476Y-48660666D01*
X52294904Y-48174952D02*
X53094904Y-48458285D01*
X53094904Y-48458285D02*
X52294904Y-48741619D01*
X53094904Y-48903523D02*
X53094904Y-49389237D01*
X52294904Y-49146380D02*
X53094904Y-49146380D01*
X53056809Y-83197619D02*
X53094904Y-83116666D01*
X53094904Y-83116666D02*
X53094904Y-82995238D01*
X53094904Y-82995238D02*
X53056809Y-82873809D01*
X53056809Y-82873809D02*
X52980619Y-82792857D01*
X52980619Y-82792857D02*
X52904428Y-82752380D01*
X52904428Y-82752380D02*
X52752047Y-82711904D01*
X52752047Y-82711904D02*
X52637761Y-82711904D01*
X52637761Y-82711904D02*
X52485380Y-82752380D01*
X52485380Y-82752380D02*
X52409190Y-82792857D01*
X52409190Y-82792857D02*
X52333000Y-82873809D01*
X52333000Y-82873809D02*
X52294904Y-82995238D01*
X52294904Y-82995238D02*
X52294904Y-83076190D01*
X52294904Y-83076190D02*
X52333000Y-83197619D01*
X52333000Y-83197619D02*
X52371095Y-83238095D01*
X52371095Y-83238095D02*
X52637761Y-83238095D01*
X52637761Y-83238095D02*
X52637761Y-83076190D01*
X52294904Y-83602380D02*
X53094904Y-83602380D01*
X53094904Y-83602380D02*
X52294904Y-84088095D01*
X52294904Y-84088095D02*
X53094904Y-84088095D01*
X52294904Y-84492856D02*
X53094904Y-84492856D01*
X53094904Y-84492856D02*
X53094904Y-84695237D01*
X53094904Y-84695237D02*
X53056809Y-84816666D01*
X53056809Y-84816666D02*
X52980619Y-84897618D01*
X52980619Y-84897618D02*
X52904428Y-84938095D01*
X52904428Y-84938095D02*
X52752047Y-84978571D01*
X52752047Y-84978571D02*
X52637761Y-84978571D01*
X52637761Y-84978571D02*
X52485380Y-84938095D01*
X52485380Y-84938095D02*
X52409190Y-84897618D01*
X52409190Y-84897618D02*
X52333000Y-84816666D01*
X52333000Y-84816666D02*
X52294904Y-84695237D01*
X52294904Y-84695237D02*
X52294904Y-84492856D01*
D11*
X52294904Y-68441857D02*
X52294904Y-68603761D01*
X52294904Y-68603761D02*
X52333000Y-68684714D01*
X52333000Y-68684714D02*
X52371095Y-68725190D01*
X52371095Y-68725190D02*
X52485380Y-68806142D01*
X52485380Y-68806142D02*
X52637761Y-68846619D01*
X52637761Y-68846619D02*
X52942523Y-68846619D01*
X52942523Y-68846619D02*
X53018714Y-68806142D01*
X53018714Y-68806142D02*
X53056809Y-68765666D01*
X53056809Y-68765666D02*
X53094904Y-68684714D01*
X53094904Y-68684714D02*
X53094904Y-68522809D01*
X53094904Y-68522809D02*
X53056809Y-68441857D01*
X53056809Y-68441857D02*
X53018714Y-68401380D01*
X53018714Y-68401380D02*
X52942523Y-68360904D01*
X52942523Y-68360904D02*
X52752047Y-68360904D01*
X52752047Y-68360904D02*
X52675857Y-68401380D01*
X52675857Y-68401380D02*
X52637761Y-68441857D01*
X52637761Y-68441857D02*
X52599666Y-68522809D01*
X52599666Y-68522809D02*
X52599666Y-68684714D01*
X52599666Y-68684714D02*
X52637761Y-68765666D01*
X52637761Y-68765666D02*
X52675857Y-68806142D01*
X52675857Y-68806142D02*
X52752047Y-68846619D01*
X89145095Y-59293142D02*
X89145095Y-58674095D01*
X89145095Y-58674095D02*
X89449857Y-59007428D01*
X89449857Y-59007428D02*
X89449857Y-58864571D01*
X89449857Y-58864571D02*
X89487952Y-58769333D01*
X89487952Y-58769333D02*
X89526047Y-58721714D01*
X89526047Y-58721714D02*
X89602238Y-58674095D01*
X89602238Y-58674095D02*
X89792714Y-58674095D01*
X89792714Y-58674095D02*
X89868904Y-58721714D01*
X89868904Y-58721714D02*
X89907000Y-58769333D01*
X89907000Y-58769333D02*
X89945095Y-58864571D01*
X89945095Y-58864571D02*
X89945095Y-59150285D01*
X89945095Y-59150285D02*
X89907000Y-59245523D01*
X89907000Y-59245523D02*
X89868904Y-59293142D01*
X89145095Y-57769333D02*
X89145095Y-58245523D01*
X89145095Y-58245523D02*
X89526047Y-58293142D01*
X89526047Y-58293142D02*
X89487952Y-58245523D01*
X89487952Y-58245523D02*
X89449857Y-58150285D01*
X89449857Y-58150285D02*
X89449857Y-57912190D01*
X89449857Y-57912190D02*
X89487952Y-57816952D01*
X89487952Y-57816952D02*
X89526047Y-57769333D01*
X89526047Y-57769333D02*
X89602238Y-57721714D01*
X89602238Y-57721714D02*
X89792714Y-57721714D01*
X89792714Y-57721714D02*
X89868904Y-57769333D01*
X89868904Y-57769333D02*
X89907000Y-57816952D01*
X89907000Y-57816952D02*
X89945095Y-57912190D01*
X89945095Y-57912190D02*
X89945095Y-58150285D01*
X89945095Y-58150285D02*
X89907000Y-58245523D01*
X89907000Y-58245523D02*
X89868904Y-58293142D01*
X89145095Y-61833142D02*
X89145095Y-61214095D01*
X89145095Y-61214095D02*
X89449857Y-61547428D01*
X89449857Y-61547428D02*
X89449857Y-61404571D01*
X89449857Y-61404571D02*
X89487952Y-61309333D01*
X89487952Y-61309333D02*
X89526047Y-61261714D01*
X89526047Y-61261714D02*
X89602238Y-61214095D01*
X89602238Y-61214095D02*
X89792714Y-61214095D01*
X89792714Y-61214095D02*
X89868904Y-61261714D01*
X89868904Y-61261714D02*
X89907000Y-61309333D01*
X89907000Y-61309333D02*
X89945095Y-61404571D01*
X89945095Y-61404571D02*
X89945095Y-61690285D01*
X89945095Y-61690285D02*
X89907000Y-61785523D01*
X89907000Y-61785523D02*
X89868904Y-61833142D01*
X89411761Y-60356952D02*
X89945095Y-60356952D01*
X89107000Y-60595047D02*
X89678428Y-60833142D01*
X89678428Y-60833142D02*
X89678428Y-60214095D01*
X89411761Y-53943333D02*
X89945095Y-53943333D01*
X89107000Y-54181428D02*
X89678428Y-54419523D01*
X89678428Y-54419523D02*
X89678428Y-53800476D01*
X89145095Y-52943333D02*
X89145095Y-53419523D01*
X89145095Y-53419523D02*
X89526047Y-53467142D01*
X89526047Y-53467142D02*
X89487952Y-53419523D01*
X89487952Y-53419523D02*
X89449857Y-53324285D01*
X89449857Y-53324285D02*
X89449857Y-53086190D01*
X89449857Y-53086190D02*
X89487952Y-52990952D01*
X89487952Y-52990952D02*
X89526047Y-52943333D01*
X89526047Y-52943333D02*
X89602238Y-52895714D01*
X89602238Y-52895714D02*
X89792714Y-52895714D01*
X89792714Y-52895714D02*
X89868904Y-52943333D01*
X89868904Y-52943333D02*
X89907000Y-52990952D01*
X89907000Y-52990952D02*
X89945095Y-53086190D01*
X89945095Y-53086190D02*
X89945095Y-53324285D01*
X89945095Y-53324285D02*
X89907000Y-53419523D01*
X89907000Y-53419523D02*
X89868904Y-53467142D01*
X53094904Y-58646142D02*
X53094904Y-58241380D01*
X53094904Y-58241380D02*
X52713952Y-58200904D01*
X52713952Y-58200904D02*
X52752047Y-58241380D01*
X52752047Y-58241380D02*
X52790142Y-58322333D01*
X52790142Y-58322333D02*
X52790142Y-58524714D01*
X52790142Y-58524714D02*
X52752047Y-58605666D01*
X52752047Y-58605666D02*
X52713952Y-58646142D01*
X52713952Y-58646142D02*
X52637761Y-58686619D01*
X52637761Y-58686619D02*
X52447285Y-58686619D01*
X52447285Y-58686619D02*
X52371095Y-58646142D01*
X52371095Y-58646142D02*
X52333000Y-58605666D01*
X52333000Y-58605666D02*
X52294904Y-58524714D01*
X52294904Y-58524714D02*
X52294904Y-58322333D01*
X52294904Y-58322333D02*
X52333000Y-58241380D01*
X52333000Y-58241380D02*
X52371095Y-58200904D01*
D12*
X89945095Y-51508904D02*
X89564142Y-51792238D01*
X89945095Y-51994619D02*
X89145095Y-51994619D01*
X89145095Y-51994619D02*
X89145095Y-51670809D01*
X89145095Y-51670809D02*
X89183190Y-51589857D01*
X89183190Y-51589857D02*
X89221285Y-51549380D01*
X89221285Y-51549380D02*
X89297476Y-51508904D01*
X89297476Y-51508904D02*
X89411761Y-51508904D01*
X89411761Y-51508904D02*
X89487952Y-51549380D01*
X89487952Y-51549380D02*
X89526047Y-51589857D01*
X89526047Y-51589857D02*
X89564142Y-51670809D01*
X89564142Y-51670809D02*
X89564142Y-51994619D01*
X89907000Y-51185095D02*
X89945095Y-51063666D01*
X89945095Y-51063666D02*
X89945095Y-50861285D01*
X89945095Y-50861285D02*
X89907000Y-50780333D01*
X89907000Y-50780333D02*
X89868904Y-50739857D01*
X89868904Y-50739857D02*
X89792714Y-50699380D01*
X89792714Y-50699380D02*
X89716523Y-50699380D01*
X89716523Y-50699380D02*
X89640333Y-50739857D01*
X89640333Y-50739857D02*
X89602238Y-50780333D01*
X89602238Y-50780333D02*
X89564142Y-50861285D01*
X89564142Y-50861285D02*
X89526047Y-51023190D01*
X89526047Y-51023190D02*
X89487952Y-51104142D01*
X89487952Y-51104142D02*
X89449857Y-51144619D01*
X89449857Y-51144619D02*
X89373666Y-51185095D01*
X89373666Y-51185095D02*
X89297476Y-51185095D01*
X89297476Y-51185095D02*
X89221285Y-51144619D01*
X89221285Y-51144619D02*
X89183190Y-51104142D01*
X89183190Y-51104142D02*
X89145095Y-51023190D01*
X89145095Y-51023190D02*
X89145095Y-50820809D01*
X89145095Y-50820809D02*
X89183190Y-50699380D01*
X89145095Y-50456523D02*
X89145095Y-49970809D01*
X89945095Y-50213666D02*
X89145095Y-50213666D01*
D11*
X53094904Y-53080428D02*
X53094904Y-53606619D01*
X53094904Y-53606619D02*
X52790142Y-53323285D01*
X52790142Y-53323285D02*
X52790142Y-53444714D01*
X52790142Y-53444714D02*
X52752047Y-53525666D01*
X52752047Y-53525666D02*
X52713952Y-53566142D01*
X52713952Y-53566142D02*
X52637761Y-53606619D01*
X52637761Y-53606619D02*
X52447285Y-53606619D01*
X52447285Y-53606619D02*
X52371095Y-53566142D01*
X52371095Y-53566142D02*
X52333000Y-53525666D01*
X52333000Y-53525666D02*
X52294904Y-53444714D01*
X52294904Y-53444714D02*
X52294904Y-53201857D01*
X52294904Y-53201857D02*
X52333000Y-53120904D01*
X52333000Y-53120904D02*
X52371095Y-53080428D01*
D13*
X83427000Y-63436523D02*
X83474619Y-63293666D01*
X83474619Y-63293666D02*
X83474619Y-63055571D01*
X83474619Y-63055571D02*
X83427000Y-62960333D01*
X83427000Y-62960333D02*
X83379380Y-62912714D01*
X83379380Y-62912714D02*
X83284142Y-62865095D01*
X83284142Y-62865095D02*
X83188904Y-62865095D01*
X83188904Y-62865095D02*
X83093666Y-62912714D01*
X83093666Y-62912714D02*
X83046047Y-62960333D01*
X83046047Y-62960333D02*
X82998428Y-63055571D01*
X82998428Y-63055571D02*
X82950809Y-63246047D01*
X82950809Y-63246047D02*
X82903190Y-63341285D01*
X82903190Y-63341285D02*
X82855571Y-63388904D01*
X82855571Y-63388904D02*
X82760333Y-63436523D01*
X82760333Y-63436523D02*
X82665095Y-63436523D01*
X82665095Y-63436523D02*
X82569857Y-63388904D01*
X82569857Y-63388904D02*
X82522238Y-63341285D01*
X82522238Y-63341285D02*
X82474619Y-63246047D01*
X82474619Y-63246047D02*
X82474619Y-63007952D01*
X82474619Y-63007952D02*
X82522238Y-62865095D01*
X82807952Y-62007952D02*
X83474619Y-62007952D01*
X82807952Y-62436523D02*
X83331761Y-62436523D01*
X83331761Y-62436523D02*
X83427000Y-62388904D01*
X83427000Y-62388904D02*
X83474619Y-62293666D01*
X83474619Y-62293666D02*
X83474619Y-62150809D01*
X83474619Y-62150809D02*
X83427000Y-62055571D01*
X83427000Y-62055571D02*
X83379380Y-62007952D01*
X82807952Y-61531761D02*
X83474619Y-61531761D01*
X82903190Y-61531761D02*
X82855571Y-61484142D01*
X82855571Y-61484142D02*
X82807952Y-61388904D01*
X82807952Y-61388904D02*
X82807952Y-61246047D01*
X82807952Y-61246047D02*
X82855571Y-61150809D01*
X82855571Y-61150809D02*
X82950809Y-61103190D01*
X82950809Y-61103190D02*
X83474619Y-61103190D01*
X83427000Y-60674618D02*
X83474619Y-60579380D01*
X83474619Y-60579380D02*
X83474619Y-60388904D01*
X83474619Y-60388904D02*
X83427000Y-60293666D01*
X83427000Y-60293666D02*
X83331761Y-60246047D01*
X83331761Y-60246047D02*
X83284142Y-60246047D01*
X83284142Y-60246047D02*
X83188904Y-60293666D01*
X83188904Y-60293666D02*
X83141285Y-60388904D01*
X83141285Y-60388904D02*
X83141285Y-60531761D01*
X83141285Y-60531761D02*
X83093666Y-60626999D01*
X83093666Y-60626999D02*
X82998428Y-60674618D01*
X82998428Y-60674618D02*
X82950809Y-60674618D01*
X82950809Y-60674618D02*
X82855571Y-60626999D01*
X82855571Y-60626999D02*
X82807952Y-60531761D01*
X82807952Y-60531761D02*
X82807952Y-60388904D01*
X82807952Y-60388904D02*
X82855571Y-60293666D01*
X82807952Y-59817475D02*
X83807952Y-59817475D01*
X82855571Y-59817475D02*
X82807952Y-59722237D01*
X82807952Y-59722237D02*
X82807952Y-59531761D01*
X82807952Y-59531761D02*
X82855571Y-59436523D01*
X82855571Y-59436523D02*
X82903190Y-59388904D01*
X82903190Y-59388904D02*
X82998428Y-59341285D01*
X82998428Y-59341285D02*
X83284142Y-59341285D01*
X83284142Y-59341285D02*
X83379380Y-59388904D01*
X83379380Y-59388904D02*
X83427000Y-59436523D01*
X83427000Y-59436523D02*
X83474619Y-59531761D01*
X83474619Y-59531761D02*
X83474619Y-59722237D01*
X83474619Y-59722237D02*
X83427000Y-59817475D01*
X83474619Y-58484142D02*
X82950809Y-58484142D01*
X82950809Y-58484142D02*
X82855571Y-58531761D01*
X82855571Y-58531761D02*
X82807952Y-58626999D01*
X82807952Y-58626999D02*
X82807952Y-58817475D01*
X82807952Y-58817475D02*
X82855571Y-58912713D01*
X83427000Y-58484142D02*
X83474619Y-58579380D01*
X83474619Y-58579380D02*
X83474619Y-58817475D01*
X83474619Y-58817475D02*
X83427000Y-58912713D01*
X83427000Y-58912713D02*
X83331761Y-58960332D01*
X83331761Y-58960332D02*
X83236523Y-58960332D01*
X83236523Y-58960332D02*
X83141285Y-58912713D01*
X83141285Y-58912713D02*
X83093666Y-58817475D01*
X83093666Y-58817475D02*
X83093666Y-58579380D01*
X83093666Y-58579380D02*
X83046047Y-58484142D01*
X83474619Y-58007951D02*
X82807952Y-58007951D01*
X82998428Y-58007951D02*
X82903190Y-57960332D01*
X82903190Y-57960332D02*
X82855571Y-57912713D01*
X82855571Y-57912713D02*
X82807952Y-57817475D01*
X82807952Y-57817475D02*
X82807952Y-57722237D01*
X83474619Y-57388903D02*
X82474619Y-57388903D01*
X83093666Y-57293665D02*
X83474619Y-57007951D01*
X82807952Y-57007951D02*
X83188904Y-57388903D01*
X84570809Y-63388904D02*
X84570809Y-63055571D01*
X85094619Y-62912714D02*
X85094619Y-63388904D01*
X85094619Y-63388904D02*
X84094619Y-63388904D01*
X84094619Y-63388904D02*
X84094619Y-62912714D01*
X85047000Y-62531761D02*
X85094619Y-62388904D01*
X85094619Y-62388904D02*
X85094619Y-62150809D01*
X85094619Y-62150809D02*
X85047000Y-62055571D01*
X85047000Y-62055571D02*
X84999380Y-62007952D01*
X84999380Y-62007952D02*
X84904142Y-61960333D01*
X84904142Y-61960333D02*
X84808904Y-61960333D01*
X84808904Y-61960333D02*
X84713666Y-62007952D01*
X84713666Y-62007952D02*
X84666047Y-62055571D01*
X84666047Y-62055571D02*
X84618428Y-62150809D01*
X84618428Y-62150809D02*
X84570809Y-62341285D01*
X84570809Y-62341285D02*
X84523190Y-62436523D01*
X84523190Y-62436523D02*
X84475571Y-62484142D01*
X84475571Y-62484142D02*
X84380333Y-62531761D01*
X84380333Y-62531761D02*
X84285095Y-62531761D01*
X84285095Y-62531761D02*
X84189857Y-62484142D01*
X84189857Y-62484142D02*
X84142238Y-62436523D01*
X84142238Y-62436523D02*
X84094619Y-62341285D01*
X84094619Y-62341285D02*
X84094619Y-62103190D01*
X84094619Y-62103190D02*
X84142238Y-61960333D01*
X85094619Y-61531761D02*
X84094619Y-61531761D01*
X84094619Y-61531761D02*
X84094619Y-61150809D01*
X84094619Y-61150809D02*
X84142238Y-61055571D01*
X84142238Y-61055571D02*
X84189857Y-61007952D01*
X84189857Y-61007952D02*
X84285095Y-60960333D01*
X84285095Y-60960333D02*
X84427952Y-60960333D01*
X84427952Y-60960333D02*
X84523190Y-61007952D01*
X84523190Y-61007952D02*
X84570809Y-61055571D01*
X84570809Y-61055571D02*
X84618428Y-61150809D01*
X84618428Y-61150809D02*
X84618428Y-61531761D01*
X84094619Y-60626999D02*
X84094619Y-60007952D01*
X84094619Y-60007952D02*
X84475571Y-60341285D01*
X84475571Y-60341285D02*
X84475571Y-60198428D01*
X84475571Y-60198428D02*
X84523190Y-60103190D01*
X84523190Y-60103190D02*
X84570809Y-60055571D01*
X84570809Y-60055571D02*
X84666047Y-60007952D01*
X84666047Y-60007952D02*
X84904142Y-60007952D01*
X84904142Y-60007952D02*
X84999380Y-60055571D01*
X84999380Y-60055571D02*
X85047000Y-60103190D01*
X85047000Y-60103190D02*
X85094619Y-60198428D01*
X85094619Y-60198428D02*
X85094619Y-60484142D01*
X85094619Y-60484142D02*
X85047000Y-60579380D01*
X85047000Y-60579380D02*
X84999380Y-60626999D01*
X84189857Y-59626999D02*
X84142238Y-59579380D01*
X84142238Y-59579380D02*
X84094619Y-59484142D01*
X84094619Y-59484142D02*
X84094619Y-59246047D01*
X84094619Y-59246047D02*
X84142238Y-59150809D01*
X84142238Y-59150809D02*
X84189857Y-59103190D01*
X84189857Y-59103190D02*
X84285095Y-59055571D01*
X84285095Y-59055571D02*
X84380333Y-59055571D01*
X84380333Y-59055571D02*
X84523190Y-59103190D01*
X84523190Y-59103190D02*
X85094619Y-59674618D01*
X85094619Y-59674618D02*
X85094619Y-59055571D01*
X84094619Y-58007951D02*
X85094619Y-57674618D01*
X85094619Y-57674618D02*
X84094619Y-57341285D01*
X84094619Y-57103189D02*
X84094619Y-56484142D01*
X84094619Y-56484142D02*
X84475571Y-56817475D01*
X84475571Y-56817475D02*
X84475571Y-56674618D01*
X84475571Y-56674618D02*
X84523190Y-56579380D01*
X84523190Y-56579380D02*
X84570809Y-56531761D01*
X84570809Y-56531761D02*
X84666047Y-56484142D01*
X84666047Y-56484142D02*
X84904142Y-56484142D01*
X84904142Y-56484142D02*
X84999380Y-56531761D01*
X84999380Y-56531761D02*
X85047000Y-56579380D01*
X85047000Y-56579380D02*
X85094619Y-56674618D01*
X85094619Y-56674618D02*
X85094619Y-56960332D01*
X85094619Y-56960332D02*
X85047000Y-57055570D01*
X85047000Y-57055570D02*
X84999380Y-57103189D01*
D11*
X53094904Y-63240428D02*
X53094904Y-63807095D01*
X53094904Y-63807095D02*
X52294904Y-63442809D01*
%TO.C,C5*%
X69175333Y-87743380D02*
X69127714Y-87791000D01*
X69127714Y-87791000D02*
X68984857Y-87838619D01*
X68984857Y-87838619D02*
X68889619Y-87838619D01*
X68889619Y-87838619D02*
X68746762Y-87791000D01*
X68746762Y-87791000D02*
X68651524Y-87695761D01*
X68651524Y-87695761D02*
X68603905Y-87600523D01*
X68603905Y-87600523D02*
X68556286Y-87410047D01*
X68556286Y-87410047D02*
X68556286Y-87267190D01*
X68556286Y-87267190D02*
X68603905Y-87076714D01*
X68603905Y-87076714D02*
X68651524Y-86981476D01*
X68651524Y-86981476D02*
X68746762Y-86886238D01*
X68746762Y-86886238D02*
X68889619Y-86838619D01*
X68889619Y-86838619D02*
X68984857Y-86838619D01*
X68984857Y-86838619D02*
X69127714Y-86886238D01*
X69127714Y-86886238D02*
X69175333Y-86933857D01*
X70080095Y-86838619D02*
X69603905Y-86838619D01*
X69603905Y-86838619D02*
X69556286Y-87314809D01*
X69556286Y-87314809D02*
X69603905Y-87267190D01*
X69603905Y-87267190D02*
X69699143Y-87219571D01*
X69699143Y-87219571D02*
X69937238Y-87219571D01*
X69937238Y-87219571D02*
X70032476Y-87267190D01*
X70032476Y-87267190D02*
X70080095Y-87314809D01*
X70080095Y-87314809D02*
X70127714Y-87410047D01*
X70127714Y-87410047D02*
X70127714Y-87648142D01*
X70127714Y-87648142D02*
X70080095Y-87743380D01*
X70080095Y-87743380D02*
X70032476Y-87791000D01*
X70032476Y-87791000D02*
X69937238Y-87838619D01*
X69937238Y-87838619D02*
X69699143Y-87838619D01*
X69699143Y-87838619D02*
X69603905Y-87791000D01*
X69603905Y-87791000D02*
X69556286Y-87743380D01*
%TO.C,L1*%
X65365333Y-84256619D02*
X64889143Y-84256619D01*
X64889143Y-84256619D02*
X64889143Y-83256619D01*
X66222476Y-84256619D02*
X65651048Y-84256619D01*
X65936762Y-84256619D02*
X65936762Y-83256619D01*
X65936762Y-83256619D02*
X65841524Y-83399476D01*
X65841524Y-83399476D02*
X65746286Y-83494714D01*
X65746286Y-83494714D02*
X65651048Y-83542333D01*
%TO.C,U1*%
X64008095Y-75154619D02*
X64008095Y-75964142D01*
X64008095Y-75964142D02*
X64055714Y-76059380D01*
X64055714Y-76059380D02*
X64103333Y-76107000D01*
X64103333Y-76107000D02*
X64198571Y-76154619D01*
X64198571Y-76154619D02*
X64389047Y-76154619D01*
X64389047Y-76154619D02*
X64484285Y-76107000D01*
X64484285Y-76107000D02*
X64531904Y-76059380D01*
X64531904Y-76059380D02*
X64579523Y-75964142D01*
X64579523Y-75964142D02*
X64579523Y-75154619D01*
X65579523Y-76154619D02*
X65008095Y-76154619D01*
X65293809Y-76154619D02*
X65293809Y-75154619D01*
X65293809Y-75154619D02*
X65198571Y-75297476D01*
X65198571Y-75297476D02*
X65103333Y-75392714D01*
X65103333Y-75392714D02*
X65008095Y-75440333D01*
%TO.C,R18*%
X57358619Y-60840857D02*
X56882428Y-61174190D01*
X57358619Y-61412285D02*
X56358619Y-61412285D01*
X56358619Y-61412285D02*
X56358619Y-61031333D01*
X56358619Y-61031333D02*
X56406238Y-60936095D01*
X56406238Y-60936095D02*
X56453857Y-60888476D01*
X56453857Y-60888476D02*
X56549095Y-60840857D01*
X56549095Y-60840857D02*
X56691952Y-60840857D01*
X56691952Y-60840857D02*
X56787190Y-60888476D01*
X56787190Y-60888476D02*
X56834809Y-60936095D01*
X56834809Y-60936095D02*
X56882428Y-61031333D01*
X56882428Y-61031333D02*
X56882428Y-61412285D01*
X57358619Y-59888476D02*
X57358619Y-60459904D01*
X57358619Y-60174190D02*
X56358619Y-60174190D01*
X56358619Y-60174190D02*
X56501476Y-60269428D01*
X56501476Y-60269428D02*
X56596714Y-60364666D01*
X56596714Y-60364666D02*
X56644333Y-60459904D01*
X56787190Y-59317047D02*
X56739571Y-59412285D01*
X56739571Y-59412285D02*
X56691952Y-59459904D01*
X56691952Y-59459904D02*
X56596714Y-59507523D01*
X56596714Y-59507523D02*
X56549095Y-59507523D01*
X56549095Y-59507523D02*
X56453857Y-59459904D01*
X56453857Y-59459904D02*
X56406238Y-59412285D01*
X56406238Y-59412285D02*
X56358619Y-59317047D01*
X56358619Y-59317047D02*
X56358619Y-59126571D01*
X56358619Y-59126571D02*
X56406238Y-59031333D01*
X56406238Y-59031333D02*
X56453857Y-58983714D01*
X56453857Y-58983714D02*
X56549095Y-58936095D01*
X56549095Y-58936095D02*
X56596714Y-58936095D01*
X56596714Y-58936095D02*
X56691952Y-58983714D01*
X56691952Y-58983714D02*
X56739571Y-59031333D01*
X56739571Y-59031333D02*
X56787190Y-59126571D01*
X56787190Y-59126571D02*
X56787190Y-59317047D01*
X56787190Y-59317047D02*
X56834809Y-59412285D01*
X56834809Y-59412285D02*
X56882428Y-59459904D01*
X56882428Y-59459904D02*
X56977666Y-59507523D01*
X56977666Y-59507523D02*
X57168142Y-59507523D01*
X57168142Y-59507523D02*
X57263380Y-59459904D01*
X57263380Y-59459904D02*
X57311000Y-59412285D01*
X57311000Y-59412285D02*
X57358619Y-59317047D01*
X57358619Y-59317047D02*
X57358619Y-59126571D01*
X57358619Y-59126571D02*
X57311000Y-59031333D01*
X57311000Y-59031333D02*
X57263380Y-58983714D01*
X57263380Y-58983714D02*
X57168142Y-58936095D01*
X57168142Y-58936095D02*
X56977666Y-58936095D01*
X56977666Y-58936095D02*
X56882428Y-58983714D01*
X56882428Y-58983714D02*
X56834809Y-59031333D01*
X56834809Y-59031333D02*
X56787190Y-59126571D01*
%TO.C,C4*%
X86955333Y-89775380D02*
X86907714Y-89823000D01*
X86907714Y-89823000D02*
X86764857Y-89870619D01*
X86764857Y-89870619D02*
X86669619Y-89870619D01*
X86669619Y-89870619D02*
X86526762Y-89823000D01*
X86526762Y-89823000D02*
X86431524Y-89727761D01*
X86431524Y-89727761D02*
X86383905Y-89632523D01*
X86383905Y-89632523D02*
X86336286Y-89442047D01*
X86336286Y-89442047D02*
X86336286Y-89299190D01*
X86336286Y-89299190D02*
X86383905Y-89108714D01*
X86383905Y-89108714D02*
X86431524Y-89013476D01*
X86431524Y-89013476D02*
X86526762Y-88918238D01*
X86526762Y-88918238D02*
X86669619Y-88870619D01*
X86669619Y-88870619D02*
X86764857Y-88870619D01*
X86764857Y-88870619D02*
X86907714Y-88918238D01*
X86907714Y-88918238D02*
X86955333Y-88965857D01*
X87812476Y-89203952D02*
X87812476Y-89870619D01*
X87574381Y-88823000D02*
X87336286Y-89537285D01*
X87336286Y-89537285D02*
X87955333Y-89537285D01*
%TO.C,R6*%
X58120619Y-88304666D02*
X57644428Y-88637999D01*
X58120619Y-88876094D02*
X57120619Y-88876094D01*
X57120619Y-88876094D02*
X57120619Y-88495142D01*
X57120619Y-88495142D02*
X57168238Y-88399904D01*
X57168238Y-88399904D02*
X57215857Y-88352285D01*
X57215857Y-88352285D02*
X57311095Y-88304666D01*
X57311095Y-88304666D02*
X57453952Y-88304666D01*
X57453952Y-88304666D02*
X57549190Y-88352285D01*
X57549190Y-88352285D02*
X57596809Y-88399904D01*
X57596809Y-88399904D02*
X57644428Y-88495142D01*
X57644428Y-88495142D02*
X57644428Y-88876094D01*
X57120619Y-87447523D02*
X57120619Y-87637999D01*
X57120619Y-87637999D02*
X57168238Y-87733237D01*
X57168238Y-87733237D02*
X57215857Y-87780856D01*
X57215857Y-87780856D02*
X57358714Y-87876094D01*
X57358714Y-87876094D02*
X57549190Y-87923713D01*
X57549190Y-87923713D02*
X57930142Y-87923713D01*
X57930142Y-87923713D02*
X58025380Y-87876094D01*
X58025380Y-87876094D02*
X58073000Y-87828475D01*
X58073000Y-87828475D02*
X58120619Y-87733237D01*
X58120619Y-87733237D02*
X58120619Y-87542761D01*
X58120619Y-87542761D02*
X58073000Y-87447523D01*
X58073000Y-87447523D02*
X58025380Y-87399904D01*
X58025380Y-87399904D02*
X57930142Y-87352285D01*
X57930142Y-87352285D02*
X57692047Y-87352285D01*
X57692047Y-87352285D02*
X57596809Y-87399904D01*
X57596809Y-87399904D02*
X57549190Y-87447523D01*
X57549190Y-87447523D02*
X57501571Y-87542761D01*
X57501571Y-87542761D02*
X57501571Y-87733237D01*
X57501571Y-87733237D02*
X57549190Y-87828475D01*
X57549190Y-87828475D02*
X57596809Y-87876094D01*
X57596809Y-87876094D02*
X57692047Y-87923713D01*
%TO.C,R12*%
X64470619Y-73540857D02*
X63994428Y-73874190D01*
X64470619Y-74112285D02*
X63470619Y-74112285D01*
X63470619Y-74112285D02*
X63470619Y-73731333D01*
X63470619Y-73731333D02*
X63518238Y-73636095D01*
X63518238Y-73636095D02*
X63565857Y-73588476D01*
X63565857Y-73588476D02*
X63661095Y-73540857D01*
X63661095Y-73540857D02*
X63803952Y-73540857D01*
X63803952Y-73540857D02*
X63899190Y-73588476D01*
X63899190Y-73588476D02*
X63946809Y-73636095D01*
X63946809Y-73636095D02*
X63994428Y-73731333D01*
X63994428Y-73731333D02*
X63994428Y-74112285D01*
X64470619Y-72588476D02*
X64470619Y-73159904D01*
X64470619Y-72874190D02*
X63470619Y-72874190D01*
X63470619Y-72874190D02*
X63613476Y-72969428D01*
X63613476Y-72969428D02*
X63708714Y-73064666D01*
X63708714Y-73064666D02*
X63756333Y-73159904D01*
X63565857Y-72207523D02*
X63518238Y-72159904D01*
X63518238Y-72159904D02*
X63470619Y-72064666D01*
X63470619Y-72064666D02*
X63470619Y-71826571D01*
X63470619Y-71826571D02*
X63518238Y-71731333D01*
X63518238Y-71731333D02*
X63565857Y-71683714D01*
X63565857Y-71683714D02*
X63661095Y-71636095D01*
X63661095Y-71636095D02*
X63756333Y-71636095D01*
X63756333Y-71636095D02*
X63899190Y-71683714D01*
X63899190Y-71683714D02*
X64470619Y-72255142D01*
X64470619Y-72255142D02*
X64470619Y-71636095D01*
%TO.C,C6*%
X78827333Y-82155380D02*
X78779714Y-82203000D01*
X78779714Y-82203000D02*
X78636857Y-82250619D01*
X78636857Y-82250619D02*
X78541619Y-82250619D01*
X78541619Y-82250619D02*
X78398762Y-82203000D01*
X78398762Y-82203000D02*
X78303524Y-82107761D01*
X78303524Y-82107761D02*
X78255905Y-82012523D01*
X78255905Y-82012523D02*
X78208286Y-81822047D01*
X78208286Y-81822047D02*
X78208286Y-81679190D01*
X78208286Y-81679190D02*
X78255905Y-81488714D01*
X78255905Y-81488714D02*
X78303524Y-81393476D01*
X78303524Y-81393476D02*
X78398762Y-81298238D01*
X78398762Y-81298238D02*
X78541619Y-81250619D01*
X78541619Y-81250619D02*
X78636857Y-81250619D01*
X78636857Y-81250619D02*
X78779714Y-81298238D01*
X78779714Y-81298238D02*
X78827333Y-81345857D01*
X79684476Y-81250619D02*
X79494000Y-81250619D01*
X79494000Y-81250619D02*
X79398762Y-81298238D01*
X79398762Y-81298238D02*
X79351143Y-81345857D01*
X79351143Y-81345857D02*
X79255905Y-81488714D01*
X79255905Y-81488714D02*
X79208286Y-81679190D01*
X79208286Y-81679190D02*
X79208286Y-82060142D01*
X79208286Y-82060142D02*
X79255905Y-82155380D01*
X79255905Y-82155380D02*
X79303524Y-82203000D01*
X79303524Y-82203000D02*
X79398762Y-82250619D01*
X79398762Y-82250619D02*
X79589238Y-82250619D01*
X79589238Y-82250619D02*
X79684476Y-82203000D01*
X79684476Y-82203000D02*
X79732095Y-82155380D01*
X79732095Y-82155380D02*
X79779714Y-82060142D01*
X79779714Y-82060142D02*
X79779714Y-81822047D01*
X79779714Y-81822047D02*
X79732095Y-81726809D01*
X79732095Y-81726809D02*
X79684476Y-81679190D01*
X79684476Y-81679190D02*
X79589238Y-81631571D01*
X79589238Y-81631571D02*
X79398762Y-81631571D01*
X79398762Y-81631571D02*
X79303524Y-81679190D01*
X79303524Y-81679190D02*
X79255905Y-81726809D01*
X79255905Y-81726809D02*
X79208286Y-81822047D01*
%TO.C,TP5*%
X80780095Y-79040619D02*
X81351523Y-79040619D01*
X81065809Y-80040619D02*
X81065809Y-79040619D01*
X81684857Y-80040619D02*
X81684857Y-79040619D01*
X81684857Y-79040619D02*
X82065809Y-79040619D01*
X82065809Y-79040619D02*
X82161047Y-79088238D01*
X82161047Y-79088238D02*
X82208666Y-79135857D01*
X82208666Y-79135857D02*
X82256285Y-79231095D01*
X82256285Y-79231095D02*
X82256285Y-79373952D01*
X82256285Y-79373952D02*
X82208666Y-79469190D01*
X82208666Y-79469190D02*
X82161047Y-79516809D01*
X82161047Y-79516809D02*
X82065809Y-79564428D01*
X82065809Y-79564428D02*
X81684857Y-79564428D01*
X83161047Y-79040619D02*
X82684857Y-79040619D01*
X82684857Y-79040619D02*
X82637238Y-79516809D01*
X82637238Y-79516809D02*
X82684857Y-79469190D01*
X82684857Y-79469190D02*
X82780095Y-79421571D01*
X82780095Y-79421571D02*
X83018190Y-79421571D01*
X83018190Y-79421571D02*
X83113428Y-79469190D01*
X83113428Y-79469190D02*
X83161047Y-79516809D01*
X83161047Y-79516809D02*
X83208666Y-79612047D01*
X83208666Y-79612047D02*
X83208666Y-79850142D01*
X83208666Y-79850142D02*
X83161047Y-79945380D01*
X83161047Y-79945380D02*
X83113428Y-79993000D01*
X83113428Y-79993000D02*
X83018190Y-80040619D01*
X83018190Y-80040619D02*
X82780095Y-80040619D01*
X82780095Y-80040619D02*
X82684857Y-79993000D01*
X82684857Y-79993000D02*
X82637238Y-79945380D01*
%TO.C,TP3*%
X73160095Y-63216619D02*
X73731523Y-63216619D01*
X73445809Y-64216619D02*
X73445809Y-63216619D01*
X74064857Y-64216619D02*
X74064857Y-63216619D01*
X74064857Y-63216619D02*
X74445809Y-63216619D01*
X74445809Y-63216619D02*
X74541047Y-63264238D01*
X74541047Y-63264238D02*
X74588666Y-63311857D01*
X74588666Y-63311857D02*
X74636285Y-63407095D01*
X74636285Y-63407095D02*
X74636285Y-63549952D01*
X74636285Y-63549952D02*
X74588666Y-63645190D01*
X74588666Y-63645190D02*
X74541047Y-63692809D01*
X74541047Y-63692809D02*
X74445809Y-63740428D01*
X74445809Y-63740428D02*
X74064857Y-63740428D01*
X74969619Y-63216619D02*
X75588666Y-63216619D01*
X75588666Y-63216619D02*
X75255333Y-63597571D01*
X75255333Y-63597571D02*
X75398190Y-63597571D01*
X75398190Y-63597571D02*
X75493428Y-63645190D01*
X75493428Y-63645190D02*
X75541047Y-63692809D01*
X75541047Y-63692809D02*
X75588666Y-63788047D01*
X75588666Y-63788047D02*
X75588666Y-64026142D01*
X75588666Y-64026142D02*
X75541047Y-64121380D01*
X75541047Y-64121380D02*
X75493428Y-64169000D01*
X75493428Y-64169000D02*
X75398190Y-64216619D01*
X75398190Y-64216619D02*
X75112476Y-64216619D01*
X75112476Y-64216619D02*
X75017238Y-64169000D01*
X75017238Y-64169000D02*
X74969619Y-64121380D01*
%TO.C,R9*%
X65619333Y-69042619D02*
X65286000Y-68566428D01*
X65047905Y-69042619D02*
X65047905Y-68042619D01*
X65047905Y-68042619D02*
X65428857Y-68042619D01*
X65428857Y-68042619D02*
X65524095Y-68090238D01*
X65524095Y-68090238D02*
X65571714Y-68137857D01*
X65571714Y-68137857D02*
X65619333Y-68233095D01*
X65619333Y-68233095D02*
X65619333Y-68375952D01*
X65619333Y-68375952D02*
X65571714Y-68471190D01*
X65571714Y-68471190D02*
X65524095Y-68518809D01*
X65524095Y-68518809D02*
X65428857Y-68566428D01*
X65428857Y-68566428D02*
X65047905Y-68566428D01*
X66095524Y-69042619D02*
X66286000Y-69042619D01*
X66286000Y-69042619D02*
X66381238Y-68995000D01*
X66381238Y-68995000D02*
X66428857Y-68947380D01*
X66428857Y-68947380D02*
X66524095Y-68804523D01*
X66524095Y-68804523D02*
X66571714Y-68614047D01*
X66571714Y-68614047D02*
X66571714Y-68233095D01*
X66571714Y-68233095D02*
X66524095Y-68137857D01*
X66524095Y-68137857D02*
X66476476Y-68090238D01*
X66476476Y-68090238D02*
X66381238Y-68042619D01*
X66381238Y-68042619D02*
X66190762Y-68042619D01*
X66190762Y-68042619D02*
X66095524Y-68090238D01*
X66095524Y-68090238D02*
X66047905Y-68137857D01*
X66047905Y-68137857D02*
X66000286Y-68233095D01*
X66000286Y-68233095D02*
X66000286Y-68471190D01*
X66000286Y-68471190D02*
X66047905Y-68566428D01*
X66047905Y-68566428D02*
X66095524Y-68614047D01*
X66095524Y-68614047D02*
X66190762Y-68661666D01*
X66190762Y-68661666D02*
X66381238Y-68661666D01*
X66381238Y-68661666D02*
X66476476Y-68614047D01*
X66476476Y-68614047D02*
X66524095Y-68566428D01*
X66524095Y-68566428D02*
X66571714Y-68471190D01*
%TO.C,C8*%
X57771380Y-52236666D02*
X57819000Y-52284285D01*
X57819000Y-52284285D02*
X57866619Y-52427142D01*
X57866619Y-52427142D02*
X57866619Y-52522380D01*
X57866619Y-52522380D02*
X57819000Y-52665237D01*
X57819000Y-52665237D02*
X57723761Y-52760475D01*
X57723761Y-52760475D02*
X57628523Y-52808094D01*
X57628523Y-52808094D02*
X57438047Y-52855713D01*
X57438047Y-52855713D02*
X57295190Y-52855713D01*
X57295190Y-52855713D02*
X57104714Y-52808094D01*
X57104714Y-52808094D02*
X57009476Y-52760475D01*
X57009476Y-52760475D02*
X56914238Y-52665237D01*
X56914238Y-52665237D02*
X56866619Y-52522380D01*
X56866619Y-52522380D02*
X56866619Y-52427142D01*
X56866619Y-52427142D02*
X56914238Y-52284285D01*
X56914238Y-52284285D02*
X56961857Y-52236666D01*
X57295190Y-51665237D02*
X57247571Y-51760475D01*
X57247571Y-51760475D02*
X57199952Y-51808094D01*
X57199952Y-51808094D02*
X57104714Y-51855713D01*
X57104714Y-51855713D02*
X57057095Y-51855713D01*
X57057095Y-51855713D02*
X56961857Y-51808094D01*
X56961857Y-51808094D02*
X56914238Y-51760475D01*
X56914238Y-51760475D02*
X56866619Y-51665237D01*
X56866619Y-51665237D02*
X56866619Y-51474761D01*
X56866619Y-51474761D02*
X56914238Y-51379523D01*
X56914238Y-51379523D02*
X56961857Y-51331904D01*
X56961857Y-51331904D02*
X57057095Y-51284285D01*
X57057095Y-51284285D02*
X57104714Y-51284285D01*
X57104714Y-51284285D02*
X57199952Y-51331904D01*
X57199952Y-51331904D02*
X57247571Y-51379523D01*
X57247571Y-51379523D02*
X57295190Y-51474761D01*
X57295190Y-51474761D02*
X57295190Y-51665237D01*
X57295190Y-51665237D02*
X57342809Y-51760475D01*
X57342809Y-51760475D02*
X57390428Y-51808094D01*
X57390428Y-51808094D02*
X57485666Y-51855713D01*
X57485666Y-51855713D02*
X57676142Y-51855713D01*
X57676142Y-51855713D02*
X57771380Y-51808094D01*
X57771380Y-51808094D02*
X57819000Y-51760475D01*
X57819000Y-51760475D02*
X57866619Y-51665237D01*
X57866619Y-51665237D02*
X57866619Y-51474761D01*
X57866619Y-51474761D02*
X57819000Y-51379523D01*
X57819000Y-51379523D02*
X57771380Y-51331904D01*
X57771380Y-51331904D02*
X57676142Y-51284285D01*
X57676142Y-51284285D02*
X57485666Y-51284285D01*
X57485666Y-51284285D02*
X57390428Y-51331904D01*
X57390428Y-51331904D02*
X57342809Y-51379523D01*
X57342809Y-51379523D02*
X57295190Y-51474761D01*
%TO.C,R8*%
X61555333Y-69042619D02*
X61222000Y-68566428D01*
X60983905Y-69042619D02*
X60983905Y-68042619D01*
X60983905Y-68042619D02*
X61364857Y-68042619D01*
X61364857Y-68042619D02*
X61460095Y-68090238D01*
X61460095Y-68090238D02*
X61507714Y-68137857D01*
X61507714Y-68137857D02*
X61555333Y-68233095D01*
X61555333Y-68233095D02*
X61555333Y-68375952D01*
X61555333Y-68375952D02*
X61507714Y-68471190D01*
X61507714Y-68471190D02*
X61460095Y-68518809D01*
X61460095Y-68518809D02*
X61364857Y-68566428D01*
X61364857Y-68566428D02*
X60983905Y-68566428D01*
X62126762Y-68471190D02*
X62031524Y-68423571D01*
X62031524Y-68423571D02*
X61983905Y-68375952D01*
X61983905Y-68375952D02*
X61936286Y-68280714D01*
X61936286Y-68280714D02*
X61936286Y-68233095D01*
X61936286Y-68233095D02*
X61983905Y-68137857D01*
X61983905Y-68137857D02*
X62031524Y-68090238D01*
X62031524Y-68090238D02*
X62126762Y-68042619D01*
X62126762Y-68042619D02*
X62317238Y-68042619D01*
X62317238Y-68042619D02*
X62412476Y-68090238D01*
X62412476Y-68090238D02*
X62460095Y-68137857D01*
X62460095Y-68137857D02*
X62507714Y-68233095D01*
X62507714Y-68233095D02*
X62507714Y-68280714D01*
X62507714Y-68280714D02*
X62460095Y-68375952D01*
X62460095Y-68375952D02*
X62412476Y-68423571D01*
X62412476Y-68423571D02*
X62317238Y-68471190D01*
X62317238Y-68471190D02*
X62126762Y-68471190D01*
X62126762Y-68471190D02*
X62031524Y-68518809D01*
X62031524Y-68518809D02*
X61983905Y-68566428D01*
X61983905Y-68566428D02*
X61936286Y-68661666D01*
X61936286Y-68661666D02*
X61936286Y-68852142D01*
X61936286Y-68852142D02*
X61983905Y-68947380D01*
X61983905Y-68947380D02*
X62031524Y-68995000D01*
X62031524Y-68995000D02*
X62126762Y-69042619D01*
X62126762Y-69042619D02*
X62317238Y-69042619D01*
X62317238Y-69042619D02*
X62412476Y-68995000D01*
X62412476Y-68995000D02*
X62460095Y-68947380D01*
X62460095Y-68947380D02*
X62507714Y-68852142D01*
X62507714Y-68852142D02*
X62507714Y-68661666D01*
X62507714Y-68661666D02*
X62460095Y-68566428D01*
X62460095Y-68566428D02*
X62412476Y-68518809D01*
X62412476Y-68518809D02*
X62317238Y-68471190D01*
%TO.C,U3*%
X66802095Y-61946619D02*
X66802095Y-62756142D01*
X66802095Y-62756142D02*
X66849714Y-62851380D01*
X66849714Y-62851380D02*
X66897333Y-62899000D01*
X66897333Y-62899000D02*
X66992571Y-62946619D01*
X66992571Y-62946619D02*
X67183047Y-62946619D01*
X67183047Y-62946619D02*
X67278285Y-62899000D01*
X67278285Y-62899000D02*
X67325904Y-62851380D01*
X67325904Y-62851380D02*
X67373523Y-62756142D01*
X67373523Y-62756142D02*
X67373523Y-61946619D01*
X67754476Y-61946619D02*
X68373523Y-61946619D01*
X68373523Y-61946619D02*
X68040190Y-62327571D01*
X68040190Y-62327571D02*
X68183047Y-62327571D01*
X68183047Y-62327571D02*
X68278285Y-62375190D01*
X68278285Y-62375190D02*
X68325904Y-62422809D01*
X68325904Y-62422809D02*
X68373523Y-62518047D01*
X68373523Y-62518047D02*
X68373523Y-62756142D01*
X68373523Y-62756142D02*
X68325904Y-62851380D01*
X68325904Y-62851380D02*
X68278285Y-62899000D01*
X68278285Y-62899000D02*
X68183047Y-62946619D01*
X68183047Y-62946619D02*
X67897333Y-62946619D01*
X67897333Y-62946619D02*
X67802095Y-62899000D01*
X67802095Y-62899000D02*
X67754476Y-62851380D01*
X68898094Y-42812904D02*
X69374284Y-42812904D01*
X68802856Y-43098619D02*
X69136189Y-42098619D01*
X69136189Y-42098619D02*
X69469522Y-43098619D01*
X69802856Y-42431952D02*
X69802856Y-43098619D01*
X69802856Y-42527190D02*
X69850475Y-42479571D01*
X69850475Y-42479571D02*
X69945713Y-42431952D01*
X69945713Y-42431952D02*
X70088570Y-42431952D01*
X70088570Y-42431952D02*
X70183808Y-42479571D01*
X70183808Y-42479571D02*
X70231427Y-42574809D01*
X70231427Y-42574809D02*
X70231427Y-43098619D01*
X70564761Y-42431952D02*
X70945713Y-42431952D01*
X70707618Y-42098619D02*
X70707618Y-42955761D01*
X70707618Y-42955761D02*
X70755237Y-43051000D01*
X70755237Y-43051000D02*
X70850475Y-43098619D01*
X70850475Y-43098619D02*
X70945713Y-43098619D01*
X71659999Y-43051000D02*
X71564761Y-43098619D01*
X71564761Y-43098619D02*
X71374285Y-43098619D01*
X71374285Y-43098619D02*
X71279047Y-43051000D01*
X71279047Y-43051000D02*
X71231428Y-42955761D01*
X71231428Y-42955761D02*
X71231428Y-42574809D01*
X71231428Y-42574809D02*
X71279047Y-42479571D01*
X71279047Y-42479571D02*
X71374285Y-42431952D01*
X71374285Y-42431952D02*
X71564761Y-42431952D01*
X71564761Y-42431952D02*
X71659999Y-42479571D01*
X71659999Y-42479571D02*
X71707618Y-42574809D01*
X71707618Y-42574809D02*
X71707618Y-42670047D01*
X71707618Y-42670047D02*
X71231428Y-42765285D01*
X72136190Y-42431952D02*
X72136190Y-43098619D01*
X72136190Y-42527190D02*
X72183809Y-42479571D01*
X72183809Y-42479571D02*
X72279047Y-42431952D01*
X72279047Y-42431952D02*
X72421904Y-42431952D01*
X72421904Y-42431952D02*
X72517142Y-42479571D01*
X72517142Y-42479571D02*
X72564761Y-42574809D01*
X72564761Y-42574809D02*
X72564761Y-43098619D01*
X73040952Y-42431952D02*
X73040952Y-43098619D01*
X73040952Y-42527190D02*
X73088571Y-42479571D01*
X73088571Y-42479571D02*
X73183809Y-42431952D01*
X73183809Y-42431952D02*
X73326666Y-42431952D01*
X73326666Y-42431952D02*
X73421904Y-42479571D01*
X73421904Y-42479571D02*
X73469523Y-42574809D01*
X73469523Y-42574809D02*
X73469523Y-43098619D01*
X74374285Y-43098619D02*
X74374285Y-42574809D01*
X74374285Y-42574809D02*
X74326666Y-42479571D01*
X74326666Y-42479571D02*
X74231428Y-42431952D01*
X74231428Y-42431952D02*
X74040952Y-42431952D01*
X74040952Y-42431952D02*
X73945714Y-42479571D01*
X74374285Y-43051000D02*
X74279047Y-43098619D01*
X74279047Y-43098619D02*
X74040952Y-43098619D01*
X74040952Y-43098619D02*
X73945714Y-43051000D01*
X73945714Y-43051000D02*
X73898095Y-42955761D01*
X73898095Y-42955761D02*
X73898095Y-42860523D01*
X73898095Y-42860523D02*
X73945714Y-42765285D01*
X73945714Y-42765285D02*
X74040952Y-42717666D01*
X74040952Y-42717666D02*
X74279047Y-42717666D01*
X74279047Y-42717666D02*
X74374285Y-42670047D01*
X75564762Y-42812904D02*
X76040952Y-42812904D01*
X75469524Y-43098619D02*
X75802857Y-42098619D01*
X75802857Y-42098619D02*
X76136190Y-43098619D01*
X76469524Y-43098619D02*
X76469524Y-42431952D01*
X76469524Y-42622428D02*
X76517143Y-42527190D01*
X76517143Y-42527190D02*
X76564762Y-42479571D01*
X76564762Y-42479571D02*
X76660000Y-42431952D01*
X76660000Y-42431952D02*
X76755238Y-42431952D01*
X77469524Y-43051000D02*
X77374286Y-43098619D01*
X77374286Y-43098619D02*
X77183810Y-43098619D01*
X77183810Y-43098619D02*
X77088572Y-43051000D01*
X77088572Y-43051000D02*
X77040953Y-42955761D01*
X77040953Y-42955761D02*
X77040953Y-42574809D01*
X77040953Y-42574809D02*
X77088572Y-42479571D01*
X77088572Y-42479571D02*
X77183810Y-42431952D01*
X77183810Y-42431952D02*
X77374286Y-42431952D01*
X77374286Y-42431952D02*
X77469524Y-42479571D01*
X77469524Y-42479571D02*
X77517143Y-42574809D01*
X77517143Y-42574809D02*
X77517143Y-42670047D01*
X77517143Y-42670047D02*
X77040953Y-42765285D01*
X78374286Y-43098619D02*
X78374286Y-42574809D01*
X78374286Y-42574809D02*
X78326667Y-42479571D01*
X78326667Y-42479571D02*
X78231429Y-42431952D01*
X78231429Y-42431952D02*
X78040953Y-42431952D01*
X78040953Y-42431952D02*
X77945715Y-42479571D01*
X78374286Y-43051000D02*
X78279048Y-43098619D01*
X78279048Y-43098619D02*
X78040953Y-43098619D01*
X78040953Y-43098619D02*
X77945715Y-43051000D01*
X77945715Y-43051000D02*
X77898096Y-42955761D01*
X77898096Y-42955761D02*
X77898096Y-42860523D01*
X77898096Y-42860523D02*
X77945715Y-42765285D01*
X77945715Y-42765285D02*
X78040953Y-42717666D01*
X78040953Y-42717666D02*
X78279048Y-42717666D01*
X78279048Y-42717666D02*
X78374286Y-42670047D01*
%TO.C,SW2*%
X55787000Y-93724332D02*
X55834619Y-93581475D01*
X55834619Y-93581475D02*
X55834619Y-93343380D01*
X55834619Y-93343380D02*
X55787000Y-93248142D01*
X55787000Y-93248142D02*
X55739380Y-93200523D01*
X55739380Y-93200523D02*
X55644142Y-93152904D01*
X55644142Y-93152904D02*
X55548904Y-93152904D01*
X55548904Y-93152904D02*
X55453666Y-93200523D01*
X55453666Y-93200523D02*
X55406047Y-93248142D01*
X55406047Y-93248142D02*
X55358428Y-93343380D01*
X55358428Y-93343380D02*
X55310809Y-93533856D01*
X55310809Y-93533856D02*
X55263190Y-93629094D01*
X55263190Y-93629094D02*
X55215571Y-93676713D01*
X55215571Y-93676713D02*
X55120333Y-93724332D01*
X55120333Y-93724332D02*
X55025095Y-93724332D01*
X55025095Y-93724332D02*
X54929857Y-93676713D01*
X54929857Y-93676713D02*
X54882238Y-93629094D01*
X54882238Y-93629094D02*
X54834619Y-93533856D01*
X54834619Y-93533856D02*
X54834619Y-93295761D01*
X54834619Y-93295761D02*
X54882238Y-93152904D01*
X54834619Y-92819570D02*
X55834619Y-92581475D01*
X55834619Y-92581475D02*
X55120333Y-92390999D01*
X55120333Y-92390999D02*
X55834619Y-92200523D01*
X55834619Y-92200523D02*
X54834619Y-91962428D01*
X54929857Y-91629094D02*
X54882238Y-91581475D01*
X54882238Y-91581475D02*
X54834619Y-91486237D01*
X54834619Y-91486237D02*
X54834619Y-91248142D01*
X54834619Y-91248142D02*
X54882238Y-91152904D01*
X54882238Y-91152904D02*
X54929857Y-91105285D01*
X54929857Y-91105285D02*
X55025095Y-91057666D01*
X55025095Y-91057666D02*
X55120333Y-91057666D01*
X55120333Y-91057666D02*
X55263190Y-91105285D01*
X55263190Y-91105285D02*
X55834619Y-91676713D01*
X55834619Y-91676713D02*
X55834619Y-91057666D01*
%TO.C,R15*%
X83520619Y-43060857D02*
X83044428Y-43394190D01*
X83520619Y-43632285D02*
X82520619Y-43632285D01*
X82520619Y-43632285D02*
X82520619Y-43251333D01*
X82520619Y-43251333D02*
X82568238Y-43156095D01*
X82568238Y-43156095D02*
X82615857Y-43108476D01*
X82615857Y-43108476D02*
X82711095Y-43060857D01*
X82711095Y-43060857D02*
X82853952Y-43060857D01*
X82853952Y-43060857D02*
X82949190Y-43108476D01*
X82949190Y-43108476D02*
X82996809Y-43156095D01*
X82996809Y-43156095D02*
X83044428Y-43251333D01*
X83044428Y-43251333D02*
X83044428Y-43632285D01*
X83520619Y-42108476D02*
X83520619Y-42679904D01*
X83520619Y-42394190D02*
X82520619Y-42394190D01*
X82520619Y-42394190D02*
X82663476Y-42489428D01*
X82663476Y-42489428D02*
X82758714Y-42584666D01*
X82758714Y-42584666D02*
X82806333Y-42679904D01*
X82520619Y-41203714D02*
X82520619Y-41679904D01*
X82520619Y-41679904D02*
X82996809Y-41727523D01*
X82996809Y-41727523D02*
X82949190Y-41679904D01*
X82949190Y-41679904D02*
X82901571Y-41584666D01*
X82901571Y-41584666D02*
X82901571Y-41346571D01*
X82901571Y-41346571D02*
X82949190Y-41251333D01*
X82949190Y-41251333D02*
X82996809Y-41203714D01*
X82996809Y-41203714D02*
X83092047Y-41156095D01*
X83092047Y-41156095D02*
X83330142Y-41156095D01*
X83330142Y-41156095D02*
X83425380Y-41203714D01*
X83425380Y-41203714D02*
X83473000Y-41251333D01*
X83473000Y-41251333D02*
X83520619Y-41346571D01*
X83520619Y-41346571D02*
X83520619Y-41584666D01*
X83520619Y-41584666D02*
X83473000Y-41679904D01*
X83473000Y-41679904D02*
X83425380Y-41727523D01*
%TO.C,J2*%
X61896666Y-88108619D02*
X61896666Y-88822904D01*
X61896666Y-88822904D02*
X61849047Y-88965761D01*
X61849047Y-88965761D02*
X61753809Y-89061000D01*
X61753809Y-89061000D02*
X61610952Y-89108619D01*
X61610952Y-89108619D02*
X61515714Y-89108619D01*
X62325238Y-88203857D02*
X62372857Y-88156238D01*
X62372857Y-88156238D02*
X62468095Y-88108619D01*
X62468095Y-88108619D02*
X62706190Y-88108619D01*
X62706190Y-88108619D02*
X62801428Y-88156238D01*
X62801428Y-88156238D02*
X62849047Y-88203857D01*
X62849047Y-88203857D02*
X62896666Y-88299095D01*
X62896666Y-88299095D02*
X62896666Y-88394333D01*
X62896666Y-88394333D02*
X62849047Y-88537190D01*
X62849047Y-88537190D02*
X62277619Y-89108619D01*
X62277619Y-89108619D02*
X62896666Y-89108619D01*
%TO.C,J5*%
X53768666Y-41372619D02*
X53768666Y-42086904D01*
X53768666Y-42086904D02*
X53721047Y-42229761D01*
X53721047Y-42229761D02*
X53625809Y-42325000D01*
X53625809Y-42325000D02*
X53482952Y-42372619D01*
X53482952Y-42372619D02*
X53387714Y-42372619D01*
X54721047Y-41372619D02*
X54244857Y-41372619D01*
X54244857Y-41372619D02*
X54197238Y-41848809D01*
X54197238Y-41848809D02*
X54244857Y-41801190D01*
X54244857Y-41801190D02*
X54340095Y-41753571D01*
X54340095Y-41753571D02*
X54578190Y-41753571D01*
X54578190Y-41753571D02*
X54673428Y-41801190D01*
X54673428Y-41801190D02*
X54721047Y-41848809D01*
X54721047Y-41848809D02*
X54768666Y-41944047D01*
X54768666Y-41944047D02*
X54768666Y-42182142D01*
X54768666Y-42182142D02*
X54721047Y-42277380D01*
X54721047Y-42277380D02*
X54673428Y-42325000D01*
X54673428Y-42325000D02*
X54578190Y-42372619D01*
X54578190Y-42372619D02*
X54340095Y-42372619D01*
X54340095Y-42372619D02*
X54244857Y-42325000D01*
X54244857Y-42325000D02*
X54197238Y-42277380D01*
%TO.C,R19*%
X62349142Y-62184619D02*
X62015809Y-61708428D01*
X61777714Y-62184619D02*
X61777714Y-61184619D01*
X61777714Y-61184619D02*
X62158666Y-61184619D01*
X62158666Y-61184619D02*
X62253904Y-61232238D01*
X62253904Y-61232238D02*
X62301523Y-61279857D01*
X62301523Y-61279857D02*
X62349142Y-61375095D01*
X62349142Y-61375095D02*
X62349142Y-61517952D01*
X62349142Y-61517952D02*
X62301523Y-61613190D01*
X62301523Y-61613190D02*
X62253904Y-61660809D01*
X62253904Y-61660809D02*
X62158666Y-61708428D01*
X62158666Y-61708428D02*
X61777714Y-61708428D01*
X63301523Y-62184619D02*
X62730095Y-62184619D01*
X63015809Y-62184619D02*
X63015809Y-61184619D01*
X63015809Y-61184619D02*
X62920571Y-61327476D01*
X62920571Y-61327476D02*
X62825333Y-61422714D01*
X62825333Y-61422714D02*
X62730095Y-61470333D01*
X63777714Y-62184619D02*
X63968190Y-62184619D01*
X63968190Y-62184619D02*
X64063428Y-62137000D01*
X64063428Y-62137000D02*
X64111047Y-62089380D01*
X64111047Y-62089380D02*
X64206285Y-61946523D01*
X64206285Y-61946523D02*
X64253904Y-61756047D01*
X64253904Y-61756047D02*
X64253904Y-61375095D01*
X64253904Y-61375095D02*
X64206285Y-61279857D01*
X64206285Y-61279857D02*
X64158666Y-61232238D01*
X64158666Y-61232238D02*
X64063428Y-61184619D01*
X64063428Y-61184619D02*
X63872952Y-61184619D01*
X63872952Y-61184619D02*
X63777714Y-61232238D01*
X63777714Y-61232238D02*
X63730095Y-61279857D01*
X63730095Y-61279857D02*
X63682476Y-61375095D01*
X63682476Y-61375095D02*
X63682476Y-61613190D01*
X63682476Y-61613190D02*
X63730095Y-61708428D01*
X63730095Y-61708428D02*
X63777714Y-61756047D01*
X63777714Y-61756047D02*
X63872952Y-61803666D01*
X63872952Y-61803666D02*
X64063428Y-61803666D01*
X64063428Y-61803666D02*
X64158666Y-61756047D01*
X64158666Y-61756047D02*
X64206285Y-61708428D01*
X64206285Y-61708428D02*
X64253904Y-61613190D01*
%TO.C,SW1*%
X76615000Y-93789332D02*
X76662619Y-93646475D01*
X76662619Y-93646475D02*
X76662619Y-93408380D01*
X76662619Y-93408380D02*
X76615000Y-93313142D01*
X76615000Y-93313142D02*
X76567380Y-93265523D01*
X76567380Y-93265523D02*
X76472142Y-93217904D01*
X76472142Y-93217904D02*
X76376904Y-93217904D01*
X76376904Y-93217904D02*
X76281666Y-93265523D01*
X76281666Y-93265523D02*
X76234047Y-93313142D01*
X76234047Y-93313142D02*
X76186428Y-93408380D01*
X76186428Y-93408380D02*
X76138809Y-93598856D01*
X76138809Y-93598856D02*
X76091190Y-93694094D01*
X76091190Y-93694094D02*
X76043571Y-93741713D01*
X76043571Y-93741713D02*
X75948333Y-93789332D01*
X75948333Y-93789332D02*
X75853095Y-93789332D01*
X75853095Y-93789332D02*
X75757857Y-93741713D01*
X75757857Y-93741713D02*
X75710238Y-93694094D01*
X75710238Y-93694094D02*
X75662619Y-93598856D01*
X75662619Y-93598856D02*
X75662619Y-93360761D01*
X75662619Y-93360761D02*
X75710238Y-93217904D01*
X75662619Y-92884570D02*
X76662619Y-92646475D01*
X76662619Y-92646475D02*
X75948333Y-92455999D01*
X75948333Y-92455999D02*
X76662619Y-92265523D01*
X76662619Y-92265523D02*
X75662619Y-92027428D01*
X76662619Y-91122666D02*
X76662619Y-91694094D01*
X76662619Y-91408380D02*
X75662619Y-91408380D01*
X75662619Y-91408380D02*
X75805476Y-91503618D01*
X75805476Y-91503618D02*
X75900714Y-91598856D01*
X75900714Y-91598856D02*
X75948333Y-91694094D01*
%TO.C,R5*%
X59015333Y-92410619D02*
X58682000Y-91934428D01*
X58443905Y-92410619D02*
X58443905Y-91410619D01*
X58443905Y-91410619D02*
X58824857Y-91410619D01*
X58824857Y-91410619D02*
X58920095Y-91458238D01*
X58920095Y-91458238D02*
X58967714Y-91505857D01*
X58967714Y-91505857D02*
X59015333Y-91601095D01*
X59015333Y-91601095D02*
X59015333Y-91743952D01*
X59015333Y-91743952D02*
X58967714Y-91839190D01*
X58967714Y-91839190D02*
X58920095Y-91886809D01*
X58920095Y-91886809D02*
X58824857Y-91934428D01*
X58824857Y-91934428D02*
X58443905Y-91934428D01*
X59920095Y-91410619D02*
X59443905Y-91410619D01*
X59443905Y-91410619D02*
X59396286Y-91886809D01*
X59396286Y-91886809D02*
X59443905Y-91839190D01*
X59443905Y-91839190D02*
X59539143Y-91791571D01*
X59539143Y-91791571D02*
X59777238Y-91791571D01*
X59777238Y-91791571D02*
X59872476Y-91839190D01*
X59872476Y-91839190D02*
X59920095Y-91886809D01*
X59920095Y-91886809D02*
X59967714Y-91982047D01*
X59967714Y-91982047D02*
X59967714Y-92220142D01*
X59967714Y-92220142D02*
X59920095Y-92315380D01*
X59920095Y-92315380D02*
X59872476Y-92363000D01*
X59872476Y-92363000D02*
X59777238Y-92410619D01*
X59777238Y-92410619D02*
X59539143Y-92410619D01*
X59539143Y-92410619D02*
X59443905Y-92363000D01*
X59443905Y-92363000D02*
X59396286Y-92315380D01*
%TO.C,R4*%
X72731333Y-92378619D02*
X72398000Y-91902428D01*
X72159905Y-92378619D02*
X72159905Y-91378619D01*
X72159905Y-91378619D02*
X72540857Y-91378619D01*
X72540857Y-91378619D02*
X72636095Y-91426238D01*
X72636095Y-91426238D02*
X72683714Y-91473857D01*
X72683714Y-91473857D02*
X72731333Y-91569095D01*
X72731333Y-91569095D02*
X72731333Y-91711952D01*
X72731333Y-91711952D02*
X72683714Y-91807190D01*
X72683714Y-91807190D02*
X72636095Y-91854809D01*
X72636095Y-91854809D02*
X72540857Y-91902428D01*
X72540857Y-91902428D02*
X72159905Y-91902428D01*
X73588476Y-91711952D02*
X73588476Y-92378619D01*
X73350381Y-91331000D02*
X73112286Y-92045285D01*
X73112286Y-92045285D02*
X73731333Y-92045285D01*
%TO.C,Q1*%
X80676761Y-64819857D02*
X80581523Y-64772238D01*
X80581523Y-64772238D02*
X80486285Y-64677000D01*
X80486285Y-64677000D02*
X80343428Y-64534142D01*
X80343428Y-64534142D02*
X80248190Y-64486523D01*
X80248190Y-64486523D02*
X80152952Y-64486523D01*
X80200571Y-64724619D02*
X80105333Y-64677000D01*
X80105333Y-64677000D02*
X80010095Y-64581761D01*
X80010095Y-64581761D02*
X79962476Y-64391285D01*
X79962476Y-64391285D02*
X79962476Y-64057952D01*
X79962476Y-64057952D02*
X80010095Y-63867476D01*
X80010095Y-63867476D02*
X80105333Y-63772238D01*
X80105333Y-63772238D02*
X80200571Y-63724619D01*
X80200571Y-63724619D02*
X80391047Y-63724619D01*
X80391047Y-63724619D02*
X80486285Y-63772238D01*
X80486285Y-63772238D02*
X80581523Y-63867476D01*
X80581523Y-63867476D02*
X80629142Y-64057952D01*
X80629142Y-64057952D02*
X80629142Y-64391285D01*
X80629142Y-64391285D02*
X80581523Y-64581761D01*
X80581523Y-64581761D02*
X80486285Y-64677000D01*
X80486285Y-64677000D02*
X80391047Y-64724619D01*
X80391047Y-64724619D02*
X80200571Y-64724619D01*
X81581523Y-64724619D02*
X81010095Y-64724619D01*
X81295809Y-64724619D02*
X81295809Y-63724619D01*
X81295809Y-63724619D02*
X81200571Y-63867476D01*
X81200571Y-63867476D02*
X81105333Y-63962714D01*
X81105333Y-63962714D02*
X81010095Y-64010333D01*
%TO.C,C9*%
X65137380Y-47664666D02*
X65185000Y-47712285D01*
X65185000Y-47712285D02*
X65232619Y-47855142D01*
X65232619Y-47855142D02*
X65232619Y-47950380D01*
X65232619Y-47950380D02*
X65185000Y-48093237D01*
X65185000Y-48093237D02*
X65089761Y-48188475D01*
X65089761Y-48188475D02*
X64994523Y-48236094D01*
X64994523Y-48236094D02*
X64804047Y-48283713D01*
X64804047Y-48283713D02*
X64661190Y-48283713D01*
X64661190Y-48283713D02*
X64470714Y-48236094D01*
X64470714Y-48236094D02*
X64375476Y-48188475D01*
X64375476Y-48188475D02*
X64280238Y-48093237D01*
X64280238Y-48093237D02*
X64232619Y-47950380D01*
X64232619Y-47950380D02*
X64232619Y-47855142D01*
X64232619Y-47855142D02*
X64280238Y-47712285D01*
X64280238Y-47712285D02*
X64327857Y-47664666D01*
X65232619Y-47188475D02*
X65232619Y-46997999D01*
X65232619Y-46997999D02*
X65185000Y-46902761D01*
X65185000Y-46902761D02*
X65137380Y-46855142D01*
X65137380Y-46855142D02*
X64994523Y-46759904D01*
X64994523Y-46759904D02*
X64804047Y-46712285D01*
X64804047Y-46712285D02*
X64423095Y-46712285D01*
X64423095Y-46712285D02*
X64327857Y-46759904D01*
X64327857Y-46759904D02*
X64280238Y-46807523D01*
X64280238Y-46807523D02*
X64232619Y-46902761D01*
X64232619Y-46902761D02*
X64232619Y-47093237D01*
X64232619Y-47093237D02*
X64280238Y-47188475D01*
X64280238Y-47188475D02*
X64327857Y-47236094D01*
X64327857Y-47236094D02*
X64423095Y-47283713D01*
X64423095Y-47283713D02*
X64661190Y-47283713D01*
X64661190Y-47283713D02*
X64756428Y-47236094D01*
X64756428Y-47236094D02*
X64804047Y-47188475D01*
X64804047Y-47188475D02*
X64851666Y-47093237D01*
X64851666Y-47093237D02*
X64851666Y-46902761D01*
X64851666Y-46902761D02*
X64804047Y-46807523D01*
X64804047Y-46807523D02*
X64756428Y-46759904D01*
X64756428Y-46759904D02*
X64661190Y-46712285D01*
%TO.C,JP1*%
X68550619Y-67351333D02*
X69264904Y-67351333D01*
X69264904Y-67351333D02*
X69407761Y-67398952D01*
X69407761Y-67398952D02*
X69503000Y-67494190D01*
X69503000Y-67494190D02*
X69550619Y-67637047D01*
X69550619Y-67637047D02*
X69550619Y-67732285D01*
X69550619Y-66875142D02*
X68550619Y-66875142D01*
X68550619Y-66875142D02*
X68550619Y-66494190D01*
X68550619Y-66494190D02*
X68598238Y-66398952D01*
X68598238Y-66398952D02*
X68645857Y-66351333D01*
X68645857Y-66351333D02*
X68741095Y-66303714D01*
X68741095Y-66303714D02*
X68883952Y-66303714D01*
X68883952Y-66303714D02*
X68979190Y-66351333D01*
X68979190Y-66351333D02*
X69026809Y-66398952D01*
X69026809Y-66398952D02*
X69074428Y-66494190D01*
X69074428Y-66494190D02*
X69074428Y-66875142D01*
X69550619Y-65351333D02*
X69550619Y-65922761D01*
X69550619Y-65637047D02*
X68550619Y-65637047D01*
X68550619Y-65637047D02*
X68693476Y-65732285D01*
X68693476Y-65732285D02*
X68788714Y-65827523D01*
X68788714Y-65827523D02*
X68836333Y-65922761D01*
%TO.C,R1*%
X59390619Y-84494666D02*
X58914428Y-84827999D01*
X59390619Y-85066094D02*
X58390619Y-85066094D01*
X58390619Y-85066094D02*
X58390619Y-84685142D01*
X58390619Y-84685142D02*
X58438238Y-84589904D01*
X58438238Y-84589904D02*
X58485857Y-84542285D01*
X58485857Y-84542285D02*
X58581095Y-84494666D01*
X58581095Y-84494666D02*
X58723952Y-84494666D01*
X58723952Y-84494666D02*
X58819190Y-84542285D01*
X58819190Y-84542285D02*
X58866809Y-84589904D01*
X58866809Y-84589904D02*
X58914428Y-84685142D01*
X58914428Y-84685142D02*
X58914428Y-85066094D01*
X59390619Y-83542285D02*
X59390619Y-84113713D01*
X59390619Y-83827999D02*
X58390619Y-83827999D01*
X58390619Y-83827999D02*
X58533476Y-83923237D01*
X58533476Y-83923237D02*
X58628714Y-84018475D01*
X58628714Y-84018475D02*
X58676333Y-84113713D01*
%TO.C,C2*%
X73217833Y-68283380D02*
X73170214Y-68331000D01*
X73170214Y-68331000D02*
X73027357Y-68378619D01*
X73027357Y-68378619D02*
X72932119Y-68378619D01*
X72932119Y-68378619D02*
X72789262Y-68331000D01*
X72789262Y-68331000D02*
X72694024Y-68235761D01*
X72694024Y-68235761D02*
X72646405Y-68140523D01*
X72646405Y-68140523D02*
X72598786Y-67950047D01*
X72598786Y-67950047D02*
X72598786Y-67807190D01*
X72598786Y-67807190D02*
X72646405Y-67616714D01*
X72646405Y-67616714D02*
X72694024Y-67521476D01*
X72694024Y-67521476D02*
X72789262Y-67426238D01*
X72789262Y-67426238D02*
X72932119Y-67378619D01*
X72932119Y-67378619D02*
X73027357Y-67378619D01*
X73027357Y-67378619D02*
X73170214Y-67426238D01*
X73170214Y-67426238D02*
X73217833Y-67473857D01*
X73598786Y-67473857D02*
X73646405Y-67426238D01*
X73646405Y-67426238D02*
X73741643Y-67378619D01*
X73741643Y-67378619D02*
X73979738Y-67378619D01*
X73979738Y-67378619D02*
X74074976Y-67426238D01*
X74074976Y-67426238D02*
X74122595Y-67473857D01*
X74122595Y-67473857D02*
X74170214Y-67569095D01*
X74170214Y-67569095D02*
X74170214Y-67664333D01*
X74170214Y-67664333D02*
X74122595Y-67807190D01*
X74122595Y-67807190D02*
X73551167Y-68378619D01*
X73551167Y-68378619D02*
X74170214Y-68378619D01*
%TO.C,J1*%
X72310666Y-77694619D02*
X72310666Y-78408904D01*
X72310666Y-78408904D02*
X72263047Y-78551761D01*
X72263047Y-78551761D02*
X72167809Y-78647000D01*
X72167809Y-78647000D02*
X72024952Y-78694619D01*
X72024952Y-78694619D02*
X71929714Y-78694619D01*
X73310666Y-78694619D02*
X72739238Y-78694619D01*
X73024952Y-78694619D02*
X73024952Y-77694619D01*
X73024952Y-77694619D02*
X72929714Y-77837476D01*
X72929714Y-77837476D02*
X72834476Y-77932714D01*
X72834476Y-77932714D02*
X72739238Y-77980333D01*
%TO.C,C1*%
X59295380Y-79922666D02*
X59343000Y-79970285D01*
X59343000Y-79970285D02*
X59390619Y-80113142D01*
X59390619Y-80113142D02*
X59390619Y-80208380D01*
X59390619Y-80208380D02*
X59343000Y-80351237D01*
X59343000Y-80351237D02*
X59247761Y-80446475D01*
X59247761Y-80446475D02*
X59152523Y-80494094D01*
X59152523Y-80494094D02*
X58962047Y-80541713D01*
X58962047Y-80541713D02*
X58819190Y-80541713D01*
X58819190Y-80541713D02*
X58628714Y-80494094D01*
X58628714Y-80494094D02*
X58533476Y-80446475D01*
X58533476Y-80446475D02*
X58438238Y-80351237D01*
X58438238Y-80351237D02*
X58390619Y-80208380D01*
X58390619Y-80208380D02*
X58390619Y-80113142D01*
X58390619Y-80113142D02*
X58438238Y-79970285D01*
X58438238Y-79970285D02*
X58485857Y-79922666D01*
X59390619Y-78970285D02*
X59390619Y-79541713D01*
X59390619Y-79255999D02*
X58390619Y-79255999D01*
X58390619Y-79255999D02*
X58533476Y-79351237D01*
X58533476Y-79351237D02*
X58628714Y-79446475D01*
X58628714Y-79446475D02*
X58676333Y-79541713D01*
%TO.C,R11*%
X65651142Y-65486619D02*
X65317809Y-65010428D01*
X65079714Y-65486619D02*
X65079714Y-64486619D01*
X65079714Y-64486619D02*
X65460666Y-64486619D01*
X65460666Y-64486619D02*
X65555904Y-64534238D01*
X65555904Y-64534238D02*
X65603523Y-64581857D01*
X65603523Y-64581857D02*
X65651142Y-64677095D01*
X65651142Y-64677095D02*
X65651142Y-64819952D01*
X65651142Y-64819952D02*
X65603523Y-64915190D01*
X65603523Y-64915190D02*
X65555904Y-64962809D01*
X65555904Y-64962809D02*
X65460666Y-65010428D01*
X65460666Y-65010428D02*
X65079714Y-65010428D01*
X66603523Y-65486619D02*
X66032095Y-65486619D01*
X66317809Y-65486619D02*
X66317809Y-64486619D01*
X66317809Y-64486619D02*
X66222571Y-64629476D01*
X66222571Y-64629476D02*
X66127333Y-64724714D01*
X66127333Y-64724714D02*
X66032095Y-64772333D01*
X67555904Y-65486619D02*
X66984476Y-65486619D01*
X67270190Y-65486619D02*
X67270190Y-64486619D01*
X67270190Y-64486619D02*
X67174952Y-64629476D01*
X67174952Y-64629476D02*
X67079714Y-64724714D01*
X67079714Y-64724714D02*
X66984476Y-64772333D01*
%TO.C,R10*%
X61587142Y-65486619D02*
X61253809Y-65010428D01*
X61015714Y-65486619D02*
X61015714Y-64486619D01*
X61015714Y-64486619D02*
X61396666Y-64486619D01*
X61396666Y-64486619D02*
X61491904Y-64534238D01*
X61491904Y-64534238D02*
X61539523Y-64581857D01*
X61539523Y-64581857D02*
X61587142Y-64677095D01*
X61587142Y-64677095D02*
X61587142Y-64819952D01*
X61587142Y-64819952D02*
X61539523Y-64915190D01*
X61539523Y-64915190D02*
X61491904Y-64962809D01*
X61491904Y-64962809D02*
X61396666Y-65010428D01*
X61396666Y-65010428D02*
X61015714Y-65010428D01*
X62539523Y-65486619D02*
X61968095Y-65486619D01*
X62253809Y-65486619D02*
X62253809Y-64486619D01*
X62253809Y-64486619D02*
X62158571Y-64629476D01*
X62158571Y-64629476D02*
X62063333Y-64724714D01*
X62063333Y-64724714D02*
X61968095Y-64772333D01*
X63158571Y-64486619D02*
X63253809Y-64486619D01*
X63253809Y-64486619D02*
X63349047Y-64534238D01*
X63349047Y-64534238D02*
X63396666Y-64581857D01*
X63396666Y-64581857D02*
X63444285Y-64677095D01*
X63444285Y-64677095D02*
X63491904Y-64867571D01*
X63491904Y-64867571D02*
X63491904Y-65105666D01*
X63491904Y-65105666D02*
X63444285Y-65296142D01*
X63444285Y-65296142D02*
X63396666Y-65391380D01*
X63396666Y-65391380D02*
X63349047Y-65439000D01*
X63349047Y-65439000D02*
X63253809Y-65486619D01*
X63253809Y-65486619D02*
X63158571Y-65486619D01*
X63158571Y-65486619D02*
X63063333Y-65439000D01*
X63063333Y-65439000D02*
X63015714Y-65391380D01*
X63015714Y-65391380D02*
X62968095Y-65296142D01*
X62968095Y-65296142D02*
X62920476Y-65105666D01*
X62920476Y-65105666D02*
X62920476Y-64867571D01*
X62920476Y-64867571D02*
X62968095Y-64677095D01*
X62968095Y-64677095D02*
X63015714Y-64581857D01*
X63015714Y-64581857D02*
X63063333Y-64534238D01*
X63063333Y-64534238D02*
X63158571Y-64486619D01*
%TO.C,C10*%
X57517380Y-48140857D02*
X57565000Y-48188476D01*
X57565000Y-48188476D02*
X57612619Y-48331333D01*
X57612619Y-48331333D02*
X57612619Y-48426571D01*
X57612619Y-48426571D02*
X57565000Y-48569428D01*
X57565000Y-48569428D02*
X57469761Y-48664666D01*
X57469761Y-48664666D02*
X57374523Y-48712285D01*
X57374523Y-48712285D02*
X57184047Y-48759904D01*
X57184047Y-48759904D02*
X57041190Y-48759904D01*
X57041190Y-48759904D02*
X56850714Y-48712285D01*
X56850714Y-48712285D02*
X56755476Y-48664666D01*
X56755476Y-48664666D02*
X56660238Y-48569428D01*
X56660238Y-48569428D02*
X56612619Y-48426571D01*
X56612619Y-48426571D02*
X56612619Y-48331333D01*
X56612619Y-48331333D02*
X56660238Y-48188476D01*
X56660238Y-48188476D02*
X56707857Y-48140857D01*
X57612619Y-47188476D02*
X57612619Y-47759904D01*
X57612619Y-47474190D02*
X56612619Y-47474190D01*
X56612619Y-47474190D02*
X56755476Y-47569428D01*
X56755476Y-47569428D02*
X56850714Y-47664666D01*
X56850714Y-47664666D02*
X56898333Y-47759904D01*
X56612619Y-46569428D02*
X56612619Y-46474190D01*
X56612619Y-46474190D02*
X56660238Y-46378952D01*
X56660238Y-46378952D02*
X56707857Y-46331333D01*
X56707857Y-46331333D02*
X56803095Y-46283714D01*
X56803095Y-46283714D02*
X56993571Y-46236095D01*
X56993571Y-46236095D02*
X57231666Y-46236095D01*
X57231666Y-46236095D02*
X57422142Y-46283714D01*
X57422142Y-46283714D02*
X57517380Y-46331333D01*
X57517380Y-46331333D02*
X57565000Y-46378952D01*
X57565000Y-46378952D02*
X57612619Y-46474190D01*
X57612619Y-46474190D02*
X57612619Y-46569428D01*
X57612619Y-46569428D02*
X57565000Y-46664666D01*
X57565000Y-46664666D02*
X57517380Y-46712285D01*
X57517380Y-46712285D02*
X57422142Y-46759904D01*
X57422142Y-46759904D02*
X57231666Y-46807523D01*
X57231666Y-46807523D02*
X56993571Y-46807523D01*
X56993571Y-46807523D02*
X56803095Y-46759904D01*
X56803095Y-46759904D02*
X56707857Y-46712285D01*
X56707857Y-46712285D02*
X56660238Y-46664666D01*
X56660238Y-46664666D02*
X56612619Y-46569428D01*
%TO.C,Q2*%
X58324761Y-65073857D02*
X58229523Y-65026238D01*
X58229523Y-65026238D02*
X58134285Y-64931000D01*
X58134285Y-64931000D02*
X57991428Y-64788142D01*
X57991428Y-64788142D02*
X57896190Y-64740523D01*
X57896190Y-64740523D02*
X57800952Y-64740523D01*
X57848571Y-64978619D02*
X57753333Y-64931000D01*
X57753333Y-64931000D02*
X57658095Y-64835761D01*
X57658095Y-64835761D02*
X57610476Y-64645285D01*
X57610476Y-64645285D02*
X57610476Y-64311952D01*
X57610476Y-64311952D02*
X57658095Y-64121476D01*
X57658095Y-64121476D02*
X57753333Y-64026238D01*
X57753333Y-64026238D02*
X57848571Y-63978619D01*
X57848571Y-63978619D02*
X58039047Y-63978619D01*
X58039047Y-63978619D02*
X58134285Y-64026238D01*
X58134285Y-64026238D02*
X58229523Y-64121476D01*
X58229523Y-64121476D02*
X58277142Y-64311952D01*
X58277142Y-64311952D02*
X58277142Y-64645285D01*
X58277142Y-64645285D02*
X58229523Y-64835761D01*
X58229523Y-64835761D02*
X58134285Y-64931000D01*
X58134285Y-64931000D02*
X58039047Y-64978619D01*
X58039047Y-64978619D02*
X57848571Y-64978619D01*
X58658095Y-64073857D02*
X58705714Y-64026238D01*
X58705714Y-64026238D02*
X58800952Y-63978619D01*
X58800952Y-63978619D02*
X59039047Y-63978619D01*
X59039047Y-63978619D02*
X59134285Y-64026238D01*
X59134285Y-64026238D02*
X59181904Y-64073857D01*
X59181904Y-64073857D02*
X59229523Y-64169095D01*
X59229523Y-64169095D02*
X59229523Y-64264333D01*
X59229523Y-64264333D02*
X59181904Y-64407190D01*
X59181904Y-64407190D02*
X58610476Y-64978619D01*
X58610476Y-64978619D02*
X59229523Y-64978619D01*
%TO.C,J4*%
X87296666Y-45182619D02*
X87296666Y-45896904D01*
X87296666Y-45896904D02*
X87249047Y-46039761D01*
X87249047Y-46039761D02*
X87153809Y-46135000D01*
X87153809Y-46135000D02*
X87010952Y-46182619D01*
X87010952Y-46182619D02*
X86915714Y-46182619D01*
X88201428Y-45515952D02*
X88201428Y-46182619D01*
X87963333Y-45135000D02*
X87725238Y-45849285D01*
X87725238Y-45849285D02*
X88344285Y-45849285D01*
%TO.C,R7*%
X71836619Y-89066666D02*
X71360428Y-89399999D01*
X71836619Y-89638094D02*
X70836619Y-89638094D01*
X70836619Y-89638094D02*
X70836619Y-89257142D01*
X70836619Y-89257142D02*
X70884238Y-89161904D01*
X70884238Y-89161904D02*
X70931857Y-89114285D01*
X70931857Y-89114285D02*
X71027095Y-89066666D01*
X71027095Y-89066666D02*
X71169952Y-89066666D01*
X71169952Y-89066666D02*
X71265190Y-89114285D01*
X71265190Y-89114285D02*
X71312809Y-89161904D01*
X71312809Y-89161904D02*
X71360428Y-89257142D01*
X71360428Y-89257142D02*
X71360428Y-89638094D01*
X70836619Y-88733332D02*
X70836619Y-88066666D01*
X70836619Y-88066666D02*
X71836619Y-88495237D01*
%TO.C,U2*%
X83312095Y-96236619D02*
X83312095Y-97046142D01*
X83312095Y-97046142D02*
X83359714Y-97141380D01*
X83359714Y-97141380D02*
X83407333Y-97189000D01*
X83407333Y-97189000D02*
X83502571Y-97236619D01*
X83502571Y-97236619D02*
X83693047Y-97236619D01*
X83693047Y-97236619D02*
X83788285Y-97189000D01*
X83788285Y-97189000D02*
X83835904Y-97141380D01*
X83835904Y-97141380D02*
X83883523Y-97046142D01*
X83883523Y-97046142D02*
X83883523Y-96236619D01*
X84312095Y-96331857D02*
X84359714Y-96284238D01*
X84359714Y-96284238D02*
X84454952Y-96236619D01*
X84454952Y-96236619D02*
X84693047Y-96236619D01*
X84693047Y-96236619D02*
X84788285Y-96284238D01*
X84788285Y-96284238D02*
X84835904Y-96331857D01*
X84835904Y-96331857D02*
X84883523Y-96427095D01*
X84883523Y-96427095D02*
X84883523Y-96522333D01*
X84883523Y-96522333D02*
X84835904Y-96665190D01*
X84835904Y-96665190D02*
X84264476Y-97236619D01*
X84264476Y-97236619D02*
X84883523Y-97236619D01*
%TO.C,C11*%
X89267380Y-43822857D02*
X89315000Y-43870476D01*
X89315000Y-43870476D02*
X89362619Y-44013333D01*
X89362619Y-44013333D02*
X89362619Y-44108571D01*
X89362619Y-44108571D02*
X89315000Y-44251428D01*
X89315000Y-44251428D02*
X89219761Y-44346666D01*
X89219761Y-44346666D02*
X89124523Y-44394285D01*
X89124523Y-44394285D02*
X88934047Y-44441904D01*
X88934047Y-44441904D02*
X88791190Y-44441904D01*
X88791190Y-44441904D02*
X88600714Y-44394285D01*
X88600714Y-44394285D02*
X88505476Y-44346666D01*
X88505476Y-44346666D02*
X88410238Y-44251428D01*
X88410238Y-44251428D02*
X88362619Y-44108571D01*
X88362619Y-44108571D02*
X88362619Y-44013333D01*
X88362619Y-44013333D02*
X88410238Y-43870476D01*
X88410238Y-43870476D02*
X88457857Y-43822857D01*
X89362619Y-42870476D02*
X89362619Y-43441904D01*
X89362619Y-43156190D02*
X88362619Y-43156190D01*
X88362619Y-43156190D02*
X88505476Y-43251428D01*
X88505476Y-43251428D02*
X88600714Y-43346666D01*
X88600714Y-43346666D02*
X88648333Y-43441904D01*
X89362619Y-41918095D02*
X89362619Y-42489523D01*
X89362619Y-42203809D02*
X88362619Y-42203809D01*
X88362619Y-42203809D02*
X88505476Y-42299047D01*
X88505476Y-42299047D02*
X88600714Y-42394285D01*
X88600714Y-42394285D02*
X88648333Y-42489523D01*
%TO.C,R13*%
X59390619Y-75826857D02*
X58914428Y-76160190D01*
X59390619Y-76398285D02*
X58390619Y-76398285D01*
X58390619Y-76398285D02*
X58390619Y-76017333D01*
X58390619Y-76017333D02*
X58438238Y-75922095D01*
X58438238Y-75922095D02*
X58485857Y-75874476D01*
X58485857Y-75874476D02*
X58581095Y-75826857D01*
X58581095Y-75826857D02*
X58723952Y-75826857D01*
X58723952Y-75826857D02*
X58819190Y-75874476D01*
X58819190Y-75874476D02*
X58866809Y-75922095D01*
X58866809Y-75922095D02*
X58914428Y-76017333D01*
X58914428Y-76017333D02*
X58914428Y-76398285D01*
X59390619Y-74874476D02*
X59390619Y-75445904D01*
X59390619Y-75160190D02*
X58390619Y-75160190D01*
X58390619Y-75160190D02*
X58533476Y-75255428D01*
X58533476Y-75255428D02*
X58628714Y-75350666D01*
X58628714Y-75350666D02*
X58676333Y-75445904D01*
X58390619Y-74541142D02*
X58390619Y-73922095D01*
X58390619Y-73922095D02*
X58771571Y-74255428D01*
X58771571Y-74255428D02*
X58771571Y-74112571D01*
X58771571Y-74112571D02*
X58819190Y-74017333D01*
X58819190Y-74017333D02*
X58866809Y-73969714D01*
X58866809Y-73969714D02*
X58962047Y-73922095D01*
X58962047Y-73922095D02*
X59200142Y-73922095D01*
X59200142Y-73922095D02*
X59295380Y-73969714D01*
X59295380Y-73969714D02*
X59343000Y-74017333D01*
X59343000Y-74017333D02*
X59390619Y-74112571D01*
X59390619Y-74112571D02*
X59390619Y-74398285D01*
X59390619Y-74398285D02*
X59343000Y-74493523D01*
X59343000Y-74493523D02*
X59295380Y-74541142D01*
%TO.C,R3*%
X64470619Y-77636666D02*
X63994428Y-77969999D01*
X64470619Y-78208094D02*
X63470619Y-78208094D01*
X63470619Y-78208094D02*
X63470619Y-77827142D01*
X63470619Y-77827142D02*
X63518238Y-77731904D01*
X63518238Y-77731904D02*
X63565857Y-77684285D01*
X63565857Y-77684285D02*
X63661095Y-77636666D01*
X63661095Y-77636666D02*
X63803952Y-77636666D01*
X63803952Y-77636666D02*
X63899190Y-77684285D01*
X63899190Y-77684285D02*
X63946809Y-77731904D01*
X63946809Y-77731904D02*
X63994428Y-77827142D01*
X63994428Y-77827142D02*
X63994428Y-78208094D01*
X63470619Y-77303332D02*
X63470619Y-76684285D01*
X63470619Y-76684285D02*
X63851571Y-77017618D01*
X63851571Y-77017618D02*
X63851571Y-76874761D01*
X63851571Y-76874761D02*
X63899190Y-76779523D01*
X63899190Y-76779523D02*
X63946809Y-76731904D01*
X63946809Y-76731904D02*
X64042047Y-76684285D01*
X64042047Y-76684285D02*
X64280142Y-76684285D01*
X64280142Y-76684285D02*
X64375380Y-76731904D01*
X64375380Y-76731904D02*
X64423000Y-76779523D01*
X64423000Y-76779523D02*
X64470619Y-76874761D01*
X64470619Y-76874761D02*
X64470619Y-77160475D01*
X64470619Y-77160475D02*
X64423000Y-77255713D01*
X64423000Y-77255713D02*
X64375380Y-77303332D01*
%TO.C,TP4*%
X82304095Y-66010619D02*
X82875523Y-66010619D01*
X82589809Y-67010619D02*
X82589809Y-66010619D01*
X83208857Y-67010619D02*
X83208857Y-66010619D01*
X83208857Y-66010619D02*
X83589809Y-66010619D01*
X83589809Y-66010619D02*
X83685047Y-66058238D01*
X83685047Y-66058238D02*
X83732666Y-66105857D01*
X83732666Y-66105857D02*
X83780285Y-66201095D01*
X83780285Y-66201095D02*
X83780285Y-66343952D01*
X83780285Y-66343952D02*
X83732666Y-66439190D01*
X83732666Y-66439190D02*
X83685047Y-66486809D01*
X83685047Y-66486809D02*
X83589809Y-66534428D01*
X83589809Y-66534428D02*
X83208857Y-66534428D01*
X84637428Y-66343952D02*
X84637428Y-67010619D01*
X84399333Y-65963000D02*
X84161238Y-66677285D01*
X84161238Y-66677285D02*
X84780285Y-66677285D01*
%TO.C,R14*%
X57390619Y-55760857D02*
X56914428Y-56094190D01*
X57390619Y-56332285D02*
X56390619Y-56332285D01*
X56390619Y-56332285D02*
X56390619Y-55951333D01*
X56390619Y-55951333D02*
X56438238Y-55856095D01*
X56438238Y-55856095D02*
X56485857Y-55808476D01*
X56485857Y-55808476D02*
X56581095Y-55760857D01*
X56581095Y-55760857D02*
X56723952Y-55760857D01*
X56723952Y-55760857D02*
X56819190Y-55808476D01*
X56819190Y-55808476D02*
X56866809Y-55856095D01*
X56866809Y-55856095D02*
X56914428Y-55951333D01*
X56914428Y-55951333D02*
X56914428Y-56332285D01*
X57390619Y-54808476D02*
X57390619Y-55379904D01*
X57390619Y-55094190D02*
X56390619Y-55094190D01*
X56390619Y-55094190D02*
X56533476Y-55189428D01*
X56533476Y-55189428D02*
X56628714Y-55284666D01*
X56628714Y-55284666D02*
X56676333Y-55379904D01*
X56723952Y-53951333D02*
X57390619Y-53951333D01*
X56343000Y-54189428D02*
X57057285Y-54427523D01*
X57057285Y-54427523D02*
X57057285Y-53808476D01*
%TO.C,C3*%
X83907333Y-69201380D02*
X83859714Y-69249000D01*
X83859714Y-69249000D02*
X83716857Y-69296619D01*
X83716857Y-69296619D02*
X83621619Y-69296619D01*
X83621619Y-69296619D02*
X83478762Y-69249000D01*
X83478762Y-69249000D02*
X83383524Y-69153761D01*
X83383524Y-69153761D02*
X83335905Y-69058523D01*
X83335905Y-69058523D02*
X83288286Y-68868047D01*
X83288286Y-68868047D02*
X83288286Y-68725190D01*
X83288286Y-68725190D02*
X83335905Y-68534714D01*
X83335905Y-68534714D02*
X83383524Y-68439476D01*
X83383524Y-68439476D02*
X83478762Y-68344238D01*
X83478762Y-68344238D02*
X83621619Y-68296619D01*
X83621619Y-68296619D02*
X83716857Y-68296619D01*
X83716857Y-68296619D02*
X83859714Y-68344238D01*
X83859714Y-68344238D02*
X83907333Y-68391857D01*
X84240667Y-68296619D02*
X84859714Y-68296619D01*
X84859714Y-68296619D02*
X84526381Y-68677571D01*
X84526381Y-68677571D02*
X84669238Y-68677571D01*
X84669238Y-68677571D02*
X84764476Y-68725190D01*
X84764476Y-68725190D02*
X84812095Y-68772809D01*
X84812095Y-68772809D02*
X84859714Y-68868047D01*
X84859714Y-68868047D02*
X84859714Y-69106142D01*
X84859714Y-69106142D02*
X84812095Y-69201380D01*
X84812095Y-69201380D02*
X84764476Y-69249000D01*
X84764476Y-69249000D02*
X84669238Y-69296619D01*
X84669238Y-69296619D02*
X84383524Y-69296619D01*
X84383524Y-69296619D02*
X84288286Y-69249000D01*
X84288286Y-69249000D02*
X84240667Y-69201380D01*
%TO.C,TP2*%
X84552619Y-81271904D02*
X84552619Y-80700476D01*
X85552619Y-80986190D02*
X84552619Y-80986190D01*
X85552619Y-80367142D02*
X84552619Y-80367142D01*
X84552619Y-80367142D02*
X84552619Y-79986190D01*
X84552619Y-79986190D02*
X84600238Y-79890952D01*
X84600238Y-79890952D02*
X84647857Y-79843333D01*
X84647857Y-79843333D02*
X84743095Y-79795714D01*
X84743095Y-79795714D02*
X84885952Y-79795714D01*
X84885952Y-79795714D02*
X84981190Y-79843333D01*
X84981190Y-79843333D02*
X85028809Y-79890952D01*
X85028809Y-79890952D02*
X85076428Y-79986190D01*
X85076428Y-79986190D02*
X85076428Y-80367142D01*
X84647857Y-79414761D02*
X84600238Y-79367142D01*
X84600238Y-79367142D02*
X84552619Y-79271904D01*
X84552619Y-79271904D02*
X84552619Y-79033809D01*
X84552619Y-79033809D02*
X84600238Y-78938571D01*
X84600238Y-78938571D02*
X84647857Y-78890952D01*
X84647857Y-78890952D02*
X84743095Y-78843333D01*
X84743095Y-78843333D02*
X84838333Y-78843333D01*
X84838333Y-78843333D02*
X84981190Y-78890952D01*
X84981190Y-78890952D02*
X85552619Y-79462380D01*
X85552619Y-79462380D02*
X85552619Y-78843333D01*
%TO.C,R2*%
X59390619Y-82208666D02*
X58914428Y-82541999D01*
X59390619Y-82780094D02*
X58390619Y-82780094D01*
X58390619Y-82780094D02*
X58390619Y-82399142D01*
X58390619Y-82399142D02*
X58438238Y-82303904D01*
X58438238Y-82303904D02*
X58485857Y-82256285D01*
X58485857Y-82256285D02*
X58581095Y-82208666D01*
X58581095Y-82208666D02*
X58723952Y-82208666D01*
X58723952Y-82208666D02*
X58819190Y-82256285D01*
X58819190Y-82256285D02*
X58866809Y-82303904D01*
X58866809Y-82303904D02*
X58914428Y-82399142D01*
X58914428Y-82399142D02*
X58914428Y-82780094D01*
X58485857Y-81827713D02*
X58438238Y-81780094D01*
X58438238Y-81780094D02*
X58390619Y-81684856D01*
X58390619Y-81684856D02*
X58390619Y-81446761D01*
X58390619Y-81446761D02*
X58438238Y-81351523D01*
X58438238Y-81351523D02*
X58485857Y-81303904D01*
X58485857Y-81303904D02*
X58581095Y-81256285D01*
X58581095Y-81256285D02*
X58676333Y-81256285D01*
X58676333Y-81256285D02*
X58819190Y-81303904D01*
X58819190Y-81303904D02*
X59390619Y-81875332D01*
X59390619Y-81875332D02*
X59390619Y-81256285D01*
%TO.C,J6*%
X54276666Y-45182619D02*
X54276666Y-45896904D01*
X54276666Y-45896904D02*
X54229047Y-46039761D01*
X54229047Y-46039761D02*
X54133809Y-46135000D01*
X54133809Y-46135000D02*
X53990952Y-46182619D01*
X53990952Y-46182619D02*
X53895714Y-46182619D01*
X55181428Y-45182619D02*
X54990952Y-45182619D01*
X54990952Y-45182619D02*
X54895714Y-45230238D01*
X54895714Y-45230238D02*
X54848095Y-45277857D01*
X54848095Y-45277857D02*
X54752857Y-45420714D01*
X54752857Y-45420714D02*
X54705238Y-45611190D01*
X54705238Y-45611190D02*
X54705238Y-45992142D01*
X54705238Y-45992142D02*
X54752857Y-46087380D01*
X54752857Y-46087380D02*
X54800476Y-46135000D01*
X54800476Y-46135000D02*
X54895714Y-46182619D01*
X54895714Y-46182619D02*
X55086190Y-46182619D01*
X55086190Y-46182619D02*
X55181428Y-46135000D01*
X55181428Y-46135000D02*
X55229047Y-46087380D01*
X55229047Y-46087380D02*
X55276666Y-45992142D01*
X55276666Y-45992142D02*
X55276666Y-45754047D01*
X55276666Y-45754047D02*
X55229047Y-45658809D01*
X55229047Y-45658809D02*
X55181428Y-45611190D01*
X55181428Y-45611190D02*
X55086190Y-45563571D01*
X55086190Y-45563571D02*
X54895714Y-45563571D01*
X54895714Y-45563571D02*
X54800476Y-45611190D01*
X54800476Y-45611190D02*
X54752857Y-45658809D01*
X54752857Y-45658809D02*
X54705238Y-45754047D01*
%TO.C,R16*%
X62470619Y-58300857D02*
X61994428Y-58634190D01*
X62470619Y-58872285D02*
X61470619Y-58872285D01*
X61470619Y-58872285D02*
X61470619Y-58491333D01*
X61470619Y-58491333D02*
X61518238Y-58396095D01*
X61518238Y-58396095D02*
X61565857Y-58348476D01*
X61565857Y-58348476D02*
X61661095Y-58300857D01*
X61661095Y-58300857D02*
X61803952Y-58300857D01*
X61803952Y-58300857D02*
X61899190Y-58348476D01*
X61899190Y-58348476D02*
X61946809Y-58396095D01*
X61946809Y-58396095D02*
X61994428Y-58491333D01*
X61994428Y-58491333D02*
X61994428Y-58872285D01*
X62470619Y-57348476D02*
X62470619Y-57919904D01*
X62470619Y-57634190D02*
X61470619Y-57634190D01*
X61470619Y-57634190D02*
X61613476Y-57729428D01*
X61613476Y-57729428D02*
X61708714Y-57824666D01*
X61708714Y-57824666D02*
X61756333Y-57919904D01*
X61470619Y-56491333D02*
X61470619Y-56681809D01*
X61470619Y-56681809D02*
X61518238Y-56777047D01*
X61518238Y-56777047D02*
X61565857Y-56824666D01*
X61565857Y-56824666D02*
X61708714Y-56919904D01*
X61708714Y-56919904D02*
X61899190Y-56967523D01*
X61899190Y-56967523D02*
X62280142Y-56967523D01*
X62280142Y-56967523D02*
X62375380Y-56919904D01*
X62375380Y-56919904D02*
X62423000Y-56872285D01*
X62423000Y-56872285D02*
X62470619Y-56777047D01*
X62470619Y-56777047D02*
X62470619Y-56586571D01*
X62470619Y-56586571D02*
X62423000Y-56491333D01*
X62423000Y-56491333D02*
X62375380Y-56443714D01*
X62375380Y-56443714D02*
X62280142Y-56396095D01*
X62280142Y-56396095D02*
X62042047Y-56396095D01*
X62042047Y-56396095D02*
X61946809Y-56443714D01*
X61946809Y-56443714D02*
X61899190Y-56491333D01*
X61899190Y-56491333D02*
X61851571Y-56586571D01*
X61851571Y-56586571D02*
X61851571Y-56777047D01*
X61851571Y-56777047D02*
X61899190Y-56872285D01*
X61899190Y-56872285D02*
X61946809Y-56919904D01*
X61946809Y-56919904D02*
X62042047Y-56967523D01*
%TO.C,C7*%
X65137380Y-52236666D02*
X65185000Y-52284285D01*
X65185000Y-52284285D02*
X65232619Y-52427142D01*
X65232619Y-52427142D02*
X65232619Y-52522380D01*
X65232619Y-52522380D02*
X65185000Y-52665237D01*
X65185000Y-52665237D02*
X65089761Y-52760475D01*
X65089761Y-52760475D02*
X64994523Y-52808094D01*
X64994523Y-52808094D02*
X64804047Y-52855713D01*
X64804047Y-52855713D02*
X64661190Y-52855713D01*
X64661190Y-52855713D02*
X64470714Y-52808094D01*
X64470714Y-52808094D02*
X64375476Y-52760475D01*
X64375476Y-52760475D02*
X64280238Y-52665237D01*
X64280238Y-52665237D02*
X64232619Y-52522380D01*
X64232619Y-52522380D02*
X64232619Y-52427142D01*
X64232619Y-52427142D02*
X64280238Y-52284285D01*
X64280238Y-52284285D02*
X64327857Y-52236666D01*
X64232619Y-51903332D02*
X64232619Y-51236666D01*
X64232619Y-51236666D02*
X65232619Y-51665237D01*
%TO.C,TP1*%
X63000095Y-85822619D02*
X63571523Y-85822619D01*
X63285809Y-86822619D02*
X63285809Y-85822619D01*
X63904857Y-86822619D02*
X63904857Y-85822619D01*
X63904857Y-85822619D02*
X64285809Y-85822619D01*
X64285809Y-85822619D02*
X64381047Y-85870238D01*
X64381047Y-85870238D02*
X64428666Y-85917857D01*
X64428666Y-85917857D02*
X64476285Y-86013095D01*
X64476285Y-86013095D02*
X64476285Y-86155952D01*
X64476285Y-86155952D02*
X64428666Y-86251190D01*
X64428666Y-86251190D02*
X64381047Y-86298809D01*
X64381047Y-86298809D02*
X64285809Y-86346428D01*
X64285809Y-86346428D02*
X63904857Y-86346428D01*
X65428666Y-86822619D02*
X64857238Y-86822619D01*
X65142952Y-86822619D02*
X65142952Y-85822619D01*
X65142952Y-85822619D02*
X65047714Y-85965476D01*
X65047714Y-85965476D02*
X64952476Y-86060714D01*
X64952476Y-86060714D02*
X64857238Y-86108333D01*
D14*
%TO.C,C5*%
X70075248Y-84863000D02*
X70597752Y-84863000D01*
X70075248Y-86333000D02*
X70597752Y-86333000D01*
%TO.C,L1*%
X65758000Y-81329000D02*
X65758000Y-80189000D01*
X69878000Y-81329000D02*
X69878000Y-80189000D01*
%TO.C,U1*%
X65871000Y-75887000D02*
X65871000Y-75412000D01*
X66346000Y-72667000D02*
X65871000Y-72667000D01*
X66346000Y-75887000D02*
X65871000Y-75887000D01*
X68616000Y-72667000D02*
X69091000Y-72667000D01*
X68616000Y-75887000D02*
X69091000Y-75887000D01*
X69091000Y-72667000D02*
X69091000Y-73142000D01*
X69091000Y-75887000D02*
X69091000Y-75412000D01*
%TO.C,R18*%
X59647064Y-60933000D02*
X59192936Y-60933000D01*
X59647064Y-59463000D02*
X59192936Y-59463000D01*
%TO.C,C4*%
X87361752Y-88111000D02*
X86839248Y-88111000D01*
X87361752Y-86641000D02*
X86839248Y-86641000D01*
%TO.C,R6*%
X58447000Y-89365064D02*
X58447000Y-88910936D01*
X59917000Y-89365064D02*
X59917000Y-88910936D01*
%TO.C,R12*%
X61256936Y-72163000D02*
X61711064Y-72163000D01*
X61256936Y-73633000D02*
X61711064Y-73633000D01*
%TO.C,C6*%
X84651000Y-87283000D02*
X84026000Y-87283000D01*
X84338500Y-87595500D02*
X84338500Y-86970500D01*
X83786000Y-87293563D02*
X83786000Y-86658000D01*
X83786000Y-87293563D02*
X82721563Y-88358000D01*
X83786000Y-83902437D02*
X83786000Y-84538000D01*
X83786000Y-83902437D02*
X82721563Y-82838000D01*
X82721563Y-88358000D02*
X78266000Y-88358000D01*
X82721563Y-82838000D02*
X78266000Y-82838000D01*
X78266000Y-88358000D02*
X78266000Y-86658000D01*
X78266000Y-82838000D02*
X78266000Y-84538000D01*
%TO.C,TP5*%
X82742000Y-81026000D02*
G75*
G03*
X82742000Y-81026000I-700000J0D01*
G01*
%TO.C,TP3*%
X74360000Y-65278000D02*
G75*
G03*
X74360000Y-65278000I-700000J0D01*
G01*
%TO.C,R9*%
X65574936Y-69369000D02*
X66029064Y-69369000D01*
X65574936Y-70839000D02*
X66029064Y-70839000D01*
%TO.C,C8*%
X59663000Y-51830248D02*
X59663000Y-52352752D01*
X58193000Y-51830248D02*
X58193000Y-52352752D01*
%TO.C,R8*%
X61320936Y-69369000D02*
X61775064Y-69369000D01*
X61320936Y-70839000D02*
X61775064Y-70839000D01*
%TO.C,U3*%
X65810000Y-60936000D02*
X65810000Y-59886000D01*
X65960000Y-40786000D02*
X65960000Y-45386000D01*
X65960000Y-40786000D02*
X81360000Y-40786000D01*
X65960000Y-60786000D02*
X65960000Y-45386000D01*
X66860000Y-40636000D02*
X65660000Y-40636000D01*
X66860000Y-60936000D02*
X65810000Y-60936000D01*
X80460000Y-40636000D02*
X81510000Y-40636000D01*
X80460000Y-60936000D02*
X81510000Y-60936000D01*
X81360000Y-40786000D02*
X81360000Y-45386000D01*
X81360000Y-45386000D02*
X81360000Y-60786000D01*
X81360000Y-60786000D02*
X65960000Y-60786000D01*
X81510000Y-40636000D02*
X81510000Y-41686000D01*
X81510000Y-60936000D02*
X81510000Y-59886000D01*
%TO.C,SW2*%
X53372000Y-95656000D02*
X54572000Y-95656000D01*
X56172000Y-95656000D02*
X57372000Y-95656000D01*
X57372000Y-95656000D02*
X57372000Y-89256000D01*
X53372000Y-89256000D02*
X53372000Y-95656000D01*
X54572000Y-89256000D02*
X53372000Y-89256000D01*
X57372000Y-89256000D02*
X56172000Y-89256000D01*
%TO.C,R15*%
X83847000Y-42629064D02*
X83847000Y-42174936D01*
X85317000Y-42629064D02*
X85317000Y-42174936D01*
%TO.C,J2*%
X61370000Y-93980000D02*
X61370000Y-92180000D01*
X61370000Y-96080000D02*
X61370000Y-97230000D01*
X70710000Y-93980000D02*
X70710000Y-92180000D01*
X70710000Y-96080000D02*
X70710000Y-97230000D01*
%TO.C,J5*%
X58181000Y-43215000D02*
X63321000Y-43215000D01*
X58181000Y-43215000D02*
X58181000Y-40555000D01*
X63321000Y-43215000D02*
X63321000Y-40555000D01*
X55581000Y-41885000D02*
X55581000Y-40555000D01*
X55581000Y-40555000D02*
X56911000Y-40555000D01*
X58181000Y-40555000D02*
X63321000Y-40555000D01*
%TO.C,R19*%
X59192936Y-61749000D02*
X59647064Y-61749000D01*
X59192936Y-63219000D02*
X59647064Y-63219000D01*
%TO.C,SW1*%
X74200000Y-95656000D02*
X75400000Y-95656000D01*
X77000000Y-95656000D02*
X78200000Y-95656000D01*
X78200000Y-95656000D02*
X78200000Y-89256000D01*
X74200000Y-89256000D02*
X74200000Y-95656000D01*
X75400000Y-89256000D02*
X74200000Y-89256000D01*
X78200000Y-89256000D02*
X77000000Y-89256000D01*
%TO.C,R5*%
X58447000Y-94699064D02*
X58447000Y-94244936D01*
X59917000Y-94699064D02*
X59917000Y-94244936D01*
%TO.C,R4*%
X72163000Y-94699064D02*
X72163000Y-94244936D01*
X73633000Y-94699064D02*
X73633000Y-94244936D01*
%TO.C,Q1*%
X76164000Y-65453500D02*
X76164000Y-67128500D01*
X76164000Y-65453500D02*
X76164000Y-64803500D01*
X79284000Y-65453500D02*
X79284000Y-66103500D01*
X79284000Y-65453500D02*
X79284000Y-64803500D01*
%TO.C,C9*%
X62082000Y-48258252D02*
X62082000Y-46835748D01*
X63902000Y-48258252D02*
X63902000Y-46835748D01*
%TO.C,JP1*%
X71420000Y-67806000D02*
X70820000Y-67806000D01*
X70120000Y-67106000D02*
X70120000Y-65706000D01*
X72120000Y-65706000D02*
X72120000Y-67106000D01*
X70820000Y-65006000D02*
X71420000Y-65006000D01*
X70120000Y-67106000D02*
G75*
G03*
X70820000Y-67806000I699999J-1D01*
G01*
X71420000Y-67806000D02*
G75*
G03*
X72120000Y-67106000I1J699999D01*
G01*
X70820000Y-65006000D02*
G75*
G03*
X70120000Y-65706000I0J-700000D01*
G01*
X72120000Y-65706000D02*
G75*
G03*
X71420000Y-65006000I-700000J0D01*
G01*
%TO.C,R1*%
X61679064Y-85063000D02*
X61224936Y-85063000D01*
X61679064Y-83593000D02*
X61224936Y-83593000D01*
%TO.C,C2*%
X73123248Y-68861000D02*
X73645752Y-68861000D01*
X73123248Y-70331000D02*
X73645752Y-70331000D01*
%TO.C,J1*%
X73914000Y-82102000D02*
X76514000Y-82102000D01*
X73914000Y-82102000D02*
X73914000Y-79442000D01*
X76514000Y-82102000D02*
X76514000Y-79442000D01*
X71314000Y-80772000D02*
X71314000Y-79442000D01*
X71314000Y-79442000D02*
X72644000Y-79442000D01*
X73914000Y-79442000D02*
X76514000Y-79442000D01*
%TO.C,C1*%
X61707752Y-80491000D02*
X61185248Y-80491000D01*
X61707752Y-79021000D02*
X61185248Y-79021000D01*
%TO.C,R11*%
X66082936Y-65813000D02*
X66537064Y-65813000D01*
X66082936Y-67283000D02*
X66537064Y-67283000D01*
%TO.C,R10*%
X62018936Y-65813000D02*
X62473064Y-65813000D01*
X62018936Y-67283000D02*
X62473064Y-67283000D01*
%TO.C,C10*%
X58018000Y-48258252D02*
X58018000Y-46835748D01*
X59838000Y-48258252D02*
X59838000Y-46835748D01*
%TO.C,Q2*%
X60046000Y-66880500D02*
X60046000Y-65205500D01*
X60046000Y-66880500D02*
X60046000Y-67530500D01*
X56926000Y-66880500D02*
X56926000Y-66230500D01*
X56926000Y-66880500D02*
X56926000Y-67530500D01*
%TO.C,J4*%
X88960000Y-82550000D02*
X88960000Y-46930000D01*
X88960000Y-82550000D02*
X86300000Y-82550000D01*
X88960000Y-46930000D02*
X86300000Y-46930000D01*
X87630000Y-85150000D02*
X86300000Y-85150000D01*
X86300000Y-85150000D02*
X86300000Y-83820000D01*
X86300000Y-82550000D02*
X86300000Y-46930000D01*
%TO.C,R7*%
X72163000Y-89365064D02*
X72163000Y-88910936D01*
X73633000Y-89365064D02*
X73633000Y-88910936D01*
%TO.C,U2*%
X79466000Y-88792000D02*
X85476000Y-88792000D01*
X81716000Y-95612000D02*
X85476000Y-95612000D01*
X85476000Y-88792000D02*
X85476000Y-90052000D01*
X85476000Y-95612000D02*
X85476000Y-94352000D01*
%TO.C,C11*%
X86387000Y-42700752D02*
X86387000Y-42178248D01*
X87857000Y-42700752D02*
X87857000Y-42178248D01*
%TO.C,R13*%
X61711064Y-75919000D02*
X61256936Y-75919000D01*
X61711064Y-74449000D02*
X61256936Y-74449000D01*
%TO.C,R3*%
X61711064Y-78205000D02*
X61256936Y-78205000D01*
X61711064Y-76735000D02*
X61256936Y-76735000D01*
%TO.C,TP4*%
X81980000Y-66548000D02*
G75*
G03*
X81980000Y-66548000I-700000J0D01*
G01*
%TO.C,R14*%
X59679064Y-56107000D02*
X59224936Y-56107000D01*
X59679064Y-54637000D02*
X59224936Y-54637000D01*
%TO.C,C3*%
X77135000Y-78845646D02*
X77135000Y-77845646D01*
X76635000Y-78345646D02*
X77635000Y-78345646D01*
X74930000Y-73366000D02*
X85090000Y-73366000D01*
X74930000Y-73326000D02*
X85090000Y-73326000D01*
X74930000Y-73286000D02*
X85090000Y-73286000D01*
X74931000Y-73246000D02*
X85089000Y-73246000D01*
X74932000Y-73206000D02*
X85088000Y-73206000D01*
X74933000Y-73166000D02*
X85087000Y-73166000D01*
X74935000Y-73126000D02*
X85085000Y-73126000D01*
X74937000Y-73086000D02*
X85083000Y-73086000D01*
X74940000Y-73046000D02*
X85080000Y-73046000D01*
X74942000Y-73006000D02*
X85078000Y-73006000D01*
X74945000Y-72966000D02*
X85075000Y-72966000D01*
X74948000Y-72926000D02*
X85072000Y-72926000D01*
X74952000Y-72886000D02*
X85068000Y-72886000D01*
X74956000Y-72846000D02*
X85064000Y-72846000D01*
X74960000Y-72806000D02*
X85060000Y-72806000D01*
X74965000Y-72766000D02*
X85055000Y-72766000D01*
X74970000Y-72726000D02*
X85050000Y-72726000D01*
X74975000Y-72686000D02*
X85045000Y-72686000D01*
X74980000Y-72645000D02*
X85040000Y-72645000D01*
X74986000Y-72605000D02*
X85034000Y-72605000D01*
X74992000Y-72565000D02*
X85028000Y-72565000D01*
X74999000Y-72525000D02*
X85021000Y-72525000D01*
X75006000Y-72485000D02*
X85014000Y-72485000D01*
X75013000Y-72445000D02*
X85007000Y-72445000D01*
X75020000Y-72405000D02*
X85000000Y-72405000D01*
X75028000Y-72365000D02*
X84992000Y-72365000D01*
X75036000Y-72325000D02*
X84984000Y-72325000D01*
X75045000Y-72285000D02*
X84975000Y-72285000D01*
X75054000Y-72245000D02*
X84966000Y-72245000D01*
X75063000Y-72205000D02*
X84957000Y-72205000D01*
X75072000Y-72165000D02*
X84948000Y-72165000D01*
X75082000Y-72125000D02*
X84938000Y-72125000D01*
X75092000Y-72085000D02*
X78769000Y-72085000D01*
X81251000Y-72085000D02*
X84928000Y-72085000D01*
X75103000Y-72045000D02*
X78769000Y-72045000D01*
X81251000Y-72045000D02*
X84917000Y-72045000D01*
X75113000Y-72005000D02*
X78769000Y-72005000D01*
X81251000Y-72005000D02*
X84907000Y-72005000D01*
X75125000Y-71965000D02*
X78769000Y-71965000D01*
X81251000Y-71965000D02*
X84895000Y-71965000D01*
X75136000Y-71925000D02*
X78769000Y-71925000D01*
X81251000Y-71925000D02*
X84884000Y-71925000D01*
X75148000Y-71885000D02*
X78769000Y-71885000D01*
X81251000Y-71885000D02*
X84872000Y-71885000D01*
X75160000Y-71845000D02*
X78769000Y-71845000D01*
X81251000Y-71845000D02*
X84860000Y-71845000D01*
X75173000Y-71805000D02*
X78769000Y-71805000D01*
X81251000Y-71805000D02*
X84847000Y-71805000D01*
X75186000Y-71765000D02*
X78769000Y-71765000D01*
X81251000Y-71765000D02*
X84834000Y-71765000D01*
X75199000Y-71725000D02*
X78769000Y-71725000D01*
X81251000Y-71725000D02*
X84821000Y-71725000D01*
X75213000Y-71685000D02*
X78769000Y-71685000D01*
X81251000Y-71685000D02*
X84807000Y-71685000D01*
X75227000Y-71645000D02*
X78769000Y-71645000D01*
X81251000Y-71645000D02*
X84793000Y-71645000D01*
X75242000Y-71605000D02*
X78769000Y-71605000D01*
X81251000Y-71605000D02*
X84778000Y-71605000D01*
X75256000Y-71565000D02*
X78769000Y-71565000D01*
X81251000Y-71565000D02*
X84764000Y-71565000D01*
X75272000Y-71525000D02*
X78769000Y-71525000D01*
X81251000Y-71525000D02*
X84748000Y-71525000D01*
X75287000Y-71485000D02*
X78769000Y-71485000D01*
X81251000Y-71485000D02*
X84733000Y-71485000D01*
X75303000Y-71445000D02*
X78769000Y-71445000D01*
X81251000Y-71445000D02*
X84717000Y-71445000D01*
X75320000Y-71405000D02*
X78769000Y-71405000D01*
X81251000Y-71405000D02*
X84700000Y-71405000D01*
X75336000Y-71365000D02*
X78769000Y-71365000D01*
X81251000Y-71365000D02*
X84684000Y-71365000D01*
X75353000Y-71325000D02*
X78769000Y-71325000D01*
X81251000Y-71325000D02*
X84667000Y-71325000D01*
X75371000Y-71285000D02*
X78769000Y-71285000D01*
X81251000Y-71285000D02*
X84649000Y-71285000D01*
X75389000Y-71245000D02*
X78769000Y-71245000D01*
X81251000Y-71245000D02*
X84631000Y-71245000D01*
X75407000Y-71205000D02*
X78769000Y-71205000D01*
X81251000Y-71205000D02*
X84613000Y-71205000D01*
X75426000Y-71165000D02*
X78769000Y-71165000D01*
X81251000Y-71165000D02*
X84594000Y-71165000D01*
X75446000Y-71125000D02*
X78769000Y-71125000D01*
X81251000Y-71125000D02*
X84574000Y-71125000D01*
X75465000Y-71085000D02*
X78769000Y-71085000D01*
X81251000Y-71085000D02*
X84555000Y-71085000D01*
X75485000Y-71045000D02*
X78769000Y-71045000D01*
X81251000Y-71045000D02*
X84535000Y-71045000D01*
X75506000Y-71005000D02*
X78769000Y-71005000D01*
X81251000Y-71005000D02*
X84514000Y-71005000D01*
X75527000Y-70965000D02*
X78769000Y-70965000D01*
X81251000Y-70965000D02*
X84493000Y-70965000D01*
X75548000Y-70925000D02*
X78769000Y-70925000D01*
X81251000Y-70925000D02*
X84472000Y-70925000D01*
X75570000Y-70885000D02*
X78769000Y-70885000D01*
X81251000Y-70885000D02*
X84450000Y-70885000D01*
X75593000Y-70845000D02*
X78769000Y-70845000D01*
X81251000Y-70845000D02*
X84427000Y-70845000D01*
X75615000Y-70805000D02*
X78769000Y-70805000D01*
X81251000Y-70805000D02*
X84405000Y-70805000D01*
X75639000Y-70765000D02*
X78769000Y-70765000D01*
X81251000Y-70765000D02*
X84381000Y-70765000D01*
X75663000Y-70725000D02*
X78769000Y-70725000D01*
X81251000Y-70725000D02*
X84357000Y-70725000D01*
X75687000Y-70685000D02*
X78769000Y-70685000D01*
X81251000Y-70685000D02*
X84333000Y-70685000D01*
X75712000Y-70645000D02*
X78769000Y-70645000D01*
X81251000Y-70645000D02*
X84308000Y-70645000D01*
X75737000Y-70605000D02*
X78769000Y-70605000D01*
X81251000Y-70605000D02*
X84283000Y-70605000D01*
X75763000Y-70565000D02*
X78769000Y-70565000D01*
X81251000Y-70565000D02*
X84257000Y-70565000D01*
X75789000Y-70525000D02*
X78769000Y-70525000D01*
X81251000Y-70525000D02*
X84231000Y-70525000D01*
X75816000Y-70485000D02*
X78769000Y-70485000D01*
X81251000Y-70485000D02*
X84204000Y-70485000D01*
X75844000Y-70445000D02*
X78769000Y-70445000D01*
X81251000Y-70445000D02*
X84176000Y-70445000D01*
X75872000Y-70405000D02*
X78769000Y-70405000D01*
X81251000Y-70405000D02*
X84148000Y-70405000D01*
X75900000Y-70365000D02*
X78769000Y-70365000D01*
X81251000Y-70365000D02*
X84120000Y-70365000D01*
X75930000Y-70325000D02*
X78769000Y-70325000D01*
X81251000Y-70325000D02*
X84090000Y-70325000D01*
X75960000Y-70285000D02*
X78769000Y-70285000D01*
X81251000Y-70285000D02*
X84060000Y-70285000D01*
X75990000Y-70245000D02*
X78769000Y-70245000D01*
X81251000Y-70245000D02*
X84030000Y-70245000D01*
X76021000Y-70205000D02*
X78769000Y-70205000D01*
X81251000Y-70205000D02*
X83999000Y-70205000D01*
X76053000Y-70165000D02*
X78769000Y-70165000D01*
X81251000Y-70165000D02*
X83967000Y-70165000D01*
X76085000Y-70125000D02*
X78769000Y-70125000D01*
X81251000Y-70125000D02*
X83935000Y-70125000D01*
X76118000Y-70085000D02*
X78769000Y-70085000D01*
X81251000Y-70085000D02*
X83902000Y-70085000D01*
X76152000Y-70045000D02*
X78769000Y-70045000D01*
X81251000Y-70045000D02*
X83868000Y-70045000D01*
X76186000Y-70005000D02*
X78769000Y-70005000D01*
X81251000Y-70005000D02*
X83834000Y-70005000D01*
X76221000Y-69965000D02*
X78769000Y-69965000D01*
X81251000Y-69965000D02*
X83799000Y-69965000D01*
X76257000Y-69925000D02*
X78769000Y-69925000D01*
X81251000Y-69925000D02*
X83763000Y-69925000D01*
X76294000Y-69885000D02*
X78769000Y-69885000D01*
X81251000Y-69885000D02*
X83726000Y-69885000D01*
X76331000Y-69845000D02*
X78769000Y-69845000D01*
X81251000Y-69845000D02*
X83689000Y-69845000D01*
X76370000Y-69805000D02*
X78769000Y-69805000D01*
X81251000Y-69805000D02*
X83650000Y-69805000D01*
X76409000Y-69765000D02*
X78769000Y-69765000D01*
X81251000Y-69765000D02*
X83611000Y-69765000D01*
X76449000Y-69725000D02*
X78769000Y-69725000D01*
X81251000Y-69725000D02*
X83571000Y-69725000D01*
X76490000Y-69685000D02*
X78769000Y-69685000D01*
X81251000Y-69685000D02*
X83530000Y-69685000D01*
X76532000Y-69645000D02*
X78769000Y-69645000D01*
X81251000Y-69645000D02*
X83488000Y-69645000D01*
X76574000Y-69605000D02*
X83446000Y-69605000D01*
X76618000Y-69565000D02*
X83402000Y-69565000D01*
X76663000Y-69525000D02*
X83357000Y-69525000D01*
X76709000Y-69485000D02*
X83311000Y-69485000D01*
X76756000Y-69445000D02*
X83264000Y-69445000D01*
X76804000Y-69405000D02*
X83216000Y-69405000D01*
X76854000Y-69365000D02*
X83166000Y-69365000D01*
X76904000Y-69325000D02*
X83116000Y-69325000D01*
X76956000Y-69285000D02*
X83064000Y-69285000D01*
X77010000Y-69245000D02*
X83010000Y-69245000D01*
X77065000Y-69205000D02*
X82955000Y-69205000D01*
X77121000Y-69165000D02*
X82899000Y-69165000D01*
X77180000Y-69125000D02*
X82840000Y-69125000D01*
X77240000Y-69085000D02*
X82780000Y-69085000D01*
X77301000Y-69045000D02*
X82719000Y-69045000D01*
X77365000Y-69005000D02*
X82655000Y-69005000D01*
X77431000Y-68965000D02*
X82589000Y-68965000D01*
X77500000Y-68925000D02*
X82520000Y-68925000D01*
X77571000Y-68885000D02*
X82449000Y-68885000D01*
X77645000Y-68845000D02*
X82375000Y-68845000D01*
X77721000Y-68805000D02*
X82299000Y-68805000D01*
X77801000Y-68765000D02*
X82219000Y-68765000D01*
X77885000Y-68725000D02*
X82135000Y-68725000D01*
X77973000Y-68685000D02*
X82047000Y-68685000D01*
X78066000Y-68645000D02*
X81954000Y-68645000D01*
X78164000Y-68605000D02*
X81856000Y-68605000D01*
X78268000Y-68565000D02*
X81752000Y-68565000D01*
X78380000Y-68525000D02*
X81640000Y-68525000D01*
X78500000Y-68485000D02*
X81520000Y-68485000D01*
X78632000Y-68445000D02*
X81388000Y-68445000D01*
X78780000Y-68405000D02*
X81240000Y-68405000D01*
X78948000Y-68365000D02*
X81072000Y-68365000D01*
X79148000Y-68325000D02*
X80872000Y-68325000D01*
X79411000Y-68285000D02*
X80609000Y-68285000D01*
X85130000Y-73366000D02*
G75*
G03*
X85130000Y-73366000I-5120000J0D01*
G01*
%TO.C,TP2*%
X85536000Y-77724000D02*
G75*
G03*
X85536000Y-77724000I-700000J0D01*
G01*
%TO.C,R2*%
X61679064Y-82777000D02*
X61224936Y-82777000D01*
X61679064Y-81307000D02*
X61224936Y-81307000D01*
%TO.C,J6*%
X55940000Y-82550000D02*
X55940000Y-46930000D01*
X55940000Y-82550000D02*
X53280000Y-82550000D01*
X55940000Y-46930000D02*
X53280000Y-46930000D01*
X54610000Y-85150000D02*
X53280000Y-85150000D01*
X53280000Y-85150000D02*
X53280000Y-83820000D01*
X53280000Y-82550000D02*
X53280000Y-46930000D01*
%TO.C,R16*%
X59679064Y-58393000D02*
X59224936Y-58393000D01*
X59679064Y-56923000D02*
X59224936Y-56923000D01*
%TO.C,C7*%
X63727000Y-51830248D02*
X63727000Y-52352752D01*
X62257000Y-51830248D02*
X62257000Y-52352752D01*
%TO.C,TP1*%
X67248000Y-86360000D02*
G75*
G03*
X67248000Y-86360000I-700000J0D01*
G01*
%TD*%
M02*
