M48
; DRILL file {KiCad 7.0.1} date Sat May 27 11:13:47 2023
; FORMAT={-:-/ absolute / inch / decimal}
; #@! TF.CreationDate,2023-05-27T11:13:47+02:00
; #@! TF.GenerationSoftware,Kicad,Pcbnew,7.0.1
; #@! TF.FileFunction,Plated,1,4,PTH
FMAT,2
INCH
; #@! TA.AperFunction,Plated,PTH,ViaDrill
T1C0.0118
; #@! TA.AperFunction,Plated,PTH,ViaDrill
T2C0.0157
; #@! TA.AperFunction,Plated,PTH,ComponentDrill
T3C0.0236
; #@! TA.AperFunction,Plated,PTH,ComponentDrill
T4C0.0276
; #@! TA.AperFunction,Plated,PTH,ComponentDrill
T5C0.0394
%
G90
G05
T1
X2.18Y-3.44
X2.25Y-1.81
X2.34Y-2.24
X2.3445Y-2.28
X2.38Y-3.68
X2.385Y-2.815
X2.42Y-3.28
X2.43Y-2.19
X2.43Y-2.37
X2.51Y-3.14
X2.55Y-2.95
X2.551Y-3.5057
X2.559Y-2.9109
X2.56Y-2.8454
X2.57Y-2.19
X2.57Y-2.23
X2.57Y-2.67
X2.57Y-3.02
X2.6Y-2.8346
X2.63Y-2.81
X2.63Y-3.02
X2.6633Y-2.7933
X2.6657Y-2.419
X2.67Y-3.5
X2.6746Y-2.7
X2.68Y-1.96
X2.68Y-2.03
X2.68Y-2.0615
X2.68Y-2.093
X2.68Y-2.1244
X2.68Y-2.1615
X2.68Y-2.2615
X2.68Y-2.293
X2.68Y-2.3244
X2.6805Y-1.9978
X2.6992Y-2.42
X2.7Y-3.02
X2.7327Y-2.42
X2.76Y-2.32
X2.7642Y-2.42
X2.7706Y-2.1006
X2.78Y-1.96
X2.78Y-2.0219
X2.82Y-3.68
X2.92Y-2.62
X2.93Y-2.21
X2.94Y-2.31
X2.97Y-2.42
X2.98Y-2.31
X3.0Y-3.43
X3.06Y-2.42
X3.07Y-2.26
X3.1Y-2.22
X3.1008Y-2.4192
X3.12Y-2.19
X3.1295Y-2.0543
X3.13Y-2.29
X3.13Y-2.3215
X3.13Y-2.0229
X3.23Y-2.09
X3.23Y-2.1215
X3.23Y-2.1569
X3.23Y-2.19
X3.2392Y-1.8892
X3.24Y-1.8557
X3.24Y-1.96
X3.38Y-1.73
T2
X2.27Y-2.72
X2.33Y-3.05
X2.33Y-3.42
X2.4Y-1.77
X2.4Y-1.94
X2.4Y-1.98
X2.4Y-2.06
X2.58Y-2.41
X2.68Y-1.86
X2.82Y-3.45
X2.96Y-2.81
X2.96Y-2.85
X3.0Y-2.53
X3.02Y-2.09
X3.02Y-2.42
X3.03Y-2.53
X3.04Y-2.31
X3.09Y-2.53
X3.12Y-1.86
X3.12Y-2.12
X3.12Y-2.53
X3.1756Y-2.42
X3.21Y-3.28
X3.24Y-2.02
X3.25Y-3.28
X3.34Y-3.44
T4
X2.45Y-2.52
X2.74Y-2.78
T5
X2.15Y-1.9
X2.15Y-2.0
X2.15Y-2.1
X2.15Y-2.2
X2.15Y-2.3
X2.15Y-2.4
X2.15Y-2.5
X2.15Y-2.6
X2.15Y-2.7
X2.15Y-2.8
X2.15Y-2.9
X2.15Y-3.0
X2.15Y-3.1
X2.15Y-3.2
X2.15Y-3.3
X2.2406Y-1.649
X2.3406Y-1.649
X2.4406Y-1.649
X2.83Y-3.23
X2.869Y-2.8794
X2.869Y-2.9794
X2.869Y-3.0794
X2.93Y-3.23
X3.15Y-2.79
X3.15Y-2.9869
X3.45Y-1.9
X3.45Y-2.0
X3.45Y-2.1
X3.45Y-2.2
X3.45Y-2.3
X3.45Y-2.4
X3.45Y-2.5
X3.45Y-2.6
X3.45Y-2.7
X3.45Y-2.8
X3.45Y-2.9
X3.45Y-3.0
X3.45Y-3.1
X3.45Y-3.2
X3.45Y-3.3
T3
G00X2.4299Y-3.5561
M15
G01X2.4299Y-3.5994
M16
G05
G00X2.4299Y-3.7266
M15
G01X2.4299Y-3.7581
M16
G05
G00X2.7701Y-3.5561
M15
G01X2.7701Y-3.5994
M16
G05
G00X2.7701Y-3.7266
M15
G01X2.7701Y-3.7581
M16
G05
T0
M30
