%TF.GenerationSoftware,KiCad,Pcbnew,7.0.1*%
%TF.CreationDate,2023-07-15T13:48:22+02:00*%
%TF.ProjectId,SunSparkESP32,53756e53-7061-4726-9b45-535033322e6b,2.0*%
%TF.SameCoordinates,Original*%
%TF.FileFunction,Legend,Bot*%
%TF.FilePolarity,Positive*%
%FSLAX46Y46*%
G04 Gerber Fmt 4.6, Leading zero omitted, Abs format (unit mm)*
G04 Created by KiCad (PCBNEW 7.0.1) date 2023-07-15 13:48:22*
%MOMM*%
%LPD*%
G01*
G04 APERTURE LIST*
%ADD10C,0.150000*%
%ADD11C,0.120000*%
G04 APERTURE END LIST*
D10*
%TO.C,J7*%
X64595333Y-63470619D02*
X64595333Y-64184904D01*
X64595333Y-64184904D02*
X64642952Y-64327761D01*
X64642952Y-64327761D02*
X64738190Y-64423000D01*
X64738190Y-64423000D02*
X64881047Y-64470619D01*
X64881047Y-64470619D02*
X64976285Y-64470619D01*
X64214380Y-63470619D02*
X63547714Y-63470619D01*
X63547714Y-63470619D02*
X63976285Y-64470619D01*
%TO.C,JP2*%
X58237333Y-43658619D02*
X58237333Y-44372904D01*
X58237333Y-44372904D02*
X58284952Y-44515761D01*
X58284952Y-44515761D02*
X58380190Y-44611000D01*
X58380190Y-44611000D02*
X58523047Y-44658619D01*
X58523047Y-44658619D02*
X58618285Y-44658619D01*
X57761142Y-44658619D02*
X57761142Y-43658619D01*
X57761142Y-43658619D02*
X57380190Y-43658619D01*
X57380190Y-43658619D02*
X57284952Y-43706238D01*
X57284952Y-43706238D02*
X57237333Y-43753857D01*
X57237333Y-43753857D02*
X57189714Y-43849095D01*
X57189714Y-43849095D02*
X57189714Y-43991952D01*
X57189714Y-43991952D02*
X57237333Y-44087190D01*
X57237333Y-44087190D02*
X57284952Y-44134809D01*
X57284952Y-44134809D02*
X57380190Y-44182428D01*
X57380190Y-44182428D02*
X57761142Y-44182428D01*
X56808761Y-43753857D02*
X56761142Y-43706238D01*
X56761142Y-43706238D02*
X56665904Y-43658619D01*
X56665904Y-43658619D02*
X56427809Y-43658619D01*
X56427809Y-43658619D02*
X56332571Y-43706238D01*
X56332571Y-43706238D02*
X56284952Y-43753857D01*
X56284952Y-43753857D02*
X56237333Y-43849095D01*
X56237333Y-43849095D02*
X56237333Y-43944333D01*
X56237333Y-43944333D02*
X56284952Y-44087190D01*
X56284952Y-44087190D02*
X56856380Y-44658619D01*
X56856380Y-44658619D02*
X56237333Y-44658619D01*
%TO.C,U4*%
X65531904Y-44618619D02*
X65531904Y-45428142D01*
X65531904Y-45428142D02*
X65484285Y-45523380D01*
X65484285Y-45523380D02*
X65436666Y-45571000D01*
X65436666Y-45571000D02*
X65341428Y-45618619D01*
X65341428Y-45618619D02*
X65150952Y-45618619D01*
X65150952Y-45618619D02*
X65055714Y-45571000D01*
X65055714Y-45571000D02*
X65008095Y-45523380D01*
X65008095Y-45523380D02*
X64960476Y-45428142D01*
X64960476Y-45428142D02*
X64960476Y-44618619D01*
X64055714Y-44951952D02*
X64055714Y-45618619D01*
X64293809Y-44571000D02*
X64531904Y-45285285D01*
X64531904Y-45285285D02*
X63912857Y-45285285D01*
D11*
%TO.C,J7*%
X63180000Y-64008000D02*
G75*
G03*
X63180000Y-64008000I-950000J0D01*
G01*
%TO.C,JP2*%
X58910000Y-44404000D02*
X58910000Y-45004000D01*
X59610000Y-45704000D02*
X61010000Y-45704000D01*
X61010000Y-43704000D02*
X59610000Y-43704000D01*
X61710000Y-45004000D02*
X61710000Y-44404000D01*
X59610000Y-43704000D02*
G75*
G03*
X58910000Y-44404000I-1J-699999D01*
G01*
X58910000Y-45004000D02*
G75*
G03*
X59610000Y-45704000I699999J-1D01*
G01*
X61710000Y-44404000D02*
G75*
G03*
X61010000Y-43704000I-700000J0D01*
G01*
X61010000Y-45704000D02*
G75*
G03*
X61710000Y-45004000I0J700000D01*
G01*
%TO.C,U4*%
X72870000Y-62456000D02*
X56670000Y-62456000D01*
X72870000Y-62056000D02*
X72870000Y-62456000D01*
X72870000Y-46606000D02*
X73770000Y-46606000D01*
X72870000Y-46256000D02*
X72870000Y-46606000D01*
X72870000Y-46256000D02*
X56670000Y-46256000D01*
X56670000Y-62456000D02*
X56670000Y-62056000D01*
X56670000Y-46256000D02*
X56670000Y-46656000D01*
%TD*%
M02*
