%TF.GenerationSoftware,KiCad,Pcbnew,7.0.1*%
%TF.CreationDate,2023-05-28T11:45:34+02:00*%
%TF.ProjectId,SunSparkESP32,53756e53-7061-4726-9b45-535033322e6b,2.0*%
%TF.SameCoordinates,Original*%
%TF.FileFunction,Soldermask,Bot*%
%TF.FilePolarity,Negative*%
%FSLAX46Y46*%
G04 Gerber Fmt 4.6, Leading zero omitted, Abs format (unit mm)*
G04 Created by KiCad (PCBNEW 7.0.1) date 2023-05-28 11:45:34*
%MOMM*%
%LPD*%
G01*
G04 APERTURE LIST*
G04 Aperture macros list*
%AMRoundRect*
0 Rectangle with rounded corners*
0 $1 Rounding radius*
0 $2 $3 $4 $5 $6 $7 $8 $9 X,Y pos of 4 corners*
0 Add a 4 corners polygon primitive as box body*
4,1,4,$2,$3,$4,$5,$6,$7,$8,$9,$2,$3,0*
0 Add four circle primitives for the rounded corners*
1,1,$1+$1,$2,$3*
1,1,$1+$1,$4,$5*
1,1,$1+$1,$6,$7*
1,1,$1+$1,$8,$9*
0 Add four rect primitives between the rounded corners*
20,1,$1+$1,$2,$3,$4,$5,0*
20,1,$1+$1,$4,$5,$6,$7,0*
20,1,$1+$1,$6,$7,$8,$9,0*
20,1,$1+$1,$8,$9,$2,$3,0*%
%AMFreePoly0*
4,1,19,0.500000,-0.750000,0.000000,-0.750000,0.000000,-0.744911,-0.071157,-0.744911,-0.207708,-0.704816,-0.327430,-0.627875,-0.420627,-0.520320,-0.479746,-0.390866,-0.500000,-0.250000,-0.500000,0.250000,-0.479746,0.390866,-0.420627,0.520320,-0.327430,0.627875,-0.207708,0.704816,-0.071157,0.744911,0.000000,0.744911,0.000000,0.750000,0.500000,0.750000,0.500000,-0.750000,0.500000,-0.750000,
$1*%
%AMFreePoly1*
4,1,19,0.000000,0.744911,0.071157,0.744911,0.207708,0.704816,0.327430,0.627875,0.420627,0.520320,0.479746,0.390866,0.500000,0.250000,0.500000,-0.250000,0.479746,-0.390866,0.420627,-0.520320,0.327430,-0.627875,0.207708,-0.704816,0.071157,-0.744911,0.000000,-0.744911,0.000000,-0.750000,-0.500000,-0.750000,-0.500000,0.750000,0.000000,0.750000,0.000000,0.744911,0.000000,0.744911,
$1*%
G04 Aperture macros list end*
%ADD10C,0.650000*%
%ADD11O,1.000000X2.100000*%
%ADD12O,1.000000X1.800000*%
%ADD13R,1.700000X1.700000*%
%ADD14O,1.700000X1.700000*%
%ADD15C,1.500000*%
%ADD16R,2.000000X2.000000*%
%ADD17C,2.000000*%
%ADD18FreePoly0,180.000000*%
%ADD19FreePoly1,180.000000*%
%ADD20RoundRect,0.317500X1.157500X0.317500X-1.157500X0.317500X-1.157500X-0.317500X1.157500X-0.317500X0*%
G04 APERTURE END LIST*
D10*
%TO.C,J2*%
X63150000Y-91375000D03*
X68930000Y-91375000D03*
D11*
X61720000Y-90875000D03*
D12*
X61720000Y-95055000D03*
D11*
X70360000Y-90875000D03*
D12*
X70360000Y-95055000D03*
%TD*%
D13*
%TO.C,J5*%
X56911000Y-41885000D03*
D14*
X59451000Y-41885000D03*
X61991000Y-41885000D03*
%TD*%
D13*
%TO.C,J1*%
X71882000Y-82042000D03*
D14*
X74422000Y-82042000D03*
%TD*%
D15*
%TO.C,J8*%
X69596000Y-70612000D03*
%TD*%
D13*
%TO.C,J4*%
X87630000Y-83820000D03*
D14*
X87630000Y-81280000D03*
X87630000Y-78740000D03*
X87630000Y-76200000D03*
X87630000Y-73660000D03*
X87630000Y-71120000D03*
X87630000Y-68580000D03*
X87630000Y-66040000D03*
X87630000Y-63500000D03*
X87630000Y-60960000D03*
X87630000Y-58420000D03*
X87630000Y-55880000D03*
X87630000Y-53340000D03*
X87630000Y-50800000D03*
X87630000Y-48260000D03*
%TD*%
D16*
%TO.C,C3*%
X80010000Y-75866000D03*
D17*
X80010000Y-70866000D03*
%TD*%
D13*
%TO.C,J6*%
X54610000Y-83820000D03*
D14*
X54610000Y-81280000D03*
X54610000Y-78740000D03*
X54610000Y-76200000D03*
X54610000Y-73660000D03*
X54610000Y-71120000D03*
X54610000Y-68580000D03*
X54610000Y-66040000D03*
X54610000Y-63500000D03*
X54610000Y-60960000D03*
X54610000Y-58420000D03*
X54610000Y-55880000D03*
X54610000Y-53340000D03*
X54610000Y-50800000D03*
X54610000Y-48260000D03*
%TD*%
D13*
%TO.C,J3*%
X72873000Y-78217000D03*
D14*
X72873000Y-75677000D03*
X72873000Y-73137000D03*
%TD*%
D18*
%TO.C,JP2*%
X75214000Y-70358000D03*
D19*
X73914000Y-70358000D03*
%TD*%
D15*
%TO.C,J7*%
X62230000Y-64008000D03*
%TD*%
D20*
%TO.C,U4*%
X72295000Y-47356000D03*
X72295000Y-49356000D03*
X72295000Y-51356000D03*
X72295000Y-53356000D03*
X72295000Y-55356000D03*
X72295000Y-57356000D03*
X72295000Y-59356000D03*
X72295000Y-61356000D03*
X57245000Y-61356000D03*
X57245000Y-59356000D03*
X57245000Y-57356000D03*
X57245000Y-55356000D03*
X57245000Y-53356000D03*
X57245000Y-51356000D03*
X57245000Y-49356000D03*
X57245000Y-47356000D03*
%TD*%
M02*
