%TF.GenerationSoftware,KiCad,Pcbnew,7.0.1*%
%TF.CreationDate,2023-07-15T13:48:21+02:00*%
%TF.ProjectId,SunSparkESP32,53756e53-7061-4726-9b45-535033322e6b,2.0*%
%TF.SameCoordinates,Original*%
%TF.FileFunction,Copper,L3,Inr*%
%TF.FilePolarity,Positive*%
%FSLAX46Y46*%
G04 Gerber Fmt 4.6, Leading zero omitted, Abs format (unit mm)*
G04 Created by KiCad (PCBNEW 7.0.1) date 2023-07-15 13:48:21*
%MOMM*%
%LPD*%
G01*
G04 APERTURE LIST*
%TA.AperFunction,ComponentPad*%
%ADD10O,1.000000X2.100000*%
%TD*%
%TA.AperFunction,ComponentPad*%
%ADD11O,1.000000X1.800000*%
%TD*%
%TA.AperFunction,ComponentPad*%
%ADD12R,1.700000X1.700000*%
%TD*%
%TA.AperFunction,ComponentPad*%
%ADD13O,1.700000X1.700000*%
%TD*%
%TA.AperFunction,ComponentPad*%
%ADD14R,2.000000X2.000000*%
%TD*%
%TA.AperFunction,ComponentPad*%
%ADD15C,2.000000*%
%TD*%
%TA.AperFunction,ComponentPad*%
%ADD16C,1.500000*%
%TD*%
%TA.AperFunction,ViaPad*%
%ADD17C,0.800000*%
%TD*%
%TA.AperFunction,ViaPad*%
%ADD18C,0.600000*%
%TD*%
%TA.AperFunction,Conductor*%
%ADD19C,0.250000*%
%TD*%
%TA.AperFunction,Conductor*%
%ADD20C,0.500000*%
%TD*%
%TA.AperFunction,Conductor*%
%ADD21C,0.200000*%
%TD*%
G04 APERTURE END LIST*
D10*
%TO.N,GND*%
%TO.C,J2*%
X61720000Y-90875000D03*
D11*
X61720000Y-95055000D03*
D10*
X70360000Y-90875000D03*
D11*
X70360000Y-95055000D03*
%TD*%
D12*
%TO.N,GND1*%
%TO.C,J5*%
X56911000Y-41885000D03*
D13*
%TO.N,Net-(J5-Pin_2)*%
X59451000Y-41885000D03*
%TO.N,Net-(J5-Pin_3)*%
X61991000Y-41885000D03*
%TD*%
D12*
%TO.N,Net-(J1-Pin_1)*%
%TO.C,J1*%
X72644000Y-80772000D03*
D13*
%TO.N,GND*%
X75184000Y-80772000D03*
%TD*%
D12*
%TO.N,+BATT*%
%TO.C,J4*%
X87630000Y-83820000D03*
D13*
%TO.N,Net-(J4-Pin_2)*%
X87630000Y-81280000D03*
%TO.N,Net-(J4-Pin_3)*%
X87630000Y-78740000D03*
%TO.N,Net-(J4-Pin_4)*%
X87630000Y-76200000D03*
%TO.N,Net-(J4-Pin_5)*%
X87630000Y-73660000D03*
%TO.N,Net-(J4-Pin_6)*%
X87630000Y-71120000D03*
%TO.N,Net-(J4-Pin_7)*%
X87630000Y-68580000D03*
%TO.N,/GPIO21*%
X87630000Y-66040000D03*
%TO.N,/GPIO33*%
X87630000Y-63500000D03*
%TO.N,/GPIO34*%
X87630000Y-60960000D03*
%TO.N,/GPIO35*%
X87630000Y-58420000D03*
%TO.N,/GPIO36*%
X87630000Y-55880000D03*
%TO.N,/GPIO45*%
X87630000Y-53340000D03*
%TO.N,rst_btn*%
X87630000Y-50800000D03*
%TO.N,GND1*%
X87630000Y-48260000D03*
%TD*%
D14*
%TO.N,Net-(U1-BAT)*%
%TO.C,C3*%
X80010000Y-75866000D03*
D15*
%TO.N,GND*%
X80010000Y-70866000D03*
%TD*%
D12*
%TO.N,GND1*%
%TO.C,J6*%
X54610000Y-83820000D03*
D13*
%TO.N,Net-(J6-Pin_2)*%
X54610000Y-81280000D03*
%TO.N,MISO*%
X54610000Y-78740000D03*
%TO.N,SCLK*%
X54610000Y-76200000D03*
%TO.N,MOSI*%
X54610000Y-73660000D03*
%TO.N,CS0*%
X54610000Y-71120000D03*
%TO.N,AUX_SW*%
X54610000Y-68580000D03*
%TO.N,Net-(J6-Pin_8)*%
X54610000Y-66040000D03*
%TO.N,/DIO2*%
X54610000Y-63500000D03*
%TO.N,/DIO1*%
X54610000Y-60960000D03*
%TO.N,/DIO3*%
X54610000Y-58420000D03*
%TO.N,/DIO5*%
X54610000Y-55880000D03*
%TO.N,/DIO4*%
X54610000Y-53340000D03*
%TO.N,/DIO0*%
X54610000Y-50800000D03*
%TO.N,+BATT*%
X54610000Y-48260000D03*
%TD*%
D16*
%TO.N,Net-(J7-Pin_1)*%
%TO.C,J7*%
X62230000Y-64008000D03*
%TD*%
D17*
%TO.N,GND*%
X57658000Y-69088000D03*
X84836000Y-87376000D03*
D18*
X68580000Y-76708000D03*
D17*
X59182000Y-77470000D03*
D18*
X64770000Y-74930000D03*
X67647500Y-70949500D03*
%TO.N,Net-(U1-CBP)*%
X63754000Y-79756000D03*
X66802000Y-76708000D03*
%TO.N,rst_btn*%
X76200000Y-87122000D03*
X82296000Y-47136000D03*
X85852000Y-43942000D03*
X77978000Y-57404000D03*
D17*
%TO.N,+BATT*%
X77216000Y-58674000D03*
X60960000Y-44704000D03*
X76708000Y-61468000D03*
X82296000Y-51308000D03*
X79248000Y-53848000D03*
D18*
%TO.N,Net-(J4-Pin_3)*%
X69596000Y-59186498D03*
%TO.N,Net-(J6-Pin_2)*%
X69410000Y-61468000D03*
%TO.N,Net-(J6-Pin_8)*%
X65278000Y-56642000D03*
%TO.N,/DIO4*%
X68072000Y-52361503D03*
%TO.N,/DIO0*%
X68072000Y-51562000D03*
%TO.N,/DIO5*%
X69000000Y-56000000D03*
X68072000Y-53161006D03*
%TO.N,Net-(J4-Pin_4)*%
X82042000Y-55626000D03*
%TO.N,Net-(J4-Pin_5)*%
X82042000Y-54786000D03*
%TO.N,Net-(J4-Pin_6)*%
X82042000Y-53885503D03*
%TO.N,Net-(J4-Pin_2)*%
X70209503Y-61468000D03*
%TO.N,/GPIO21*%
X75438000Y-61468000D03*
%TO.N,/GPIO33*%
X77724000Y-61468000D03*
%TO.N,/GPIO34*%
X78760000Y-61448000D03*
%TO.N,/GPIO35*%
X79502000Y-58965503D03*
%TO.N,/GPIO36*%
X79502000Y-58166000D03*
%TO.N,Net-(J5-Pin_3)*%
X79489416Y-52180354D03*
%TO.N,PGOOD*%
X67934500Y-68580000D03*
X74168000Y-66548000D03*
%TO.N,Net-(J5-Pin_2)*%
X79502080Y-51380952D03*
%TO.N,Net-(U1-MPPT)*%
X61468000Y-83312000D03*
X65278000Y-76708000D03*
%TO.N,Net-(U1-REF)*%
X66802000Y-71374000D03*
X60578647Y-71500647D03*
%TO.N,Net-(U1-TERM)*%
X65024000Y-72273500D03*
X64999576Y-73935723D03*
D17*
%TO.N,USB_DN*%
X59182000Y-86868000D03*
D18*
X74676000Y-58674000D03*
%TO.N,USB_DP*%
X75692000Y-58674000D03*
D17*
X71628000Y-87630000D03*
D18*
%TO.N,ADC_BAT*%
X61722000Y-55626000D03*
X68084802Y-50743360D03*
%TO.N,boot_btn*%
X68072000Y-49784000D03*
X55372000Y-87376000D03*
%TO.N,Net-(U1-SETPG)*%
X65278000Y-67818000D03*
X66040000Y-71998500D03*
%TO.N,Net-(J2-CC1)*%
X64794381Y-89045049D03*
X60452000Y-93472000D03*
%TO.N,Net-(J2-CC2)*%
X67818000Y-88900000D03*
X71628000Y-93472000D03*
%TO.N,/DIO1*%
X55118000Y-49530000D03*
X68072000Y-54901503D03*
D17*
%TO.N,GND1*%
X79248000Y-47244000D03*
X65532000Y-61214000D03*
X60960000Y-52324000D03*
X76962000Y-64262000D03*
X78486000Y-64262000D03*
D18*
X82042000Y-49276000D03*
D17*
X79248000Y-64262000D03*
X76200000Y-64262000D03*
X76708000Y-53086000D03*
X62992000Y-44704000D03*
X80660000Y-61468000D03*
X68072000Y-47244000D03*
D18*
%TO.N,AUX_SW_CTRL*%
X68072000Y-57441503D03*
X61722000Y-60198000D03*
%TO.N,Net-(J4-Pin_7)*%
X82042000Y-53086000D03*
%TO.N,MISO*%
X68560000Y-61468000D03*
X70612000Y-49783500D03*
%TO.N,SCLK*%
X70374000Y-53356000D03*
X67710000Y-61443178D03*
%TO.N,MOSI*%
X70612000Y-51356000D03*
X68072000Y-59040509D03*
%TO.N,CS0*%
X74422000Y-56134000D03*
X68072000Y-58241006D03*
D17*
%TO.N,BCKP*%
X81788000Y-83820000D03*
X69342000Y-71628000D03*
D18*
%TO.N,/GPIO45*%
X82042000Y-50292000D03*
%TO.N,/DIO3*%
X68072000Y-53960509D03*
%TO.N,/DIO2*%
X56642000Y-45720000D03*
X65278000Y-55626000D03*
%TO.N,R_DIV_SUPPLY*%
X70221000Y-58561998D03*
X62362822Y-57658000D03*
%TD*%
D19*
%TO.N,rst_btn*%
X83312000Y-87122000D02*
X76200000Y-87122000D01*
X88805000Y-51975000D02*
X88805000Y-79226701D01*
X86455000Y-83979000D02*
X83312000Y-87122000D01*
X87333299Y-79915000D02*
X86455000Y-80793299D01*
X87630000Y-50800000D02*
X88805000Y-51975000D01*
X88805000Y-79226701D02*
X88116701Y-79915000D01*
X86455000Y-80793299D02*
X86455000Y-83979000D01*
X88116701Y-79915000D02*
X87333299Y-79915000D01*
D20*
%TO.N,+BATT*%
X82296000Y-51308000D02*
X81788000Y-51308000D01*
X81788000Y-51308000D02*
X79248000Y-53848000D01*
D19*
%TO.N,/GPIO21*%
X75438000Y-61468000D02*
X77216000Y-63246000D01*
X77216000Y-63246000D02*
X84836000Y-63246000D01*
X84836000Y-63246000D02*
X87630000Y-66040000D01*
%TO.N,/GPIO33*%
X78994000Y-62738000D02*
X86868000Y-62738000D01*
X77724000Y-61468000D02*
X78994000Y-62738000D01*
X86868000Y-62738000D02*
X87630000Y-63500000D01*
%TO.N,/GPIO34*%
X86397000Y-62193000D02*
X87630000Y-60960000D01*
X79505000Y-62193000D02*
X86397000Y-62193000D01*
X78760000Y-61448000D02*
X79505000Y-62193000D01*
%TO.N,/GPIO35*%
X87084497Y-58965503D02*
X87630000Y-58420000D01*
X79502000Y-58965503D02*
X87084497Y-58965503D01*
%TO.N,/GPIO36*%
X85344000Y-58166000D02*
X87630000Y-55880000D01*
X79502000Y-58166000D02*
X85344000Y-58166000D01*
D21*
%TO.N,USB_DN*%
X73834751Y-59515249D02*
X73834751Y-65396350D01*
X64190315Y-86868000D02*
X59182000Y-86868000D01*
X70974000Y-68257101D02*
X70974000Y-80084314D01*
X73834751Y-65396350D02*
X70974000Y-68257101D01*
X70974000Y-80084314D02*
X64190315Y-86868000D01*
X74676000Y-58674000D02*
X73834751Y-59515249D01*
%TO.N,USB_DP*%
X70732000Y-86734000D02*
X71628000Y-87630000D01*
X70732000Y-80892000D02*
X70732000Y-86734000D01*
X74422000Y-65445471D02*
X71374000Y-68493471D01*
X74422000Y-59944000D02*
X74422000Y-65445471D01*
X71374000Y-80250000D02*
X70732000Y-80892000D01*
X75692000Y-58674000D02*
X74422000Y-59944000D01*
X71374000Y-68493471D02*
X71374000Y-80250000D01*
D19*
%TO.N,ADC_BAT*%
X66604640Y-50743360D02*
X61722000Y-55626000D01*
X68084802Y-50743360D02*
X66604640Y-50743360D01*
%TO.N,boot_btn*%
X56896000Y-85852000D02*
X55372000Y-87376000D01*
X56896000Y-62484000D02*
X56896000Y-85852000D01*
X66680116Y-49784000D02*
X61097000Y-55367116D01*
X68072000Y-49784000D02*
X66680116Y-49784000D01*
X61097000Y-55367116D02*
X61097000Y-58283000D01*
X61097000Y-58283000D02*
X56896000Y-62484000D01*
%TO.N,Net-(U1-SETPG)*%
X65278000Y-71236500D02*
X66040000Y-71998500D01*
X65278000Y-67818000D02*
X65278000Y-71236500D01*
%TO.N,Net-(J2-CC1)*%
X64794381Y-89045049D02*
X64794381Y-90720568D01*
X64794381Y-90720568D02*
X62042949Y-93472000D01*
X62042949Y-93472000D02*
X60452000Y-93472000D01*
%TO.N,Net-(J2-CC2)*%
X71628000Y-93472000D02*
X70037051Y-93472000D01*
X70037051Y-93472000D02*
X67818000Y-91252949D01*
X67818000Y-91252949D02*
X67818000Y-88900000D01*
%TO.N,SCLK*%
X70374000Y-53483387D02*
X67447000Y-56410387D01*
X67447000Y-61180178D02*
X67710000Y-61443178D01*
X67447000Y-56410387D02*
X67447000Y-61180178D01*
X70374000Y-53356000D02*
X70374000Y-53483387D01*
%TO.N,CS0*%
X68758994Y-58241006D02*
X68072000Y-58241006D01*
X70866000Y-56134000D02*
X68758994Y-58241006D01*
X74422000Y-56134000D02*
X70866000Y-56134000D01*
%TO.N,/GPIO45*%
X84582000Y-50292000D02*
X87630000Y-53340000D01*
X82042000Y-50292000D02*
X84582000Y-50292000D01*
%TO.N,R_DIV_SUPPLY*%
X70221000Y-60595613D02*
X70221000Y-58561998D01*
X70834503Y-61726884D02*
X70834503Y-61209116D01*
X70834503Y-61209116D02*
X70221000Y-60595613D01*
X62362822Y-59070127D02*
X65522695Y-62230000D01*
X62362822Y-57658000D02*
X62362822Y-59070127D01*
X65522695Y-62230000D02*
X70331387Y-62230000D01*
X70331387Y-62230000D02*
X70834503Y-61726884D01*
%TD*%
M02*
